<svg width="174" height="189" fill="none" xmlns="http://www.w3.org/2000/svg"><path d="M173.342 183.207c0 .063-38.808.108-86.667.108-47.86 0-86.675-.045-86.675-.108 0-.062 38.799-.107 86.675-.107s86.667.049 86.667.107z" fill="#263238"/><path d="m125.085 124.667 33.227 36.264c-2.88 15.545-18.504 25.689-34.904 22.652-16.399-3.037-27.36-18.097-24.477-33.646 2.883-15.55 9.754-28.307 26.154-25.27z" fill="#AE7461"/><path d="m151.025 142.42 5.468 5.854s7.625 20.328-8.518 28.323c0 0-10.338 6.638-25.693-1.195l-6.223-6.418-7.525-4.671s-8.09-12.447-6.817-19.342c1.274-6.895 7.41-17.711 7.41-17.711l7.285-3.206 8.339-.449 2.037 2.075s13.209.17 23.112 12.823l1.125 3.917z" fill="#6F4439"/><path d="M129.403 128.622s8.742 1.02 17.317 10.33l2.157 3.663 4.651 6.87s8.194 17.251-6.538 24.532c0 0-9.439 6.049-23.449-1.091l-5.675-5.862-8.036-5.493s-6.223-10.14-5.062-16.425c0 0-.24-11.513 9.26-15.077 9.501-3.563 15.375-1.447 15.375-1.447z" fill="#FAFAFA"/><path d="m145.201 149.227-.328 1.751s3.211 3.473 3.091 5.352c-.12 1.879-.062 7.671-1.68 9.069a8.068 8.068 0 0 1-3.709 1.693s-3.684 2.149-9.02.369c-5.335-1.78-12.184-5.767-12.184-5.767l-7.468-11.01-1.51-3.573 1.356-7.334s2.614-3.709 4.178-4.211c1.564-.502 7.219-1.046 7.634-.855.415.191 8.567 3.286 8.567 3.286l5.559 3.634 5.514 7.596z" fill="#F5F5F5"/><path d="m142.164 166.084-7.829-1.407-8.986-5.235-1.157-6.485-1.245-2.161-5.202-5.709.19-9.513a16.766 16.766 0 0 0-4.177 4.211l-1.365 7.327 1.493 3.564 7.468 11.01s8.534 4.85 13.102 6.037a12.25 12.25 0 0 0 8.102-.639 6.992 6.992 0 0 0 4.103-2.166l-4.497 1.166z" fill="#E0E0E0"/><path d="m144.874 150.978-7.771 10.604 7.7-12.898.398.543-.327 1.751zM151.029 145.821c-.07-.108-4.443 1.622-4.194 1.294.249-.328 2.946-3.14 2.946-3.14l1.248 1.846zM131.726 129.157c.589.207-7.36 1.356-7.36 1.356l-4.825-.414-7.563 2.103-3.049 1.705-1.85 2.166s1.746-3.792 5.613-5.46c3.866-1.668 11.193-4.211 19.034-1.456z" fill="#E0E0E0"/><path opacity=".3" d="m117.847 167.068-1.779 1.917 6.214 6.418.967-2.759-5.402-5.576zM109.128 127.26l7.285-3.206 8.339-.449 2.037 2.075-6.584.734-5.322 2.004-1.191 1.776c-9.505 3.563-8.949 14.935-8.949 14.935-1.166 6.285 5.062 16.425 5.062 16.425l-1.403 2.667s-7.965-12.384-6.692-19.266c1.274-6.883 7.418-17.695 7.418-17.695zM149.902 138.512s-2.701 1.282-2.663 1.348l1.97 3.269 1.817-.709-1.124-3.908z" fill="#000"/><path d="M145.201 149.228s-.037-.041-.104-.129l-.286-.377-1.087-1.477-4.078-5.572-5.568-3.622-4.621-1.725-2.514-.963-1.303-.498a.771.771 0 0 0-.311-.062 3.386 3.386 0 0 0-.349 0c-.236 0-.473 0-.713.029-.955.058-1.929.153-2.904.27-.975.116-2 .257-2.996.485-.124.029-.249.066-.369.1-.12.033-.228.091-.34.149a5.28 5.28 0 0 0-.631.415c-.404.337-.784.701-1.137 1.091a26.181 26.181 0 0 0-2.032 2.51v-.042c-.415 2.344-.888 4.813-1.357 7.339v-.062l1.493 3.564v-.021l2.075 3.07 5.393 7.945-.033-.033a100.765 100.765 0 0 0 5.472 2.904c1.809.888 3.597 1.701 5.393 2.381a14.717 14.717 0 0 0 5.34 1.174c1.692.046 3.37-.313 4.895-1.045a8.067 8.067 0 0 0 3.199-1.303c.992-.589 1.303-1.713 1.539-2.701.339-1.849.524-3.724.556-5.604 0-.415.05-.83.046-1.22a3.184 3.184 0 0 0-.253-1.083 10.536 10.536 0 0 0-.971-1.759 22.583 22.583 0 0 0-1.821-2.336c.116-.593.203-1.024.257-1.319.054-.295.095-.415.095-.415s0 .137-.066.415c-.067.278-.129.734-.233 1.332v-.021c.672.73 1.292 1.507 1.855 2.323.391.555.725 1.149.996 1.772.155.354.246.734.269 1.12 0 .415-.033.801-.041 1.224a33.8 33.8 0 0 1-.527 5.634 7.374 7.374 0 0 1-.494 1.531 2.263 2.263 0 0 1-.199.369l-.108.178c-.041.058-.095.108-.141.162a1.762 1.762 0 0 1-.311.299c-.108.091-.22.178-.34.261a8.185 8.185 0 0 1-3.269 1.34h.033a10.797 10.797 0 0 1-4.991 1.046 15.02 15.02 0 0 1-5.393-1.174c-1.788-.681-3.585-1.49-5.394-2.382a110.534 110.534 0 0 1-5.488-2.904h-.021l-5.394-7.936-2.074-3.075-1.493-3.563v-.058c.468-2.527.925-4.979 1.36-7.34v-.041a27.47 27.47 0 0 1 2.075-2.531c.36-.394.746-.762 1.157-1.103.209-.168.431-.319.664-.453.12-.062.249-.112.373-.161.125-.05.258-.075.382-.104 1.021-.232 2.029-.361 3.02-.485a45.17 45.17 0 0 1 2.933-.266c.241 0 .478-.025.718-.029h.361c.13 0 .259.027.378.079l1.298.502 2.51.966 4.643 1.789 5.551 3.646c1.73 2.407 3.099 4.311 4.036 5.622l1.062 1.489.27.382.058.087z" fill="#263238"/><path d="M137.444 161.105c-.05-.037 1.552-2.257 3.576-4.978 2.025-2.722 3.701-4.871 3.734-4.834.033.038-1.552 2.257-3.576 4.979-2.025 2.721-3.688 4.871-3.734 4.833zM130.474 160.625c1.026.053 2.046.178 3.054.373 1.02.12 2.029.316 3.02.585a22.076 22.076 0 0 1-3.053-.373 22.502 22.502 0 0 1-3.021-.585zM124.218 152.775c.26.852.452 1.723.572 2.606.188.87.308 1.754.357 2.643a16.713 16.713 0 0 1-.572-2.606c-.191-.87-.31-1.753-.357-2.643z" fill="#263238"/><path d="M100.587 161.277a1.718 1.718 0 0 1-.133-.415 16.968 16.968 0 0 1-.257-1.157 24.456 24.456 0 0 1-.179-7.8c.071-.498.142-.896.204-1.17.017-.143.056-.283.116-.415.033 0-.062.614-.166 1.606a30.087 30.087 0 0 0 .178 7.754c.146.983.27 1.589.237 1.597zM101.694 164.677a4.96 4.96 0 0 1-.282-1.091 27.13 27.13 0 0 1-.511-5.394c-.017-.375.008-.75.075-1.12.054.371.081.746.079 1.12a51.184 51.184 0 0 0 .506 5.369c.074.368.119.741.133 1.116zM102.24 165.17a13.71 13.71 0 0 1-.311-4.979c.062 0 .054 1.125.141 2.49.087 1.365.232 2.481.17 2.489zM103.433 166.823a8.11 8.11 0 0 1-.469-3.792c.062 0 .091.855.224 1.896.113.628.195 1.26.245 1.896zM122.971 182.207c0-.033.573.145 1.498.357a22.18 22.18 0 0 0 3.663.519c1.233.065 2.47.026 3.697-.117.946-.108 1.522-.224 1.531-.191a1.484 1.484 0 0 1-.415.125c-.258.066-.639.145-1.112.22a18.224 18.224 0 0 1-7.422-.407c-.461-.128-.83-.245-1.079-.34a1.423 1.423 0 0 1-.361-.166zM123.408 181.566c0-.063 1.183.215 2.647.344 1.465.129 2.66.079 2.664.141a8.482 8.482 0 0 1-2.684.075 8.603 8.603 0 0 1-2.627-.56zM122.599 180.65a14.99 14.99 0 0 1 1.871.078c.625-.007 1.25.024 1.871.092a5.603 5.603 0 0 1-1.879.124 5.75 5.75 0 0 1-1.863-.294zM105.145 172.049a1.381 1.381 0 0 1-.129-.345c-.07-.219-.153-.551-.24-.958a17.172 17.172 0 0 1-.075-6.509c.079-.415.153-.739.22-.967.02-.121.061-.237.12-.344.033 0-.07.514-.187 1.336a22.108 22.108 0 0 0-.211 3.232c.015 1.08.111 2.157.286 3.223.133.822.249 1.323.216 1.332zM106.292 172.261a3.458 3.458 0 0 1-.228-.883 15.646 15.646 0 0 1-.236-2.191c-.03-.735-.009-1.471.062-2.203.014-.305.067-.608.157-.9.067 0-.074 1.39 0 3.095.075 1.705.312 3.07.245 3.082zM107.968 173.366a6.864 6.864 0 0 1-1.245-4.485c.067 0 .091 1.054.44 2.294.348 1.241.863 2.157.805 2.191zM108.868 174.825a26.052 26.052 0 0 1-1.137-4.563 25.875 25.875 0 0 1 1.137 4.563z" fill="#6F4439"/><path d="M27.223 57.918A40.529 40.529 0 0 0 .965 48.554C12.06 53.765 23.696 65.98 29.567 76.728l-2.345-18.81z" fill="#455A64"/><path d="M27.223 57.917s.021.108.054.332c.034.224.075.564.137.991.112.884.282 2.162.494 3.792.415 3.29 1.02 7.995 1.746 13.691l.059.456-.225-.415c-3.435-6.19-8.79-13.138-15.765-19.353a67.15 67.15 0 0 0-6.322-4.979 50.207 50.207 0 0 0-6.489-3.788l-.39-.19h.415c2.009-.011 4.015.128 6.003.415.954.124 1.871.31 2.767.485.897.174 1.764.415 2.59.656a39.986 39.986 0 0 1 8.33 3.401 39.267 39.267 0 0 1 4.937 3.19c.552.416.95.76 1.244.98l.312.257a.916.916 0 0 1 .1.091l-.117-.083-.32-.244c-.286-.212-.684-.552-1.244-.95a41.734 41.734 0 0 0-4.979-3.133 40.679 40.679 0 0 0-8.297-3.348c-.83-.249-1.693-.415-2.58-.639-.888-.224-1.81-.356-2.76-.477a40.647 40.647 0 0 0-5.97-.39l.042-.19a50.103 50.103 0 0 1 6.522 3.795 66.428 66.428 0 0 1 6.343 5c6.99 6.223 12.347 13.205 15.765 19.424l-.166.054c-.688-5.68-1.244-10.372-1.659-13.666-.195-1.635-.349-2.904-.452-3.804-.05-.415-.087-.768-.112-1.004-.025-.237-.013-.357-.013-.357z" fill="#263238"/><path d="M38.829 69.839c-.535-3.054-2.365-5.738-4.514-7.97-2.149-2.232-4.634-4.115-6.874-6.256a40.093 40.093 0 0 1-9.248-13.463c1.058 7.178 4.149 17.545 9.102 23.864 0 0 9.567 8.123 10.526 8.434.958.311 1.634.502 1.634.502l-.626-5.111z" fill="#455A64"/><path d="M38.827 69.839s0 .112.053.336c.054.224.08.56.137.987.112.88.278 2.158.486 3.788v.079l-.08-.02-1.347-.416a2.073 2.073 0 0 1-.702-.32c-.22-.144-.44-.298-.66-.464a89.642 89.642 0 0 1-2.812-2.19 400.4 400.4 0 0 1-6.684-5.535 33.932 33.932 0 0 1-2.543-3.846 48.084 48.084 0 0 1-2.182-4.443 64.19 64.19 0 0 1-1.842-4.9 67.12 67.12 0 0 1-1.49-5.252c-.435-1.8-.83-3.696-1.074-5.464l-.124-.83.327.785a40.18 40.18 0 0 0 7.393 11.55 48.425 48.425 0 0 0 4.299 4.107c1.402 1.22 2.709 2.352 3.82 3.464a22.74 22.74 0 0 1 2.743 3.224c.61.87 1.125 1.801 1.539 2.78.258.613.464 1.247.614 1.895.054.224.075.394.1.51a.938.938 0 0 1 .024.175 1.586 1.586 0 0 1-.045-.17c-.03-.112-.058-.282-.116-.502a12.773 12.773 0 0 0-.648-1.88 15.425 15.425 0 0 0-1.543-2.734 23.498 23.498 0 0 0-2.75-3.182c-1.117-1.103-2.423-2.223-3.834-3.439a49.175 49.175 0 0 1-4.327-4.107 40.056 40.056 0 0 1-7.468-11.617l.203-.053a61.933 61.933 0 0 0 1.075 5.438 71.818 71.818 0 0 0 1.481 5.24 62.072 62.072 0 0 0 1.83 4.883 45.704 45.704 0 0 0 2.165 4.427 33.778 33.778 0 0 0 2.519 3.83 535.241 535.241 0 0 0 6.638 5.554 64.48 64.48 0 0 0 2.796 2.207c.215.166.415.32.647.465.207.146.439.251.684.311l1.34.415-.066.058c-.186-1.634-.336-2.904-.44-3.792-.045-.415-.083-.759-.107-.991-.025-.233-.03-.361-.03-.361z" fill="#263238"/><path d="M38.77 72.603a5.488 5.488 0 0 0-1.573-2.66c-1.527-1.563-3.48-2.63-5.447-3.58-1.967-.95-3.991-1.808-5.784-3.053a12.823 12.823 0 0 1-1.979-1.693l2.826 4.692a76.235 76.235 0 0 1 11.616 10.663c.054-1.473.635-2.934.34-4.369z" fill="#000" opacity=".3"/><path d="M33.384 105.016s-3.518 1.759-4.776 3.182c-1.256 1.423-1.244 1.51-1.841 1.427a12.678 12.678 0 0 0-1.93.021s.672.647.336 1.987-3.099 4.439-2.68 7.289c0 0-3.352 1.759-3.518 5.195-.166 3.435-2.26 4.02-2.26 4.02a7.215 7.215 0 0 1 .92 4.103c-.17 2.431.668 6.368 2.178 6.787 0 0-2.85 1.174-2.597 6.617.253 5.443-1.593 5.618-1.593 5.618a5.892 5.892 0 0 1 1.763 3.85c.083 2.344.17 5.36 1.34 6.198a4.74 4.74 0 0 0 .672 3.771c1.245 2.008 2.261 3.937 2.008 5.696a5.85 5.85 0 0 1 2.349 2.074c1.087 1.594 3.684 3.772 4.94 3.436 0 0 .673 2.767 2.432 4.107 1.759 1.34 1.17 2.178 1.17 2.178s2.178-.83 3.269-.415c1.091.415 3.435.921 4.273.415 0 0 .751 2.074 4.356 2.261 3.605.187 7.12.755 9.215-.83 0 0 2.26-1.174 3.6-.17l1.34 1.008s.254-1.174 2.013-2.012c1.759-.838 5.194.755 6.783-2.427a5.342 5.342 0 0 0 3.095-.929c1.34-1.008 1.174-.83 2.178-1.174a4.882 4.882 0 0 1 1.842-.253c.12-.555.318-1.09.59-1.589.501-1.008 2.928-2.265 3.098-4.775 0 0 2.344-1.594 3.1-4.021.754-2.427 1.173-3.688 2.011-4.107.098-.975.098-1.958 0-2.933-.17-1.506.83-6.364-.672-7.285a5.573 5.573 0 0 0 1.34-3.352c.166-2.178-.166-4.273 1.174-5.443 0 0-1.423-.589-1.244-3.104.178-2.514-1.174-5.779-1.66-5.945-.485-.166 1.51 0 1.593-4.273.083-4.273.502-5.779.502-5.779s-1.842-1.174-1.929-2.68c-.087-1.506-2.26-5.319-3.958-5.053 0 0 .693-2.402-1.66-4.916-2.351-2.515-7.467-10.306-13.404-11.982-5.936-1.676-19.851-1.34-20.523-.92-.672.418-9.235 5.127-9.235 5.127z" fill="#DBBE8F"/><path d="m78.241 117.749.022-.118c-.04 0-.08.002-.121.006l.1.112zM26.037 146.935c-.045 0-.05-.742-.332-1.896a10.462 10.462 0 0 0-.692-1.954 12.508 12.508 0 0 0-1.345-2.161 24.33 24.33 0 0 0-.83-1.012 5.31 5.31 0 0 0-.883-.83 2.083 2.083 0 0 0-.975-.415 1.853 1.853 0 0 0-.917.124 4.232 4.232 0 0 0-1.15.776c-.12.123-.25.235-.39.336a2.09 2.09 0 0 1 .333-.415 3.843 3.843 0 0 1 1.149-.854 1.98 1.98 0 0 1 .996-.162c.386.047.754.189 1.07.415.34.25.65.539.925.859.295.315.577.659.863 1.02.527.686.979 1.426 1.348 2.207a9.6 9.6 0 0 1 .855 3.415c.01.183.002.366-.025.547zM53.897 165.33c.084.278.123.568.116.859a8.397 8.397 0 0 1-.88 4.078c-.113.269-.27.517-.464.734.39-.894.708-1.818.95-2.763.168-.96.261-1.933.278-2.908z" fill="#263238"/><path d="M55.94 172.359a3.737 3.737 0 0 1-.714-.83 8.53 8.53 0 0 1-1.465-5.082 3.77 3.77 0 0 1 .158-1.099c-.06 1.244.068 2.49.378 3.696.56 1.983 1.709 3.273 1.643 3.315zM32.062 135.003a1.455 1.455 0 0 1-.062-.295l-.15-.83c-.137-.73-.34-1.784-.684-3.066a36.518 36.518 0 0 0-1.494-4.41 7.727 7.727 0 0 0-.589-1.19 2.817 2.817 0 0 0-.942-.959 1.902 1.902 0 0 0-1.336-.203 3.51 3.51 0 0 0-1.31.606 10.72 10.72 0 0 0-3.32 4.497 19.594 19.594 0 0 0-1.19 4.48c-.2 1.311-.295 2.386-.37 3.124-.037.353-.066.635-.087.851-.003.1-.019.198-.045.294a1.808 1.808 0 0 1 0-.298c0-.216.029-.502.045-.855.05-.742.125-1.817.307-3.136a18.932 18.932 0 0 1 1.158-4.535 10.79 10.79 0 0 1 3.381-4.601c.416-.306.89-.523 1.394-.639a2.12 2.12 0 0 1 1.485.233c.415.257.761.611 1.008 1.033.236.39.437.799.602 1.224a34.15 34.15 0 0 1 1.452 4.447c.328 1.29.51 2.356.622 3.091.054.369.092.655.108.83.016.101.022.204.017.307z" fill="#263238"/><path d="M27.82 136.028a5.388 5.388 0 0 1-.663-1.074 17.322 17.322 0 0 1-1.174-2.817c-.029-.087-.054-.178-.083-.261h.208c-.254.926-.611 1.821-1.067 2.667a4.36 4.36 0 0 1-.639.983c.151-.358.32-.708.506-1.049.408-.855.74-1.743.992-2.655l.1-.357.108.352.082.258a23.8 23.8 0 0 0 1.104 2.817c.197.369.372.748.527 1.136zM43.003 124.336a.978.978 0 0 1-.1-.24c-.053-.162-.136-.415-.248-.705a22.432 22.432 0 0 0-3.253-5.966 20.364 20.364 0 0 0-1.56-1.817 5.081 5.081 0 0 0-.97-.785 2.325 2.325 0 0 0-1.183-.373 2.454 2.454 0 0 0-1.199.353 6.334 6.334 0 0 0-1.041.693 4.432 4.432 0 0 0-.83.854l-.713.95a15.43 15.43 0 0 0-2.075 3.481 16.992 16.992 0 0 0-.83 2.618c-.083.315-.128.564-.17.73a1.18 1.18 0 0 1-.074.253c.003-.088.012-.175.029-.261.029-.17.062-.415.132-.739.171-.906.424-1.794.756-2.655.231-.594.508-1.17.83-1.722.348-.597.767-1.199 1.219-1.821l.697-.954c.25-.338.545-.641.875-.9a6.675 6.675 0 0 1 1.079-.718c.393-.236.84-.366 1.298-.378.462.018.91.162 1.295.415.368.235.707.514 1.008.83.56.586 1.086 1.205 1.572 1.854a21.767 21.767 0 0 1 2.137 3.494c.4.83.745 1.685 1.033 2.559.104.312.17.556.212.722.033.073.058.15.074.228z" fill="#263238"/><path d="M37.098 124.384a8.079 8.079 0 0 1-.465-1.245c-.261-.771-.605-1.837-.975-3.02v-.025h.208a7.564 7.564 0 0 1-1.49 2.805c-.205.247-.43.477-.672.689-.17.149-.278.219-.286.207-.008-.012.353-.357.83-.992a8.287 8.287 0 0 0 1.398-2.771l.095-.348.112.348v.021c.37 1.182.693 2.257.917 3.041.146.42.256.851.328 1.29zM42.645 109.658c0 .033-.39.17-.954.552a11.292 11.292 0 0 0-2.004 1.73 7.224 7.224 0 0 0-1.452 2.186 2.752 2.752 0 0 0-.166.772v.299a.875.875 0 0 1-.075-.299c-.016-.281.02-.562.104-.83a6.462 6.462 0 0 1 1.44-2.282 9.447 9.447 0 0 1 2.074-1.717c.31-.211.663-.352 1.033-.411zM34.708 114.389c-.037 0 .087-.614.187-1.605A7.647 7.647 0 0 0 34.43 109a4.385 4.385 0 0 0-1.245-1.66 3.78 3.78 0 0 0-1.526-.738 3.864 3.864 0 0 0-1.585.025c.127-.077.268-.13.415-.154a3.028 3.028 0 0 1 1.203-.02 3.73 3.73 0 0 1 1.622.734 4.447 4.447 0 0 1 1.311 1.742 7.333 7.333 0 0 1 .415 3.892c-.066.498-.15.896-.212 1.17-.024.137-.064.27-.12.398zM25.042 125c-.038 0 .09-.415.132-1.087a5.859 5.859 0 0 0-.05-1.174 6.787 6.787 0 0 0-.373-1.386 6.556 6.556 0 0 0-.693-1.244 5.831 5.831 0 0 0-.775-.88c-.498-.456-.872-.659-.83-.693.041-.033.104.029.274.117.24.129.467.283.676.46.309.26.587.553.83.875.295.402.54.838.73 1.299.181.463.306.947.373 1.44.046.402.046.809 0 1.211a3.791 3.791 0 0 1-.17.801c-.07.17-.108.265-.124.261zM27.27 116.235c-.002-.834.066-1.667.204-2.49l.183.088-.142.145a6.547 6.547 0 0 1-1.547 1.141c-.226.14-.477.237-.738.286a12.87 12.87 0 0 0 2.132-1.581l.141-.141.224-.228-.041.315c-.07.832-.21 1.656-.415 2.465zM19.732 128.715c-.028-.753.014-1.508.124-2.253l.212.041-.025.079a4.438 4.438 0 0 1-.789 1.477c-.273.332-.49.49-.506.469a7.832 7.832 0 0 0 1.087-2.008l.025-.075.212.042a11.45 11.45 0 0 1-.34 2.228zM19.876 150.784a2.308 2.308 0 0 1-.415-.726 8.15 8.15 0 0 1-.514-1.929c0-.1 0-.199-.033-.295h.211a5.328 5.328 0 0 1-.493 1.726 1.74 1.74 0 0 1-.415.606 8.974 8.974 0 0 0 .718-2.353l.103-.883.108.883.037.287c.166.91.398 1.807.693 2.684zM20.892 165.634c-.041 0 0-.668-.075-1.739a17.142 17.142 0 0 0-2.526-7.882c-.564-.913-.98-1.431-.95-1.456.12.101.227.216.32.344.273.327.526.671.758 1.029a15.526 15.526 0 0 1 2.552 7.957c.023.426.023.852 0 1.278a2.32 2.32 0 0 1-.079.469z" fill="#263238"/><path d="M33.711 165.841c-.025 0 0-.415-.1-1.212a16.596 16.596 0 0 0-2.71-7.646 16.236 16.236 0 0 0-1.816-2.236 4.882 4.882 0 0 0-1.182-.921c-.442-.25-.96-.33-1.456-.224a2.778 2.778 0 0 0-1.286.784 6.948 6.948 0 0 0-.934 1.191c-.527.805-.98 1.656-1.352 2.543a26.437 26.437 0 0 0-1.465 4.675 31.002 31.002 0 0 0-.527 3.27c-.041.385-.062.688-.078.896a1.594 1.594 0 0 1-.038.315c-.01-.105-.01-.21 0-.315 0-.208 0-.515.038-.905.085-1.106.238-2.206.46-3.294a25.198 25.198 0 0 1 1.431-4.717c.362-.902.807-1.768 1.328-2.589.276-.441.598-.852.962-1.224a3.035 3.035 0 0 1 1.386-.829 2.286 2.286 0 0 1 1.606.244c.462.254.882.579 1.244.963a16.297 16.297 0 0 1 3.904 6.75c.305 1.068.497 2.165.573 3.273.029.394.029.697.025.905.006.101.001.202-.013.303z" fill="#263238"/><path d="M45.08 175.523a1.69 1.69 0 0 1-.045-.332c0-.216-.054-.535-.108-.946a22.61 22.61 0 0 0-.693-3.435 26.657 26.657 0 0 0-.771-2.29 20.147 20.147 0 0 0-1.133-2.526 6.994 6.994 0 0 0-1.929-2.307 4.146 4.146 0 0 0-3.024-.83 4.56 4.56 0 0 0-2.701 1.639 8.17 8.17 0 0 0-1.465 2.647c-.722 1.829-1.431 3.443-2.016 4.808l-1.402 3.224-.386.871a1.55 1.55 0 0 1-.145.303c.027-.108.063-.214.108-.316.083-.224.199-.522.344-.892.328-.788.78-1.891 1.34-3.248.56-1.357 1.245-2.995 1.975-4.821a8.331 8.331 0 0 1 1.485-2.713 4.741 4.741 0 0 1 2.83-1.718 4.34 4.34 0 0 1 3.181.892 7.243 7.243 0 0 1 1.984 2.382c.43.827.806 1.682 1.124 2.559.287.759.537 1.532.747 2.315.31 1.134.521 2.291.634 3.46.038.415.058.739.063.955.01.106.01.213.004.319z" fill="#263238"/><path d="M53.854 183.476a8.761 8.761 0 0 1-.12-.884 13.145 13.145 0 0 0-.568-2.36 12.88 12.88 0 0 0-1.618-3.228 12.64 12.64 0 0 0-3.112-3.17h.091l-.73.233c-.767.279-1.51.622-2.22 1.024a15.17 15.17 0 0 0-1.866 1.316c-.991.827-1.861 1.789-2.585 2.858-.485.723-.902 1.49-1.245 2.29-.236.573-.348.896-.369.888.015-.082.036-.162.062-.241.054-.153.117-.39.233-.676.316-.822.72-1.608 1.203-2.344a13.68 13.68 0 0 1 2.584-2.929 13.016 13.016 0 0 1 4.15-2.39l.742-.236h.05l.041.029a12.82 12.82 0 0 1 4.746 6.53c.251.78.421 1.583.506 2.398.038.286.034.51.042.66 0 .077-.006.155-.017.232zM71.03 178.642c.013-.368 0-.737-.037-1.103a6.89 6.89 0 0 0-1.033-2.792 15.833 15.833 0 0 0-2.987-3.299c-.316-.282-.627-.58-.971-.829a2.895 2.895 0 0 0-1.158-.581 2.03 2.03 0 0 0-1.294.203 6.105 6.105 0 0 0-1.178.784 16.794 16.794 0 0 0-2.075 1.9 17.318 17.318 0 0 0-1.66 2.037 18.968 18.968 0 0 0-2.14 3.908 20.08 20.08 0 0 0-.913 2.871c-.087.349-.128.623-.174.805a1.238 1.238 0 0 1-.07.278c0-.096.01-.192.029-.286.029-.187.058-.465.132-.83.201-.991.487-1.962.855-2.904a18.165 18.165 0 0 1 2.12-3.97 17.526 17.526 0 0 1 3.775-4 6.403 6.403 0 0 1 1.22-.829c.44-.227.94-.303 1.427-.216.459.108.885.323 1.245.626.357.278.668.577.983.859a15.573 15.573 0 0 1 2.979 3.369c.543.866.881 1.845.987 2.863.023.276.023.553 0 .829-.009.105-.03.208-.062.307z" fill="#263238"/><path d="M62.044 170.15a1.738 1.738 0 0 1-.1-.307c-.053-.208-.149-.507-.27-.888a16.144 16.144 0 0 0-1.418-3.079 15.436 15.436 0 0 0-3.232-3.816 7.57 7.57 0 0 0-2.522-1.481 3.46 3.46 0 0 0-2.992.331 6.896 6.896 0 0 0-2.074 2.34 23.139 23.139 0 0 0-1.344 2.647 41.398 41.398 0 0 0-1.71 4.742c-.414 1.378-.688 2.51-.879 3.29-.087.378-.158.676-.212.905a2.486 2.486 0 0 1-.087.311c.005-.108.019-.215.042-.32.037-.211.095-.518.178-.912a38.71 38.71 0 0 1 .83-3.319 38.913 38.913 0 0 1 1.66-4.78c.391-.921.842-1.816 1.348-2.68a7.047 7.047 0 0 1 2.14-2.41 3.507 3.507 0 0 1 1.569-.544 4.158 4.158 0 0 1 1.601.191 7.774 7.774 0 0 1 2.589 1.531 15.248 15.248 0 0 1 3.236 3.896 14.69 14.69 0 0 1 1.365 3.128c.112.39.195.693.232.9.028.106.044.214.05.324z" fill="#263238"/><path d="M50.794 161.22a2.17 2.17 0 0 1-.108-.27c-.066-.174-.15-.444-.274-.78a26.492 26.492 0 0 0-1.174-2.809 14.531 14.531 0 0 0-2.539-3.688 10.082 10.082 0 0 0-2.074-1.639c-.793-.435-1.66-.975-2.618-.788-.466.075-.9.287-1.245.61a9.192 9.192 0 0 0-.987.983 13.116 13.116 0 0 0-1.506 2.182 23.146 23.146 0 0 0-1.776 4.149c-.315.967-.58 1.948-.796 2.942-.088.348-.137.622-.179.809a2.74 2.74 0 0 1-.07.282 1.165 1.165 0 0 1 .029-.291c.029-.186.066-.464.137-.83.185-1.002.43-1.993.734-2.966a22.173 22.173 0 0 1 1.784-4.211c.425-.791.933-1.535 1.514-2.219a9.7 9.7 0 0 1 1.012-1.013 2.617 2.617 0 0 1 2.822-.481l.655.299c.212.112.415.232.622.344.772.465 1.48 1.03 2.104 1.68a14.296 14.296 0 0 1 2.53 3.763c.436.923.809 1.874 1.117 2.846.116.345.186.614.236.797.03.097.047.197.05.299zM67.362 156.967c-.02 0-.104-.382-.34-1.058a14.511 14.511 0 0 0-4.079-6.165 11.895 11.895 0 0 0-2.128-1.527 3.394 3.394 0 0 0-1.285-.48 3.386 3.386 0 0 0-1.37.065 3.982 3.982 0 0 0-1.987 1.85 20.62 20.62 0 0 0-1.141 2.373 29.174 29.174 0 0 0-1.39 4.253 30.121 30.121 0 0 0-.577 2.966l-.112.83c-.006.096-.023.19-.05.282a1.485 1.485 0 0 1 0-.286c0-.187.034-.465.075-.83.11-1.006.281-2.005.51-2.991a27.714 27.714 0 0 1 1.357-4.29c.328-.827.71-1.632 1.141-2.41a4.147 4.147 0 0 1 2.1-1.942 2.909 2.909 0 0 1 1.48-.083c.47.094.921.259 1.34.49.778.44 1.502.966 2.162 1.568a13.978 13.978 0 0 1 2.825 3.505 13.18 13.18 0 0 1 1.207 2.784 9.4 9.4 0 0 1 .208.797c.03.097.048.197.054.299zM77.389 163.168a1.611 1.611 0 0 1-.091-.211c-.058-.141-.12-.353-.237-.619a12.018 12.018 0 0 0-1.153-2.149 11.41 11.41 0 0 0-2.49-2.667 13.185 13.185 0 0 0-4.049-2.112l.104-.025c-.617.582-1.199 1.2-1.742 1.85a20.679 20.679 0 0 0-4.294 8.916c-.205.994-.343 2-.415 3.012 0 .34-.025.614-.033.83a2.705 2.705 0 0 1-.025.29 1.213 1.213 0 0 1 0-.29v-.83c.032-1.019.143-2.035.332-3.037a20.082 20.082 0 0 1 6.044-10.903l.046-.045.062.02a13.17 13.17 0 0 1 4.09 2.183 11.25 11.25 0 0 1 2.49 2.738c.452.688.824 1.426 1.108 2.199.104.269.157.485.203.63a.89.89 0 0 1 .05.22z" fill="#263238"/><path d="M80.18 167.333s-.062-.287-.186-.797a11.352 11.352 0 0 0-1.473-3.41c-.074-.116-.153-.228-.232-.344a1.022 1.022 0 0 0-.266-.295c-.199-.137-.456.066-.692.261a22.175 22.175 0 0 0-2.93 2.755 22.364 22.364 0 0 0-3.912 6.144c-.373.859-.614 1.581-.78 2.075l-.182.576a.829.829 0 0 1-.079.2c0-.071.014-.141.037-.208.038-.162.083-.357.141-.593.206-.716.452-1.42.739-2.108a21.575 21.575 0 0 1 6.845-9.011c.127-.107.267-.199.415-.273a.515.515 0 0 1 .519 0c.128.092.236.211.315.348a10.779 10.779 0 0 1 .962 1.726c.302.684.527 1.399.673 2.132.043.199.075.4.095.602a.687.687 0 0 1-.008.22z" fill="#263238"/><path d="M82.274 155.867c0 .038-.415.228-1.038.668-.358.259-.692.55-1 .867a8.323 8.323 0 0 0-.991 1.278c-.28.462-.514.952-.697 1.46a7.577 7.577 0 0 0-.328 1.282c-.116.747-.091 1.22-.132 1.22-.042 0-.03-.116-.046-.328-.02-.304-.01-.61.029-.912.05-.452.147-.897.29-1.328a7.522 7.522 0 0 1 .701-1.51 7.608 7.608 0 0 1 1.034-1.303 6.58 6.58 0 0 1 1.057-.83c.253-.17.52-.316.801-.435.099-.061.207-.105.32-.129zM81.601 154.082c-.025 0 0-.357-.058-1a10.736 10.736 0 0 0-2.593-6.111 10.172 10.172 0 0 0-1.755-1.597 4.353 4.353 0 0 0-2.277-.959 1.71 1.71 0 0 0-1.141.415 3.926 3.926 0 0 0-.797.938c-.427.671-.82 1.363-1.178 2.074a25.076 25.076 0 0 0-1.519 3.734 28.551 28.551 0 0 0-.805 3.381c-.01.087-.031.172-.062.253a1.238 1.238 0 0 1 0-.261c0-.17.05-.415.1-.739.147-.904.35-1.799.606-2.68a23.42 23.42 0 0 1 1.485-3.791c.34-.689.734-1.394 1.178-2.104.224-.371.504-.706.83-.991a1.938 1.938 0 0 1 1.278-.444c.882.09 1.718.439 2.402 1.004a10.476 10.476 0 0 1 3.792 5.173c.298.87.472 1.778.514 2.697.015.25.015.501 0 .751.01.085.01.171 0 .257z" fill="#263238"/><path d="M82.52 136.284a2.458 2.458 0 0 0-.626-.73 4.274 4.274 0 0 0-.98-.523c-.414-.166-.87-.303-1.381-.506l.108-.025a15.8 15.8 0 0 0-2.075 3.269 14.484 14.484 0 0 0-1.319 5.058 20.729 20.729 0 0 0-.029 1.597c.017.196.017.393 0 .589a2.753 2.753 0 0 1-.087-.585 12.236 12.236 0 0 1-.037-1.61c.082-1.78.515-3.527 1.273-5.14a14.797 14.797 0 0 1 2.12-3.294l.042-.054.062.025c.49.207.967.357 1.37.539.354.144.687.338.987.577.192.157.353.35.472.568.05.074.085.157.1.245zM75.374 144.934l-.494-.759a19.279 19.279 0 0 0-1.48-1.975 17.748 17.748 0 0 0-2.648-2.489 8.027 8.027 0 0 0-1.813-1.12 2.454 2.454 0 0 0-2.157.037 5.298 5.298 0 0 0-1.61 1.585 21.44 21.44 0 0 0-1.194 1.797 21.768 21.768 0 0 0-1.585 3.29 22.367 22.367 0 0 0-.755 2.348 8.745 8.745 0 0 1-.237.875c0-.078.01-.156.03-.232.024-.154.061-.378.128-.664.178-.808.408-1.603.689-2.381a20.115 20.115 0 0 1 2.754-5.186 5.496 5.496 0 0 1 1.66-1.66c.363-.199.772-.3 1.186-.294.397.011.788.096 1.154.249a8.134 8.134 0 0 1 1.854 1.161 16.9 16.9 0 0 1 2.643 2.564c.53.637 1.01 1.314 1.435 2.025.145.253.257.452.328.589.05.073.089.154.112.24zM77.75 135.72c-.025 0-.033-.369-.128-1.02a11.037 11.037 0 0 0-.743-2.693 11.852 11.852 0 0 0-2.22-3.472 11.595 11.595 0 0 0-1.837-1.602l-.536-.348c-.182-.112-.377-.212-.568-.32a2.65 2.65 0 0 0-1.211-.415 1.283 1.283 0 0 0-1.017.627c-.227.36-.41.746-.547 1.149a24.52 24.52 0 0 0-1.53 6.414 27.466 27.466 0 0 0-.122 2.805v.763c.012.089.012.18 0 .27a2.35 2.35 0 0 1-.037-.266c0-.174-.041-.415-.054-.763a21.213 21.213 0 0 1 .054-2.821c.114-1.394.353-2.774.714-4.124.216-.797.472-1.582.767-2.353a5.67 5.67 0 0 1 .573-1.199 1.483 1.483 0 0 1 1.186-.717 2.78 2.78 0 0 1 1.315.415c.195.112.415.211.577.327l.552.357a11.593 11.593 0 0 1 4.074 5.19 10.165 10.165 0 0 1 .734 3.506c.014.096.015.194.004.29zM78.177 117.725c0 .025-.162-.05-.456-.083a2.617 2.617 0 0 0-1.216.182c-.27.102-.528.231-.771.386a4.392 4.392 0 0 0-.39.27 2.107 2.107 0 0 0-.34.357 5.71 5.71 0 0 0-.83 2.095c-.34 1.593-.486 3.074-.652 4.148-.078.531-.149.963-.203 1.245-.02.155-.057.306-.112.452a1.87 1.87 0 0 1 .025-.464l.137-1.266c.13-1.392.329-2.776.597-4.148a5.67 5.67 0 0 1 .863-2.17c.111-.144.24-.273.382-.386a4.51 4.51 0 0 1 1.245-.651 2.52 2.52 0 0 1 1.281-.121c.116.023.23.059.337.108a.496.496 0 0 1 .103.046zM74.267 112.477a.994.994 0 0 1-.17-.121l-.47-.373c-.414-.324-.978-.801-1.725-1.344a14.782 14.782 0 0 0-2.78-1.639 8.704 8.704 0 0 0-1.805-.56 4.108 4.108 0 0 0-.493-.075 3.953 3.953 0 0 0-.498-.045 1.761 1.761 0 0 0-.95.199 1.034 1.034 0 0 0-.46.796c-.046.332-.084.676-.125 1.004-.079.66-.158 1.299-.232 1.909-.154 1.203-.29 2.294-.415 3.223-.125.929-.22 1.631-.295 2.174-.033.237-.062.415-.087.589a1.004 1.004 0 0 1-.045.203.653.653 0 0 1 0-.207c0-.162.029-.357.05-.593l.223-2.182c.092-.897.229-2.025.361-3.232.07-.61.145-1.245.22-1.909.042-.332.075-.663.125-1.012.024-.183.078-.361.161-.527.098-.174.241-.317.415-.415.33-.172.7-.25 1.07-.224.176.004.35.021.523.05.17.016.337.042.502.079a8.699 8.699 0 0 1 1.85.585 14.235 14.235 0 0 1 2.789 1.701c.738.56 1.302 1.058 1.688 1.402.195.17.344.307.44.415.095.108.137.12.133.129zM69.574 125.93s-.108-.332-.332-.917a11.149 11.149 0 0 0-1.208-2.356 12.08 12.08 0 0 0-4.63-4.082 11.58 11.58 0 0 0-1.128-.477 1.236 1.236 0 0 0-1.137 0 1.177 1.177 0 0 0-.415.414l-.32.54c-.202.361-.414.722-.572 1.087a20.943 20.943 0 0 0-.896 2.145 25.82 25.82 0 0 0-1.381 6.438c-.033.312-.042.556-.054.722 0 .086-.011.171-.033.253a2.015 2.015 0 0 1 0-.253v-.726c.041-.891.138-1.779.29-2.659.222-1.306.552-2.591.987-3.842.255-.74.555-1.465.897-2.17.17-.369.369-.734.572-1.103l.324-.548c.125-.195.298-.357.502-.469a1.452 1.452 0 0 1 1.315-.024c.415.141.776.315 1.149.489 1.9.958 3.509 2.404 4.663 4.19.488.751.877 1.561 1.158 2.411.08.23.148.464.203.701.023.077.038.156.046.236z" fill="#263238"/><path d="M66.757 138.209a1.045 1.045 0 0 1-.141-.22l-.373-.643a25.335 25.335 0 0 0-1.519-2.265 23.933 23.933 0 0 0-2.684-3.025 22.89 22.89 0 0 0-1.817-1.551c-.648-.481-1.46-.905-2.303-.718a4.248 4.248 0 0 0-2.074 1.361 17.366 17.366 0 0 0-1.514 1.846 18.322 18.322 0 0 0-2.859 6.103c-.17.626-.236.979-.257.975a1.53 1.53 0 0 1 .033-.262c.025-.166.066-.414.141-.73.204-.896.482-1.775.83-2.626.82-2.013 2-3.86 3.48-5.451a4.406 4.406 0 0 1 2.179-1.427c.45-.09.917-.049 1.344.12.403.158.782.373 1.124.639.64.49 1.25 1.016 1.83 1.576.98.945 1.874 1.975 2.672 3.079a21.736 21.736 0 0 1 1.464 2.327c.153.286.266.51.336.664.044.072.08.148.108.228z" fill="#263238"/><path d="M40.806 151.096c0-.095.012-.19.033-.282.03-.183.075-.456.15-.801.214-.979.503-1.94.862-2.875a20.706 20.706 0 0 1 3.622-6.057 5.976 5.976 0 0 1 2.207-1.788 2.895 2.895 0 0 1 1.456-.174c.471.069.926.221 1.345.448.768.436 1.484.959 2.132 1.56a22.57 22.57 0 0 1 3.05 3.24 24.473 24.473 0 0 1 1.659 2.489c.174.307.307.548.39.718.05.082.09.168.124.257a1.554 1.554 0 0 1-.161-.237l-.415-.692a27.399 27.399 0 0 0-1.714-2.444 23.384 23.384 0 0 0-3.062-3.186 11.473 11.473 0 0 0-2.095-1.523 4.055 4.055 0 0 0-1.277-.415 2.697 2.697 0 0 0-1.349.162c-.834.4-1.562.991-2.124 1.726a20.5 20.5 0 0 0-1.58 2.074 21.425 21.425 0 0 0-2.075 3.904c-.37.925-.68 1.873-.925 2.838-.091.34-.15.606-.19.788-.012.092-.033.183-.063.27zM44.838 141.599c-.025 0-.03-.415-.12-1.108a12.605 12.605 0 0 0-.722-2.933 13.93 13.93 0 0 0-.872-1.896 14.637 14.637 0 0 0-1.352-1.971 12.688 12.688 0 0 0-1.888-1.846 12 12 0 0 0-1.136-.809 1.62 1.62 0 0 0-1.295-.286 3.394 3.394 0 0 0-1.245.676 20.443 20.443 0 0 0-6.754 9.214c-.132.337-.211.602-.277.78a2.105 2.105 0 0 1-.104.27c.009-.096.03-.191.062-.282.054-.183.12-.456.24-.792.32-.967.722-1.905 1.2-2.805a20.306 20.306 0 0 1 4.418-5.646c.349-.307.713-.606 1.095-.905a3.664 3.664 0 0 1 1.303-.713 1.6 1.6 0 0 1 .772 0c.241.069.472.172.684.307a13.048 13.048 0 0 1 3.066 2.713c.506.633.96 1.306 1.357 2.012.334.621.62 1.266.858 1.929.347.961.569 1.962.66 2.979.032.275.047.552.046.83.01.093.011.188.004.282zM39.035 153.531a1.684 1.684 0 0 1-.07-.319c-.042-.229-.096-.531-.167-.913a23.152 23.152 0 0 0-.908-3.286 24.555 24.555 0 0 0-2.228-4.522 5.736 5.736 0 0 0-2.045-2.074 2.802 2.802 0 0 0-1.473-.32 3.712 3.712 0 0 0-1.506.452 10.253 10.253 0 0 0-2.49 1.984 13.727 13.727 0 0 0-1.812 2.352c-.469.765-.871 1.569-1.204 2.402a18.495 18.495 0 0 0-.717 2.24 24.301 24.301 0 0 0-.581 3.357c-.033.385-.062.692-.083.925a1.386 1.386 0 0 1-.042.319 3.222 3.222 0 0 1 0-.323c0-.212 0-.527.042-.93.085-1.14.257-2.271.514-3.385.184-.769.417-1.526.697-2.265.333-.848.735-1.667 1.204-2.448a13.86 13.86 0 0 1 1.829-2.39c.73-.805 1.58-1.491 2.522-2.033a3.93 3.93 0 0 1 1.594-.472 3.04 3.04 0 0 1 1.584.344 5.99 5.99 0 0 1 2.116 2.149 23.872 23.872 0 0 1 2.199 4.563c.376 1.081.66 2.191.85 3.319.063.415.108.71.13.921.021.117.036.235.045.353zM54.776 131.934a1.223 1.223 0 0 1-.1-.241l-.252-.705a42.861 42.861 0 0 0-1.02-2.543 37.392 37.392 0 0 0-1.835-3.618 8.994 8.994 0 0 0-1.431-1.887 3.438 3.438 0 0 0-2.203-1.062 3.674 3.674 0 0 0-2.31.829 15.825 15.825 0 0 0-1.76 1.61 21.681 21.681 0 0 0-2.522 3.165 22.756 22.756 0 0 0-1.365 2.374c-.145.29-.253.514-.324.668-.035.08-.077.158-.124.232.017-.086.045-.17.083-.249.058-.158.157-.394.29-.689.38-.836.818-1.644 1.311-2.418a20.862 20.862 0 0 1 2.49-3.22c.547-.6 1.142-1.155 1.78-1.659a3.88 3.88 0 0 1 2.443-.888 3.596 3.596 0 0 1 2.34 1.128 8.94 8.94 0 0 1 1.472 1.95 34.264 34.264 0 0 1 1.805 3.659 32.75 32.75 0 0 1 .959 2.577c.1.307.17.551.215.713.032.089.051.181.058.274z" fill="#263238"/><path d="M51.094 147.944a3.14 3.14 0 0 1-.635-.859 7.118 7.118 0 0 1-.875-2.469h.212a9.08 9.08 0 0 1-1.249 2.78 3.73 3.73 0 0 1-.738.892c-.025-.025.244-.369.61-.975.469-.78.838-1.616 1.099-2.489.025-.087.05-.17.07-.249l.133-.481.079.493c.132.847.399 1.668.788 2.432.299.58.535.925.506.925zM60.368 140.397a3.006 3.006 0 0 1-.793-.8 6.533 6.533 0 0 1-1.17-2.448l-.029-.112.216-.025c0 .892-.204 1.772-.597 2.572a2.828 2.828 0 0 1-.606.905c-.029 0 .208-.357.469-.967.34-.793.515-1.647.514-2.51v-.908l.216.887.025.108a7.44 7.44 0 0 0 1.087 2.411c.39.551.693.863.668.887zM69.976 147.283a3.618 3.618 0 0 1-.706-.829 8.2 8.2 0 0 1-1.12-2.419l.208-.062v.037a3.66 3.66 0 0 1-.233 2.676 3.28 3.28 0 0 1-.456.684c-.133.146-.216.212-.224.2.199-.307.38-.624.544-.95.35-.803.407-1.703.161-2.544v-.037l.204-.062a9.941 9.941 0 0 0 1.037 2.398c.352.556.614.883.585.908zM77.581 155.876a3.605 3.605 0 0 1-.564-.871 9.524 9.524 0 0 1-.83-2.361l-.029-.116.216-.025a5.855 5.855 0 0 1-.394 2.402 2.636 2.636 0 0 1-.51.88c-.034 0 .149-.353.335-.93.245-.756.353-1.55.32-2.344l.211-.025.025.112c.18.804.441 1.586.78 2.336.164.306.31.62.44.942zM70.257 166.198a2.209 2.209 0 0 1-.622-.593 5.143 5.143 0 0 1-.967-1.88h.212c-.02.108-.041.216-.058.332a9.298 9.298 0 0 1-.718 2.22c-.12.3-.287.58-.493.829.427-.997.761-2.032 1-3.09 0-.112.037-.22.053-.324l.087-.477.125.464c.18.664.477 1.29.875 1.851.299.415.527.643.506.668zM61.004 158.365a15.183 15.183 0 0 1-1.531-2.037l-.087-.128.195-.042a4.113 4.113 0 0 1-.627 1.598c-.244.365-.448.543-.468.526.421-.661.72-1.393.883-2.161l.042-.266.153.224c.03.038.058.083.087.129.512.68.964 1.401 1.353 2.157zM44.3 161.17a4.286 4.286 0 0 1-.668-.963c-.472-.822-.839-1.7-1.09-2.614v-.062l.21-.029a5.622 5.622 0 0 1-.589 2.73 4.456 4.456 0 0 1-.443.722c-.12.157-.2.236-.208.228-.008-.008.233-.373.515-1.016.366-.836.54-1.744.51-2.656l-.033-.912.245.879v.058c.25.898.59 1.768 1.016 2.597.324.639.564 1.017.535 1.038zM26.145 166.061a2.37 2.37 0 0 1-.448-.739 6.576 6.576 0 0 1-.59-2.734l.196.059a13.3 13.3 0 0 1-1.311 1.813 14.24 14.24 0 0 1 1.132-1.93l.187-.286v.344c0 .216 0 .444.041.681.14.962.406 1.901.793 2.792zM74.32 136.444a3.09 3.09 0 0 1-.746-.734 6.612 6.612 0 0 1-1.2-2.261l.208-.042c0 .087 0 .175.021.266.05.915-.02 1.832-.203 2.73a3.877 3.877 0 0 1-.324 1.083c-.029 0 .07-.415.174-1.112.137-.889.183-1.79.137-2.689v-.261l-.062-.938.27.901a7.67 7.67 0 0 0 1.112 2.236c.356.518.639.796.614.821zM82.177 144.474a2.187 2.187 0 0 1-.69-.63 4.565 4.565 0 0 1-.95-2.075l-.144-.83.348.768c.03.066.062.141.1.216.32.766.423 1.606.298 2.427-.03.34-.133.67-.302.966-.038 0 .095-.377.153-.983a4.976 4.976 0 0 0-.349-2.327l-.095-.208.203-.066c.127.734.42 1.429.855 2.033.332.444.597.684.573.709zM80.448 127.001a3.345 3.345 0 0 1-.494-.755 57.887 57.887 0 0 1-1.058-1.892l-.042-.079.2-.07a8.71 8.71 0 0 1 .078 2.124c-.006.293-.06.583-.161.859a18.758 18.758 0 0 0-.129-2.946l-.104-.635.303.565.046.078c.415.747.755 1.428 1 1.925.15.261.271.538.36.826zM64.475 127.892a2.906 2.906 0 0 1-.444-.759 11.233 11.233 0 0 1-.726-1.987v-.021l.212-.029a6.855 6.855 0 0 1-.287 2.074c-.065.285-.18.556-.34.801.254-.948.393-1.923.415-2.904v-.879l.232.85v.021c.39 1.614.996 2.804.938 2.833zM48.597 132.336a19.94 19.94 0 0 1-1.531-2.544l-.183-.331h.195a4.765 4.765 0 0 1-1 1.572 1.931 1.931 0 0 1-.593.469 6.992 6.992 0 0 0 1.39-2.12l.083-.216.112.203c.058.108.12.22.187.332.509.845.956 1.726 1.34 2.635zM55.28 118.093a4.701 4.701 0 0 1-.39-.867 73.352 73.352 0 0 1-.83-2.182l.208-.037v.369a8.45 8.45 0 0 1-.506 2.547 3.317 3.317 0 0 1-.47.967c-.028 0 .134-.386.325-1.016.24-.81.38-1.646.414-2.49V114.455l.191.531c.316.867.581 1.66.768 2.207.131.288.228.59.29.9z" fill="#263238"/><path d="M26.25 111.178a114.72 114.72 0 0 1 7.305-4.078c1.66-.83 3.705-1.618 5.211-.552.701.498 1.108 1.303 1.506 2.075 3.34 6.439 7.937 12.272 13.69 16.682.652.498 1.536.995 2.237.572.867-.518.573-1.825.195-2.767a60.489 60.489 0 0 1-3.655-13.122c-.112-.718-.153-1.589.415-2.021.784-.572 1.817.175 2.585.768 5.393 4.198 13.69 1.867 19.498 5.393-3.011-4.128-6.297-8.239-10.74-10.787-3.734-2.132-8.099-2.999-12.401-3.074-4.302-.074-8.584.618-12.807 1.444-2.49.485-5 1.029-7.227 2.224-2.228 1.195-4.182 3.136-4.825 5.584" fill="#000" opacity=".3"/><path d="M59.832 85.54c5.286-4.663 10.924-8.995 17.197-12.206 6.273-3.21 13.226-5.273 20.274-5.215a31.796 31.796 0 0 0-25.307-.788L58.46 75.309l-4.257 8.953 5.63 1.278z" fill="#455A64"/><path d="m59.833 85.539-.365-.075-1.087-.232-4.19-.921h-.063l.03-.058 4.21-8.965v-.021l13.546-7.995a31.945 31.945 0 0 1 18.184-1.614 31.453 31.453 0 0 1 7.21 2.398l.415.204h-.477a42.184 42.184 0 0 0-16.226 3.348 61.887 61.887 0 0 0-11.695 6.468c-3.111 2.157-5.464 4.082-7.073 5.414l-1.838 1.547-.473.415c-.108.091-.166.133-.166.133l.157-.15.461-.415c.415-.36 1.016-.896 1.809-1.572 1.597-1.352 3.937-3.298 7.053-5.472a61.778 61.778 0 0 1 11.703-6.526 42.258 42.258 0 0 1 16.3-3.39l-.045.204a31.487 31.487 0 0 0-7.16-2.377 31.88 31.88 0 0 0-18.064 1.588l-13.53 7.9.034-.034-4.26 8.941-.038-.07 4.148.97 1.087.257.403.1z" fill="#263238"/><path d="m66.538 56.555 11.99 4.626a47.315 47.315 0 0 1 22.702-5.563c-10.608-5.892-24.411-5.518-34.692.937z" fill="#455A64"/><path d="m66.538 56.555.154-.096.465-.282.775-.464.486-.287c.178-.1.373-.19.58-.294l1.374-.68c.51-.237 1.078-.453 1.66-.706.58-.253 1.273-.46 1.974-.701.701-.24 1.46-.415 2.257-.643.796-.228 1.66-.353 2.53-.535.44-.096.9-.133 1.361-.195.46-.063.938-.125 1.42-.17l1.476-.092c.25 0 .502-.033.755-.037h2.365l1.61.108c.543.02 1.09.116 1.66.182.568.067 1.115.13 1.659.258l1.697.34 1.705.46a34.418 34.418 0 0 1 6.779 2.797l.365.199h-.482a47.532 47.532 0 0 0-22.598 5.517l-.033.021H78.5l-8.774-3.439-2.373-.934-.61-.244-.204-.083.228.079.635.24 2.41.909 8.746 3.319h-.066a47.27 47.27 0 0 1 22.677-5.601h.066l-.054.203a34.564 34.564 0 0 0-6.733-2.78l-1.693-.46-1.684-.34c-.556-.129-1.116-.178-1.66-.257-.543-.08-1.09-.166-1.634-.187l-1.602-.112c-.527-.025-1.05 0-1.564-.02h-.763c-.253 0-.502.024-.751.037l-1.469.083c-.481.041-.95.112-1.41.161-.46.05-.921.096-1.357.191-.88.179-1.734.29-2.522.519-.789.228-1.556.373-2.253.622-.697.25-1.373.415-1.97.685-.598.27-1.175.456-1.685.684l-1.378.664c-.203.1-.414.187-.58.282l-.49.278-.78.415-.664.386z" fill="#263238"/><path d="M65.563 59.816A174.088 174.088 0 0 1 93.91 32.488c-8.571 1.863-23.494 9.99-29.842 16.043l-6.916 16.18 8.41-4.895z" fill="#455A64"/><path d="m65.561 59.816-.136.091-.415.25-1.63.966-6.19 3.63-.167.096.075-.179c1.772-4.148 4.149-9.716 6.883-16.18a57.43 57.43 0 0 1 8.832-6.55 97.3 97.3 0 0 1 10.704-5.784 54.21 54.21 0 0 1 10.351-3.734l.473-.107-.386.294a176.605 176.605 0 0 0-20.918 18.852 179.47 179.47 0 0 0-5.542 6.132l-1.448 1.684-.373.436-.133.14s.037-.053.12-.157l.361-.444c.324-.39.788-.97 1.415-1.71a160.964 160.964 0 0 1 5.5-6.172 172.289 172.289 0 0 1 20.89-18.927l.087.187a54.158 54.158 0 0 0-10.306 3.734 97.604 97.604 0 0 0-10.683 5.766 57.944 57.944 0 0 0-8.816 6.514l.025-.033c-2.75 6.401-5.136 11.96-6.92 16.109l-.087-.079 6.223-3.572 1.66-.937.415-.237.136-.079z" fill="#263238"/><path d="m31.252 79.763 8.202 8.779-1.971 10.62-9.75-10.13c-2.227-6.908-7.845-15.583-14.296-18.915 6.472 2.19 13.234 4.564 17.815 9.633" fill="#455A64"/><path d="m31.253 79.764-.07-.066-.2-.195c-.178-.174-.415-.448-.78-.772a25.08 25.08 0 0 0-3.273-2.56 35.727 35.727 0 0 0-5.688-3.028c-2.282-1.004-4.94-1.93-7.85-2.904l.075-.175a24.58 24.58 0 0 1 7.269 6.203 40.883 40.883 0 0 1 5.655 9.102 37.837 37.837 0 0 1 1.427 3.66l-.025-.042 9.745 10.123-.166.05 1.992-10.613v.066l-5.974-6.45-1.614-1.76-.415-.46-.137-.162s.054.045.154.145l.414.448 1.66 1.734 6.024 6.402.029.029v.037c-.564 3.083-1.245 6.638-1.95 10.62l-.033.187-.133-.136-9.758-10.11v-.026a35.957 35.957 0 0 0-1.423-3.634 40.725 40.725 0 0 0-5.617-9.06 24.478 24.478 0 0 0-7.194-6.17l.075-.17c2.904.987 5.567 1.93 7.849 2.945a34.715 34.715 0 0 1 5.688 3.083 23.6 23.6 0 0 1 3.236 2.618c.348.332.585.614.76.792l.19.208c.041.012.062.037.058.041z" fill="#263238"/><path d="M33.75 16.715C29.865 10.973 23.953 6.638 21 .37c-.078 7.55 3.635 14.52 6.66 21.461 3.414 7.817 6.006 20.221 7.807 28.56l5.153-13.367c.71-6.725-3.079-14.707-6.87-20.308z" fill="#455A64"/><path d="M33.75 16.715s.083.108.228.32c.145.211.37.535.639.958.547.83 1.327 2.116 2.211 3.8a40.35 40.35 0 0 1 2.7 6.335 26.86 26.86 0 0 1 1.005 4.149c.266 1.57.329 3.168.186 4.754v.025l-5.16 13.392-.12.316-.071-.332c-1.208-5.576-2.49-11.687-4.232-17.964a92.96 92.96 0 0 0-2.904-8.949c-1.141-2.83-2.44-5.505-3.56-8.131a55.745 55.745 0 0 1-2.775-7.713 27.685 27.685 0 0 1-.983-7.29V0l.161.332a31.793 31.793 0 0 0 4.85 7.053c1.66 1.92 3.186 3.518 4.369 4.883 1.182 1.365 2.074 2.464 2.626 3.232.282.385.481.692.622.892.141.199.203.31.203.31l-.22-.273c-.145-.2-.352-.498-.642-.88-.56-.78-1.457-1.862-2.635-3.207-1.178-1.344-2.717-2.937-4.398-4.854A31.84 31.84 0 0 1 20.927.402l.162-.033c.009 2.446.344 4.879.995 7.236a56.384 56.384 0 0 0 2.772 7.683c1.12 2.622 2.423 5.29 3.572 8.131a94.135 94.135 0 0 1 2.904 8.97c1.73 6.285 3.02 12.405 4.215 17.98h-.19c1.874-4.841 3.621-9.338 5.177-13.358v.02a18.418 18.418 0 0 0-.166-4.712 26.928 26.928 0 0 0-.983-4.15 41.086 41.086 0 0 0-2.643-6.347 54.246 54.246 0 0 0-2.166-3.817c-.265-.415-.481-.75-.618-.97-.137-.22-.207-.32-.207-.32z" fill="#263238"/><path d="M63.914 30.17C58.106 36.837 54.347 45 50.858 53.125l3.344 18.042c3.112-4.72 9.683-15.35 12.629-20.191 8.165-13.388 15.728-27.27 20.428-42.226-6.878 8.032-16.4 13.446-23.345 21.42z" fill="#455A64"/><path d="M63.915 30.17s.125-.15.378-.415c.253-.266.622-.714 1.128-1.245 1.013-1.07 2.556-2.601 4.634-4.427 2.079-1.825 4.693-3.95 7.68-6.413 1.49-1.245 3.066-2.573 4.667-4.05a59.243 59.243 0 0 0 4.792-4.903l.282-.332-.129.415a144.527 144.527 0 0 1-7.206 18.208c-3.016 6.39-6.638 13.006-10.62 19.728-2.627 4.414-5.27 8.67-7.813 12.778-2.543 4.107-5.007 8.04-7.422 11.728l-.137.207-.045-.244c-1.224-6.638-2.34-12.7-3.32-18.043v-.05c1.61-3.734 3.137-7.11 4.622-10.003a74.949 74.949 0 0 1 4.178-7.235 58.239 58.239 0 0 1 3.128-4.277 28.2 28.2 0 0 1 .892-1.054l.311-.353s-.095.129-.294.37c-.2.24-.498.593-.871 1.07a57.258 57.258 0 0 0-3.087 4.294 76.868 76.868 0 0 0-4.149 7.244c-1.477 2.904-2.987 6.264-4.592 10.01v-.045c.995 5.343 2.128 11.409 3.36 18.034l-.178-.037c2.406-3.684 4.862-7.63 7.41-11.728 2.547-4.1 5.181-8.369 7.803-12.779 3.991-6.712 7.605-13.325 10.62-19.706a144.75 144.75 0 0 0 7.224-18.171l.153.083a58.999 58.999 0 0 1-4.792 4.891 107.711 107.711 0 0 1-4.684 4.037c-2.995 2.46-5.625 4.563-7.704 6.38-2.078 1.818-3.638 3.32-4.663 4.39-.51.527-.884.954-1.145 1.244-.261.29-.41.399-.41.399z" fill="#263238"/><path d="M55.617 17.018c-.229-3.979.543-8.198 3.12-11.235A31.153 31.153 0 0 0 46.12 25.668l3.112 36.144c8.21-11.596 9.35-29.162 8.55-33.061-.8-3.9-1.933-7.759-2.165-11.733z" fill="#455A64"/><path d="M55.618 17.018s0 .075.029.228c.029.154.033.382.062.677.058.593.166 1.473.361 2.6.195 1.13.481 2.49.83 4.1.182.8.382 1.66.589 2.568.1.456.203.925.311 1.41.096.5.16 1.006.191 1.515a42.05 42.05 0 0 1-.236 6.853 69.025 69.025 0 0 1-1.299 7.846 59.955 59.955 0 0 1-2.63 8.5 41.27 41.27 0 0 1-4.493 8.56l-.166.236-.025-.287c-.353-4.099-.722-8.388-1.104-12.786-.713-8.297-1.394-16.238-2.004-23.361v-.025A31.24 31.24 0 0 1 58.713 5.738l.415-.295-.332.39a12.806 12.806 0 0 0-2.386 4.373 18.128 18.128 0 0 0-.717 3.663c-.092 1.017-.087 1.8-.087 2.328V17.002v-.204l-.05-.585a21.267 21.267 0 0 1 .058-2.331c.1-1.247.335-2.48.7-3.676a12.804 12.804 0 0 1 2.374-4.451l.087.095a31.174 31.174 0 0 0-12.554 19.835v-.025c.614 7.123 1.299 15.04 2.02 23.357l1.1 12.787-.19-.05a41.591 41.591 0 0 0 4.509-8.513 60.911 60.911 0 0 0 2.634-8.468c.594-2.58 1.04-5.19 1.336-7.82.264-2.268.345-4.553.24-6.833a11.537 11.537 0 0 0-.182-1.502c-.104-.485-.203-.954-.299-1.41-.203-.913-.414-1.768-.576-2.568a84.302 84.302 0 0 1-.83-4.112c-.2-1.16-.322-2.333-.365-3.51z" fill="#263238"/><path d="M44.82 26.933c-1.412-7.712-7.431-16.416-14.563-19.677 6.688 8.998 10.094 22.432 8.609 33.542l5.953-13.865z" fill="#455A64"/><path d="M44.819 26.933s-.03.087-.096.253l-.298.73-1.174 2.788-4.29 10.127-.245.577.083-.622c.418-3.482.428-7 .03-10.484-.038-.477-.13-.954-.192-1.435-.062-.482-.124-.975-.22-1.465-.186-.975-.352-1.97-.605-2.962a50.78 50.78 0 0 0-1.784-6.04 48.058 48.058 0 0 0-2.618-5.93 43.34 43.34 0 0 0-3.232-5.168l-.228-.316.353.162a20.828 20.828 0 0 1 4.51 2.9c.671.527 1.244 1.116 1.854 1.66.61.543 1.112 1.153 1.597 1.75 1.735 2.042 3.2 4.3 4.356 6.717a26.86 26.86 0 0 1 1.826 4.908c.17.585.232 1.058.302 1.365.03.15.054.265.07.353a.643.643 0 0 1 0 .116.455.455 0 0 1-.049-.116c-.02-.087-.045-.2-.083-.349-.083-.307-.153-.767-.336-1.348a27.841 27.841 0 0 0-1.863-4.858 31.21 31.21 0 0 0-4.356-6.66c-.481-.592-1.037-1.148-1.593-1.733a16.958 16.958 0 0 0-1.846-1.66 20.995 20.995 0 0 0-4.46-2.846l.125-.153a43.054 43.054 0 0 1 3.21 5.177 47.634 47.634 0 0 1 2.635 5.958 50.117 50.117 0 0 1 1.788 6.061c.253.996.415 2 .606 2.979.095.49.145.983.22 1.469.074.485.15.962.186 1.443.394 3.5.373 7.035-.062 10.53l-.166-.046 4.369-10.077a843.66 843.66 0 0 1 1.22-2.78l.323-.726c.083-.166.133-.249.133-.249z" fill="#263238"/><path d="M63.641 96.692c8.186 1.547 14.056 10.662 14.313 18.988a.986.986 0 0 1-.174.722c-.415.453-1.12-.141-1.477-.651-2.543-3.601-7.053-5.198-11.313-6.294-4.261-1.095-16.04-4.148-16.77-9.766V97.92s3.535-3.493 15.421-1.228z" fill="#455A64"/><path d="M63.64 96.69s-.099 0-.285-.038l-.83-.124c-.722-.125-1.792-.262-3.161-.415a31.274 31.274 0 0 0-4.979-.05c-1.024.079-2.04.244-3.037.494-.54.139-1.07.318-1.584.535a5.684 5.684 0 0 0-1.494.867l.029-.058v1.772c.123.784.431 1.528.9 2.169a8.896 8.896 0 0 0 1.734 1.784 21.138 21.138 0 0 0 4.622 2.651 47.63 47.63 0 0 0 5.348 1.938c.933.282 1.88.552 2.846.805.967.253 1.941.497 2.904.78 2.622.767 5.165 1.767 7.24 3.352.512.391.995.819 1.443 1.282.212.24.415.469.627.717.211.249.385.515.568.739.183.228.418.41.684.531a.409.409 0 0 0 .364-.003.412.412 0 0 0 .222-.287c.045-.288.045-.58 0-.868l-.063-.883a21.547 21.547 0 0 0-1.68-6.46 22.206 22.206 0 0 0-2.97-5.007 18.411 18.411 0 0 0-3.41-3.386l-.416-.32c-.14-.099-.286-.186-.414-.277l-.801-.51c-.527-.299-1.033-.535-1.473-.768l-1.245-.477a3.32 3.32 0 0 0-.506-.158l-.415-.112-.58-.157-.195-.058.199.037.585.137.415.1c.175.037.347.087.514.149l1.245.46c.448.229.958.46 1.493.755l.81.51c.14.092.285.175.414.275l.415.319c1.297.97 2.46 2.108 3.456 3.385a22.253 22.253 0 0 1 3.02 5.033 21.664 21.664 0 0 1 1.76 6.509c.02.295.04.593.066.896.051.309.051.625 0 .934a.662.662 0 0 1-.324.414.647.647 0 0 1-.527 0 1.962 1.962 0 0 1-.772-.584c-.203-.258-.381-.498-.572-.743-.191-.245-.415-.469-.614-.705-.443-.45-.919-.866-1.423-1.245-2.041-1.56-4.564-2.547-7.17-3.319-.974-.282-1.953-.523-2.903-.78s-1.917-.523-2.85-.805a48.643 48.643 0 0 1-5.402-1.966 21.376 21.376 0 0 1-4.647-2.684 9.113 9.113 0 0 1-1.767-1.83 5.172 5.172 0 0 1-.925-2.253v-1.813l.025-.02c.466-.38.99-.684 1.551-.9a11.745 11.745 0 0 1 1.606-.536 18.1 18.1 0 0 1 3.066-.477 30.505 30.505 0 0 1 5 .091c1.372.15 2.438.303 3.16.444l.83.15.274.062z" fill="#263238"/><path d="M78.878 95.628c-1.958-3.165-5.074-5.522-8.525-6.908-8.157-3.265-18.255-.75-23.955 5.954l2.838 3.12A28.211 28.211 0 0 1 81.64 112.19c.237-5.68.228-11.729-2.763-16.562z" fill="#455A64"/><path d="M78.877 95.628s.059.083.158.254c.1.17.261.414.444.771a17.551 17.551 0 0 1 1.274 3.157c.499 1.725.813 3.498.937 5.29.157 2.362.171 4.731.042 7.094v.311l-.141-.278a28.634 28.634 0 0 0-9.443-10.546 27.914 27.914 0 0 0-7.438-3.522 28.838 28.838 0 0 0-8.68-1.199 28.155 28.155 0 0 0-6.766.938h-.067l-.04-.05-2.839-3.12-.062-.07.062-.07a21.009 21.009 0 0 1 6.087-4.822 22.187 22.187 0 0 1 13.134-2.385c1.82.253 3.6.743 5.294 1.456a18.254 18.254 0 0 1 6.368 4.497c.465.525.896 1.08 1.29 1.66l.291.46c.066.104.095.162.095.162s-.041-.05-.112-.15c-.07-.099-.17-.257-.302-.447a17.476 17.476 0 0 0-1.316-1.63 18.411 18.411 0 0 0-6.368-4.423 21.068 21.068 0 0 0-5.269-1.407c-4.484-.55-9.03.289-13.023 2.402a20.788 20.788 0 0 0-6.015 4.78v-.137l2.858 3.14-.108-.033a28.424 28.424 0 0 1 6.82-.946c2.96-.047 5.91.362 8.746 1.212a28.116 28.116 0 0 1 7.493 3.555 28.697 28.697 0 0 1 9.447 10.641l-.154.038a60.757 60.757 0 0 0 0-7.082 25.452 25.452 0 0 0-.913-5.31 18.645 18.645 0 0 0-1.244-3.162c-.174-.348-.328-.601-.415-.78-.087-.178-.125-.249-.125-.249z" fill="#263238"/><path d="M53.533 90.276c3.63-2.689 8.505-3.39 12.915-2.42 4.41.972 8.38 3.482 11.617 6.614 3.236 3.132 5.845 6.883 8.235 10.716-.647-4.908-1.684-9.878-4.24-14.106a30.335 30.335 0 0 0-3.734-5.015 13.833 13.833 0 0 0-10.492-4.261l-3.128.087-7.443 3.319s-4.099 3.211-4.094 3.236l.364 1.83z" fill="#455A64"/><path d="M53.534 90.275s0-.034-.025-.113l-.066-.34-.27-1.369c-.029-.029.033-.095.062-.116l.096-.075.19-.157.415-.332.95-.76 2.37-1.879 7.434-3.319 3.136-.091c1.132-.03 2.264.07 3.373.299a13.69 13.69 0 0 1 6.543 3.319c.957.922 1.83 1.93 2.61 3.008a32.162 32.162 0 0 1 2.244 3.476 30.485 30.485 0 0 1 2.904 8.148c.386 1.763.66 3.522.883 5.19l.063.494-.262-.415a73.18 73.18 0 0 0-4.725-6.829 36.949 36.949 0 0 0-5.319-5.505 25.724 25.724 0 0 0-5.808-3.66 19.693 19.693 0 0 0-5.713-1.613 17.714 17.714 0 0 0-4.874.104c-1.21.202-2.393.546-3.523 1.024-.71.303-1.398.661-2.053 1.07l-.506.337-.166.108.17-.129.481-.349c.648-.425 1.33-.796 2.041-1.107a15.437 15.437 0 0 1 3.535-1.062 17.56 17.56 0 0 1 4.912-.141c1.992.24 3.937.782 5.767 1.605a25.798 25.798 0 0 1 5.895 3.668 36.715 36.715 0 0 1 5.36 5.526 72.883 72.883 0 0 1 4.746 6.845l-.199.071c-.22-1.66-.494-3.419-.88-5.174a30.406 30.406 0 0 0-2.874-8.098 32.318 32.318 0 0 0-2.224-3.456 22.474 22.474 0 0 0-2.58-2.983 13.57 13.57 0 0 0-6.444-3.319c-2.265-.51-4.464-.232-6.468-.224h.03l-7.468 3.282-2.386 1.858-.958.747-.415.328-.195.153-.091.075c0 .033-.062 0-.042.058.096.585.17 1.037.224 1.353.025.149.042.265.059.352a.27.27 0 0 0 .041.117z" fill="#263238"/><path d="M30.998 97.063a15.612 15.612 0 0 0-18.175 6.073c3.634-.854 7.289-1.713 11.015-1.904 3.725-.191 7.567.328 10.857 2.074l-3.697-6.243z" fill="#455A64"/><path d="M30.998 97.063s.029.033.074.104l.195.31c.179.295.415.706.747 1.245l2.734 4.564.141.236-.24-.128a19.009 19.009 0 0 0-7.659-2.033c-3.012-.212-6.343.191-9.762.9-1.51.307-2.979.656-4.39.988l-.26.062.149-.224a15.867 15.867 0 0 1 6.123-5.36 15.55 15.55 0 0 1 10.65-1.125c.494.125.867.241 1.124.332l.282.104.092.041a.331.331 0 0 1-.104-.024l-.286-.083a14.3 14.3 0 0 0-1.125-.3 16.078 16.078 0 0 0-4.294-.393 15.548 15.548 0 0 0-6.256 1.614 15.766 15.766 0 0 0-6.028 5.31l-.116-.162c1.415-.332 2.904-.68 4.398-.991 3.426-.714 6.779-1.108 9.816-.884 2.69.136 5.32.843 7.716 2.074l-.1.108-2.663-4.563a51.869 51.869 0 0 0-.718-1.245c-.074-.137-.133-.245-.182-.328a.93.93 0 0 1-.058-.15z" fill="#263238"/><path d="M63.363 79.904a13.388 13.388 0 0 0-7.331 2.962l-1.46 5.306c4.712-2.904 10.371-4.057 15.89-4.107 5.517-.05 11.026.93 16.461 2.012a25.746 25.746 0 0 0-23.56-6.173z" fill="#455A64"/><path d="M63.363 79.904a.452.452 0 0 1 .116-.037l.357-.083c.311-.067.768-.2 1.373-.295a24.52 24.52 0 0 1 5.26-.344c2.694.105 5.354.632 7.883 1.564a25.195 25.195 0 0 1 8.659 5.294l.265.249-.356-.07c-3.266-.644-6.817-1.324-10.542-1.71a43.724 43.724 0 0 0-12.106.249 27.581 27.581 0 0 0-9.642 3.522l-.183.112.059-.207c.547-1.963 1.045-3.734 1.477-5.298v-.02a12.03 12.03 0 0 1 2.904-1.797 13.603 13.603 0 0 1 2.393-.805c.51-.124 1.027-.217 1.548-.278.178-.02.315-.03.415-.033h.137a.879.879 0 0 1-.137.02l-.415.05c-.517.078-1.03.182-1.535.311-.813.206-1.606.483-2.369.83a12.15 12.15 0 0 0-2.842 1.796l.02-.033-1.451 5.31-.125-.095a27.678 27.678 0 0 1 9.696-3.576 43.655 43.655 0 0 1 12.164-.266c3.734.386 7.293 1.07 10.558 1.722l-.09.174a25.274 25.274 0 0 0-8.576-5.28 25.832 25.832 0 0 0-7.817-1.594 25.497 25.497 0 0 0-5.24.278c-.605.087-1.066.212-1.38.261l-.358.07a.646.646 0 0 1-.12.01z" fill="#263238"/><path d="M50.161 97.067c4.601-8.439 8.19-17.674 12.861-21.636 4.672-3.962 10.127-7.052 14.426-11.43A31.447 31.447 0 0 0 86.2 46.163c-4.078 5.082-10.45 7.609-16.37 10.335-5.92 2.725-12.065 6.28-14.646 12.263l-3.319 9.127-1.705 19.18z" fill="#455A64"/><path d="M50.161 97.067c.05-.589.635-7.397 1.66-19.188l3.319-9.193c1.414-3.27 4.12-6.111 7.41-8.298a44.403 44.403 0 0 1 5.28-3.028c1.86-.917 3.801-1.763 5.75-2.668 2-.897 3.951-1.898 5.846-3a29.748 29.748 0 0 0 2.784-1.854 21.91 21.91 0 0 0 2.56-2.215c.24-.253.498-.494.718-.76l.655-.763.237-.278-.046.361a31.115 31.115 0 0 1-4.319 12.148 32.312 32.312 0 0 1-3.692 4.924A40.243 40.243 0 0 1 74 67.267c-2.991 2.406-6.028 4.418-8.712 6.493a25.197 25.197 0 0 0-3.676 3.227 29.142 29.142 0 0 0-2.676 3.639c-1.523 2.448-2.722 4.767-3.763 6.804l-2.651 5.235a135.131 135.131 0 0 1-1.726 3.29l-.622 1.12.597-1.153c.382-.738.959-1.854 1.66-3.294l2.63-5.256c1.033-2.046 2.224-4.373 3.734-6.833a29.595 29.595 0 0 1 2.68-3.664 25.41 25.41 0 0 1 3.692-3.26c2.693-2.075 5.721-4.104 8.713-6.506a39.465 39.465 0 0 0 4.294-3.995 32.12 32.12 0 0 0 3.667-4.895 30.89 30.89 0 0 0 4.281-12.077l.191.083-.66.771c-.223.266-.48.51-.725.768A22.35 22.35 0 0 1 82.343 50a29.334 29.334 0 0 1-2.805 1.863 61.923 61.923 0 0 1-5.853 3c-1.954.904-3.896 1.746-5.746 2.663a43.68 43.68 0 0 0-5.261 3.008c-3.273 2.174-5.957 4.978-7.356 8.206l-3.352 9.177c-1.108 11.757-1.742 18.582-1.809 19.15z" fill="#263238"/><path d="M55.165 72.785a40.93 40.93 0 0 1 17.815-13.53l-17.815 13.53z" fill="#455A64"/><path d="M72.98 59.255a.737.737 0 0 1-.204.108l-.606.27c-.261.112-.58.253-.95.415-.369.161-.788.356-1.244.597a42.742 42.742 0 0 0-3.145 1.734 42.794 42.794 0 0 0-3.634 2.469 42.705 42.705 0 0 0-3.357 2.842c-.991.92-1.83 1.8-2.51 2.564-.352.369-.643.73-.912 1.037-.27.307-.486.576-.668.8l-.415.507a.922.922 0 0 1-.158.17c.035-.07.077-.135.125-.195l.39-.535c.166-.233.377-.51.639-.83.261-.32.543-.68.887-1.062.668-.78 1.515-1.66 2.49-2.606a43.091 43.091 0 0 1 3.364-2.867 42.114 42.114 0 0 1 3.66-2.489 45.414 45.414 0 0 1 3.177-1.7c.46-.233.892-.416 1.266-.573.373-.158.697-.295.966-.415l.618-.228c.073-.012.147-.017.22-.013z" fill="#263238"/><path d="M36.935 50.61c-2.157-5.808-6.505-12.263-11.272-17.926-3.987-4.742-9.795-8.634-15.097-11.832 8.073 9.998 11.824 40.33 30.149 50.315l-3.78-20.557z" fill="#455A64"/><path d="M36.935 50.611s.03.12.079.361c.05.24.116.602.207 1.062l.776 4.095 2.797 15.022.033.166-.15-.078a29.29 29.29 0 0 1-6.745-5.128 43.236 43.236 0 0 1-5.904-7.53c-3.589-5.688-6.426-12.446-9.127-19.582-1.274-3.294-2.49-6.538-3.788-9.621a65.21 65.21 0 0 0-2.074-4.468 25.01 25.01 0 0 0-2.527-3.995l-.357-.444.49.294c5.061 3.054 9.612 6.223 13.102 9.696a32.685 32.685 0 0 1 2.397 2.647 75.798 75.798 0 0 1 2.075 2.61 84.156 84.156 0 0 1 3.451 4.812 55.953 55.953 0 0 1 4.15 7.297c.427.908.808 1.837 1.14 2.784l-.079-.178-.22-.535a19.604 19.604 0 0 0-.369-.868c-.153-.344-.32-.734-.535-1.174a56.838 56.838 0 0 0-4.182-7.256 79.931 79.931 0 0 0-3.464-4.787c-.66-.83-1.348-1.718-2.075-2.602a33.283 33.283 0 0 0-2.427-2.63c-3.489-3.46-8.036-6.6-13.097-9.642l.133-.153a25.074 25.074 0 0 1 2.551 4.024 65.556 65.556 0 0 1 2.116 4.48c1.315 3.087 2.522 6.336 3.792 9.63 2.718 7.115 5.543 13.873 9.127 19.549a43.473 43.473 0 0 0 5.866 7.509 29.141 29.141 0 0 0 6.688 5.111l-.166.104-2.73-15.03c-.315-1.777-.564-3.158-.73-4.104-.083-.465-.14-.83-.186-1.07-.046-.241-.038-.378-.038-.378z" fill="#263238"/><path d="M43.728 20.162c.303 4.302-.892 8.571-2.456 12.592-1.564 4.02-3.501 7.882-4.795 12.03-1.689 5.365-3.062 18.774 2.456 26.399l10.496-20.109a43.88 43.88 0 0 0-5.7-30.912z" fill="#455A64"/><path d="m43.727 20.162.307.502c.195.34.535.83.896 1.523a43.653 43.653 0 0 1 5.028 15.906c.133.966.178 1.975.253 3.003.075 1.03.066 2.1.025 3.187a43.85 43.85 0 0 1-.714 6.791c-3.074 5.895-6.5 12.446-10.102 19.375-.133.253-.261.506-.386.738l-.078.158-.104-.145a20.249 20.249 0 0 1-2.448-4.883 30.373 30.373 0 0 1-1.178-5.145 38.144 38.144 0 0 1-.328-5.099c0-.83.03-1.66.058-2.489 0-.415.058-.83.083-1.215.025-.386.062-.805.112-1.2.159-1.545.41-3.08.751-4.596a31.722 31.722 0 0 1 1.303-4.194c1-2.647 2.074-5.045 3.024-7.257a59.366 59.366 0 0 0 2.261-6.065 30.658 30.658 0 0 0 1.058-4.746c.141-1.019.208-2.046.2-3.074v-1.075.282c0 .15.045.415.04.793a19.746 19.746 0 0 1-.161 3.086 29.584 29.584 0 0 1-1.025 4.784 58.77 58.77 0 0 1-2.24 6.086c-.921 2.215-2.008 4.617-2.995 7.26a31.994 31.994 0 0 0-1.282 4.174 37.765 37.765 0 0 0-.739 4.563c-.05.415-.083.793-.112 1.195-.029.403-.062.8-.083 1.207-.025.83-.075 1.635-.054 2.469 0 1.695.113 3.389.336 5.07.237 1.741.627 3.459 1.166 5.132.586 1.71 1.4 3.332 2.419 4.825h-.183l.386-.735 10.11-19.341v.025c.418-2.23.661-4.49.726-6.758.046-1.083 0-2.141 0-3.174s-.116-2.029-.244-2.996a44.32 44.32 0 0 0-4.941-15.873c-.353-.68-.652-1.165-.83-1.522l-.315-.552z" fill="#263238"/><path d="M39.4 76.252a4.88 4.88 0 0 0-.113-.32c-1.423-3.866-5.061-6.471-8.521-8.757-3.552-2.352-7.343-4.904-8.895-8.874.606 4.904 3.19 12.263 6.526 15.906l14.18 12.5L39.4 76.252z" fill="#455A64"/><path d="M39.4 76.254s.024.062.066.183l.174.535c.153.481.369 1.174.651 2.074.556 1.81 1.36 4.419 2.36 7.65l.08.262-.204-.183-14.2-12.48a22.29 22.29 0 0 1-3.473-5.591 37.608 37.608 0 0 1-3.087-10.372l-.112-.83.311.78a12.889 12.889 0 0 0 2.979 4.356 28.682 28.682 0 0 0 3.784 3.07c1.244.888 2.489 1.66 3.596 2.444a33.304 33.304 0 0 1 2.963 2.286c.766.668 1.475 1.4 2.12 2.186.465.594.881 1.226 1.244 1.888.133.278.253.522.361.738.108.216.158.415.216.556.06.152.112.307.154.465 0 0-.059-.158-.187-.453l-.232-.547-.374-.726a14.126 14.126 0 0 0-1.278-1.859 18.405 18.405 0 0 0-2.128-2.149 33.335 33.335 0 0 0-2.962-2.257c-1.108-.771-2.34-1.543-3.614-2.427a28.796 28.796 0 0 1-3.817-3.078 12.978 12.978 0 0 1-3.016-4.443l.195-.05a37.757 37.757 0 0 0 3.066 10.334 22.302 22.302 0 0 0 3.44 5.514c5.492 4.858 10.413 9.206 14.16 12.525l-.125.079c-.967-3.244-1.751-5.858-2.295-7.671-.261-.896-.468-1.593-.61-2.075l-.153-.543c-.042-.124-.054-.19-.054-.19z" fill="#263238"/><path d="M55.427 68.988c-.656-4.717-2.178-9.268-3.954-13.69-1.245-3.075-2.904-6.394-6.003-7.526-1.697 5.58-4.232 10.86-5.68 16.495-1.448 5.634-2.074 19.407 3.423 27.087l9.376 1.132c3.199-7.505 3.489-18.78 2.838-23.498z" fill="#455A64"/><path d="M55.427 68.99s.025.145.062.415.091.709.133 1.244c.091 1.112.161 2.75.12 4.838a64.875 64.875 0 0 1-.602 7.546 40.241 40.241 0 0 1-2.489 9.492l-.029.063h-.066l-9.376-1.125h-.046l-.025-.037a23.418 23.418 0 0 1-3.406-8.065 41.83 41.83 0 0 1-1.037-9.327c-.02-2.478.157-4.955.53-7.405a41.297 41.297 0 0 1 1.839-6.829c1.51-4.331 3.203-8.297 4.34-12.031l.028-.091.092.033c1.755.643 3.032 1.991 3.945 3.373a23.206 23.206 0 0 1 2.104 4.215c1.095 2.746 1.933 5.182 2.514 7.219a47.2 47.2 0 0 1 1.116 4.775 25.968 25.968 0 0 1 .249 1.717s-.034-.149-.08-.435c-.045-.287-.124-.714-.223-1.27a49.68 49.68 0 0 0-1.166-4.758c-.598-2.025-1.444-4.456-2.551-7.19a22.97 22.97 0 0 0-2.104-4.182 8.153 8.153 0 0 0-3.867-3.294l.12-.058c-1.132 3.767-2.82 7.741-4.318 12.069a40.358 40.358 0 0 0-1.83 6.795 46.575 46.575 0 0 0-.514 7.356 41.902 41.902 0 0 0 1.025 9.28 23.365 23.365 0 0 0 3.368 7.995l-.07-.041 9.372 1.14-.096.054a40.202 40.202 0 0 0 2.49-9.438 66.38 66.38 0 0 0 .647-7.497 53.51 53.51 0 0 0-.066-4.829c-.034-.551-.071-.979-.104-1.265-.033-.286-.03-.452-.03-.452z" fill="#263238"/><path d="M55.81 79.904c-.456-5.269-2-10.372-3.538-15.437-5.668 5.236-9.372 13.998-8.456 21.66l3.46 17.906 5.555-8.779c2.722-4.563 3.436-10.069 2.98-15.35z" fill="#455A64"/><path d="M55.813 79.905a.576.576 0 0 1 0 .124l.037.37a29.134 29.134 0 0 1-.2 6.833 22.045 22.045 0 0 1-2.662 7.844l-5.638 8.991-.137.215-.046-.248c-.933-4.817-1.962-10.107-3.037-15.65-.145-.759-.29-1.514-.435-2.252a22.602 22.602 0 0 1 .286-6.692 28.17 28.17 0 0 1 8.256-15.023l.095-.09.042.128c.7 2.327 1.331 4.443 1.817 6.327.485 1.883.85 3.526 1.095 4.883.264 1.4.44 2.817.527 4.24 0 0 0-.096-.041-.282-.042-.187-.054-.47-.096-.83a53.3 53.3 0 0 0-.498-3.133 66.621 66.621 0 0 0-1.132-4.862 203.707 203.707 0 0 0-1.85-6.318l.136.037a28.161 28.161 0 0 0-8.127 14.973 22.445 22.445 0 0 0-.282 6.638c.145.738.29 1.493.415 2.252l3.02 15.654-.183-.034 5.663-8.973a22.017 22.017 0 0 0 2.718-7.787c.273-1.785.389-3.59.344-5.394a55.217 55.217 0 0 0-.058-1.435v-.374a.47.47 0 0 1-.029-.132z" fill="#263238"/><path d="M37.322 96.13a48.955 48.955 0 0 0-10.53-22.57A36.59 36.59 0 0 1 47.08 95.184s1.141 2.406-.796 6.26l-.78 2.074-8.181-7.389z" fill="#455A64"/><path d="M37.322 96.129c.054.037.106.08.154.124l.415.374 1.634 1.452c1.423 1.274 3.468 3.111 6.016 5.393l-.125.033c.245-.651.502-1.356.776-2.074.466-.916.797-1.894.983-2.904a6.223 6.223 0 0 0-.203-3.286 35.524 35.524 0 0 0-3.734-7.613 36.437 36.437 0 0 0-6.061-7.206 35.853 35.853 0 0 0-5.103-3.937 37.907 37.907 0 0 0-5.352-2.809l.116-.157a48.735 48.735 0 0 1 5.622 8.434 47.905 47.905 0 0 1 3.124 7.335 46.108 46.108 0 0 1 1.369 5.028c.133.593.2 1.05.261 1.36.025.15.046.266.063.353a.455.455 0 0 1 0 .125 1.195 1.195 0 0 1-.03-.116c0-.087-.045-.2-.078-.349-.07-.307-.154-.771-.295-1.36-.389-1.691-.864-3.361-1.423-5.004a48.553 48.553 0 0 0-3.128-7.314 48.84 48.84 0 0 0-5.626-8.389l-.265-.32.386.162a37.662 37.662 0 0 1 5.393 2.817 35.486 35.486 0 0 1 5.14 3.958 36.584 36.584 0 0 1 6.09 7.252 35.55 35.55 0 0 1 3.734 7.663 6.373 6.373 0 0 1 .208 3.398 10.886 10.886 0 0 1-1.012 2.941c-.278.73-.54 1.432-.785 2.075l-.041.107-.083-.074-5.982-5.46-1.602-1.477c-.178-.166-.315-.29-.415-.386-.1-.095-.14-.15-.14-.15z" fill="#263238"/><path d="M58.156 99.404a16.142 16.142 0 0 0-10.185 1.075l-.54 9.189c1.432-3.364 5.025-5.393 8.634-5.949 3.61-.556 7.285.191 10.849.996a16.176 16.176 0 0 0-8.758-5.31z" fill="#455A64"/><path d="M58.157 99.402c.93.174 1.84.452 2.709.83a16.172 16.172 0 0 1 6.115 4.439l.166.195-.253-.054a43.356 43.356 0 0 0-7.053-1.133 18.232 18.232 0 0 0-4.029.208c-.693.114-1.376.288-2.04.518-.683.225-1.342.513-1.971.859a9.43 9.43 0 0 0-4.257 4.456l-.236.552.037-.602c.203-3.389.415-6.505.556-9.189v-.05l.045-.021A16.128 16.128 0 0 1 55.37 99c.946.032 1.885.171 2.8.414a1.03 1.03 0 0 1-.187-.025l-.54-.09a16.473 16.473 0 0 0-9.425 1.269l.05-.075c-.15 2.68-.324 5.808-.519 9.189l-.199-.045a9.585 9.585 0 0 1 4.344-4.564 12.055 12.055 0 0 1 2.008-.879 12.77 12.77 0 0 1 2.074-.523 18.138 18.138 0 0 1 4.078-.199 42.58 42.58 0 0 1 7.095 1.166l-.083.141a16.363 16.363 0 0 0-6.02-4.46c-.64-.275-1.297-.51-1.967-.705l-.526-.146-.195-.066z" fill="#263238"/><path d="M34.813 101.946A77.744 77.744 0 0 0 7.709 84.26c6.883.452 13.865.991 20.329 3.368 6.464 2.378 12.483 6.867 15.155 13.227" fill="#455A64"/><path d="m43.204 100.856-.09-.17-.246-.506a17.977 17.977 0 0 0-1.033-1.884 21.392 21.392 0 0 0-2.012-2.738 25.161 25.161 0 0 0-3.257-3.1 31.303 31.303 0 0 0-10.371-5.343c-4.215-1.336-9.053-2.02-14.135-2.43a290.8 290.8 0 0 0-4.377-.316l.046-.208a77.421 77.421 0 0 1 20.084 11.484 73.323 73.323 0 0 1 5.202 4.526c.593.556 1.025 1.013 1.328 1.307l.336.349a.562.562 0 0 1 .108.12l-.125-.108-.348-.332c-.312-.286-.751-.734-1.353-1.278a81.256 81.256 0 0 0-5.24-4.472A78.577 78.577 0 0 0 7.65 84.36l-.635-.253.701.046c1.403.091 2.884.195 4.381.315 5.09.415 9.957 1.108 14.176 2.456a31.207 31.207 0 0 1 10.389 5.427 25.228 25.228 0 0 1 3.252 3.14c.738.87 1.406 1.796 1.996 2.772.372.616.706 1.255 1 1.912l.224.515c.05.104.07.166.07.166z" fill="#263238"/><path d="M33.944 99.462a14.061 14.061 0 0 0-8.023 11.758c1.883-3.684 5.762-6.074 9.82-6.891 4.057-.818 8.297-.228 12.267.867l.075-4.082a14.057 14.057 0 0 0-14.139-1.652z" fill="#455A64"/><path d="m33.945 99.461.062-.033.187-.083c.17-.07.414-.19.742-.31a13.487 13.487 0 0 1 2.958-.715 14.073 14.073 0 0 1 4.71.2c.951.193 1.88.491 2.766.888.985.432 1.915.979 2.772 1.63l.037.029v.05c-.02 1.298-.046 2.663-.07 4.082v.129l-.13-.034c-3.065-.829-6.563-1.481-10.2-1.153a16.48 16.48 0 0 0-7.153 2.29 12.445 12.445 0 0 0-4.622 4.829l-.207.415.029-.448a13.36 13.36 0 0 1 .589-3.169 13.04 13.04 0 0 1 1.145-2.672 13.992 13.992 0 0 1 2.941-3.684c.76-.68 1.596-1.272 2.49-1.763.306-.17.56-.274.721-.353l.187-.087.062-.025-.058.041-.178.096c-.158.091-.415.203-.706.381a14.113 14.113 0 0 0-5.306 5.468 13.667 13.667 0 0 0-1.684 5.775l-.178-.049a12.678 12.678 0 0 1 4.684-4.921 16.6 16.6 0 0 1 7.239-2.323c3.68-.336 7.202.328 10.276 1.17l-.124.095c.025-1.418.054-2.783.079-4.082l.037.075a13.359 13.359 0 0 0-2.726-1.622 12.927 12.927 0 0 0-2.73-.892 14.168 14.168 0 0 0-7.612.414c-.332.113-.581.225-.751.283l-.191.074c-.05 0-.083.009-.087.004z" fill="#263238"/><path d="M52.01 106.403a33.507 33.507 0 0 0 3.252 17.981c-5.618-6.854-13.073-11.202-14.06-19.64a5.467 5.467 0 0 1 3.203-4.406c3.078-1.473 4.31-1.174 4.31-1.174l1.456-.025.116.174a10.85 10.85 0 0 1 1.722 7.09z" fill="#455A64"/><path d="M52.007 106.404a.538.538 0 0 1 0-.133v-.386c.02-.502.007-1.005-.038-1.506a10.828 10.828 0 0 0-1.875-5.202l.062.033-1.456.029h-.02a3.583 3.583 0 0 0-1.063.058c-.376.069-.748.163-1.112.282-.78.251-1.537.566-2.265.942a5.603 5.603 0 0 0-1.975 1.659 5.232 5.232 0 0 0-.983 2.556 15.68 15.68 0 0 0 1.71 5.393 25.006 25.006 0 0 0 3.576 4.958c1.518 1.68 3.111 3.219 4.609 4.729 1.498 1.511 2.904 3 4.148 4.498l-.165.103a33.28 33.28 0 0 1-3.32-12.861 32.359 32.359 0 0 1 .025-3.804c.025-.44.067-.78.088-1.008 0-.104.024-.191.029-.257a.302.302 0 0 1 0-.088.268.268 0 0 1 0 .092v.257c0 .228-.042.568-.058 1.008a35.982 35.982 0 0 0 .033 3.792 33.706 33.706 0 0 0 3.377 12.786l.373.76-.54-.652c-1.223-1.485-2.634-2.966-4.148-4.472-1.514-1.506-3.095-3.045-4.617-4.738a24.867 24.867 0 0 1-3.606-5.003 15.835 15.835 0 0 1-1.721-5.477c.1-.962.454-1.88 1.029-2.659a5.787 5.787 0 0 1 2.045-1.722 15.035 15.035 0 0 1 2.298-.941c.371-.12.75-.213 1.133-.283a3.677 3.677 0 0 1 1.128-.045h-.02H50.18v.029a10.682 10.682 0 0 1 1.88 5.252c.058.674.04 1.351-.054 2.021z" fill="#263238"/><path d="M50.671 71.818c.019.093.027.188.025.282 0 .204 0 .473.02.801v2.958a116.044 116.044 0 0 1-1.987 19.395 73.495 73.495 0 0 1-.593 2.905c-.079.319-.137.58-.187.78a1.538 1.538 0 0 1-.074.27c0-.094.012-.188.033-.279.037-.203.087-.465.145-.792.133-.685.311-1.66.527-2.904.415-2.456.95-5.867 1.34-9.654.39-3.788.568-7.227.647-9.72.038-1.245.063-2.254.07-2.955 0-.327 0-.597.021-.8a2.12 2.12 0 0 1 .013-.287zM36.707 83.166c.05.043.094.092.133.145l.352.444c.303.39.726.963 1.245 1.684a65.294 65.294 0 0 1 6.704 11.986c.345.83.61 1.473.78 1.938l.195.53c.027.061.045.126.054.191 0 0-.041-.058-.095-.174-.054-.116-.137-.31-.233-.518-.19-.453-.48-1.104-.83-1.905a82.442 82.442 0 0 0-3.086-6.136 81.791 81.791 0 0 0-3.601-5.845c-.494-.73-.896-1.32-1.178-1.722-.129-.182-.233-.34-.32-.469-.087-.128-.128-.145-.12-.149zM48.215 113.601a3.375 3.375 0 0 1-.113-.573c-.066-.369-.165-.9-.306-1.556a51.209 51.209 0 0 1-1.03-5.144c-.24-1.758 0-3.55.698-5.182.223-.485.515-.937.867-1.34.092-.111.194-.215.302-.31.071-.071.112-.105.117-.096a8.47 8.47 0 0 0-1.15 1.813 10.103 10.103 0 0 0-.618 5.09c.233 2.025.73 3.817.963 5.14.12.66.203 1.199.24 1.573.033.193.043.389.03.585zM77.398 98.428a1.12 1.12 0 0 1-.224-.162c-.145-.112-.344-.29-.618-.498a21.663 21.663 0 0 0-2.402-1.638 21.034 21.034 0 0 0-18.45-1.54c-.904.349-1.786.756-2.638 1.22-.303.158-.53.303-.688.39-.08.05-.163.09-.25.125.07-.063.144-.117.225-.162.153-.1.373-.253.672-.415.84-.497 1.719-.928 2.626-1.29a20.645 20.645 0 0 1 20.95 3.244c.266.22.457.415.594.531.073.059.141.124.204.195zM44.612 32.895c.03.12.05.242.063.365.025.24.095.597.124 1.058a23.19 23.19 0 0 1 0 3.924 36.469 36.469 0 0 1-.975 5.738c-.514 2.128-1.224 4.43-1.983 6.837-.759 2.406-1.448 4.709-1.941 6.837a35.329 35.329 0 0 0-.892 5.721 24.04 24.04 0 0 0 .045 3.904c.03.46.104.83.125 1.058.021.122.032.245.033.37a2.258 2.258 0 0 1-.075-.366c-.037-.24-.124-.593-.166-1.054a21.987 21.987 0 0 1-.116-3.92c.113-1.938.39-3.863.83-5.754.485-2.141 1.174-4.452 1.929-6.858.755-2.407 1.473-4.705 1.995-6.825a38.138 38.138 0 0 0 1.017-5.7c.128-1.297.155-2.603.083-3.904 0-.465-.07-.83-.087-1.062a1.907 1.907 0 0 1-.009-.37zM75.622 28.207s-.021.033-.063.087l-.207.245-.797.925c-.352.415-.775.884-1.244 1.465-.469.58-1.046 1.244-1.626 1.97-.581.726-1.245 1.548-1.905 2.444-.66.896-1.369 1.846-2.103 2.862a114.004 114.004 0 0 0-4.44 6.825c-1.484 2.481-2.77 4.912-3.89 7.148-.544 1.129-1.071 2.195-1.52 3.211-.447 1.017-.874 1.967-1.244 2.838-.369.871-.684 1.66-.962 2.369-.278.71-.51 1.303-.693 1.8l-.415 1.142-.12.294c-.025.066-.042.1-.046.096a.33.33 0 0 1 .025-.104c.03-.08.058-.179.1-.303l.394-1.154c.17-.502.386-1.115.66-1.817.273-.7.56-1.51.933-2.381.373-.871.755-1.838 1.22-2.85a248.6 248.6 0 0 1 1.501-3.228 107.456 107.456 0 0 1 3.888-7.173c1.477-2.49 3.012-4.78 4.46-6.829.738-1.012 1.43-1.983 2.124-2.858.693-.876 1.323-1.693 1.925-2.427a84.74 84.74 0 0 1 1.66-1.954 64.05 64.05 0 0 1 1.285-1.444l.83-.896.22-.228.05-.075zM33.488 59.576c-.054.025-2.352-4.933-5.132-11.069-2.78-6.136-4.978-11.13-4.937-11.151.042-.021 2.353 4.928 5.132 11.064 2.78 6.136 4.991 11.156 4.937 11.156z" fill="#263238"/><path d="M50.86 99.744c3.32-2.663 5.85-7.513 6.775-11.666.925-4.153.83-8.455.594-12.703-.295-4.908-.83-9.837-2.257-14.541-1.427-4.705-4.73-10.903-9.51-12.592a19.81 19.81 0 0 1 6.506 11.015c1.44 6.787 2.904 14.16 2.867 21.096-.038 6.937-1.502 13.322-5.547 18.96M59.857 62.233c6.107-5.12 9.468-12.732 12.339-20.167a33191.23 33191.23 0 0 1-12.052 19.308" fill="#000" opacity=".3"/><path d="M44.596 21.28c2.967 4.335 4.95 8.197 6.26 13.275 1.312 5.078.544 9.957-1.264 15.554 1.659-8.742.165-16.62-3.02-24.54" fill="#000" opacity=".3"/><path d="M63.09 118.305c-.024 0 0-.261-.066-.734a6.609 6.609 0 0 0-.49-1.929c-.638-1.556-2.206-3.398-4.355-4.829a23.92 23.92 0 0 0-3.158-1.793c-.24-.099-.499-.145-.759-.133a1.417 1.417 0 0 0-.676.241 2.658 2.658 0 0 0-.85 1.029c-.16.345-.3.7-.415 1.062-.112.32-.216.593-.32.83a2.909 2.909 0 0 1-.274.477c-.074.104-.12.149-.124.145-.004-.004.145-.22.323-.66.092-.215.179-.489.278-.829.103-.373.232-.737.386-1.091.195-.439.499-.821.884-1.108a1.61 1.61 0 0 1 .763-.286c.284-.017.568.031.83.141.544.236 1.073.505 1.585.805.54.298 1.083.626 1.626.991 2.174 1.448 3.734 3.34 4.373 4.954.25.63.397 1.297.435 1.974v.552c.008.064.01.127.005.191zM32.608 151.803a3.616 3.616 0 0 1-.46-1.033 9.034 9.034 0 0 1-.457-2.689v-.17l.212.025a5.462 5.462 0 0 1-1.208 2.328c-.228.285-.51.523-.83.701-.024-.025.295-.287.698-.797a5.933 5.933 0 0 0 1.116-2.282l.199-.829v1.037c.017.896.148 1.787.39 2.651.211.647.373 1.045.34 1.058zM38.22 140.698a3.34 3.34 0 0 1-.364-.995 8.59 8.59 0 0 1-.257-2.56v-.133l.215.021a4.873 4.873 0 0 1-.933 2.302c-.19.288-.437.534-.726.722-.025-.029.261-.294.601-.809.446-.673.73-1.439.83-2.24l.216.021v.128a10.51 10.51 0 0 0 .187 2.51c.14.639.26 1.021.232 1.033zM36.932 174.699a4.272 4.272 0 0 1-.03-.95c0-.594.03-1.419.071-2.353l.204.046-.24.552c-.436.987-.83 1.875-1.142 2.514a6.276 6.276 0 0 1-.53 1.016 5.93 5.93 0 0 1 .39-1.078c.265-.652.646-1.552 1.082-2.539l.245-.548.232-.527-.029.573a87.333 87.333 0 0 1-.141 2.348 4.83 4.83 0 0 1-.112.946zM47.973 181.368a1.969 1.969 0 0 1-.531-.576 6.137 6.137 0 0 1-.863-1.714h.203l-.046.125c-.293.89-.655 1.757-1.082 2.593.227-.91.522-1.802.883-2.668l.046-.124.108-.295.095.299c.298.832.696 1.625 1.187 2.36zM64.287 179.287c-.02.021-.262-.187-.569-.589a6.182 6.182 0 0 1-1.099-2.377h.208a2.986 2.986 0 0 1-.56 1.431c-.237.307-.415.44-.44.415.1-.172.209-.339.327-.498.257-.418.416-.889.465-1.377l.058-.61.15.597c.05.195.107.415.178.61a10.9 10.9 0 0 0 1.282 2.398zM76.07 171.62a5.735 5.735 0 0 1-.78-2.373c0-.141-.038-.282-.05-.415l.203.029c-.23.653-.52 1.282-.867 1.88.163-.672.388-1.328.672-1.958l.15-.39.054.414c0 .129.033.266.05.415.19 1.345.626 2.369.568 2.398z" fill="#263238"/><path d="M32.827 133.777a45.443 45.443 0 0 0-2.107-8.542 3.62 3.62 0 0 0-1.141-1.85 2.614 2.614 0 0 0-2.344-.158c-1.183.415-1.336.917-1.962 1.44.804-.78 2.21-1.008 3.036-.332a6.8 6.8 0 0 1 1.822 2.904 70.795 70.795 0 0 1 2.074 8.148c.207.108.494-.697.585-.908.08-.226.092-.469.037-.702zM45.574 137.656a12.755 12.755 0 0 0-7.181-7.008c3.692 2.224 6.368 6.9 6.521 11.202a2.397 2.397 0 0 0 1.129-1.937 5.13 5.13 0 0 0-.469-2.257zM59.123 147.502a8.677 8.677 0 0 1 5.144 2 13.52 13.52 0 0 1 3.443 4.389c.316.606.83 1.456.768 2.137l-1.02 1.344c-.918-4.058-3.706-8.182-7.667-9.663M68.418 138.234l.15.104c2.207.9 4.123 2.784 5.546 4.663.259.458.554.894.884 1.303 0 0 .772.39 1.199.236-1.182-3.48-4.09-6.098-7.779-6.306z" fill="#000" opacity=".3"/><path d="M27.58 172.835a1.637 1.637 0 0 1-.415-.195 3.709 3.709 0 0 1-.456-.274c-.17-.116-.374-.24-.577-.414a9.808 9.808 0 0 1-1.332-1.27 10.897 10.897 0 0 1-1.273-1.859 10.676 10.676 0 0 1-.83-2.099c-.16-.593-.26-1.2-.299-1.813a5.965 5.965 0 0 1 0-.705 3.888 3.888 0 0 1 .03-.531c.004-.153.028-.305.07-.452.041 0-.03.647.07 1.659.059.601.171 1.195.336 1.776a10.45 10.45 0 0 0 2.054 3.879c.389.463.818.89 1.282 1.278.788.672 1.36.97 1.34 1.02zM36.956 181.361s-.112 0-.298-.079a5.308 5.308 0 0 1-.772-.344 7.847 7.847 0 0 1-3.626-4.107 5.52 5.52 0 0 1-.245-.809c-.041-.195-.058-.303-.041-.307.017-.004.145.415.415 1.058a8.999 8.999 0 0 0 1.464 2.298c.6.68 1.3 1.265 2.075 1.734.634.357 1.045.523 1.029.556zM18.137 147.467a2.499 2.499 0 0 1-.154-.801 8.911 8.911 0 0 1 .042-1.967 8.727 8.727 0 0 1 .465-1.908 2.43 2.43 0 0 1 .352-.734c-.248.879-.45 1.771-.605 2.671a25.3 25.3 0 0 0-.1 2.739zM23.066 133.117a2.076 2.076 0 0 1-.133-.83 5.478 5.478 0 0 1 1.386-3.784c.178-.223.396-.412.643-.556a8.452 8.452 0 0 0-1.494 2.39 8.256 8.256 0 0 0-.402 2.78zM20.254 123.939c-.058 0-.05-.237 0-.498s.162-.461.22-.444c.058.017.054.237 0 .498s-.162.456-.22.444zM23.764 117.108a5.733 5.733 0 0 1 1.921-4.223 16.544 16.544 0 0 0-1.207 1.999c-.29.724-.527 1.467-.714 2.224zM30.153 124.882a2.189 2.189 0 0 1 0-.78c.056-.626.18-1.244.374-1.842a8.1 8.1 0 0 1 .78-1.714c.116-.235.273-.447.464-.626a25.524 25.524 0 0 0-1.037 2.406 24.514 24.514 0 0 0-.58 2.556zM31.264 139.67c.335-.726.735-1.42 1.195-2.074.399-.689.86-1.34 1.378-1.946a13.267 13.267 0 0 1-1.195 2.075c-.4.688-.861 1.339-1.378 1.945zM27.281 147.942c-.054-.029.058-.366.253-.755.195-.39.415-.685.453-.66.037.025-.063.365-.258.755s-.385.66-.448.66zM37.831 159.21a17.944 17.944 0 0 1 1.203-3.759 9.53 9.53 0 0 1-.502 1.913 9.163 9.163 0 0 1-.7 1.846zM47.769 170.763a5.524 5.524 0 0 1 1.66-3.995 20.83 20.83 0 0 0-1.042 1.908c-.243.684-.45 1.381-.618 2.087zM44.52 148.172a1.608 1.608 0 0 1-.02-.693 4.722 4.722 0 0 1 1.506-2.954c.16-.171.356-.305.573-.394a6.417 6.417 0 0 0-2.075 4.041h.017zM42.376 130.054a4.15 4.15 0 0 1 .274-2.153 4.223 4.223 0 0 1 1.136-1.846c-.35.62-.662 1.261-.933 1.921a16.935 16.935 0 0 0-.477 2.078zM40.253 117.583c.014-.959.173-1.91.473-2.821a9.424 9.424 0 0 1-.473 2.821zM54.393 157.821a2.49 2.49 0 0 1 .02-.83 8.098 8.098 0 0 1 1.478-3.734c.148-.238.336-.45.556-.626a18.674 18.674 0 0 0-1.332 2.489 18.962 18.962 0 0 0-.722 2.701zM59.493 177.296a10.536 10.536 0 0 1 2.074-2.15 10.536 10.536 0 0 1-2.074 2.15zM37.672 99.984c0 .037-.49.125-1.273.344-1.016.289-2 .679-2.938 1.166a15.46 15.46 0 0 0-2.626 1.755c-.626.519-.983.88-1.008.855-.025-.025.066-.112.22-.282a8.9 8.9 0 0 1 .689-.689 12.862 12.862 0 0 1 5.625-2.954 8.82 8.82 0 0 1 .955-.174c.117-.023.237-.03.356-.02zM27.316 77.83a9.052 9.052 0 0 1-1.818-.83 9.496 9.496 0 0 1-1.713-1.033 9.16 9.16 0 0 1 1.817.83c.605.284 1.18.63 1.713 1.033zM16.046 54.236a20.17 20.17 0 0 1-2.639-1.194 19.15 19.15 0 0 1-2.543-1.382c.909.33 1.79.728 2.639 1.19.881.398 1.731.861 2.543 1.386z" fill="#fff"/><path d="M42.801 150.98c2.344.179 4.464 1.589 5.97 3.394 1.506 1.805 2.49 3.987 3.373 6.165l-1.485.9c-.697-4.563-3.551-8.928-7.858-10.459zM63.308 131.829c-1.245-1.27-2.863-2.49-4.63-2.257 3 1.028 6.451 5.194 8.077 8.936.204-.154.606-.22.83-.378a25.07 25.07 0 0 0-4.277-6.301zM70.073 155.41c2.804.531 5.132 2.489 7.052 4.593.408.369.697.852.83 1.385.079.54-.274 1.175-.83 1.195a15.621 15.621 0 0 0-6.675-6.949l2.742 1.855M53.443 160.131a11.38 11.38 0 0 1 9.58 9.986.784.784 0 0 1-.075.535.56.56 0 0 1-.649.109.563.563 0 0 1-.18-.146 1.782 1.782 0 0 1-.337-.872 12.929 12.929 0 0 0-7.999-9.355M45.764 173.751c-.14-.71-.286-1.419-.415-2.125-.377-1.854-.767-3.733-1.767-5.356a8.043 8.043 0 0 0-6.011-3.692 6.057 6.057 0 0 1 3.572 1.535c2.074 3.386 3.58 6.638 3.916 11.202.328.224.722-.415.722-.415a2.04 2.04 0 0 0-.017-1.149zM35.04 114.447a2.812 2.812 0 0 1 1.92-.502c1.224.083 4.075 3.132 5.095 5.414 1.02 2.282 1.884 4.734 1.884 4.734l-.871.95s-1.46-5.024-3.39-7.401c-1.93-2.378-3.526-3.759-4.638-3.195zM49.656 122.395s1.145.195 2.444 1.987c1.298 1.792 3.634 6.729 3.634 6.729l-.991 1.162s-1.245-4.095-2.05-5.73a15.188 15.188 0 0 0-3.037-4.148zM70.674 125.761s3.319-.178 6.049 3.929c2.73 4.107 2.232 5.48 2.232 5.48l-1.104 1.577s-.162-4.149-1.535-6.099c-1.373-1.95-4.236-4.783-5.642-4.887zM61.827 117.86s1.738-.228 4.675 2.074c2.938 2.303 3.958 5.842 3.958 5.842l-.888.269a12.292 12.292 0 0 0-4.377-6.368 15.916 15.916 0 0 0-3.368-1.817zM39.276 150.309a17.802 17.802 0 0 0-1.98-5.041c-.962-1.535-2.393-2.838-4.148-3.319 3.46 2.809 4.904 6.659 5.858 11.579.51-.352.469-.767.51-1.39a5.775 5.775 0 0 0-.24-1.829zM47.708 139.398c.274-.648 2.046-.668 2.904-.366a7.827 7.827 0 0 1 2.328 1.49c2.406 1.966 4.887 4.032 6.223 6.841l-1.324.241c-2.422-3.564-3.858-6.157-7.724-8.053a3.838 3.838 0 0 0-2.407-.153zM34.6 162.075a13.949 13.949 0 0 0-3.858-7.301 5.525 5.525 0 0 0-2.344-1.523c-.909-.245-2.178-.12-2.78.606l1.357-.502c1.572.124 2.721 1.506 3.534 2.854a22.507 22.507 0 0 1 3.087 9.281 2.158 2.158 0 0 0 1.062-1.515 4.814 4.814 0 0 0-.058-1.9z" fill="#000" opacity=".3"/><path d="M31.909 142.013c1.215-.415 2.834.523 3.734 1.452a16.158 16.158 0 0 1 4.281 8.816l-.892 1.245a28.444 28.444 0 0 0-1.584-5.746c-.872-2.075-1.938-3.937-2.49-4.41-1.775-1.515-3.05-1.357-3.05-1.357zM48.108 139.197a3.36 3.36 0 0 1 2.684-.336c1.452.473 6.987 5.946 8.198 8.074l-.112.651-1.033.249c.24-.182-4.049-6.007-6.223-7.517a6.919 6.919 0 0 0-3.514-1.121zM19.788 138.713s1.81-1.133 3.942.958 3.505 5.783 3.505 5.783a21.506 21.506 0 0 0-1.331 2.012 8.446 8.446 0 0 0-.37-3.319c-.522-1.589-1.867-3.223-2.53-4.07-1.693-2.186-3.216-1.364-3.216-1.364z" fill="#000" opacity=".3"/><path d="M96 176.85c-2.584-.796-2.186-2.19-2.597-5.173-.41-2.983-1.112-10.061 0-15.521.739-3.597 2.66-7.488 3.796-9.587 9.347-2.373 15.205-9.078 17.039-18.06 2.004-9.778-4.003-22.706-6.945-31.791-2.431-7.514.992-20.329 2.245-24.536a1.2 1.2 0 0 0-.533-1.373 1.202 1.202 0 0 0-.496-.166 210.023 210.023 0 0 0-20.084-1.045h-.51c-9.186.025-16.969.726-20.085 1.045a1.203 1.203 0 0 0-1.028 1.54c1.244 4.202 4.675 17.009 2.244 24.535-2.937 9.085-8.945 22.013-6.945 31.791 1.834 8.982 7.692 15.687 17.039 18.06 1.14 2.099 3.058 5.99 3.796 9.587 1.124 5.46.415 12.534 0 15.521s0 4.377-2.597 5.173c-2.597.797-16.595.324-18.67 4.738v2.228s12.368 4.891 27.12 4.705c15.799-.623 25.839-4.705 25.839-4.705v-2.228c-2.02-4.414-16.039-3.941-18.628-4.738z" fill="#FAFAFA"/><path d="m95.999 176.85.32.071c.215.041.535.099.962.145.85.104 2.128.191 3.796.324 1.668.132 3.734.294 6.165.693 1.305.203 2.591.511 3.846.921.694.23 1.362.534 1.991.908a4.151 4.151 0 0 1 1.614 1.66v2.281h-.033a68.759 68.759 0 0 1-10.397 2.904 99.088 99.088 0 0 1-12.595 1.689l-1.714.091c-.576.029-1.157.079-1.742.058H86.44c-.593 0-1.19-.045-1.796-.07-1.207-.037-2.427-.158-3.663-.257a46.68 46.68 0 0 1-3.734-.469 82.386 82.386 0 0 1-7.7-1.502 72.18 72.18 0 0 1-7.883-2.381l-.058-.021v-2.307c.23-.45.548-.85.934-1.178.383-.321.8-.6 1.244-.83.908-.439 1.861-.78 2.842-1.016a42.78 42.78 0 0 1 6.057-.988c2.075-.219 4.149-.327 6.265-.556a6.772 6.772 0 0 0 1.543-.307c.5-.146.96-.409 1.34-.767.35-.392.575-.878.647-1.398.1-.519.146-1.062.2-1.602.564-4.306.945-8.753.601-13.275a30.037 30.037 0 0 0-.452-3.373 24.012 24.012 0 0 0-.934-3.319 45.244 45.244 0 0 0-2.875-6.356l.067.054a24.97 24.97 0 0 1-6.302-2.531 21.328 21.328 0 0 1-5.365-4.373 24.13 24.13 0 0 1-5.7-12.861 28.208 28.208 0 0 1 .232-7.281 55.998 55.998 0 0 1 1.614-7.206c1.378-4.763 3.199-9.442 4.846-14.218l.502-1.497c.133-.506.27-1.008.415-1.515l.257-1.547.141-1.556a39.451 39.451 0 0 0-.203-6.223A75.84 75.84 0 0 0 67.14 73.8c-.136-.489-.277-.979-.414-1.464a1.331 1.331 0 0 1 .394-1.49c.215-.173.479-.276.755-.294l.755-.075 1.506-.14a219.216 219.216 0 0 1 17.777-.842l-.104.103v-.104h.739v.104l-.108-.104a210.448 210.448 0 0 1 20.105 1.05 1.308 1.308 0 0 1 1.13.976c.043.172.051.35.023.526-.17.65-.361 1.244-.527 1.879a91.64 91.64 0 0 0-1.705 7.468 54.13 54.13 0 0 0-.884 7.388c-.149 2.416.059 4.84.619 7.194.078.287.141.573.236.855l.282.83c.183.564.378 1.12.573 1.66.414 1.111.788 2.21 1.178 3.318.784 2.182 1.551 4.336 2.248 6.476.357 1.067.668 2.137.992 3.199.324 1.062.597 2.12.83 3.182.232 1.062.456 2.116.659 3.166.204 1.049.332 2.099.415 3.148.211 2.051.145 4.12-.195 6.153a25.98 25.98 0 0 1-1.684 5.663 22.029 22.029 0 0 1-6.617 8.712 22.765 22.765 0 0 1-4.348 2.664l-1.129.498c-.381.149-.763.282-1.14.414l-.565.208-.572.162-1.129.327.038-.029a45.475 45.475 0 0 0-2.962 6.58 23.167 23.167 0 0 0-.876 3.178 30.853 30.853 0 0 0-.415 3.058 56.627 56.627 0 0 0 .162 10.118c.129 1.374.324 2.581.415 3.631.091 1.049.199 1.954.618 2.547a2.78 2.78 0 0 0 1.274.954c.166.075.298.112.385.145l.13.05s-.18-.05-.52-.178a2.81 2.81 0 0 1-1.298-.95c-.415-.602-.535-1.523-.639-2.564-.104-1.042-.29-2.253-.415-3.626a56.546 56.546 0 0 1-.203-10.127c.087-1.029.225-2.052.415-3.066.215-1.085.507-2.152.875-3.195a44.913 44.913 0 0 1 2.954-6.604v-.025h.025l1.128-.328.569-.166.56-.203c.377-.141.755-.27 1.137-.415l1.116-.498a22.78 22.78 0 0 0 4.323-2.651 21.916 21.916 0 0 0 6.563-8.663 25.813 25.813 0 0 0 1.659-5.629 23.08 23.08 0 0 0 .187-6.111c-.071-1.042-.245-2.075-.415-3.137a34.8 34.8 0 0 0-.664-3.153 272.517 272.517 0 0 0-.829-3.174c-.287-1.066-.635-2.124-.992-3.19-.697-2.137-1.464-4.286-2.253-6.468l-1.178-3.319c-.199-.556-.415-1.116-.577-1.66l-.286-.829c-.095-.282-.158-.577-.24-.867a24.82 24.82 0 0 1-.627-7.248c.118-2.492.404-4.973.859-7.426a86.54 86.54 0 0 1 1.709-7.468c.162-.618.361-1.244.519-1.858a1.09 1.09 0 0 0-.212-.83 1.105 1.105 0 0 0-.763-.415 196.867 196.867 0 0 0-3.921-.357 215.918 215.918 0 0 0-16.15-.684h-.092v-.104l.104.104h-.519l.104-.104v.104h-.104a212.533 212.533 0 0 0-17.756.825l-1.502.141-.755.08c-.233.013-.457.098-.64.244a1.116 1.116 0 0 0-.327 1.245c.145.485.286.974.415 1.464a76.233 76.233 0 0 1 2.394 12.106c.234 2.078.302 4.172.203 6.26l-.141 1.573-.261 1.56a35.198 35.198 0 0 1-.415 1.539l-.502 1.502c-1.66 4.783-3.469 9.455-4.842 14.205a55.25 55.25 0 0 0-1.593 7.144 27.988 27.988 0 0 0-.232 7.227 23.946 23.946 0 0 0 5.626 12.77 21.192 21.192 0 0 0 5.314 4.335 24.801 24.801 0 0 0 6.248 2.51h.045l.021.042a45.504 45.504 0 0 1 2.892 6.389c.39 1.083.705 2.192.942 3.319a30.38 30.38 0 0 1 .452 3.393c.344 4.539-.042 9.007-.61 13.309-.054.54-.1 1.083-.203 1.618a2.777 2.777 0 0 1-.697 1.49 3.486 3.486 0 0 1-1.415.829 7.254 7.254 0 0 1-1.585.312c-2.116.228-4.207.336-6.264.555-2.033.179-4.05.505-6.037.975-.968.234-1.908.57-2.804 1.004a6.47 6.47 0 0 0-1.245.793c-.365.31-.665.689-.884 1.116v2.19l-.053-.083a71.148 71.148 0 0 0 7.878 2.369 80.906 80.906 0 0 0 7.688 1.506c1.244.208 2.489.328 3.733.473 1.245.145 2.452.224 3.655.262.602.024 1.2.074 1.793.074h1.767c.58.021 1.162-.025 1.738-.054l1.71-.091a99.155 99.155 0 0 0 12.578-1.659 68.964 68.964 0 0 0 10.372-2.863l-.029.05v-2.207a4.065 4.065 0 0 0-1.572-1.618 10.119 10.119 0 0 0-1.975-.909 24.819 24.819 0 0 0-3.829-.929c-2.415-.415-4.485-.569-6.153-.714-1.668-.145-2.945-.236-3.8-.348-.415-.05-.747-.112-.958-.158-.212-.046-.299-.075-.299-.075z" fill="#263238"/><path d="M89.439 106.359c0-.506-16.645-48.615-19.62-57.206a2.547 2.547 0 0 0-1.792-1.64L44.5 41.599l-1.033 3.796 21.573 5.29a2.564 2.564 0 0 1 1.714 1.609l19.424 54.875 3.26-.809z" fill="#DBBE8F"/><path d="M89.44 106.36s-.245.071-.78.208l-2.49.63h-.024v-.025c-1.618-4.534-5.215-14.636-10.081-28.306-2.427-6.846-5.174-14.583-8.148-22.963-.37-1.05-.743-2.104-1.125-3.174a4.915 4.915 0 0 0-.307-.772 2.375 2.375 0 0 0-.51-.639 2.427 2.427 0 0 0-.693-.44 6.443 6.443 0 0 0-.83-.228l-6.82-1.66-14.214-3.48-.108-.029.03-.108c.203-.755.414-1.572.65-2.394.134-.48.262-.958.383-1.402l.029-.1.103.025 17.101 4.303 4.1 1.029 2.02.51c.349.067.684.189.995.36.31.18.58.422.793.71.204.286.359.604.456.942l.336.962c.22.64.44 1.278.66 1.909l1.294 3.734a66974.04 66974.04 0 0 0 9.024 26.22l6.02 17.669c.692 2.074 1.244 3.709 1.6 4.812.175.552.316.967.395 1.245.079.278.116.415.116.415s-.054-.179-.137-.415c-.083-.236-.232-.697-.415-1.245-.377-1.099-.929-2.717-1.638-4.795l-6.082-17.65c-2.58-7.467-5.655-16.333-9.07-26.207-.43-1.233-.864-2.478-1.298-3.733l-.664-1.909c-.108-.32-.22-.639-.332-.958a2.826 2.826 0 0 0-.414-.892c-.407-.53-1-.883-1.66-.987l-2.02-.51-4.104-1.03-17.105-4.29.129-.074c-.12.44-.249.92-.382 1.402-.224.83-.444 1.639-.651 2.394l-.079-.133 14.218 3.498 6.82 1.659c.282.062.559.142.83.24.275.117.529.278.75.478.221.198.407.432.548.693.131.258.24.527.324.804l1.12 3.174c2.962 8.38 5.696 16.122 8.115 22.972l9.957 28.348-.033-.021 2.49-.593.808-.183z" fill="#263238"/><path d="M44.61 41.435c.153.182.255.401.295.635a3.15 3.15 0 0 1-.02 1.689 3.082 3.082 0 0 1-.897 1.431 1.34 1.34 0 0 1-.589.378c0-.03.2-.179.486-.486.368-.394.64-.868.792-1.385a3.502 3.502 0 0 0 .079-1.594c-.07-.41-.174-.655-.145-.668zM67.744 48.395a8.304 8.304 0 0 1-.913 1.402c-.292.478-.63.927-1.008 1.34.196-.53.476-1.024.83-1.465a5.54 5.54 0 0 1 1.09-1.277zM69.214 48.402a9.643 9.643 0 0 1-1.36 1.498c-.454.5-.96.95-1.511 1.34.4-.544.857-1.044 1.36-1.494.456-.5.962-.95 1.51-1.344zM69.483 50.33a13.69 13.69 0 0 1-3.066 1.494 13.69 13.69 0 0 1 3.066-1.494z" fill="#263238"/><path d="M105.662 83.414s-1.112 9.957.087 13.761c2.7 8.601 8.218 20.848 6.38 30.108-1.684 8.504-7.052 14.856-15.653 17.101H79.881c-8.6-2.249-13.956-8.597-15.665-17.101-1.838-9.26 4.149-20.113 6.38-30.108.83-3.709.88-8.554.204-13.047 0 0 6.484-1.116 15.13 1.44 8.646 2.555 14.595-2.648 19.732-2.154z" fill="#DBBE8F"/><path opacity=".3" d="M105.661 83.414s-1.111 9.957.088 13.761c2.7 8.601 8.218 20.848 6.38 30.108-1.684 8.504-7.053 14.856-15.653 17.101H79.881c-8.6-2.249-13.956-8.597-15.665-17.101-1.838-9.26 3.36-19.711 6.38-30.108 1.063-3.65.88-8.554.204-13.047 0 0 6.484-1.116 15.13 1.44 8.646 2.555 14.595-2.648 19.731-2.154z" fill="#fff"/><path d="M93.157 147c-.15.063-.308.108-.469.133-.303.07-.746.158-1.298.24a24.655 24.655 0 0 1-8.683-.261 18.43 18.43 0 0 1-1.282-.319 1.993 1.993 0 0 1-.457-.162c.161.01.321.037.477.079.303.066.747.153 1.29.249 1.423.256 2.862.407 4.307.452a29.788 29.788 0 0 0 4.327-.191c.552-.062.996-.124 1.303-.17.16-.034.322-.051.485-.05zM111.677 116.166l.033.087.087.266c.066.236.195.576.295 1.029.314 1.277.507 2.581.576 3.895.05.907.05 1.815 0 2.722-.068 1.04-.2 2.075-.394 3.099a23.533 23.533 0 0 1-2.365 6.741 22.548 22.548 0 0 1-2.028 3.104 24.154 24.154 0 0 1-2.336 2.535 22.84 22.84 0 0 1-4.73 3.418 21.207 21.207 0 0 1-3.613 1.56c-.44.158-.793.228-1.03.299l-.269.07a.234.234 0 0 1-.091 0l.087-.037.261-.087c.233-.083.581-.17 1.013-.336a23.262 23.262 0 0 0 8.235-5.045 23.64 23.64 0 0 0 2.303-2.535c.751-.971 1.424-2 2.012-3.078a23.61 23.61 0 0 0 2.356-6.676c.199-1.015.337-2.042.415-3.074.055-.899.064-1.8.025-2.701a22.378 22.378 0 0 0-.506-3.883c-.087-.456-.204-.796-.253-1.037-.025-.108-.05-.195-.067-.27a.245.245 0 0 1-.016-.066z" fill="#263238"/><path d="M82.683 148.796a37.787 37.787 0 0 1 2.269 22.656c-.224 1.067-.498 2.183-.207 3.232a3.373 3.373 0 0 0 3.032 2.373 3.688 3.688 0 0 0 3.352-1.987c.81-1.585.415-3.489.108-5.244-1.286-7.239.15-14.977 2.311-21.988-3.224 1.128-7.824 1.245-11.002 0" fill="#EBEBEB"/><path d="M90.892 176.109a2.542 2.542 0 0 1-.788.548 3.736 3.736 0 0 1-2.585.203 3.443 3.443 0 0 1-1.576-.909 4.112 4.112 0 0 1-.996-1.837c-.382-1.448-.203-3.079-.129-4.742.187-3.319.357-6.365.481-8.588.071-1.075.13-1.958.175-2.597 0-.291.041-.523.058-.71a.89.89 0 0 1 .033-.245c.009.083.009.167 0 .249v.71c-.025.643-.062 1.522-.104 2.601-.108 2.224-.257 5.248-.415 8.588-.074 1.659-.253 3.286.108 4.684a3.96 3.96 0 0 0 .93 1.763c.409.423.923.729 1.489.888.82.242 1.7.195 2.49-.133.287-.138.564-.296.829-.473zM93.178 149.502a3.514 3.514 0 0 1-.195.564c-.145.357-.336.88-.56 1.531a32.187 32.187 0 0 0-1.294 5.194 31.337 31.337 0 0 0-.378 5.34c0 .688.033 1.244.058 1.626.021.2.021.402 0 .601a3.921 3.921 0 0 1-.095-.593c-.05-.381-.096-.937-.125-1.63a27.448 27.448 0 0 1 1.685-10.592c.24-.643.456-1.162.622-1.51.076-.186.17-.364.282-.531zM113.473 182.008l-.125.054-.373.129-1.444.481-1.045.34c-.382.121-.805.228-1.245.357-.904.249-1.925.56-3.078.809l-1.809.415c-.627.145-1.29.253-1.971.386-1.361.282-2.833.473-4.377.701a79.223 79.223 0 0 1-20.27 0c-1.544-.224-3.016-.415-4.377-.697-.68-.133-1.344-.241-1.97-.382l-1.81-.415c-1.153-.244-2.174-.56-3.082-.805-.448-.124-.871-.236-1.245-.352l-1.041-.345-1.444-.477-.373-.128-.125-.054.133.033.378.108 1.456.44 1.045.323c.386.112.83.216 1.245.336.908.237 1.929.54 3.087.776l1.804.415c.627.137 1.29.241 1.97.369 1.362.27 2.83.457 4.374.672 3.352.4 6.725.605 10.102.614a87.994 87.994 0 0 0 10.106-.639c1.543-.219 3.012-.414 4.369-.68.68-.129 1.344-.232 1.97-.369l1.805-.415c1.153-.237 2.178-.539 3.087-.776.448-.12.871-.228 1.244-.336l1.05-.328 1.452-.439.381-.108a.597.597 0 0 1 .146-.013z" fill="#263238"/><path d="M100.027 178.975c-1.983-.539-4.978-1.713-6.136-1.357-.344.108-1.564 1.896-3 2.394-2.82.979-7.073-.116-8.662-2.647-4.61.83-9.542 1.992-14.172 2.813-.299.05-.643.141-.76.415-.19.444.353.83.802 1.008 6.488 2.522 13.537 3.427 20.494 3.174 6.957-.253 15.74-1.772 22.432-3.688-1.634-2.27-8.036-1.307-10.998-2.112z" fill="#EBEBEB"/><path d="M82.42 177.564c-.21.071-.424.123-.643.154l-1.763.344c-1.49.278-3.547.652-5.808 1.046-2.261.394-4.373.655-5.763 1.244a6.613 6.613 0 0 0-2.041 1.299.5.5 0 0 1 .104-.137c.105-.126.22-.244.344-.353a5.627 5.627 0 0 1 1.535-.95c1.41-.634 3.514-.9 5.783-1.315a263.5 263.5 0 0 1 5.837-.987l1.776-.274c.211-.039.425-.063.639-.071zM88.139 183.746a3.594 3.594 0 0 1-.042-1.609c.038-.542.2-1.068.477-1.535.058 0-.145.701-.261 1.564-.116.863-.112 1.576-.174 1.58zM89.867 183.621a2.944 2.944 0 0 1-.444-1.436c-.09-.5-.052-1.016.112-1.497.062 0 0 .672.104 1.476.103.805.29 1.457.228 1.457zM108.752 179.692c-.196.028-.393.04-.59.037h-1.609a60.77 60.77 0 0 1-5.294-.344 53.173 53.173 0 0 1-5.248-.83 37.02 37.02 0 0 1-1.568-.348 3.494 3.494 0 0 1-.569-.162c.198.005.394.031.585.079l1.58.282c1.337.232 3.187.518 5.241.747 2.053.228 3.924.344 5.277.415l1.605.07c.198-.003.396.015.59.054zM68.448 72.725c.028.047.05.097.067.149l.178.448c.154.415.39.98.635 1.747a42.193 42.193 0 0 1 1.66 6.638c.555 3.342.721 6.738.493 10.118a44.32 44.32 0 0 1-.792 5.941 54.209 54.209 0 0 1-1.738 6.198c-1.411 4.178-2.975 8.074-3.942 11.762a29.483 29.483 0 0 0-1.037 10.003 20.14 20.14 0 0 0 .689 3.808c.083.274.166.535.245.788.078.253.186.49.27.718.165.461.377.859.543 1.245.275.552.584 1.087.925 1.601.112.17.203.303.265.415l.087.145a1.116 1.116 0 0 1-.103-.128l-.282-.395a12.774 12.774 0 0 1-.967-1.589 13.257 13.257 0 0 1-.564-1.223c-.087-.229-.191-.465-.278-.718l-.257-.788a20.288 20.288 0 0 1-.726-3.834 29.317 29.317 0 0 1 1-10.065c.958-3.704 2.522-7.612 3.928-11.778a55.45 55.45 0 0 0 1.743-6.19c.398-1.95.666-3.925.8-5.912a44.93 44.93 0 0 0-2.045-16.731c-.232-.772-.456-1.357-.597-1.76-.067-.194-.117-.344-.158-.456a.966.966 0 0 1-.041-.157z" fill="#263238"/><path opacity=".3" d="M71.852 71.854s4.867 11.932 3.912 20.524c-.954 8.592-9.57 21.76-8.127 31.302 1.444 9.542 9.85 20.702 14.906 20.702h5.63s-13.417-12.861-13.77-21.847c-.352-8.986 6.385-22.366 6.908-29.618.523-7.252-5.107-21.573-5.107-21.573l-4.352.51z" fill="#fff"/><path d="M107.86 112.01c.061.1.114.206.158.315.091.212.253.515.415.929a19.924 19.924 0 0 1 1.054 3.572 21.04 21.04 0 0 1-8.891 21.511c-1.029.7-2.12 1.301-3.261 1.797-.415.187-.73.29-.946.373a2.166 2.166 0 0 1-.332.112c.102-.06.209-.111.32-.153.207-.096.53-.212.92-.415a21.6 21.6 0 0 0 10.816-11.202 21.26 21.26 0 0 0 1.519-6.521 21.59 21.59 0 0 0-.299-5.473 21.193 21.193 0 0 0-.971-3.576c-.137-.415-.286-.722-.365-.941a2.047 2.047 0 0 1-.137-.328zM104.002 98.32c.124.453.221.913.291 1.378.166.85.415 2.024.751 3.319.336 1.294.697 2.427.971 3.248.167.439.306.888.414 1.344a1.468 1.468 0 0 1-.174-.336c-.104-.224-.236-.547-.415-.954a33.241 33.241 0 0 1-1.037-3.244 32.084 32.084 0 0 1-.689-3.32c-.066-.414-.107-.78-.128-1.024a1.113 1.113 0 0 1 .016-.41z" fill="#263238"/><path d="m71.963 138.668-.074-.066-.208-.207c-.178-.187-.464-.44-.775-.83a18.688 18.688 0 0 1-2.365-3.402 22.802 22.802 0 0 1-2.174-5.721 27.855 27.855 0 0 1-.689-7.489 36.92 36.92 0 0 1 1.145-7.446 51.742 51.742 0 0 1 1.884-5.85 68.292 68.292 0 0 1 1.597-3.821c.2-.444.365-.784.473-1.017l.133-.265a.357.357 0 0 1 .05-.087.277.277 0 0 1-.034.095c-.029.075-.062.166-.108.274l-.44 1.037a96.319 96.319 0 0 0-1.53 3.838 54.797 54.797 0 0 0-1.834 5.845 37.865 37.865 0 0 0-1.12 7.397c-.11 2.497.114 4.998.668 7.435a23.004 23.004 0 0 0 2.116 5.721 20.067 20.067 0 0 0 2.29 3.419c.303.385.58.643.742.829l.195.22c.042.058.063.087.058.091zM72.796 87.478c.047.134.075.274.083.415.042.278.083.68.12 1.183.102 1.3.12 2.605.054 3.908a31.79 31.79 0 0 1-.415 3.887c-.087.494-.17.892-.236 1.162a1.567 1.567 0 0 1-.124.415c-.034 0 .074-.614.207-1.602.133-.987.294-2.356.37-3.875.074-1.518.049-2.904 0-3.891-.05-.987-.092-1.597-.059-1.602z" fill="#fff"/><path opacity=".3" d="m78.997 125.684 5.634 7.617a2.13 2.13 0 0 0 3.045.415l7.053-5.618a2.138 2.138 0 0 0 .357-2.978l-5.717-7.373a2.134 2.134 0 0 0-2.987-.381l-6.979 5.393a2.135 2.135 0 0 0-.406 2.925zM90.665 100.385l-5.24 7.904a2.129 2.129 0 0 0 .043 2.415c.166.233.377.43.621.58l7.713 4.713a2.136 2.136 0 0 0 2.904-.685l4.978-7.882a2.14 2.14 0 0 0-.663-2.942l-7.439-4.713a2.132 2.132 0 0 0-2.916.61z" fill="#fff"/><path d="M79.997 125.912s-.175-.099-.324-.361a1.87 1.87 0 0 1-.216-1.149c.057-.396.24-.763.523-1.045.216-.212.415-.282.415-.262 0 .021-.125.141-.295.361a2.011 2.011 0 0 0-.282 2.029c.096.257.212.402.179.427zM84.767 131.517a14.013 14.013 0 0 1-1.66-1.883 14.689 14.689 0 0 1-1.46-2.021 13.952 13.952 0 0 1 1.66 1.884c.544.63 1.033 1.306 1.46 2.02zM90.817 127.129a42.036 42.036 0 0 1-2.651-3.257 40.768 40.768 0 0 1-2.49-3.39 41.12 41.12 0 0 1 2.652 3.257 39.302 39.302 0 0 1 2.489 3.39zM93.219 128.082a30.913 30.913 0 0 1-2.937 2.282 32.495 32.495 0 0 1-3.066 2.103 31.522 31.522 0 0 1 2.941-2.277c.98-.76 2.003-1.463 3.062-2.108zM85.715 118.963a13.335 13.335 0 0 1-1.904 1.518 14.06 14.06 0 0 1-2.033 1.344 13.846 13.846 0 0 1 1.908-1.518 14.474 14.474 0 0 1 2.029-1.344zM86.14 109.305c.17-.432.377-.849.619-1.245a67.433 67.433 0 0 1 1.697-2.842 57.559 57.559 0 0 1 1.842-2.754c.244-.385.522-.747.83-1.083a9.243 9.243 0 0 1-.714 1.17l-1.788 2.784-1.747 2.804c-.22.405-.466.794-.738 1.166zM93.919 114.583a41.535 41.535 0 0 1-3.593-2.161 40.79 40.79 0 0 1-3.476-2.34 41.464 41.464 0 0 1 3.592 2.157 40.474 40.474 0 0 1 3.477 2.344zM97.089 106.991a20.113 20.113 0 0 1-2.713-1.165 19.787 19.787 0 0 1-2.614-1.361c.93.323 1.835.712 2.71 1.166.903.389 1.778.844 2.617 1.36z" fill="#fff"/><path opacity=".3" d="M103.545 116.084a.7.7 0 0 1-.433.648.702.702 0 1 1 .433-.648zM83.046 115.285a.701.701 0 1 0 0-1.402.701.701 0 0 0 0 1.402zM101.514 120.59a1.405 1.405 0 0 1-1.678 1.371 1.408 1.408 0 0 1-1.1-1.103 1.403 1.403 0 1 1 2.778-.268z" fill="#fff"/><path d="M113.47 61.499a.83.83 0 0 1-.486-1.062l9.542-25.531a.832.832 0 0 1 1.062-.482.83.83 0 0 1 .482 1.063l-9.542 25.526a.832.832 0 0 1-1.058.486z" fill="#F5F5F5"/><path d="M113.47 61.5a.921.921 0 0 0 .585-.03.824.824 0 0 0 .465-.51l.34-.942 2.207-6.007c.938-2.535 2.074-5.547 3.319-8.89.622-1.66 1.274-3.432 1.954-5.253.336-.909.685-1.834 1.033-2.775l.531-1.42a.943.943 0 0 0 .1-.671.719.719 0 0 0-.434-.483.712.712 0 0 0-.645.068.95.95 0 0 0-.365.572c-.179.477-.357.95-.531 1.423-.354.938-.7 1.863-1.037 2.776-.685 1.817-1.34 3.572-1.967 5.244l-3.344 8.878c-.954 2.518-1.73 4.564-2.269 5.978-.133.353-.253.664-.361.938a.805.805 0 0 0 0 .689c.089.18.235.325.415.414a.738.738 0 0 1-.461-.385.83.83 0 0 1-.037-.73l.34-.946c.527-1.428 1.278-3.477 2.207-6.004.93-2.526 2.075-5.546 3.299-8.895.622-1.659 1.273-3.426 1.954-5.248l1.033-2.78c.178-.468.352-.941.531-1.418.041-.127.093-.25.153-.37a.97.97 0 0 1 .299-.31.956.956 0 0 1 .83-.092.94.94 0 0 1 .568.618.91.91 0 0 1 .021.415 2.645 2.645 0 0 1-.125.378l-.522 1.44-1.042 2.775-1.962 5.244-3.344 8.878-2.269 5.983c-.133.348-.253.663-.361.933a.839.839 0 0 1-.809.587.739.739 0 0 1-.299-.073z" fill="#263238"/><path d="M123.446 51.782a6.775 6.775 0 1 0-13.128-3.354 6.775 6.775 0 0 0 13.128 3.354z" fill="#DBBE8F"/><path d="M114.767 44.373a5.062 5.062 0 0 0-2.999 2.402 5.51 5.51 0 0 0-.705 3.958 3.34 3.34 0 0 0 1.576 2.365c.875.444 2.128.187 2.535-.705.406-.892-.125-1.917-.112-2.904a2.66 2.66 0 0 1 1.883-2.46c.598-.167 1.291-.138 1.755-.548a1.166 1.166 0 0 0 .36-1.3 1.163 1.163 0 0 0-.248-.405 2.595 2.595 0 0 0-2.028-.793 6.413 6.413 0 0 0-2.017.382" fill="#fff" opacity=".2"/><path d="m105.707 81.014-9.074-25.938 3.415-1.066 1.489.767 1.502-.767 8.219.53 1.618 1.233 1.904-.378 7.683 3.842 1.253 1.821 1.738.208 4.162 4.165-23.163 16.86-.746-1.277z" fill="#DBBE8F"/><path opacity=".7" d="m105.707 81.014-9.074-25.938 3.415-1.066 1.489.767 1.502-.767 8.219.53 1.618 1.233 1.904-.378 7.683 3.842 1.253 1.821 1.738.208 4.162 4.165-23.163 16.86-.746-1.277z" fill="#fff"/><path d="m129.938 65.278-4.808-4.808-1.738-.207-1.245-1.822-7.683-3.846-1.901.378-1.622-1.245-8.218-.53-1.498.77-1.49-.77-3.418 1.066.614 1.684s8.592-2.527 17.043.693c8.451 3.22 14.371 9.703 14.371 9.703l1.593-1.066z" fill="#455A64"/><path d="M103.132 62.479c-.275-.7-.484-1.426-.622-2.166a11.75 11.75 0 0 1-.415-2.215c.276.7.484 1.425.623 2.165.209.724.348 1.466.414 2.216zM121.441 64.553a8.409 8.409 0 0 1-1.386 1.31 8.517 8.517 0 0 1-1.527 1.15c.411-.49.876-.93 1.386-1.315.465-.437.977-.821 1.527-1.145zM112.733 58.947a41.613 41.613 0 0 1-1.207 4.062 41.036 41.036 0 0 1-1.419 4c-.054 0 .486-1.839 1.212-4.066a41.52 41.52 0 0 1 1.414-3.996zM114.121 59.783a6.068 6.068 0 0 1-.415 1.531 6.113 6.113 0 0 1-.622 1.46 5.686 5.686 0 0 1 .415-1.53 5.84 5.84 0 0 1 .622-1.46z" fill="#263238"/><path d="M122.899 48.992c.127.352.182.726.162 1.1a5.445 5.445 0 0 1-2.456 4.563 2.877 2.877 0 0 1-1.004.477c0-.033.373-.203.916-.601a5.806 5.806 0 0 0 2.39-4.456c.033-.66-.041-1.075-.008-1.083zM107.115 67.681a1.314 1.314 0 0 1 0-.307l.108-.854c.095-.735.245-1.768.415-2.992l.157.092-1.058.867-.535.48a2.803 2.803 0 0 1-.307.237.36.36 0 0 1-.477-.074 1.008 1.008 0 0 1-.075-.78c.042-.233.079-.465.121-.689.074-.448.145-.884.211-1.303l.357-2.207c.104-.626.199-1.132.27-1.48.029-.184.075-.365.137-.54.002.185-.016.37-.054.552-.054.394-.12.896-.203 1.493-.083.598-.195 1.39-.312 2.216-.062.414-.128.83-.199 1.302-.037.228-.079.457-.116.693-.025.109-.039.22-.041.332-.002.1.024.197.074.282.046.058.112.066.199 0 .088-.066.187-.145.283-.216l.564-.456 1.066-.859.203-.157-.041.253a186.388 186.388 0 0 1-.506 2.974c-.063.336-.117.614-.162.83a.985.985 0 0 1-.079.311z" fill="#fff"/><path d="M107.37 72.936h-.1l-.286-.029-1.095-.12a70.395 70.395 0 0 0-1.738-.195c-.681-.07-1.448-.158-2.299-.232-1.705-.17-3.734-.311-6.003-.457-2.27-.145-4.75-.224-7.364-.274-5.227-.09-9.957.054-13.384.237-1.713.087-3.095.174-4.053.245l-1.1.074h-.286a.361.361 0 0 1-.1 0h.096l.286-.037 1.1-.112a116 116 0 0 1 4.049-.315 166.637 166.637 0 0 1 20.768-.004c2.266.136 4.298.31 6.004.502.854.083 1.626.178 2.302.26.676.084 1.245.159 1.73.23l1.091.165.287.05a.267.267 0 0 1 .095.012z" fill="#263238"/><path d="M98.231 69.867h.378l1.087.058 3.995.27 2.759.195 1.539.108c.28.003.559.04.83.108.293.081.543.271.701.53.144.27.203.577.17.88a1.105 1.105 0 0 1-.041.228l-.058.208a86.688 86.688 0 0 0-.598 2.137 98.638 98.638 0 0 0-.892 3.654c-1.107 5.029-1.659 9.692-1.526 13.065 0 .83.103 1.601.149 2.27.045.667.187 1.244.261 1.696.075.452.195.796.262 1.054l.062.278a.306.306 0 0 1 0 .095s0-.029-.033-.087c-.034-.058-.05-.162-.083-.274-.075-.257-.175-.606-.299-1.045a54.266 54.266 0 0 1-.303-1.701 15.22 15.22 0 0 1-.182-2.282c-.171-3.39.36-8.073 1.468-13.118.291-1.245.581-2.49.9-3.66.154-.589.32-1.161.482-1.725l.12-.415a1.6 1.6 0 0 0 .095-.415 1.344 1.344 0 0 0-.136-.763 1.013 1.013 0 0 0-.59-.444 3.313 3.313 0 0 0-.775-.104l-1.535-.12-2.759-.187-3.987-.332-1.087-.104-.278-.033-.096-.025z" fill="#263238"/></svg>