<svg width="260" height="262" fill="none" xmlns="http://www.w3.org/2000/svg"><path d="M58.202 152.254s-3.338-5.579-6.401-5.853c-3.063-.274-39.538 22.617-45.117 34.532-5.58 11.915-10.859 35.822 3.91 58.83 14.405 22.383 36.983 21.64 48.69 20.519 11.706-1.121 19.553-4.928 31.416-14.444 11.862-9.516 22.747-23.53 24.325-33.046 1.577-9.516-4.224-14.808-7.926-16.125-3.702-1.317-25.12-1.056-40.724-16.947-15.604-15.89-8.173-27.466-8.173-27.466z" fill="#263238" stroke="#263238" stroke-linecap="round" stroke-linejoin="round"/><path d="M62.933 145.008s-9.464 3.624-15.317 10.024c-5.853 6.401-9.464 16.439-9.738 31.195-.273 14.757 4.459 31.456 22.826 38.703 18.367 7.248 34.806 1.669 40.098-3.35 5.293-5.019 11.732-19.202 11.732-19.202s-29.226 7.822-43.148-8.642c-13.922-16.465-6.453-48.728-6.453-48.728z" fill="#fff" stroke="#263238" stroke-linecap="round" stroke-linejoin="round"/><path d="M226.507 155.292c-7.144-10.715-24.194-13.883-37.673-18.25-13.479-4.367-21.418-13.036-17.846-34.493 3.571-21.457 22.16-56.315 21.808-62.663-.351-6.349-64.24-5.944-70.197-3.91-5.958 2.033-7.131 1.577-12.684 8.72a98.828 98.828 0 0 0-8.33 12.215l6.883-14.47h.508a18.25 18.25 0 0 1 3.142-5.214 40.083 40.083 0 0 0 9.711-25.212c.261-13.648-9.45-12.332-11.289-8.134-1.838 4.198-12.592 18.641-15.747 22.578-3.155 3.937-9.712 14.704-9.712 14.704l-7.287 25.264s-1.59 7.534-10.715 36.096c-9.125 28.562-5.15 41.728-5.15 41.728s-2.385-1.187-7.938 15.864c-5.553 17.051-3.168 38.86 6.74 49.171 9.907 10.312 23.008 9.921 37.686 3.976a45.108 45.108 0 0 0 21.418-19.11s15.474-3.911 26.971-12.684c11.498-8.773 20.219-17.846 36.905-17.051 16.685.795 35.692 10.311 42.04 9.907 6.348-.404 7.9-8.33.756-19.032z" fill="#fff"/><path d="M124.215 118.178c-44.127 6.583-57.997 17.116-53.59 31.612a22.406 22.406 0 0 0 4.367 7.821c0 .274 0 .574.078.887 0 0 .782.469 1.955 1.303a37.372 37.372 0 0 0 4.993 4.054c2.894 2.751 5.488 6.192 4.953 9.386-1.134 6.805-16.946 18.694-24.937 19.267-7.991.574-10.768-7.365-11.902 1.134-1.134 8.5 16.438 29.461 33.437 27.193 16.999-2.268 31.169-26.072 31.169-26.072s-2.269-3.91 9.125-15.864c7.482-7.822 18.185-11.276 26.384-14.483a150.744 150.744 0 0 0 22.565-8.656c20.167-9.881 44.127-3.285 44.127-3.285s-48.598-40.958-92.724-34.297z" fill="#DBBE8F"/><path opacity=".5" d="M124.215 118.178c-44.127 6.583-57.997 17.116-53.59 31.612a22.406 22.406 0 0 0 4.367 7.821c0 .274 0 .574.078.887 0 0 .782.469 1.955 1.303a37.372 37.372 0 0 0 4.993 4.054c2.894 2.751 5.488 6.192 4.953 9.386-1.134 6.805-16.946 18.694-24.937 19.267-7.991.574-10.768-7.365-11.902 1.134-1.134 8.5 16.438 29.461 33.437 27.193 16.999-2.268 31.169-26.072 31.169-26.072s-2.269-3.91 9.125-15.864c7.482-7.822 18.185-11.276 26.384-14.483a150.744 150.744 0 0 0 22.565-8.656c20.167-9.881 44.127-3.285 44.127-3.285s-48.598-40.958-92.724-34.297z" fill="#fff"/><path d="M226.507 155.292c-7.144-10.715-24.194-13.883-37.673-18.25-13.479-4.367-21.418-13.036-17.846-34.493 3.571-21.457 22.16-56.315 21.808-62.663-.351-6.349-64.24-5.944-70.197-3.91-5.958 2.033-7.131 1.577-12.684 8.72a98.828 98.828 0 0 0-8.33 12.215l6.883-14.47h.508a18.25 18.25 0 0 1 3.142-5.214 40.083 40.083 0 0 0 9.711-25.212c.261-13.648-9.45-12.332-11.289-8.134-1.838 4.198-12.592 18.641-15.747 22.578-3.155 3.937-9.712 14.704-9.712 14.704l-7.287 25.264s-1.59 7.534-10.715 36.096c-9.125 28.562-5.15 41.728-5.15 41.728s-2.385-1.187-7.938 15.864c-5.553 17.051-3.168 38.86 6.74 49.171 9.907 10.312 23.008 9.921 37.686 3.976a45.108 45.108 0 0 0 21.418-19.11s15.474-3.911 26.971-12.684c11.498-8.773 20.219-17.846 36.905-17.051 16.685.795 35.692 10.311 42.04 9.907 6.348-.404 7.9-8.33.756-19.032z" stroke="#263238" stroke-linecap="round" stroke-linejoin="round"/><path d="M226.729 174.233s.834-3.337-8.63-7.821c-9.464-4.485-13.362-1.395-13.362.834s20.532 6.987 21.992 6.987zm-89.674-152.74-23.881 18.38h32.029s0-22.578-8.148-18.38z" fill="#fff" stroke="#263238" stroke-linecap="round" stroke-linejoin="round"/><path d="M107.1 154.066a33.374 33.374 0 0 1 12.358-8.773m-16.7 15.905c.366-1.06.842-2.078 1.421-3.038" stroke="#263238" stroke-linecap="round" stroke-linejoin="round"/><path d="M202.959 33.165 83.097 43.955c-16.553 1.49-28.812 15.512-27.394 31.26l5.084 56.478c1.237 13.736 12.41 24.301 26.188 25.848l-4.639 19.279 27.642-20.656 103.218-9.292c16.54-1.489 28.811-15.512 27.394-31.26l-5.085-56.478c-1.427-15.852-16.005-27.458-32.546-25.97z" fill="#DBBE8F" stroke="#263238" stroke-width="2" stroke-miterlimit="10"/><rect x="77.641" y="86.32" width="31" height="31" rx="9" transform="rotate(-5.144 77.64 86.32)" fill="#fff"/><rect x="185.206" y="76.637" width="31" height="31" rx="9" transform="rotate(-5.144 185.206 76.637)" fill="#fff"/><rect x="149.351" y="79.863" width="31" height="31" rx="9" transform="rotate(-5.144 149.351 79.863)" fill="#fff"/><rect x="113.496" y="83.092" width="31" height="31" rx="9" transform="rotate(-5.144 113.496 83.092)" fill="#fff"/><path d="m94.007 94.863 1.34-.12.988 10.979-1.243.112-.597-6.63c-.126-1.391-.194-2.386-.205-2.985l-.064.006-1.09.917-1.298 1.097-.827-.97 2.996-2.406zm37.66 5.011-4.606.414-.401-1.072 3.858-7.64 1.626-.147.649 7.219 1.578-.142.1 1.115-1.577.142.238 2.646-1.227.11-.238-2.645zm-.571-7.05-.063.006c-.103.288-.435.998-.997 2.13l-2.055 4.121 3.585-.323-.305-3.394c-.106-1.18-.161-2.026-.165-2.54zm35.187-3.696.006 1.317 1.166-.62.834-.364.427.99-.834.38-1.249.402.951.926.608.685-.82.7-.624-.683-.768-1.039-.585 1.177-.46.78-.918-.56.458-.796.757-1.048-1.302-.188-.886-.21.227-1.048.901.192 1.239.387-.211-1.282-.082-.909 1.083-.097.082.908zm35.855-3.228.006 1.316 1.165-.619.835-.364.426.99-.833.38-1.249.401.951.927.608.684-.821.7-.624-.682-.768-1.04-.585 1.178-.46.78-.918-.56.459-.796.757-1.048-1.302-.188-.886-.21.226-1.048.901.192 1.24.386-.212-1.282-.082-.908 1.084-.098.082.908z" fill="#000"/><path d="M93.242 185.963a34.976 34.976 0 0 1-3.572-3.637m30.165 11.825a34.963 34.963 0 0 1-21.248-4.354" stroke="#263238" stroke-linecap="round" stroke-linejoin="round"/><path d="M173.752 29.901s.534 10.494 9.985 15.487c9.451 4.993 21.522 3.91 21.783-2.36.261-6.27-7.091-12.866-12.071-21.274-4.98-8.408-16.021-3.663-20.74 2.112" fill="#fff"/><path d="M173.752 29.901s.534 10.494 9.985 15.487c9.451 4.993 21.522 3.91 21.783-2.36.261-6.27-7.091-12.866-12.071-21.274-4.98-8.408-16.021-3.663-20.74 2.112" stroke="#263238" stroke-linecap="round" stroke-linejoin="round"/><path d="M190.032 38.296c-.795 4.197 2.099 6.518 4.719 7.822 2.621 1.303 7.822.534 10.768-3.142.13-3.077-1.551-6.205-3.911-9.581-3.285.417-10.963 1.616-11.576 4.901z" fill="#fff" stroke="#263238" stroke-linecap="round" stroke-linejoin="round"/><path d="M154.068 29.901s.521 10.494 9.972 15.487c9.451 4.993 21.535 3.91 21.796-2.36.261-6.27-7.092-12.866-12.084-21.274-4.993-8.408-16.008-3.663-20.74 2.112" fill="#fff"/><path d="M154.068 29.901s.521 10.494 9.972 15.487c9.451 4.993 21.535 3.91 21.796-2.36.261-6.27-7.092-12.866-12.084-21.274-4.993-8.408-16.008-3.663-20.74 2.112" stroke="#263238" stroke-linecap="round" stroke-linejoin="round"/><path d="M170.349 38.296c-.795 4.197 2.099 6.518 4.719 7.822 2.62 1.303 7.821.534 10.767-3.142.118-3.077-1.564-6.205-3.91-9.581-3.285.417-10.963 1.616-11.576 4.901z" fill="#fff" stroke="#263238" stroke-linecap="round" stroke-linejoin="round"/><path d="M135.752 29.901s.522 10.494 9.973 15.487 21.522 3.91 21.782-2.36c.261-6.27-7.078-12.866-12.071-21.274-4.992-8.408-16.021-3.663-20.74 2.112" fill="#fff"/><path d="M135.752 29.901s.522 10.494 9.973 15.487 21.522 3.91 21.782-2.36c.261-6.27-7.078-12.866-12.071-21.274-4.992-8.408-16.021-3.663-20.74 2.112" stroke="#263238" stroke-linecap="round" stroke-linejoin="round"/><path d="M152.021 38.296c-.782 4.197 2.099 6.518 4.732 7.822 2.633 1.303 7.822.534 10.755-3.142.13-3.077-1.552-6.205-3.911-9.581-3.285.417-10.963 1.616-11.576 4.901z" fill="#fff" stroke="#263238" stroke-linecap="round" stroke-linejoin="round"/><path d="M61.93 144.248s.73 16.138 9.633 26.997" stroke="#263238" stroke-linecap="round" stroke-linejoin="round"/><path d="M36.015 211.606c0 3.286-2.19 5.945-4.888 5.945-2.699 0-4.889-2.607-4.889-5.945 0-3.337 2.19-5.944 4.889-5.944 2.698 0 4.888 2.659 4.888 5.944z" fill="#fff"/><path d="M23.853 219.012c0 3.285-2.19 5.944-4.888 5.944-2.699 0-4.889-2.607-4.889-5.944 0-3.337 2.19-5.957 4.889-5.957 2.698 0 4.888 2.672 4.888 5.957z" stroke="#263238" stroke-linecap="round" stroke-linejoin="round"/><path d="M231.986 86.78c8.559 3.549 18.245-.2 21.634-8.374 3.388-8.173-.803-17.676-9.362-21.225-8.56-3.548-18.245.2-21.634 8.374-3.389 8.174.803 17.677 9.362 21.225z" fill="#263238"/><path d="M232.586 81.931a6.92 6.92 0 0 1 .7-3.561l4.993-12.042-3.351.388a2.14 2.14 0 0 1-1.073-.134 1.937 1.937 0 0 1-1.104-1.15 2.1 2.1 0 0 1 .027-1.597 1.8 1.8 0 0 1 .694-.855c.42-.22.873-.37 1.342-.446l6.392-.51a4.513 4.513 0 0 1 2.314.07c1.794.744 2.126 2.462 1.008 5.16l-5.757 13.883c-1.093 2.638-2.577 3.56-4.467 2.777a2.506 2.506 0 0 1-1.718-1.983z" fill="#fff"/></svg>