<svg width="23" height="28" fill="none" xmlns="http://www.w3.org/2000/svg"><g clip-path="url(#a)" fill="#292D32"><path d="m13.302 13.343-.141.755a14.588 14.588 0 0 1-1.333 3.955c-1.963 3.833-3.887 3.203-3.975 3.175a.289.289 0 0 1-.104-.175L6.31 13.426c.802-.026 5.504-.172 6.992-.083zM14.037 12.138l-.129.795a.366.366 0 0 1-.155.242.393.393 0 0 1-.091.048c-.905-.155-6.564.023-7.388.05v-.008l-.066.012h-.024l-.062.01a.422.422 0 0 1-.063 0 .376.376 0 0 1-.32-.183.37.37 0 0 1-.048-.142l-.1-.802a.372.372 0 0 1 .311-.411l.32-.055c.73-.024 5.74-.155 7.115-.05.132.018.262.038.391.06a.379.379 0 0 1 .31.434zM13.086 9.937l-.31-2.552h.057a.465.465 0 0 1 .465.408l.135 1.086a1.29 1.29 0 0 1-.347 1.058z"/><path d="M12.932 10.096a5.267 5.267 0 0 1-1.605.942c-.621.227-4.443.58-4.78.745l-.096-.776a.525.525 0 0 1 .453-.572 28.99 28.99 0 0 1 6.028-.339z"/><path d="M8.034 27.67H1.396l-.008-.008a4.034 4.034 0 0 1 4.034-4.026h2.646c5.382 0 9.877-4.275 9.955-9.656a9.81 9.81 0 0 0-9.8-9.946H5.408A4.034 4.034 0 0 1 1.382.008L1.396 0h6.827a13.851 13.851 0 0 1 13.834 13.965c-.074 7.62-6.402 13.705-14.023 13.705z"/><path d="M7.25 21.283H2.23A2.228 2.228 0 0 1 0 19.055v-.127h6.795l.417 2.214c.007.048.02.096.037.141zM6.72 18.532H1.114A1.116 1.116 0 0 1 0 17.418v-.122a1.116 1.116 0 0 1 1.114-1.114h5.162l.444 2.35zM6.206 15.78H0v-.122a2.228 2.228 0 0 1 2.23-2.228h3.072a.879.879 0 0 0 .515.377v.028h.014l.375 1.945z"/></g><defs><clipPath id="a"><path fill="#fff" d="M0 0h22.053v27.67H0z"/></clipPath></defs></svg>