<svg width="11" height="13" fill="none" xmlns="http://www.w3.org/2000/svg"><path d="m6.048 6.067-.064.344a6.63 6.63 0 0 1-.606 1.798C4.485 9.952 3.61 9.665 3.57 9.652a.131.131 0 0 1-.047-.08L2.87 6.107c.365-.012 2.502-.079 3.179-.039zM6.382 5.518l-.059.362a.166.166 0 0 1-.07.11.181.181 0 0 1-.042.022c-.411-.071-2.984.01-3.358.023V6.03l-.03.005h-.011l-.029.005h-.028a.17.17 0 0 1-.146-.084.168.168 0 0 1-.022-.064l-.045-.365a.17.17 0 0 1 .141-.187l.146-.024c.332-.012 2.61-.07 3.235-.024l.177.028a.172.172 0 0 1 .14.197zM5.95 4.52l-.142-1.16h.026a.212.212 0 0 1 .212.185l.061.494a.586.586 0 0 1-.158.48z" fill="#fff"/><path d="M5.88 4.59c-.217.185-.464.33-.73.428-.283.103-2.02.264-2.173.338l-.044-.352a.238.238 0 0 1 .206-.26 13.18 13.18 0 0 1 2.74-.154z" fill="#fff"/><path d="M3.653 12.58H.635l-.004-.004a1.834 1.834 0 0 1 1.834-1.83h1.203c2.447 0 4.49-1.944 4.526-4.39A4.46 4.46 0 0 0 3.74 1.834h-1.28A1.834 1.834 0 0 1 .629.004L.634 0h3.104a6.297 6.297 0 0 1 6.29 6.349c-.035 3.464-2.911 6.23-6.376 6.23z" fill="#fff"/><path d="M3.296 9.674H1.014A1.013 1.013 0 0 1 0 8.661v-.057h3.089l.19 1.006a.311.311 0 0 0 .017.064zM3.055 8.428H.506A.507.507 0 0 1 0 7.922v-.056a.507.507 0 0 1 .506-.507h2.347l.202 1.07zM2.822 7.174H0v-.056a1.013 1.013 0 0 1 1.014-1.013H2.41a.4.4 0 0 0 .235.172v.013h.006l.17.884z" fill="#fff"/></svg>