<svg width="246" height="269" fill="none" xmlns="http://www.w3.org/2000/svg"><path d="M242.939 207.84c1.213.933 1.08 2.262-.381 3.109l-80.03 46.221a6.452 6.452 0 0 1-5.821 0L3.657 168.824c-1.485-.855-1.601-2.2-.342-3.109a6.496 6.496 0 0 0-2.573 4.819v3.847a6.464 6.464 0 0 0 2.915 5.052l152.995 88.315a6.423 6.423 0 0 0 5.829 0l80.054-46.213a6.427 6.427 0 0 0 2.914-5.044v-3.887a6.52 6.52 0 0 0-2.51-4.764z" fill="#455A64"/><path d="M242.582 207.583 89.54 119.237a6.454 6.454 0 0 0-5.822 0L3.665 165.466c-1.61.925-1.61 2.433 0 3.358l153.003 88.346a6.452 6.452 0 0 0 5.821 0l80.054-46.229c1.593-.925 1.593-2.433.039-3.358zm-20.76-7.142c1.376.777 1.376 2.083 0 2.875l-72.794 42.04a5.548 5.548 0 0 1-4.998 0L24.867 176.541c-1.376-.777-1.376-2.09 0-2.883l72.802-42.032c1.376-.777 2.814-1.259 4.189-.467l119.964 69.282z" fill="#37474F"/><path d="M3.315 165.66a6.496 6.496 0 0 0-2.573 4.819v3.847a6.462 6.462 0 0 0 2.915 5.052l152.995 88.37c.9.475 1.905.715 2.923.699v-10.585a6.011 6.011 0 0 1-2.915-.692L3.657 168.823c-1.485-.831-1.601-2.199-.342-3.163z" fill="#263238"/><path d="M51.386 146.89c1.08-.622 1.08-1.632 0-2.254a4.314 4.314 0 0 0-3.886 0c-1.08.622-1.08 1.632 0 2.254a4.314 4.314 0 0 0 3.886 0z" fill="#000"/><path d="M199.555 231.429c2.541-1.462 2.541-3.84 0-5.301a10.11 10.11 0 0 0-9.195 0c-2.541 1.461-2.541 3.839 0 5.301a10.109 10.109 0 0 0 9.195 0z" stroke="#E6E6E6" stroke-miterlimit="10"/><path d="m49.435 154.368 15.078-8.697c.894-.521.94-1.337.101-1.826a3.501 3.501 0 0 0-3.124.054l-15.078 8.697c-.894.521-.94 1.337-.101 1.827a3.514 3.514 0 0 0 3.124-.055z" fill="#000"/><path d="M101.858 131.19c-1.376-.777-2.814-.334-4.19.467l-72.801 42.032c-1.376.777-1.376 2.083 0 2.883l119.132 68.776a5.548 5.548 0 0 0 4.997 0l72.795-42.039c1.383-.778 1.383-2.083 0-2.876L101.858 131.19z" fill="#DBBE8F"/><path opacity=".85" d="M101.858 131.19c-1.376-.777-2.814-.334-4.19.467l-72.801 42.032c-1.376.777-1.376 2.083 0 2.883l119.132 68.776a5.548 5.548 0 0 0 4.997 0l72.795-42.039c1.383-.778 1.383-2.083 0-2.876L101.858 131.19z" fill="#fff"/><path d="m33.253 177.466-.777-.451a.186.186 0 0 1-.088-.281.188.188 0 0 1 .088-.069l.086-.046a.641.641 0 0 1 .606 0l.777.443c.163.101.163.256 0 .349l-.085.055a.693.693 0 0 1-.607 0zm1.384-.799-1.345-.777c-.163-.093-.163-.249 0-.35l.086-.046a.692.692 0 0 1 .606 0l1.345.777c.163.093.163.249 0 .35l-.086.046a.693.693 0 0 1-.606 0zm1.383-.802-1.905-1.096c-.17-.101-.17-.256 0-.35l.086-.054a.693.693 0 0 1 .606 0l1.904 1.104a.186.186 0 0 1 0 .349l-.085.047a.642.642 0 0 1-.606 0zm1.375-.793-3.287-1.904c-.171-.093-.171-.248 0-.349l.085-.047a.666.666 0 0 1 .607 0l3.28 1.896c.17.101.17.257 0 .35l-.078.054a.692.692 0 0 1-.607 0zm3.972-2.035a.21.21 0 0 1-.147-.039l-.482-.28-1.554.894a.205.205 0 0 1-.226 0l-.179-.101-.077-.055v-.077l-.078-1.951a.244.244 0 0 1 0-.086.293.293 0 0 1 .093-.07l.21-.124a.493.493 0 0 1 .179-.062.324.324 0 0 1 .163.047l1.687.971.342-.194a.376.376 0 0 1 .17-.062.277.277 0 0 1 .156.046l.117.07c.054 0 .077.055.07.086-.008.031 0 .054-.102.093l-.342.202.482.28c.055 0 .078.054.07.085-.007.031-.038.063-.108.101l-.265.148a.323.323 0 0 1-.178.078zm-.94-.614-1.205-.692.078 1.345 1.127-.653zm2.487-.613a2.813 2.813 0 0 1-1.555-.381c-.482-.28-.7-.583-.66-.91.039-.326.342-.645.894-.963.217-.129.446-.239.683-.327.21-.081.425-.14.646-.179a.146.146 0 0 1 .1 0 .078.078 0 0 1 0 .039l.07.202c.008.009.013.02.013.031a.05.05 0 0 1-.012.032h-.086a2.943 2.943 0 0 0-.948.365c-.373.21-.575.435-.606.661-.031.225.14.45.513.66.34.209.735.314 1.134.303a2.32 2.32 0 0 0 1.12-.334 3.31 3.31 0 0 0 .35-.233 1.13 1.13 0 0 0 .233-.225l-.778-.451-.645.373a.494.494 0 0 1-.179.062.317.317 0 0 1-.155-.047l-.109-.062c-.052-.031-.075-.062-.07-.093 0 0 .039-.055.101-.093l1.034-.599a.438.438 0 0 1 .202-.062c.063.001.126.02.179.054l1.119.645a.176.176 0 0 1 .078.063v.07a2.443 2.443 0 0 1-.98.847 3.656 3.656 0 0 1-1.686.552zm21.513-15.102 1.827 1.057a.564.564 0 0 0 .497 0l1.842-1.057c.132-.086.132-.21 0-.288l-1.834-1.057a.514.514 0 0 0-.498 0l-1.834 1.057c-.14.078-.14.202 0 .288z" fill="#455A64"/><path d="M65.695 155.269a1.713 1.713 0 0 0-.778-.171 1.66 1.66 0 0 0-.777.171c-.357.21-.357.529 0 .731l.63.365.458-.093-.63-.358a.294.294 0 0 1-.137-.443.302.302 0 0 1 .138-.109.715.715 0 0 1 .326-.085.577.577 0 0 1 .319.085l.63.366.466-.093-.645-.366zm33.35-19.282c-.308-.01-.613.06-.886.202l-4.663 2.682c-.405.225-.405.591 0 .824l1.694.971c.273.143.578.213.886.202a2.55 2.55 0 0 0 .427-.039c.16-.025.312-.081.451-.163l4.663-2.673c.397-.234.397-.599 0-.824l-1.694-.98a1.754 1.754 0 0 0-.878-.202zm-2.954 4.664a.818.818 0 0 1-.38-.101l-1.687-.98a.335.335 0 0 1 0-.629l4.663-2.674a.719.719 0 0 1 .241-.093h.14c.132.004.26.041.373.109l1.687.971a.336.336 0 0 1 .222.315.336.336 0 0 1-.222.315l-4.663 2.681a.78.78 0 0 1-.374.109v-.023z" fill="#455A64"/><path d="m96.223 140.347-.062-.039-1.555-.878a.249.249 0 0 1 0-.466l4.182-2.41a.267.267 0 0 1 .085-.038l.063.038 1.554.879a.254.254 0 0 1 .111.091.25.25 0 0 1-.111.367l-4.181 2.417-.086.039zm3.941-4.282a1.168 1.168 0 0 1 .94.178l.311.187c.35.194.497.443.334.552l-.303.186-1.554-.925.272-.178zm-26.558 45.669a7.496 7.496 0 0 0 3.265-.902c1.896-1.096 2.386-2.588-.622-4.461a3.718 3.718 0 0 1-1.974 2.658c-2.58 1.492-5.518 1.873-7.889.513-2.37-1.36-1.554-3.381 1.042-4.873a10.987 10.987 0 0 1 10.958.039c4.392 2.533 3.405 5.215.296 6.995a12.37 12.37 0 0 1-5.3 1.554l.224-1.523zm1.096-6.172c-2.277-.987-4.212-.847-5.681 0-1.236.708-1.485 1.741-.117 2.526a4.27 4.27 0 0 0 4.415-.209 2.408 2.408 0 0 0 1.383-2.317zm5.441-4.889a3.408 3.408 0 0 1 3.109-.217c.777.466.63 1.243-.365 1.811a3.444 3.444 0 0 1-3.164.225c-.8-.458-.598-1.243.42-1.819zm6.07 3.506a3.397 3.397 0 0 1 3.11-.21c.776.458.629 1.236-.366 1.811a3.47 3.47 0 0 1-3.163.225c-.793-.458-.599-1.251.396-1.795l.023-.031zm1.027-4.236c-3.817-2.207-3.817-4.5-.692-6.311 3.124-1.811 7.119-1.795 10.927.404 3.809 2.2 3.886 4.563.777 6.373-3.108 1.811-7.189 1.741-11.013-.466zm7.624-4.407c-3.195-1.842-5.246-1.826-6.715-.979-1.47.847-1.5 2.036 1.694 3.886s5.386 1.881 6.832 1.049c1.445-.831 1.39-2.106-1.811-3.956zm4.531-2.611c-3.824-2.207-3.824-4.5-.7-6.303 3.125-1.803 7.127-1.795 10.928.396 3.8 2.192 3.933 4.571.777 6.374-3.155 1.803-7.189 1.741-11.005-.467zm7.624-4.399c-3.202-1.849-5.254-1.834-6.723-.987-1.469.847-1.5 2.037 1.702 3.886 3.202 1.85 5.386 1.873 6.824 1.042 1.438-.832 1.391-2.099-1.803-3.941z" fill="#455A64"/><path d="m79.8 198.793 61.152-35.302a5.175 5.175 0 0 1 4.664 0l15.629 9.024c1.291.777 1.291 1.951 0 2.697l-61.128 35.301a5.16 5.16 0 0 1-4.663 0L79.8 201.49c-1.29-.747-1.29-1.951 0-2.697z" fill="#DBBE8F"/><path d="m86.361 199.989 10.943 6.311a2.19 2.19 0 0 0 2.013 0l16.128-9.326c.559-.327.559-.847 0-1.166l-10.944-6.319a2.24 2.24 0 0 0-2.013 0l-16.127 9.327a.608.608 0 0 0-.433.586.612.612 0 0 0 .433.587z" fill="#FAFAFA"/><path d="m102.869 196.95 12.972-.513-12.925-.194.521-6.972-2.122 8.604-15.381 1.524 12.56-.591-.311 7.733.963-7.764 3.599-.171.124-1.656z" fill="#DBBE8F"/><path d="m109.677 186.196 15.801-9.086a2.818 2.818 0 0 1 2.542 0c.691.396.668 1.049-.055 1.469l-15.801 9.086a2.814 2.814 0 0 1-2.541 0c-.684-.397-.653-1.019.054-1.469zm4.873 2.781 32.022-18.506a2.817 2.817 0 0 1 2.541 0c.692.397.669 1.057-.054 1.469l-32.022 18.506a2.833 2.833 0 0 1-2.549 0c-.684-.373-.66-1.026.062-1.469zm4.858 2.83 32.029-18.506a2.818 2.818 0 0 1 2.541 0c.684.397.661 1.057-.054 1.469l-32.029 18.506a2.818 2.818 0 0 1-2.542 0c-.691-.412-.66-1.049.055-1.469z" fill="#FAFAFA"/><path d="M90.016 87.848 193.68 28.002l4.15 2.394a4.323 4.323 0 0 1 1.943 3.38v76.471a4.32 4.32 0 0 1-1.943 3.381L98.06 171.22a4.353 4.353 0 0 1-3.886 0l-2.192-1.267a4.341 4.341 0 0 1-1.95-3.381l-.016-78.724z" fill="#DBBE8F"/><path opacity=".05" d="M90.016 87.848 193.68 28.002l4.15 2.394a4.323 4.323 0 0 1 1.943 3.38v76.471a4.32 4.32 0 0 1-1.943 3.381L98.06 171.22a4.353 4.353 0 0 1-3.886 0l-2.192-1.267a4.341 4.341 0 0 1-1.95-3.381l-.016-78.724z" fill="#000"/><path d="m193.106 21.272.427-.233-1.608-.933a3.131 3.131 0 0 0-.436-.202L145.867 2.999a3.111 3.111 0 0 0-3.498 1.112l-51.04 74.527a8.892 8.892 0 0 0-1.313 4.26v4.95l1.554.917 102.088-60.77v-4.951a3.377 3.377 0 0 0-.552-1.772z" fill="#DBBE8F"/><path opacity=".1" d="M144.475 4.478a2.553 2.553 0 0 0-.528.56l-51.04 74.527a7.929 7.929 0 0 0-.948 2.13l-1.555-.918c.115-.383.253-.76.412-1.127a7.8 7.8 0 0 1 .218-.45v-.07c.08-.156.172-.307.272-.451L142.36 4.12c.077-.11.163-.214.257-.31l.272-.25 1.585.918z" fill="#000"/><path opacity=".35" d="M193.51 21.039a2.503 2.503 0 0 0-.435-.21L147.444 3.917a3.108 3.108 0 0 0-2.969.56l-1.554-.918a3.164 3.164 0 0 1 2.977-.56l45.622 16.905c.149.056.293.126.428.21l1.562.925z" fill="#fff"/><path d="M91.057 79.09zm51.569-75.28zM90.365 80.777zm.435-1.166c.07-.156.148-.303.218-.443-.07.14-.147.287-.217.443z" fill="#DBBE8F"/><path opacity=".2" d="M91.018 79.169v-.079c0-.023.015.055 0 .079zm51.351-75.057z" fill="#000"/><path d="M143.947 5.045 92.915 79.58a8.759 8.759 0 0 0-1.321 4.251v4.951l103.665-59.846v-4.974a3.599 3.599 0 0 0-2.184-3.109L147.452 3.95a3.148 3.148 0 0 0-3.505 1.096z" fill="#DBBE8F"/><path d="m102.879 160.807-3.326-1.92a2.006 2.006 0 0 1-.778-1.811V53.426a5.954 5.954 0 0 1 .933-2.961l3.381 1.943a5.912 5.912 0 0 0-.933 2.977v103.611a2.038 2.038 0 0 0 .723 1.811z" fill="#E0E0E0"/><path d="M104.954 50.434 188.225 2.37c1.555-.917 2.853-.18 2.853 1.647v103.619a6.31 6.31 0 0 1-2.853 4.951l-83.271 48.055c-1.554.91-2.852.171-2.852-1.655V55.385a6.327 6.327 0 0 1 2.852-4.95z" fill="#F0F0F0"/><path d="m186.865.218 3.264 1.897a2.018 2.018 0 0 0-1.912.272l-83.263 48.055a5.506 5.506 0 0 0-1.928 1.966l-3.38-1.943a5.745 5.745 0 0 1 1.919-1.982L184.836.381a1.963 1.963 0 0 1 2.029-.178v.015z" fill="#FAFAFA"/><path d="m111.451 55.858 69.243-39.98c.932-.537 1.686-.156 1.686.855a3.604 3.604 0 0 1-1.686 2.79l-69.243 39.98c-.932.536-1.686.155-1.686-.847a3.606 3.606 0 0 1 1.686-2.798zm0 7.267 69.243-39.98c.932-.536 1.686-.155 1.686.855a3.604 3.604 0 0 1-1.686 2.79l-69.243 39.98c-.932.537-1.686.156-1.686-.847a3.606 3.606 0 0 1 1.686-2.798zm0 7.268 69.243-39.98c.932-.536 1.686-.155 1.686.847a3.606 3.606 0 0 1-1.686 2.798l-69.243 39.98c-.932.537-1.686.156-1.686-.847a3.606 3.606 0 0 1 1.686-2.798zm0 7.267 69.243-39.971c.932-.537 1.686-.156 1.686.847a3.606 3.606 0 0 1-1.686 2.798l-69.243 39.98c-.932.536-1.686.155-1.686-.855a3.606 3.606 0 0 1 1.686-2.798zm0 7.266 69.243-39.98c.932-.536 1.686-.155 1.686.847a3.606 3.606 0 0 1-1.686 2.798l-69.243 39.98c-.932.537-1.686.156-1.686-.854a3.604 3.604 0 0 1 1.686-2.79zm0 7.268 69.243-39.98c.932-.536 1.686-.156 1.686.847a3.606 3.606 0 0 1-1.686 2.798l-69.243 39.98c-.932.536-1.686.156-1.686-.855a3.604 3.604 0 0 1 1.686-2.79zm0 7.267 69.243-40.01c.932-.537 1.686-.156 1.686.846a3.606 3.606 0 0 1-1.686 2.798l-69.243 39.98c-.932.537-1.686.156-1.686-.854a3.612 3.612 0 0 1 1.686-2.76zm0 7.266 69.243-39.98c.932-.544 1.686-.156 1.686.847a3.606 3.606 0 0 1-1.686 2.798l-69.243 39.98c-.932.536-1.686.155-1.686-.855a3.606 3.606 0 0 1 1.686-2.79z" fill="#E0E0E0"/><path d="M197.148 111.259a.983.983 0 0 1-.109.155l-43.198-19.158a7.438 7.438 0 0 0-9.327 2.876l-46.182 74.1-1.71.987c-.19.133-.411.216-.642.241a1.384 1.384 0 0 1-.68-.094l47.497-76.214a7.46 7.46 0 0 1 9.326-2.883l45.025 19.99z" fill="#DBBE8F"/><path opacity=".4" d="m140.247 101.872.109-.093-42.04 67.462-1.71.987a1.417 1.417 0 0 1-1.32.148l43.267-69.499 1.694.995zm56.901 9.394a.983.983 0 0 1-.109.155l-43.206-19.166a7.438 7.438 0 0 0-9.326 2.876l-1.71-.995a7.46 7.46 0 0 1 9.326-2.86l45.025 19.99z" fill="#fff"/><path d="M199.743 33.282c-.093-.56-.388-.715-.777-.45a2.24 2.24 0 0 0-.497.512l-.218.303-42.599 59.349-6.366 8.868a3.626 3.626 0 0 1-3.505 1.313l-5.495-1.305-41.97-9.98a2.137 2.137 0 0 0-.855 0c-.11.022-.216.056-.318.101l1.158-.668 40.415 9.614 5.51 1.259a3.609 3.609 0 0 0 3.506-1.314l6.365-8.86 42.84-59.651a1.71 1.71 0 0 1 .482-.443l-3.684-2.122 1.555-.894 2.565 1.477a4.45 4.45 0 0 1 1.888 2.891z" fill="#DBBE8F"/><path opacity=".4" d="m155.652 92.996-6.366 8.868a3.623 3.623 0 0 1-3.505 1.313l-5.495-1.306.109-.093.264-.42 3.599.855a3.62 3.62 0 0 0 3.505-1.313l6.303-8.767 1.586.863z" fill="#fff"/><path opacity=".1" d="m197.824 30.39-2.565-1.476-1.555.894 3.708 2.137a1.742 1.742 0 0 0-.482.443L154.097 92.04l-.062.085 1.555.863 42.653-59.34.218-.304a2.24 2.24 0 0 1 .497-.513c.381-.264.677-.109.778.451a4.456 4.456 0 0 0-1.912-2.891z" fill="#000"/><path d="m99.156 93.133-9.14-5.285v78.724a4.343 4.343 0 0 0 1.95 3.381l2.192 1.267a4.367 4.367 0 0 0 3.886 0l1.096-.637.016-77.45z" fill="#DBBE8F"/><path opacity=".15" d="m99.156 93.133-9.14-5.285v78.724a4.343 4.343 0 0 0 1.95 3.381l2.192 1.267a4.367 4.367 0 0 0 3.886 0l1.096-.637.016-77.45z" fill="#000"/><path d="M198.251 33.647v75.638a3.89 3.89 0 0 1-.606 1.975 4.043 4.043 0 0 1-1.143 1.274l-.07.047-.132.085-99.764 57.592c-.12.074-.247.134-.38.179a2.493 2.493 0 0 1 0-.35v-76.44a1.694 1.694 0 0 1 2.191-1.725l41.97 9.98 5.495 1.306a3.635 3.635 0 0 0 3.505-1.314l6.335-8.9 42.599-59.347z" fill="#455A64"/><path d="M199.782 33.801v76.471a3.962 3.962 0 0 1-.606 1.974c-.29.501-.679.937-1.143 1.283l-.077.038c-.04.032-.081.06-.125.086l-99.763 57.561a1.396 1.396 0 0 1-1.33.155 1.18 1.18 0 0 1-.582-.932 2.493 2.493 0 0 1 0-.35v-76.44a1.694 1.694 0 0 1 2.191-1.725l41.97 9.979 5.495 1.306a3.625 3.625 0 0 0 3.505-1.313l6.335-8.9 42.63-59.348.218-.303c.676-1.003 1.282-.816 1.282.458z" fill="#DBBE8F"/><path d="m197.832 113.622.124-.086.078-.039a4.264 4.264 0 0 0 1.143-1.282c.362-.583.568-1.25.598-1.936l-44.123-17.285 29.535 27.926 12.645-7.298z" fill="#DBBE8F"/><path opacity=".2" d="m197.832 113.622.124-.086.078-.039a4.264 4.264 0 0 0 1.143-1.282c.362-.583.568-1.25.598-1.936l-44.123-17.285 29.535 27.926 12.645-7.298z" fill="#000"/><path d="M96.116 170.093a1.346 1.346 0 0 0 .606 1.283 1.384 1.384 0 0 0 1.329-.156l34.346-19.826 7.842-49.517-44.123 66.942v1.274z" fill="#DBBE8F"/><path opacity=".15" d="m144.483 95.124-47.767 76.245a1.343 1.343 0 0 1-.607-1.282v-1.267l42.149-67.401.326-.52 4.19-6.715 1.709.94z" fill="#000"/><path d="M199.176 112.214c-.29.501-.679.937-1.143 1.282l-.078.039-99.888 57.678a1.392 1.392 0 0 1-1.329.155L144.506 95.1a7.508 7.508 0 0 1 9.397-2.884l45.273 19.998z" fill="#DBBE8F"/><path d="M199.176 112.222a4.046 4.046 0 0 1-1.143 1.275l-.07.047-99.903 57.677a1.409 1.409 0 0 1-1.33.148l1.33-2.114 98.17-56.691.078-.046a3.97 3.97 0 0 0 1.033-1.12l1.835.824z" fill="#DBBE8F"/><path opacity=".15" d="m90.365 80.775 1.555.917a7.776 7.776 0 0 0-.366 2.13v4.943L90 87.848v-4.95a7.806 7.806 0 0 1 .365-2.123z" fill="#000"/><path d="m99.754 91.642-1.46-.35-1.159.67-1.6-.926-3.941-2.27 1.53-.909 6.63 3.785z" fill="#DBBE8F"/><path opacity=".1" d="m99.754 91.642-6.621-3.777-1.555.91 3.94 2.27 1.602.924a.985.985 0 0 1 .295-.093c.282-.058.573-.058.855 0l3.225.777 36.763 8.767.326-.521-38.83-9.257z" fill="#000"/><path d="m218.218 107.467-7.376-4.275-.062-.039c-3.218-1.819-7.64-1.554-12.529 1.282-9.839 5.682-17.821 19.501-17.821 30.864 0 5.674 1.997 9.661 5.207 11.526l6.723 3.886 1.554-2.635a18.019 18.019 0 0 0 5.115-1.989c9.839-5.682 17.821-19.501 17.821-30.864a18.946 18.946 0 0 0-.559-4.554l1.927-3.202z" fill="#F28F8F"/><path opacity=".15" d="M181.082 129.322a28.76 28.76 0 0 0-.676 5.985c0 5.674 1.998 9.661 5.208 11.526l6.723 3.886 1.554-2.635a18.024 18.024 0 0 0 5.114-1.989 28.484 28.484 0 0 0 4.858-3.583l-22.781-13.19z" fill="#000"/><path d="M205.246 108.484c-9.839 5.681-17.821 19.5-17.821 30.863s7.982 15.972 17.821 10.29c9.84-5.681 17.822-19.5 17.822-30.863s-7.974-15.972-17.822-10.29z" fill="#FFA8A7"/><path d="M212.288 124.301v-4.368c0-4.982-3.031-7.274-6.762-5.114-3.738 2.161-6.769 7.943-6.769 12.925v3.886a15.489 15.489 0 0 1-2.277 7.625 4.21 4.21 0 0 0-.552 1.997c0 1.252.777 1.835 1.702 1.291l15.801-9.125a4.083 4.083 0 0 0 1.702-3.256 1.586 1.586 0 0 0-.498-1.322c-1.43-.606-2.347-2.207-2.347-4.539zm-3.521 13.213c0 2.394-1.453 5.168-3.241 6.217-1.787 1.05-3.249-.062-3.249-2.448l6.49-3.769z" fill="#fff"/></svg>