<svg width="300" height="264" fill="none" xmlns="http://www.w3.org/2000/svg"><path d="M202.789 4.293s-49.166-14.479-97.715 14.8c-48.55 29.278-73.303 83.892-94.543 127.703-21.239 43.81-9.465 86.737 27.324 104.763 36.789 18.027 62.098-12.457 113.907-16.426 51.81-3.969 65.693 2.483 108.861-27.846 43.168-30.329 51.381-97.367 17.798-145.02-33.582-47.653-75.632-57.974-75.632-57.974z" fill="#DBBE8F"/><path opacity=".7" d="M202.789 4.293s-49.166-14.479-97.715 14.8c-48.55 29.278-73.303 83.892-94.543 127.703-21.239 43.81-9.465 86.737 27.324 104.763 36.789 18.027 62.098-12.457 113.907-16.426 51.81-3.969 65.693 2.483 108.861-27.846 43.168-30.329 51.381-97.367 17.798-145.02-33.582-47.653-75.632-57.974-75.632-57.974z" fill="#fff"/><path d="M285.462 130.649H16.602v12.464h268.86v-12.464z" fill="#263238"/><path d="M289.064 49.213H12.612v89.027h276.452V49.213z" fill="#fff"/><path d="M102.549 49.212v44.6h-6.895c-8.701.917-13.782-5.97-11.941-16.54 1.84-10.57-28.027 5.978-34.915 0-4.88-4.224 12.337-19.492 22.813-28.06h30.938zm135.756 24.164c5.094 12.049 59.005-21.487 46.99-2.182-12.016 19.305-24.406 32.418 2.55 26.594l1.218-.287V49.21h-25.576c-12.23 6.38-28.429 16.521-25.182 24.165z" fill="#DBBE8F"/><path opacity=".5" d="M102.549 49.212v44.6h-6.895c-8.701.917-13.782-5.97-11.941-16.54 1.84-10.57-28.027 5.978-34.915 0-4.88-4.224 12.337-19.492 22.813-28.06h30.938zm135.756 24.164c5.094 12.049 59.005-21.487 46.99-2.182-12.016 19.305-24.406 32.418 2.55 26.594l1.218-.287V49.21h-25.576c-12.23 6.38-28.429 16.521-25.182 24.165z" fill="#fff"/><path d="M289.064 49.213H12.612v89.027h276.452V49.213z" stroke="#263238" stroke-linecap="round" stroke-linejoin="round"/><path d="M199.294 49.213h-96.919v89.027h96.919V49.213z" fill="#fff"/><path d="M166.956 96.738c-10.623 5.677-41.3 30.45-54.795 41.501H199.3V50.31c-11.379 4.633-54.748 22.72-57.138 29.694-2.757 8.032 38.57 9.371 24.794 16.734z" fill="#DBBE8F"/><path opacity=".5" d="M166.956 96.738c-10.623 5.677-41.3 30.45-54.795 41.501H199.3V50.31c-11.379 4.633-54.748 22.72-57.138 29.694-2.757 8.032 38.57 9.371 24.794 16.734z" fill="#fff"/><path d="M199.294 49.213h-96.919v89.027h96.919V49.213z" stroke="#263238" stroke-linecap="round" stroke-linejoin="round"/><path d="M205.686 83.09c2.872 6.306 10.945 11.139 14.834 12.31 0 0 10.415 3.642 18.227-2.396 7.811-6.038 9.532-17.752 2.162-29.158-7.37-11.406-23.114-8.95-29.861-2.53s-8.227 15.47-5.362 21.775zm21.795-10.448c2.537 2.209 2.678 5.355.167 6.874a4.509 4.509 0 0 1-4.618-.08 3.584 3.584 0 0 1-1.573-4.579c.736-1.794 3.507-4.43 6.024-2.215z" fill="#fff" stroke="#263238" stroke-miterlimit="10"/><path d="M211.417 62.204c-.978 3.126-1.453 4.017-3.066 5.556-1.613 1.54-2.47 4.103-2.276 5.456a24.55 24.55 0 0 1 .214 4.846 7.141 7.141 0 0 0 2.678 5.81 14.624 14.624 0 0 1 3.621 3.809c1.412 1.948.95 2.39 3.066 3.454 2.115 1.064 6.111 3.193 6.111 3.193s4.565 2.008 6.614 1.178c2.048-.83 4.484-3.822 6.077-4.458 1.594-.636 2.337 1.07 4.445-2.008 2.109-3.08 2.724-5.45 4.016-6.66 1.292-1.212 1.6-5.476-.154-7.317a9.415 9.415 0 0 1-2.878-6.493c-.261-3.045-1.118-4.873-4.351-5.964-3.233-1.091-5.649-3.855-6.861-4.9-1.212-1.044-4.485-.79-6.54.281-2.055 1.071-3.922-.669-6.084.302-.67.307-1.339.502-1.868.722-.573.336-1.127.703-1.66 1.098a5.765 5.765 0 0 0-1.104 2.095zm10.321 11.105c1.339.255 2.082-2.202 4.445-2.255 2.363-.054.984 1.265 1.339 1.606a6.456 6.456 0 0 1 1.379 1.667c.403.516.674 1.122.789 1.767a4.924 4.924 0 0 0 .938 3.066c.756 1.03-.931 1.104-2.403 1.405-1.473.302-1.58.181-2.731 1.051-1.152.87-2.798-.629-2.798-.629s-1.005-.361-1.975-2.075c-.971-1.714.053-2.008-.817-3.4-.87-1.393.489-2.497 1.834-2.203z" fill="#fff" stroke="#263238" stroke-miterlimit="10"/><path d="M222.367 65.057a1.165 1.165 0 1 0 0-2.33 1.165 1.165 0 0 0 0 2.33zM215.372 67.226a.502.502 0 1 0 0-1.005.502.502 0 0 0 0 1.005zM218.284 61.723a.75.75 0 1 0 0-1.5.75.75 0 0 0 0 1.5zM214.703 72.554a1.34 1.34 0 0 1-2.652.26 1.339 1.339 0 1 1 2.652-.26zM230.199 68.31a.915.915 0 0 1-1.096.9.914.914 0 0 1-.72-.72.915.915 0 0 1 .899-1.096.906.906 0 0 1 .849.565.904.904 0 0 1 .068.352zM229.952 63.557a.75.75 0 1 0 0-1.5.75.75 0 0 0 0 1.5zM236.852 69.14a1.085 1.085 0 1 1-2.17.002 1.085 1.085 0 0 1 2.17-.002zM238.192 78.304a.916.916 0 0 1-1.096.9.917.917 0 1 1 1.096-.9zM232.534 87.715a1.002 1.002 0 0 1-1.711.72 1.004 1.004 0 1 1 1.711-.72zM220.868 90.714a1.5 1.5 0 1 0 0-2.999 1.5 1.5 0 0 0 0 2.999zM215.286 80.888a.75.75 0 1 0 0-1.5.75.75 0 0 0 0 1.5zM223.372 83.887a.666.666 0 0 1-.413.619.671.671 0 0 1-.913-.488.665.665 0 0 1 .285-.687.668.668 0 0 1 1.041.556zM210.205 76.657a.582.582 0 1 1-1.165.001.582.582 0 0 1 1.165 0zM214.87 61.563a.503.503 0 1 1-.309-.466.49.49 0 0 1 .309.466zM221.036 68.31a.413.413 0 0 1-.257.384.41.41 0 0 1-.158.031.423.423 0 0 1-.264-.697.423.423 0 0 1 .264-.14.424.424 0 0 1 .415.422zM233.198 74.14a.582.582 0 1 1-1.164 0 .582.582 0 0 1 1.164 0zM238.7 83.552a1.006 1.006 0 0 1-1.989.205 1.005 1.005 0 1 1 1.989-.205zM218.866 75.32a.918.918 0 1 1-.56-.848.912.912 0 0 1 .56.847zM214.703 83.552a.666.666 0 0 1-.413.619.67.67 0 1 1 .413-.619zM211.042 71.055a.84.84 0 0 1-.512.777.837.837 0 1 1 .512-.777zM226.035 60.392a.499.499 0 0 1-.596.5.504.504 0 0 1-.185-.91.5.5 0 0 1 .632.06.498.498 0 0 1 .149.35zM56.209 81.242a1.426 1.426 0 0 1-1.205-.937 12.33 12.33 0 0 0-22.31-1.907 1.419 1.419 0 0 1-1.339.723l-1.546-.134a1.412 1.412 0 0 0-1.406 2.008l2.765 6.165c.22.502.441 1.004.629 1.52a12.33 12.33 0 0 0 23.18.14c.429-1.172.884-2.343 1.413-3.474l.97-2.075a1.406 1.406 0 0 0-1.151-2.029z" fill="#fff" stroke="#263238" stroke-miterlimit="10"/><path d="M56.209 81.243a1.425 1.425 0 0 1-1.205-.938 12.224 12.224 0 0 0-1.212-2.443l-2.356 5.944a145.899 145.899 0 0 1-12.578 12.176c1.447.572 2.99.865 4.545.864h.523a86.914 86.914 0 0 0 11.185-8.428c.395-1.044.796-2.081 1.272-3.086l.97-2.075a1.406 1.406 0 0 0-1.144-2.014z" fill="#fff" stroke="#263238" stroke-miterlimit="10"/><path d="M43.417 89.911c10.119 0 18.321-8.202 18.321-18.32 0-10.119-8.202-18.321-18.32-18.321-10.119 0-18.321 8.202-18.321 18.32 0 10.119 8.202 18.321 18.32 18.321z" fill="#fff" stroke="#263238" stroke-miterlimit="10"/><path d="M43.417 87.468c8.768 0 15.877-7.109 15.877-15.878s-7.108-15.877-15.877-15.877c-8.77 0-15.878 7.108-15.878 15.877 0 8.77 7.109 15.878 15.878 15.878z" fill="#fff" stroke="#263238" stroke-miterlimit="10"/><path d="M43.417 83.92c6.81 0 12.33-5.52 12.33-12.33 0-6.81-5.52-12.33-12.33-12.33-6.81 0-12.33 5.52-12.33 12.33 0 6.81 5.52 12.33 12.33 12.33z" fill="#fff" stroke="#263238" stroke-miterlimit="10"/><path d="m35.585 62.995-15.068-7.63-1.211 3.728 14.257 7.43c.343.234.75.36 1.165.361a2.008 2.008 0 0 0 .837-3.889h.02z" fill="#fff" stroke="#263238" stroke-miterlimit="10"/><path d="M21.361 57.058a2.008 2.008 0 1 1-4.016 0 2.008 2.008 0 0 1 4.016 0z" fill="#fff" stroke="#263238" stroke-miterlimit="10"/><path d="M117.697 60.478h40.169M169.192 60.478h16.822M117.697 67.34h40.169M169.192 67.34h16.822M117.697 74.207h40.169M169.192 74.207h16.822M117.697 81.075h40.169M169.192 81.075h16.822M117.697 87.942h40.169M169.192 87.942h16.822M117.697 102.014h40.169M169.192 102.014h16.822M117.697 108.881h40.169M169.192 108.881h16.822M117.697 115.749h40.169M169.192 115.749h16.822M117.697 122.616h40.169M169.192 122.616h16.822M117.697 129.478h40.169M169.192 129.478h16.822M209.703 102.014h40.169M261.197 102.014h16.822M209.703 108.881h40.169M261.197 108.881h16.822M209.703 115.749h40.169M261.197 115.749h16.822M209.703 122.616h40.169M261.197 122.616h16.822M209.703 129.478h40.169M261.197 129.478h16.822M21.917 102.702h40.162M73.411 102.702h16.822M21.917 109.57h40.162M73.411 109.57h16.822M21.917 116.438h40.162M73.411 116.438h16.822M21.917 123.299h40.162M73.411 123.299h16.822M21.917 130.167h40.162M73.411 130.167h16.822" stroke="#263238" stroke-miterlimit="10"/><path d="M47.02 167.023s0-2.577-3.602-6.178c-3.6-3.602-5.923-5.663-5.923-5.663s-1.801 5.924 1.546 9.525a63.503 63.503 0 0 0 7.979 6.948v-4.632zM41.791 183.087s0-2.57-3.608-6.171c-3.608-3.601-5.917-5.663-5.917-5.663s-1.8 5.917 1.546 9.518a62.93 62.93 0 0 0 7.98 6.949v-4.633z" fill="#DBBE8F"/><path d="M46.791 171.394s.268-2.557 4.23-5.756c3.963-3.2 6.487-5.007 6.487-5.007s1.165 6.078-2.544 9.304a62.934 62.934 0 0 1-8.661 6.071l.488-4.612zM40.472 190.377s.543-2.517 4.82-5.288c4.277-2.772 6.975-4.291 6.975-4.291s.509 6.158-3.508 8.983a62.854 62.854 0 0 1-9.257 5.121l.97-4.525zM41.664 211.068s0-2.577 3.601-6.178c3.602-3.602 5.918-5.657 5.918-5.657s1.8 5.918-1.547 9.519a63.148 63.148 0 0 1-7.972 6.948v-4.632z" fill="#DBBE8F"/><path d="M41.603 216.115s.362-2.544-2.677-6.62c-3.039-4.077-5.054-6.446-5.054-6.446s-2.624 5.602.174 9.639a63.135 63.135 0 0 0 6.908 8.032l.65-4.605zM38.049 231.083s0-2.571 3.601-6.172c3.601-3.601 5.917-5.663 5.917-5.663s1.8 5.917-1.54 9.519a63.004 63.004 0 0 1-7.978 6.948v-4.632zM40.453 244.67s-.67-2.49 1.92-6.888c2.591-4.397 4.291-6.974 4.291-6.974s3.247 5.268.924 9.598c-2.322 4.331-6.613 7.725-6.613 7.725l-.522-3.461z" fill="#DBBE8F"/><path d="M47.34 166.354a73.05 73.05 0 0 1-.984 7.992c-1.425 7.363-4.986 12.102-6.406 18.742-1.419 6.64 2.678 15.202 1.567 23.743-1.111 8.541-4.418 13.28-3.468 18.977.95 5.696 4.686 23.588 4.686 23.588M46.758 173.108l3.875-2.979M46.932 169.673l-1.62-2.885" stroke="#263238" stroke-linecap="round" stroke-linejoin="round"/><path d="M40.164 192.787s3.246-2.436 6.593-4.873M41.79 187.713a52.041 52.041 0 0 0-5.749-8.829M41.792 214.729a40.155 40.155 0 0 1 6.968-9.304M41.156 218.338a44.811 44.811 0 0 0-3.521-6.694c-1.895-2.798-2.162-3.16-2.162-3.16M38.049 235.814a44.016 44.016 0 0 1 2.925-5.924 37.625 37.625 0 0 1 3.769-4.96M40.727 249.731a23.855 23.855 0 0 1 1.894-6.293c1.339-2.624 2.892-6.024 3.52-7.403" stroke="#263238" stroke-linecap="round" stroke-linejoin="round"/><path d="M17.62 201.389s-.28-1.613 1.587-4.264c1.867-2.651 3.1-4.19 3.1-4.19s1.773 3.514.066 6.138a40.07 40.07 0 0 1-4.25 5.221l-.503-2.905zM22.654 210.9s-.275-1.613 1.593-4.264c1.867-2.65 3.092-4.197 3.092-4.197s1.774 3.521.067 6.139a40.318 40.318 0 0 1-4.25 5.227l-.502-2.905z" fill="#DBBE8F"/><path d="M18.236 204.113s-.448-1.573-3.28-3.153c-2.831-1.58-4.605-2.437-4.605-2.437s-.074 3.936 2.604 5.563a40.502 40.502 0 0 0 6.091 2.865l-.81-2.838zM24.26 215.324s-.615-1.519-3.614-2.784c-2.999-1.265-4.84-1.941-4.84-1.941s.342 3.922 3.174 5.254a40.385 40.385 0 0 0 6.358 2.209l-1.077-2.738zM25.76 228.432s-.282-1.613-2.932-3.481c-2.651-1.868-4.325-2.905-4.325-2.905s-.488 3.902 2.009 5.797a40.062 40.062 0 0 0 5.756 3.494l-.509-2.905z" fill="#DBBE8F"/><path d="M26.349 231.59s-.51-1.553.963-4.445c1.473-2.891 2.47-4.565 2.47-4.565s2.256 3.233.938 6.071a40.45 40.45 0 0 1-3.461 5.77l-.91-2.831zM30.867 244.61s.187-1.627 2.724-3.649c2.537-2.021 4.157-3.146 4.157-3.146s.71 3.869-1.667 5.904a40.277 40.277 0 0 1-5.549 3.816l.335-2.925zM30.198 240.595s-.281-1.614-2.932-3.481c-2.65-1.868-4.324-2.912-4.324-2.912s-.489 3.909 2.008 5.804a40.804 40.804 0 0 0 5.757 3.494l-.509-2.905zM30.163 249.356s.134-1.634-1.954-4.11c-2.088-2.477-3.447-3.923-3.447-3.923s-1.46 3.655.468 6.125a40.315 40.315 0 0 0 4.686 4.833l.247-2.925z" fill="#DBBE8F"/><path d="M17.346 201.014c.402 1.66.898 3.296 1.486 4.899 1.686 4.459 4.438 7.049 6.024 11.065 1.586 4.016 0 9.82 1.593 15.054 1.593 5.235 4.237 7.852 4.237 11.527 0 3.675-1.68 14.499-1.68 14.499M18.443 205.183l-2.758-1.453M17.962 203.048l.703-1.988" stroke="#263238" stroke-linecap="round" stroke-linejoin="round"/><path d="M24.715 216.805s-2.303-1.172-4.686-2.336M23.143 213.805a33.028 33.028 0 0 1 2.677-6.165M26.075 230.741a25.508 25.508 0 0 0-5.355-5.074M26.864 232.936c.37-1.562.867-3.091 1.486-4.572.884-1.961 1.011-2.216 1.011-2.216M30.586 246.343a24.466 24.466 0 0 1 2.965-3.079 15.809 15.809 0 0 0 1.928-1.673M30.686 243.56a27.948 27.948 0 0 0-2.477-3.394 24.283 24.283 0 0 0-2.918-2.678M29.916 252.301a7.052 7.052 0 0 0-1.238-3.468c-1.131-1.499-2.47-3.48-3.012-4.264" stroke="#263238" stroke-linecap="round" stroke-linejoin="round"/><path d="M155.986 87.367s18.475 17.852 19.305 26.775c.83 8.923-12.872 16.192-8.923 19.097 3.95 2.905 14.727 10.59 10.583 17.23-4.143 6.64-6.225 8.307-4.772 9.759 1.452 1.453 4.98 2.678 4.772 6.226-.207 3.547-4.357 6.593-4.357 6.593h-65.599s-3.528.207-3.113-4.773c.415-4.98 7.471-7.677 6.226-11.419-1.245-3.742-10.382-6.64-10.382-14.117 0-7.477 10.797-10.583 12.457-14.111 1.66-3.527-5.396-5.817-6.848-10.382-1.453-4.565 6.024-12.457 10.583-16.607 4.558-4.15 22.839-16.192 30.122-16.607 7.282-.415 9.946 2.336 9.946 2.336z" fill="#263238"/><path d="M160.939 92.2s10.041 17.544 8.454 24.431c-1.586 6.888-12.216 14.727-8.146 20.048 4.07 5.322 10.041 7.517 7.524 14.097a33.053 33.053 0 0 1-6.58 10.65M116.145 116.323s6.265 9.706 4.685 12.524c-1.58 2.818-10.65 6.266-9.371 13.468 1.278 7.202 14.412 18.481 14.412 19.74" stroke="#858585" stroke-linecap="round" stroke-linejoin="round"/><path d="M155.986 87.367s18.475 17.852 19.305 26.775c.83 8.923-12.872 16.192-8.923 19.097 3.95 2.905 14.727 10.59 10.583 17.23-4.143 6.64-6.225 8.307-4.772 9.759 1.452 1.453 4.98 2.678 4.772 6.226-.207 3.547-4.357 6.593-4.357 6.593h-65.599s-3.528.207-3.113-4.773c.415-4.98 7.471-7.677 6.226-11.419-1.245-3.742-10.382-6.64-10.382-14.117 0-7.477 10.797-10.583 12.457-14.111 1.66-3.527-5.396-5.817-6.848-10.382-1.453-4.565 6.024-12.457 10.583-16.607 4.558-4.15 22.839-16.192 30.122-16.607 7.282-.415 9.946 2.336 9.946 2.336z" stroke="#263238" stroke-linecap="round" stroke-linejoin="round"/><path d="M179.702 163.188s25.101 39.158 28.783 43.843c3.682 4.686-.335 12.384-6.024 16.4-5.69 4.016-15.215.509-20.155-4.598-4.94-5.108-9.967-17.157-9.967-17.157l7.363-38.488z" fill="#fff" stroke="#263238" stroke-linecap="round" stroke-linejoin="round"/><path d="M137.531 150.134s-23.428 7.029-30.791 9.706c-7.363 2.678-9.371 3.012-9.371 5.69 0 1.559 5.589 31.889 5.02 57.901-.409 18.796-7.029 35.811-7.029 35.811h85.345s-7.001-15.964-7.028-35.142c-.04-26.875 6.808-59.735 6.024-60.913-1.338-2.008-39.158-13.387-42.17-13.053z" fill="#fff" stroke="#263238" stroke-linecap="round" stroke-linejoin="round"/><path d="M173.932 230.419c-3.065-2.389-7.048-6.319-8.956-11.674-2.965-8.307-5.147-52.88-5.602-62.921-1.587-.482-3.18-.964-4.746-1.426l.669 41.923H125.51l-2.604-41.708c-1.586.488-3.186.99-4.752 1.486.033 8.467.033 47.967-2.35 59.299-1.827 8.702-9.438 14.573-14.057 17.404a121.652 121.652 0 0 1-6.339 26.42h85.345a98.513 98.513 0 0 1-6.821-28.803z" fill="#263238"/><path d="m119.104 155.79-.978.308c.034 8.468.034 47.967-2.349 59.3a19.655 19.655 0 0 1-.489 1.827v42.017h3.816V155.79zM135.201 196.321h-3.815v62.921h3.815v-62.921zM99.19 246.491v12.718h3.788v-27.257c-.455.301-.897.589-1.305.844a119.443 119.443 0 0 1-2.484 13.695zM111.051 224.843a32.56 32.56 0 0 1-3.809 3.909v30.49h3.809v-34.399zM123.334 161.982v97.26h3.815v-62.921h-1.666l-2.149-34.339zM163.577 211.985v47.258h3.809v-35.744a22.016 22.016 0 0 1-2.41-4.753 40.261 40.261 0 0 1-1.399-6.761zM171.622 228.445v30.792h3.816v-17.913a94.868 94.868 0 0 1-1.507-10.904 34.918 34.918 0 0 1-2.309-1.975zM159.339 155.817c-1.272-.395-2.55-.776-3.809-1.151v104.576h3.809V155.817zM151.293 196.321h-3.815v62.921h3.815v-62.921zM143.248 196.321h-3.815v62.921h3.815v-62.921z" fill="#424242"/><path d="M173.932 230.419c-3.065-2.389-7.048-6.319-8.956-11.674-2.965-8.307-5.147-52.88-5.602-62.921-1.587-.482-3.18-.964-4.746-1.426l.669 41.923H125.51l-2.604-41.708c-1.586.488-3.186.99-4.752 1.486.033 8.467.033 47.967-2.35 59.299-1.827 8.702-9.438 14.573-14.057 17.404a121.652 121.652 0 0 1-6.339 26.42h85.345a98.513 98.513 0 0 1-6.821-28.803v0z" stroke="#263238" stroke-linecap="round" stroke-linejoin="round"/><path d="M134.813 144.01s-8.701 3.113-10.382 6.641c-1.68 3.527-.83 17.403-2.282 21.587-1.453 4.183-4.98 7.269-3.106 7.504 1.874.234 7.47-8.307 10.375-7.27 2.905 1.038 10.797 11.835 11.42 11.835.622 0 6.647-7.263 7.892-9.546 1.245-2.282 5.81 1.245 7.885 6.433s2.677 3.347 2.677 1.453c0-1.895-2.49-9.967-2.075-11.42.415-1.452-.207-8.702-.207-15.985a12.046 12.046 0 0 0-9.967-12.048c-4.572-.85-12.23.816-12.23.816z" fill="#fff" stroke="#263238" stroke-linecap="round" stroke-linejoin="round"/><path d="M130.864 138.815v23.462s7.685 25.322 10.382 23.428c2.698-1.894 8.93-22.417 8.93-22.417v-24.265s-9.552 4.157-19.312-.208z" fill="#fff" stroke="#263238" stroke-linecap="round" stroke-linejoin="round"/><path d="M130.864 138.815v4.88c3.883 2.229 8.454 3.735 12.571 3.735a15.234 15.234 0 0 0 6.741-1.666v-6.741s-9.552 4.157-19.312-.208z" fill="#263238" stroke="#263238" stroke-linecap="round" stroke-linejoin="round"/><path d="M122.979 113.285s-4.565-6.024-7.269-1.666c-2.705 4.357 4.364 12.457 6.439 12.249 2.075-.207.83-10.583.83-10.583zM159.695 113.285s4.565-6.024 7.269-1.666c2.704 4.357-4.364 12.457-6.439 12.249-2.075-.207-.83-10.583-.83-10.583z" fill="#fff" stroke="#263238" stroke-linecap="round" stroke-linejoin="round"/><path d="M122.391 104.852s-2.303 20.75-.288 26.775c2.015 6.024 12.671 12.671 21.313 12.671 8.641 0 15.83-8.347 16.988-13.247 1.158-4.9-1.445-36.28-3.172-39.734-1.727-3.454-12.665-3.742-23.609 1.727-10.944 5.469-11.232 11.808-11.232 11.808z" fill="#fff" stroke="#263238" stroke-linecap="round" stroke-linejoin="round"/><path d="M143.944 108.118s-1.867 4.987-.207 7.892c1.66 2.905.623 4.98-1.245 4.98s-2.678-3.112-2.678-3.112M133.361 123.038s8.702 6.024 16.4 0M145.818 105.186s3.742-4.15 8.1.415M137.304 104.771s-3.735-3.943-8.307-.415" stroke="#263238" stroke-linecap="round" stroke-linejoin="round"/><path d="M149.346 113.901c.687 0 1.245-1.115 1.245-2.49 0-1.375-.558-2.49-1.245-2.49-.688 0-1.245 1.115-1.245 2.49 0 1.375.557 2.49 1.245 2.49zM133.776 113.901c.688 0 1.245-1.115 1.245-2.49 0-1.375-.557-2.49-1.245-2.49-.687 0-1.245 1.115-1.245 2.49 0 1.375.558 2.49 1.245 2.49z" fill="#263238"/><path d="M127.745 114.945a19.819 19.819 0 0 1 6.439 0M148.931 115.153c2.057-.38 4.167-.38 6.225 0" stroke="#263238" stroke-linecap="round" stroke-linejoin="round"/><path d="M112.39 116.82s32.592-13.494 40.484-19.726c7.892-6.232 9.96-18.267-8.515-17.645-18.474.623-37.987 22.217-39.647 32.177-1.66 9.96 4.96 7.872 4.96 7.872" fill="#263238"/><path d="M156.863 80.005a98.887 98.887 0 0 1-26.936 22.866c-17.229 10.04-28.194 11.908-28.194 11.908M144.647 76.852s-15.349 24.097-43.851 33.515" stroke="#858585" stroke-linecap="round" stroke-linejoin="round"/><path d="M112.39 116.82s32.592-13.494 40.484-19.726c7.892-6.232 9.96-18.267-8.515-17.645-18.474.623-37.987 22.217-39.647 32.177-1.66 9.96 4.96 7.872 4.96 7.872" stroke="#263238" stroke-linecap="round" stroke-linejoin="round"/><path d="M181.71 191.469s-3.849-1.673-8.367-3.18c-4.518-1.506-7.028 1.507-5.188 4.184 1.841 2.677 8.367 3.18 11.547 6.024 3.18 2.845 5.69 12.049 8.869 13.723a20.427 20.427 0 0 0 6.694 2.008v-22.759H181.71z" fill="#fff" stroke="#263238" stroke-linecap="round" stroke-linejoin="round"/><path d="M201.396 218.831h-19.09l-4.271-39.379h27.632l-4.271 39.379z" fill="#DBBE8F" stroke="#263238" stroke-linecap="round" stroke-linejoin="round"/><path d="M206.323 173.281h-28.951l-2.523 5.302h34.305l-2.831-5.302zM178.45 180.297h27.397l2.39-1.714h-32.465l2.678 1.714zM202.568 208.036l2.45-22.592h-26.333l2.449 22.592h21.434z" fill="#fff" stroke="#263238" stroke-linecap="round" stroke-linejoin="round"/><path d="M208.819 192.306s-8.869.167-10.542 1.84c-1.674 1.674-1.172 3.682 2.008 4.017 3.179.334 7.865 1.004 10.375.334 2.51-.669 2.51-6.191-1.841-6.191zM206.785 210.211s-7.042.134-8.367 1.466c-1.326 1.332-.931 2.918 1.593 3.186 2.523.268 6.238.797 8.233.261 1.995-.535 1.988-4.913-1.459-4.913zM210.493 199.153s-11.547 0-14.392.502c-2.845.502-3.849 3.346.335 4.183 4.183.837 12.718 1.339 15.395 1.004 2.678-.334 2.845-5.843-1.338-5.689z" fill="#fff" stroke="#263238" stroke-linecap="round" stroke-linejoin="round"/><path d="M209.824 205.177s-9.204-.335-12.383.837c-3.18 1.171-2.008 2.845 1.004 3.514 3.012.669 9.706 1.506 12.216.669 2.51-.836 2.51-5.341-.837-5.02zM67.501 146.125s-1.774 1.065-.529 6.393l1.239 5.321 7.63-1.419s-3.346-6.024-4.792-8.702c-1.446-2.677-3.166-2.302-3.548-1.593z" fill="#fff" stroke="#263238" stroke-linecap="round" stroke-linejoin="round"/><path d="M61.477 155.891s24.312-4.084 31.595-6.567a163.917 163.917 0 0 1 16.68-4.438 20.922 20.922 0 0 1 4.438-.535s.71 0 .536 3.018c-.174 3.019 3.902 42.245 7.631 54.313 3.728 12.069 6.024 17.752 6.024 17.752s-21.828 4.438-42.063 4.438a183.069 183.069 0 0 1-33.369-2.845c-.71 0 8.702-35.476 8.34-47.565-.334-12.223.188-17.571.188-17.571z" fill="#DBBE8F" stroke="#263238" stroke-linecap="round" stroke-linejoin="round"/><path d="M122.39 201.682c-3.729-12.048-7.812-51.294-7.631-54.313.18-3.018-.536-3.018-.536-3.018a21.38 21.38 0 0 0-2.49.18 9.44 9.44 0 0 0 0 2.303s-.187 19.352-.723 42.278c-.442 18.996-.154 29.921-.04 33.093 10.101-1.251 17.404-2.737 17.404-2.737s-2.269-5.717-5.984-17.786z" fill="#DBBE8F" stroke="#263238" stroke-linecap="round" stroke-linejoin="round"/><path d="M113.855 145.241v8.875c0 2.839.536 4.258-.535 4.258-1.071 0-9.934 1.599-24.312 4.438a200.793 200.793 0 0 1-27.692 3.547c-1.064 0 .18-10.469.18-10.469s26.977-4.264 35.672-7.102a128.568 128.568 0 0 1 15.797-4.083" fill="#DBBE8F"/><path d="M113.855 145.241v8.875c0 2.839.536 4.258-.535 4.258-1.071 0-9.934 1.599-24.312 4.438a200.793 200.793 0 0 1-27.692 3.547c-1.064 0 .18-10.469.18-10.469s26.977-4.264 35.672-7.102a128.568 128.568 0 0 1 15.797-4.083" stroke="#263238" stroke-linecap="round" stroke-linejoin="round"/><path d="M82.797 138.849s1.774-4.083 6.566-1.419c4.793 2.664 7.986 12.249 7.276 14.197-.71 1.948-3.018 2.49-4.973.536-1.955-1.955-6.921-9.05-8.16-11.005-1.238-1.954-.71-2.309-.71-2.309z" fill="#fff" stroke="#263238" stroke-linecap="round" stroke-linejoin="round"/><path d="M77.468 141.332s8.97 13.079 10.65 14.204c1.68 1.124 4.806 1.767 3.902-2.129-.85-3.701-4.257-10.83-6.566-13.314-2.31-2.483-3.903-2.838-5.857-1.773-1.955 1.064-2.484 1.593-2.129 3.012z" fill="#fff" stroke="#263238" stroke-linecap="round" stroke-linejoin="round"/><path d="M78.211 140.622s8.34 10.65 9.057 13.14c.716 2.49-.716 6.566-4.438 4.257-3.722-2.309-7.102-9.94-9.23-12.604-2.13-2.664 1.559-6.741 4.611-4.793z" fill="#fff" stroke="#263238" stroke-linecap="round" stroke-linejoin="round"/><path d="M73.211 143.287s-5.355.71-6.024 3.548c-.67 2.838 3.902 9.056 7.63 10.121 3.73 1.064 4.794-1.955 3.73-4.438-1.065-2.484-3.562-8.695-5.336-9.231z" fill="#fff" stroke="#263238" stroke-linecap="round" stroke-linejoin="round"/><path d="M266.955 247.021h-57.914l13.548-62.887h57.914l-13.548 62.887z" fill="#263238" stroke="#263238" stroke-linecap="round" stroke-linejoin="round"/><path d="M280.503 184.134h-57.914s32.792 7.918 57.914 0z" fill="#6B6B6B" stroke="#263238" stroke-linecap="round" stroke-linejoin="round"/><path d="m241.152 211.277-6.105 18.776 10.409 7.015 4.069-11.761-8.373-14.03z" fill="#3B3B3B" stroke="#263238" stroke-linecap="round" stroke-linejoin="round"/><path d="M241.151 211.277h20.135l3.166 11.996-14.927 2.034-8.374-14.03z" fill="#3B3B3B" stroke="#263238" stroke-linecap="round" stroke-linejoin="round"/><path d="M259.003 257.65a89.996 89.996 0 0 0-12.423-39.359l-15.878 39.359h28.301z" fill="#3B3B3B" stroke="#263238" stroke-linecap="round" stroke-linejoin="round"/><path d="M283.984 257.65c.415-18.374-9.124-39.359-9.124-39.359h-28.281a90.01 90.01 0 0 1 12.424 39.359h24.981z" fill="#6B6B6B" stroke="#263238" stroke-linecap="round" stroke-linejoin="round"/><path d="M293.288 255.563H8.39v7.183h284.898v-7.183z" fill="#fff" stroke="#263238" stroke-linecap="round" stroke-linejoin="round"/></svg>