<svg width="262" height="267" viewBox="0 0 262 267" fill="none" xmlns="http://www.w3.org/2000/svg">
<path d="M260.991 128.662C258.222 152.141 247.51 179.446 226.086 191.984C193.737 210.941 196.445 240.089 133.297 252.761C124.086 254.653 114.697 255.541 105.295 255.407C100.696 255.322 96.1075 254.946 91.5559 254.283C51.4215 248.424 24.4143 220.53 14.5056 186.849C1.46828 142.564 27.5037 113.546 44.7595 96.099C62.0154 78.6522 74.6595 24.1997 136.639 11.2803C146.093 9.25154 155.749 8.32042 165.416 8.50543C187.468 9.06715 211.521 16.2908 228.165 31.4009C229.412 32.5243 230.629 33.7002 231.816 34.9284C254.947 58.6833 264.777 96.6495 260.991 128.662Z" fill="#C53F3F"/>
<path opacity="0.7" d="M260.991 128.662C258.222 152.141 247.51 179.446 226.086 191.984C193.737 210.941 196.445 240.089 133.297 252.761C124.086 254.653 114.697 255.541 105.295 255.407C100.696 255.322 96.1075 254.946 91.5559 254.283C51.4215 248.424 24.4143 220.53 14.5056 186.849C1.46828 142.564 27.5037 113.546 44.7595 96.099C62.0154 78.6522 74.6595 24.1997 136.639 11.2803C146.093 9.25154 155.749 8.32042 165.416 8.50543C187.468 9.06715 211.521 16.2908 228.165 31.4009C229.412 32.5243 230.629 33.7002 231.816 34.9284C254.947 58.6833 264.777 96.6495 260.991 128.662Z" fill="white"/>
<path d="M39.395 213.294C39.395 213.294 42.681 215.092 41.024 225.377C39.3669 235.662 39.6646 237.886 42.1867 236.819C42.9378 236.489 43.6099 236.003 44.1581 235.393C44.7063 234.782 45.1181 234.062 45.366 233.28C45.366 233.28 45.3267 237.695 48.0061 236.797C48.7492 236.561 49.3838 236.067 49.7957 235.405C50.2076 234.743 50.3697 233.956 50.2529 233.185C50.2529 233.185 53.3423 240.043 56.0273 238.201C58.7123 236.358 58.2742 234.904 57.1507 232.455C56.0273 230.005 52.0223 224.647 52.0223 224.647C52.0223 224.647 57.5046 227.747 60.7794 230.685C64.0542 233.623 67.3402 236.235 68.9299 234.151C70.5195 232.067 66.3123 227.163 66.3123 227.163C66.3123 227.163 71.1767 228.961 71.1992 226.124C71.2217 223.287 68.3906 221.49 68.3906 221.49C68.3906 221.49 72.9461 221.686 70.9296 218.215C68.913 214.744 63.7284 214.508 63.7284 214.508C63.5642 213.978 63.2296 213.517 62.7765 213.197C62.3234 212.877 61.7774 212.716 61.2232 212.738C59.1841 212.738 53.9827 214.07 53.9827 214.07C53.9827 214.07 59.6672 211.042 63.133 210.048C66.5988 209.054 64.1272 204.431 62.7117 204.492C61.6346 204.585 60.5748 204.821 59.5605 205.195C59.5605 205.195 61.1614 201.532 58.8022 201.51C56.443 201.487 55.3364 202.189 55.3364 202.189C55.3364 202.189 55.5105 199.836 53.7805 200.504C52.0504 201.173 50.4551 202.611 49.1856 204.408C47.9162 206.206 45.6862 208.868 45.6862 208.868C44.3484 209.622 42.7741 209.839 41.2823 209.475L38.9288 208.823L37.3447 209.947L39.395 213.294Z" fill="#C53F3F" stroke="#263238" stroke-linecap="round" stroke-linejoin="round"/>
<path d="M62.1553 220.445C63.3422 221.066 64.4868 221.764 65.5817 222.535L62.1553 220.445Z" fill="#C53F3F"/>
<path d="M62.1553 220.445C63.3422 221.066 64.4868 221.764 65.5817 222.535" stroke="#263238" stroke-linecap="round" stroke-linejoin="round"/>
<path d="M40.501 212.717C40.501 212.717 48.0111 217.396 53.1957 217.637C55.7634 217.843 58.2694 218.531 60.5822 219.665" fill="#C53F3F"/>
<path d="M40.501 212.717C40.501 212.717 48.0111 217.396 53.1957 217.637C55.7634 217.843 58.2694 218.531 60.5822 219.665" stroke="#263238" stroke-linecap="round" stroke-linejoin="round"/>
<path d="M47.7645 221.956C46.877 219.064 46.186 217.395 44.7256 216.053L47.7645 221.956Z" fill="#C53F3F"/>
<path d="M47.7645 221.956C46.877 219.064 46.186 217.395 44.7256 216.053" stroke="#263238" stroke-linecap="round" stroke-linejoin="round"/>
<path d="M52.6113 231.63C52.6113 231.63 49.9544 229.383 48.5782 224.698L48.2412 223.547" fill="#C53F3F"/>
<path d="M52.6113 231.63C52.6113 231.63 49.9544 229.383 48.5782 224.698L48.2412 223.547" stroke="#263238" stroke-linecap="round" stroke-linejoin="round"/>
<path d="M49.1738 210.918C49.4493 210.728 49.7103 210.518 49.9546 210.289C52.6508 207.817 54.8696 205.795 57.2288 205.486" fill="#C53F3F"/>
<path d="M49.1738 210.918C49.4493 210.728 49.7103 210.518 49.9546 210.289C52.6508 207.817 54.8696 205.795 57.2288 205.486" stroke="#263238" stroke-linecap="round" stroke-linejoin="round"/>
<path d="M43.832 212.497C45.013 212.54 46.1907 212.349 47.2978 211.936L43.832 212.497Z" fill="#C53F3F"/>
<path d="M43.832 212.497C45.013 212.54 46.1907 212.349 47.2978 211.936" stroke="#263238" stroke-linecap="round" stroke-linejoin="round"/>
<path d="M30.5419 142.401C30.5419 142.401 29.9802 139.463 37.2038 135.312C44.4275 131.161 45.6295 129.858 43.7141 128.83C43.1317 128.531 42.4922 128.36 41.8383 128.328C41.1845 128.296 40.5313 128.404 39.9225 128.644C39.9225 128.644 42.6749 126.442 40.7707 125.235C40.2497 124.893 39.6237 124.749 39.0056 124.828C38.3876 124.907 37.8183 125.205 37.4004 125.667C37.4004 125.667 40.0967 120.303 37.6027 119.561C35.1086 118.82 34.4346 119.842 33.4628 121.741C32.4911 123.639 31.216 128.852 31.216 128.852C31.216 128.852 30.379 123.892 30.5475 120.382C30.716 116.871 30.688 113.523 28.5928 113.585C26.4976 113.647 25.582 118.725 25.582 118.725C25.582 118.725 24.2451 114.793 22.4757 116.225C20.7063 117.657 21.004 120.286 21.004 120.286C21.004 120.286 18.8302 117.365 17.6955 120.359C16.5609 123.353 19.0212 126.69 19.0212 126.69C18.7755 127.058 18.6583 127.497 18.6878 127.939C18.7172 128.381 18.8917 128.801 19.1841 129.133C20.2176 130.397 23.6778 132.953 23.6778 132.953C23.6778 132.953 18.9369 130.953 16.5721 129.302C14.2073 127.65 12.5839 131.52 13.331 132.363C13.9296 132.986 14.6098 133.524 15.3532 133.964C15.3532 133.964 12.275 134.812 13.449 136.289C13.9966 137.072 14.7432 137.694 15.6116 138.092C15.6116 138.092 14.0669 139.165 15.3476 139.912C16.8049 140.66 18.4484 140.966 20.0772 140.794C21.8297 140.682 24.6046 140.716 24.6046 140.716C25.7447 141.168 26.6716 142.035 27.1997 143.142L27.9805 144.928L29.4803 145.338L30.5419 142.401Z" fill="#C53F3F" stroke="#263238" stroke-linecap="round" stroke-linejoin="round"/>
<path d="M23.5089 124.695C23.2995 123.647 23.1569 122.587 23.082 121.521L23.5089 124.695Z" fill="#C53F3F"/>
<path d="M23.5089 124.695C23.2995 123.647 23.1569 122.587 23.082 121.521" stroke="#263238" stroke-linecap="round" stroke-linejoin="round"/>
<path d="M29.6206 142.007C29.6206 142.007 28.7444 134.997 26.2503 131.66C25.0867 129.958 24.2523 128.053 23.79 126.043" fill="#C53F3F"/>
<path d="M29.6206 142.007C29.6206 142.007 28.7444 134.997 26.2503 131.66C25.0867 129.958 24.2523 128.053 23.79 126.043" stroke="#263238" stroke-linecap="round" stroke-linejoin="round"/>
<path d="M31.6819 132.869C30.3506 134.891 29.6541 136.144 29.5586 137.7L31.6819 132.869Z" fill="#C53F3F"/>
<path d="M31.6819 132.869C30.3506 134.891 29.6541 136.144 29.5586 137.7" stroke="#263238" stroke-linecap="round" stroke-linejoin="round"/>
<path d="M35.249 124.982C35.0507 127.144 34.2746 129.212 33.0021 130.97L32.4404 131.762" fill="#C53F3F"/>
<path d="M35.249 124.982C35.0507 127.144 34.2746 129.212 33.0021 130.97L32.4404 131.762" stroke="#263238" stroke-linecap="round" stroke-linejoin="round"/>
<path d="M24.1719 137.535C23.9192 137.468 23.6608 137.412 23.3855 137.367C20.4983 136.946 18.1167 136.597 16.7461 135.277" fill="#C53F3F"/>
<path d="M24.1719 137.535C23.9192 137.468 23.6608 137.412 23.3855 137.367C20.4983 136.946 18.1167 136.597 16.7461 135.277" stroke="#263238" stroke-linecap="round" stroke-linejoin="round"/>
<path d="M27.8227 140.07C27.2541 139.32 26.5419 138.69 25.7275 138.217L27.8227 140.07Z" fill="#C53F3F"/>
<path d="M27.8227 140.07C27.2541 139.32 26.5419 138.69 25.7275 138.217" stroke="#263238" stroke-linecap="round" stroke-linejoin="round"/>
<path d="M188.614 203.368C223.337 168.645 223.337 112.348 188.614 77.6247C153.891 42.9017 97.5944 42.9017 62.8714 77.6247C28.1485 112.348 28.1485 168.645 62.8714 203.368C97.5944 238.09 153.891 238.09 188.614 203.368Z" fill="#263238"/>
<path d="M167.544 182.297C190.63 159.211 190.63 121.781 167.544 98.6957C144.458 75.6099 107.029 75.6099 83.943 98.6957C60.8573 121.781 60.8573 159.211 83.943 182.297C107.029 205.382 144.458 205.382 167.544 182.297Z" stroke="#8A8A8A" stroke-miterlimit="10"/>
<path d="M245.977 142.794C252.535 142.794 257.852 137.478 257.852 130.92C257.852 124.361 252.535 119.045 245.977 119.045C239.419 119.045 234.103 124.361 234.103 130.92C234.103 137.478 239.419 142.794 245.977 142.794Z" fill="#BFBFBF" stroke="#263238" stroke-miterlimit="10"/>
<path d="M247.123 125.69C247.123 125.69 245.567 122.999 244.944 123.887C244.32 124.774 245.505 126.133 245.314 126.942C245.123 127.751 242.506 127.892 242.826 128.774C243.146 129.655 245.977 130.919 245.977 130.919C245.977 130.919 245.837 132.604 246.466 132.666C247.095 132.728 248.449 130.605 248.449 130.605C248.449 130.605 249.993 131.43 250.566 130.24C251.139 129.049 249.443 129.032 249.443 128.251C249.443 127.47 250.976 127.206 250.69 126.476C250.403 125.746 247.662 127.027 247.123 125.69Z" fill="#C53F3F" stroke="#263238" stroke-miterlimit="10"/>
<path d="M247.218 128.015C247.218 128.015 250.375 117.489 254.189 113.411C258.003 109.333 258.952 108.529 260.368 109.378C261.783 110.226 260.958 110.99 260.227 111.276C259.497 111.563 252.83 114.433 248.482 128.903C248.459 128.886 245.988 129.004 247.218 128.015Z" fill="#C53F3F" stroke="#263238" stroke-miterlimit="10"/>
<path d="M236.805 173.461C242.877 170.983 245.79 164.052 243.312 157.98C240.834 151.908 233.903 148.994 227.831 151.472C221.759 153.95 218.846 160.881 221.324 166.953C223.802 173.025 230.733 175.939 236.805 173.461Z" fill="#BFBFBF" stroke="#263238" stroke-miterlimit="10"/>
<path d="M234.192 158.297C234.192 158.297 229.277 156.449 230.041 158.14C230.805 159.83 232.04 158.6 231.58 160.291C231.119 161.982 230.658 163.515 231.271 163.661C231.883 163.807 233.13 160.729 233.422 161.852C233.714 162.976 234.192 165.223 234.956 163.998C235.72 162.774 234.804 160.926 235.265 160.926C235.725 160.926 238.949 162.156 238.489 159.853C238.028 157.55 236.343 158.623 235.877 158.471C235.411 158.319 235.877 155.55 234.652 156.011C233.428 156.471 234.192 158.297 234.192 158.297Z" fill="#C53F3F" stroke="#263238" stroke-miterlimit="10"/>
<path d="M234.585 159.129C234.585 159.129 229.209 159.893 227.058 164.044C225.622 166.7 224.538 169.533 223.834 172.47C223.682 173.391 224.755 174.155 225.216 173.542C225.676 172.93 227.215 167.246 228.288 165.117C229.361 162.988 229.563 162.308 231.743 161.252C233.922 160.196 235.321 159.904 234.585 159.129Z" fill="#C53F3F" stroke="#263238" stroke-miterlimit="10"/>
<path d="M222.411 130.6C228.483 128.122 231.397 121.191 228.919 115.119C226.441 109.047 219.51 106.133 213.438 108.611C207.366 111.089 204.452 118.02 206.93 124.092C209.408 130.164 216.339 133.078 222.411 130.6Z" fill="#BFBFBF" stroke="#263238" stroke-miterlimit="10"/>
<path d="M219.801 115.433C219.801 115.433 214.886 113.59 215.65 115.281C216.414 116.972 217.65 115.741 217.189 117.432C216.728 119.123 216.268 120.656 216.88 120.803C217.492 120.949 218.723 117.887 219.031 118.96C219.34 120.033 219.801 122.33 220.565 121.111C221.329 119.893 220.413 118.039 220.874 118.039C221.335 118.039 224.559 119.269 224.098 116.966C223.638 114.663 221.952 115.736 221.486 115.584C221.02 115.433 221.486 112.663 220.262 113.124C219.037 113.584 219.801 115.433 219.801 115.433Z" fill="#C53F3F" stroke="#263238" stroke-miterlimit="10"/>
<path d="M220.211 116.264C220.211 116.264 214.835 117.033 212.684 121.179C211.246 123.834 210.162 126.667 209.46 129.604C209.308 130.526 210.381 131.29 210.842 130.683C211.302 130.076 212.841 124.38 213.914 122.257C214.987 120.134 215.189 119.449 217.369 118.393C219.548 117.337 220.93 117.044 220.211 116.264Z" fill="#C53F3F" stroke="#263238" stroke-miterlimit="10"/>
<path d="M53.0108 146.383C53.0108 146.383 40.0914 141.109 29.6435 153.804C19.1956 166.498 30.986 182.973 30.986 182.973C30.986 182.973 36.8503 180.165 43.1977 173.817C49.545 167.47 59.0941 156.472 60.2176 153.483C61.341 150.495 53.0108 146.383 53.0108 146.383Z" fill="#C53F3F" stroke="#263238" stroke-linecap="round" stroke-linejoin="round"/>
<path opacity="0.34" d="M45.7199 169.561C45.7199 169.561 37.6818 160.73 32.9521 160.73C28.2225 160.73 26.9811 166.409 28.3798 173.026C29.7784 179.643 32.9521 180.435 33.5812 180.435C34.2104 180.435 43.5123 173.347 45.7199 169.561Z" fill="black"/>
<path opacity="0.34" d="M46.821 168.302C46.821 168.302 42.7093 163.1 40.3613 157.921C38.0134 152.742 39.412 149.546 43.8327 147.653C48.2534 145.76 57.0723 151.585 58.6451 152.54L59.1169 153.804C59.1169 153.804 49.5004 165.785 46.821 168.302Z" fill="black"/>
<path d="M37.2095 166.093C37.2095 166.093 32.9517 165.464 32.008 167.829C31.0644 170.194 37.0522 167.986 37.2095 166.093Z" fill="#C53F3F" stroke="#263238" stroke-linecap="round" stroke-linejoin="round"/>
<path d="M38.7774 168.145C38.7774 168.145 34.9971 169.717 34.9971 172.077C34.9971 174.436 39.0976 171.61 38.7774 168.145Z" fill="#C53F3F" stroke="#263238" stroke-linecap="round" stroke-linejoin="round"/>
<path d="M46.1909 154.432C45.6288 154.592 45.1171 154.894 44.7042 155.308C44.2913 155.722 43.991 156.234 43.8317 156.796C43.5754 158.061 43.6845 159.372 44.1463 160.577C44.1463 160.577 47.2919 157.92 46.1909 154.432Z" fill="#C53F3F" stroke="#263238" stroke-linecap="round" stroke-linejoin="round"/>
<path d="M49.4994 159C49.0853 159.045 48.6865 159.182 48.3319 159.401C47.9773 159.62 47.6758 159.914 47.4491 160.264C46.8241 161.015 46.4892 161.966 46.5054 162.943C46.5054 163.415 49.8139 162.786 49.4994 159Z" fill="#C53F3F" stroke="#263238" stroke-linecap="round" stroke-linejoin="round"/>
<path d="M95.2523 207.516C95.2523 207.516 105.779 198.36 99.1449 183.306C92.5111 168.252 72.4804 171.403 72.4804 171.403C72.4804 171.403 72.3512 177.902 75.1654 186.429C77.9796 194.956 83.49 208.437 85.6582 210.779C87.8264 213.122 95.2523 207.516 95.2523 207.516Z" fill="#C53F3F" stroke="#263238" stroke-linecap="round" stroke-linejoin="round"/>
<path d="M94.3868 206.341C94.3868 206.341 104.913 197.185 98.2851 182.136C91.6569 167.088 71.6318 170.2 71.6318 170.2C71.6318 170.2 71.5026 176.705 74.3111 185.226C77.1197 193.747 82.6414 207.234 84.804 209.576C86.9666 211.918 94.3868 206.341 94.3868 206.341Z" fill="#C53F3F" stroke="#263238" stroke-linecap="round" stroke-linejoin="round"/>
<path opacity="0.34" d="M76.9737 189.377C76.9737 189.377 88.472 186.175 90.6008 181.951C92.7297 177.727 88.208 174.065 81.664 172.357C75.12 170.65 72.9968 173.088 72.7103 173.649C72.4238 174.211 74.5752 185.72 76.9737 189.377Z" fill="black"/>
<path opacity="0.34" d="M77.5859 190.949C77.5859 190.949 84.0793 189.629 89.7864 189.859C95.4934 190.089 97.6503 192.774 97.3695 197.566C97.0886 202.357 87.8934 207.615 86.343 208.598L85.0006 208.452C85.0006 208.452 78.6588 194.476 77.5859 190.949Z" fill="black"/>
<path d="M83.8883 183.356C83.8883 183.356 86.3655 179.84 84.6803 177.93C82.9952 176.021 82.2706 182.368 83.8883 183.356Z" fill="#C53F3F" stroke="#263238" stroke-linecap="round" stroke-linejoin="round"/>
<path d="M81.3498 183.844C81.3498 183.844 81.6419 179.755 79.5298 178.693C77.4178 177.632 78.0975 182.564 81.3498 183.844Z" fill="#C53F3F" stroke="#263238" stroke-linecap="round" stroke-linejoin="round"/>
<path d="M90.2581 196.628C90.3675 196.053 90.3285 195.46 90.1447 194.905C89.9609 194.35 89.6384 193.85 89.2077 193.454C88.1958 192.654 86.9754 192.161 85.6914 192.033C85.6914 192.033 86.6632 196.049 90.2581 196.628Z" fill="#C53F3F" stroke="#263238" stroke-linecap="round" stroke-linejoin="round"/>
<path d="M84.6856 197.527C84.8317 197.137 84.8894 196.72 84.8544 196.305C84.8195 195.89 84.6927 195.488 84.4834 195.129C84.0931 194.231 83.3934 193.503 82.5118 193.078C82.0905 192.865 81.1636 196.117 84.6856 197.527Z" fill="#C53F3F" stroke="#263238" stroke-linecap="round" stroke-linejoin="round"/>
<path d="M202.191 84.9716C216.893 84.9716 228.81 73.0536 228.81 58.352C228.81 43.6504 216.893 31.7324 202.191 31.7324C187.489 31.7324 175.571 43.6504 175.571 58.352C175.571 73.0536 187.489 84.9716 202.191 84.9716Z" fill="white" stroke="#263238" stroke-miterlimit="10"/>
<path d="M200.085 82.8887C217.244 82.8887 231.153 68.9789 231.153 51.8203C231.153 34.6617 217.244 20.752 200.085 20.752C182.926 20.752 169.017 34.6617 169.017 51.8203C169.017 68.9789 182.926 82.8887 200.085 82.8887Z" fill="white" stroke="#263238" stroke-miterlimit="10"/>
<path d="M222.982 57.3333C226.024 44.6895 218.241 31.9733 205.597 28.9308C192.953 25.8883 180.237 33.6717 177.194 46.3154C174.152 58.9592 181.935 71.6754 194.579 74.7179C207.223 77.7604 219.939 69.9771 222.982 57.3333Z" fill="#263238"/>
<path d="M209.269 36.6189C209.269 36.6189 217.431 24.5927 221.295 14.2852C222.671 10.6116 223.031 6.05611 225.789 2.98354C228.788 -0.341806 234.102 0.58502 234.608 5.23039C234.889 7.83674 233.771 9.79712 231.721 12.5327C228.85 16.3467 223.053 21.4021 220.565 25.497C216.155 32.7431 213.263 36.8212 212.038 38.4838C211.779 38.8515 211.41 39.1275 210.984 39.2718C210.558 39.4162 210.097 39.4215 209.668 39.2871C208.937 39.0231 208.415 38.3378 209.269 36.6189Z" fill="#C53F3F" stroke="#263238" stroke-linecap="round" stroke-linejoin="round"/>
<path d="M227.811 3.92238C227.811 3.92238 231.13 2.41699 231.883 6.48941" stroke="#263238" stroke-linecap="round" stroke-linejoin="round"/>
<path d="M141.104 232.628C141.104 232.628 156.771 232.23 169.628 213.345C169.628 213.345 166.011 197.274 162.798 196.875C159.585 196.476 149.541 210.918 145.525 218.967C141.509 227.017 141.104 232.628 141.104 232.628Z" fill="white" stroke="#263238" stroke-miterlimit="10"/>
<path d="M108.649 61.8682C106.948 68.1385 105.563 74.4901 104.498 80.8991C102.414 92.7962 103.01 107.67 103.903 110.046C104.796 112.422 108.363 113.321 110.149 112.726C111.935 112.13 111.935 111.237 112.227 99.3402C112.519 87.4431 112.525 82.0899 115.8 73.1643C119.075 64.2387 117.884 60.3741 115.502 58.2901C113.12 56.2062 111.031 55.3187 108.649 61.8682Z" fill="#D6D6D6" stroke="#263238" stroke-miterlimit="10"/>
<path d="M115.788 64.834C112.92 70.5098 111.106 76.6591 110.435 82.9829C109.244 93.6892 112.311 104.008 110.778 107.176C110.433 108.026 109.772 108.708 108.933 109.078C108.094 109.448 107.144 109.477 106.284 109.159" fill="white"/>
<path d="M115.788 64.834C112.92 70.5098 111.106 76.6591 110.435 82.9829C109.244 93.6892 112.311 104.008 110.778 107.176C110.433 108.026 109.772 108.708 108.933 109.078C108.094 109.448 107.144 109.477 106.284 109.159" stroke="#263238" stroke-miterlimit="10"/>
<path d="M130.005 99.8297C130.005 99.8297 128.808 95.8191 138.942 89.2526C149.075 82.6862 150.738 80.7427 147.721 79.535C146.821 79.1885 145.86 79.0254 144.895 79.0553C143.93 79.0852 142.982 79.3075 142.104 79.7091C142.104 79.7091 145.896 76.3389 142.907 74.8896C142.097 74.4701 141.167 74.3388 140.272 74.5175C139.377 74.6961 138.569 75.174 137.981 75.8726C137.981 75.8726 141.267 68.1266 137.47 67.3851C133.673 66.6437 132.813 68.1322 131.622 70.879C130.432 73.6258 129.213 80.9674 129.213 80.9674C129.213 80.9674 127.314 74.1931 127.095 69.3118C126.876 64.4305 126.387 59.7627 123.298 60.1166C120.208 60.4705 119.518 67.5761 119.518 67.5761C119.518 67.5761 117.018 62.3016 114.58 64.4586C112.142 66.6156 112.923 70.2948 112.923 70.2948C112.923 70.2948 109.306 66.4864 108.025 70.7667C106.744 75.0469 110.833 79.389 110.833 79.389C110.516 79.9271 110.398 80.56 110.501 81.1764C110.603 81.7928 110.92 82.3532 111.395 82.7592C113.08 84.3994 118.54 87.545 118.54 87.545C118.54 87.545 111.238 85.2982 107.519 83.2985C103.801 81.2988 101.902 86.8036 103.144 87.8989C104.123 88.6998 105.203 89.3684 106.357 89.8874C106.357 89.8874 101.908 91.4152 103.84 93.3251C105.772 95.2349 107.295 95.5719 107.295 95.5719C107.295 95.5719 105.143 97.2571 107.137 98.1277C109.131 98.9984 111.687 99.1725 114.271 98.813C116.855 98.4535 120.972 98.1895 120.972 98.1895C122.69 98.6702 124.173 99.7632 125.14 101.262L126.135 102.947C126.259 103.161 126.43 103.345 126.633 103.486C126.837 103.627 127.07 103.721 127.314 103.762C127.726 103.834 128.151 103.751 128.505 103.528C128.859 103.304 129.117 102.957 129.23 102.554L130.005 99.8297Z" fill="#C53F3F" stroke="#263238" stroke-linecap="round" stroke-linejoin="round"/>
<path d="M117.226 76.0899C116.773 74.667 116.42 73.2142 116.17 71.7422L117.226 76.0899Z" fill="#C53F3F"/>
<path d="M117.226 76.0899C116.773 74.667 116.42 73.2142 116.17 71.7422" stroke="#263238" stroke-linecap="round" stroke-linejoin="round"/>
<path d="M128.595 99.3901C128.595 99.3901 126.348 89.7735 122.259 85.4315C120.329 83.2439 118.838 80.7057 117.866 77.9551" fill="#C53F3F"/>
<path d="M128.595 99.3901C128.595 99.3901 126.348 89.7735 122.259 85.4315C120.329 83.2439 118.838 80.7057 117.866 77.9551" stroke="#263238" stroke-linecap="round" stroke-linejoin="round"/>
<path d="M130.432 86.4883C128.707 89.4204 127.859 91.2572 127.927 93.4591L130.432 86.4883Z" fill="#C53F3F"/>
<path d="M130.432 86.4883C128.707 89.4204 127.859 91.2572 127.927 93.4591" stroke="#263238" stroke-linecap="round" stroke-linejoin="round"/>
<path d="M134.668 75.1582C134.668 75.1582 134.943 79.0228 132.101 83.7187L131.398 84.8421" fill="#C53F3F"/>
<path d="M134.668 75.1582C134.668 75.1582 134.943 79.0228 132.101 83.7187L131.398 84.8421" stroke="#263238" stroke-linecap="round" stroke-linejoin="round"/>
<path d="M119.871 93.8133C119.481 93.7432 119.087 93.6945 118.692 93.6672C114.35 93.4088 110.777 93.1954 108.581 91.5215" fill="#C53F3F"/>
<path d="M119.871 93.8133C119.481 93.7432 119.087 93.6945 118.692 93.6672C114.35 93.4088 110.777 93.1954 108.581 91.5215" stroke="#263238" stroke-linecap="round" stroke-linejoin="round"/>
<path d="M125.668 96.909C124.704 95.9219 123.56 95.1287 122.298 94.5723L125.668 96.909Z" fill="#C53F3F"/>
<path d="M125.668 96.909C124.704 95.9219 123.56 95.1287 122.298 94.5723" stroke="#263238" stroke-linecap="round" stroke-linejoin="round"/>
<path d="M104.127 101.345C104.127 101.345 99.9426 101.284 96.7128 89.6505C93.4829 78.0175 92.1236 75.8605 90.0733 78.3601C89.4697 79.1203 89.0236 79.9932 88.7613 80.9277C88.4989 81.8623 88.4256 82.8398 88.5455 83.8031C88.5455 83.8031 86.4784 79.1802 84.1866 81.59C83.5394 82.2358 83.1312 83.0825 83.0292 83.9911C82.9271 84.8996 83.1371 85.8159 83.6248 86.5892C83.6248 86.5892 77.2157 81.135 75.3733 84.5333C73.5309 87.9317 74.688 89.2012 76.9517 91.1616C79.2154 93.1219 85.8717 96.4754 85.8717 96.4754C85.8717 96.4754 78.8671 96.2563 74.1656 95.0093C69.4641 93.7623 64.8692 92.8298 64.257 95.8799C63.6447 98.9301 70.2336 101.716 70.2336 101.716C70.2336 101.716 64.4536 102.525 65.7792 105.491C67.1049 108.457 70.8346 108.783 70.8346 108.783C70.8346 108.783 66.1219 111.091 69.8179 113.596C73.514 116.102 78.8896 113.501 78.8896 113.501C79.3075 113.962 79.874 114.261 80.4901 114.346C81.1062 114.431 81.7327 114.297 82.2599 113.967C84.3326 112.844 88.9667 108.586 88.9667 108.586C88.9667 108.586 84.6528 114.877 81.6139 117.826C78.575 120.775 83.2991 124.207 84.6921 123.381C85.7491 122.686 86.7104 121.855 87.5512 120.91C87.5512 120.91 87.6748 125.611 90.0789 124.336C92.4831 123.061 93.2639 121.719 93.2639 121.719C93.2639 121.719 94.2075 124.269 95.6511 122.634C97.0947 121 98.0103 118.607 98.4597 116.034C98.9091 113.462 99.8752 109.457 99.8752 109.457C100.847 107.96 102.334 106.871 104.054 106.395L106.751 105.783L107.807 103.721L104.127 101.345Z" fill="#C53F3F" stroke="#263238" stroke-linecap="round" stroke-linejoin="round"/>
<path d="M92.3758 96.6437C92.3758 96.6437 88.1855 96.5819 84.9612 84.9489C81.737 73.3158 80.3439 71.1588 78.3162 73.664C77.7125 74.4242 77.2664 75.2971 77.0041 76.2317C76.7418 77.1663 76.6684 78.1438 76.7883 79.107C76.7883 79.107 74.7212 74.4841 72.435 76.8939C71.7879 77.5397 71.3797 78.3865 71.2776 79.295C71.1755 80.2036 71.3856 81.1198 71.8733 81.8931C71.8733 81.8931 65.4698 76.4389 63.6217 79.8373C61.7737 83.2356 62.9421 84.5051 65.2058 86.4655C67.4695 88.4259 74.1651 91.7737 74.1651 91.7737C74.1651 91.7737 67.1324 91.5546 62.4084 90.302C57.6844 89.0494 53.1121 88.1282 52.4942 91.1726C51.8763 94.2171 58.4371 97.0145 58.4371 97.0145C58.4371 97.0145 52.6571 97.8233 53.9883 100.789C55.3196 103.755 59.0438 104.081 59.0438 104.081C59.0438 104.081 54.331 106.389 58.0327 108.895C61.7344 111.4 67.0987 108.799 67.0987 108.799C67.5172 109.259 68.0836 109.557 68.6995 109.643C69.3153 109.728 69.9414 109.594 70.469 109.265C72.5417 108.142 77.1759 103.884 77.1759 103.884C77.1759 103.884 72.8563 110.175 69.8174 113.124C66.7786 116.073 71.5026 119.505 72.9012 118.68C73.957 117.983 74.918 117.152 75.7604 116.208C75.7604 116.208 75.8839 120.91 78.2824 119.635C80.681 118.36 81.473 117.017 81.473 117.017C81.473 117.017 82.4167 119.567 83.8603 117.933C85.3039 116.298 86.2195 113.905 86.6688 111.333C87.1182 108.76 88.0787 104.755 88.0787 104.755C89.0508 103.258 90.5375 102.169 92.2579 101.694L94.9541 101.081L96.0157 99.0198L92.3758 96.6437Z" fill="#C53F3F" stroke="#263238" stroke-linecap="round" stroke-linejoin="round"/>
<path d="M77.6539 106.429C76.1508 106.436 74.6491 106.336 73.1602 106.131L77.6539 106.429Z" fill="#C53F3F"/>
<path d="M77.6539 106.429C76.1508 106.436 74.6491 106.336 73.1602 106.131" stroke="#263238" stroke-linecap="round" stroke-linejoin="round"/>
<path d="M103.284 102.558C103.284 102.558 93.4429 101.817 88.0673 104.423C85.4106 105.61 82.5496 106.272 79.6416 106.372" fill="#C53F3F"/>
<path d="M103.284 102.558C103.284 102.558 93.4429 101.817 88.0673 104.423C85.4106 105.61 82.5496 106.272 79.6416 106.372" stroke="#263238" stroke-linecap="round" stroke-linejoin="round"/>
<path d="M91.5283 96.9414C93.8089 99.4691 95.303 100.823 97.4263 101.435L91.5283 96.9414Z" fill="#C53F3F"/>
<path d="M91.5283 96.9414C93.8089 99.4691 95.303 100.823 97.4263 101.435" stroke="#263238" stroke-linecap="round" stroke-linejoin="round"/>
<path d="M81.9902 89.5098C81.9902 89.5098 85.7537 90.3973 89.3824 94.5202L90.2755 95.5369" fill="#C53F3F"/>
<path d="M81.9902 89.5098C81.9902 89.5098 85.7537 90.3973 89.3824 94.5202L90.2755 95.5369" stroke="#263238" stroke-linecap="round" stroke-linejoin="round"/>
<path d="M95.3534 109.209C95.1697 109.561 95.0047 109.923 94.8591 110.293C93.3144 114.36 92.0506 117.702 89.8037 119.281" fill="#C53F3F"/>
<path d="M95.3534 109.209C95.1697 109.561 95.0047 109.923 94.8591 110.293C93.3144 114.36 92.0506 117.702 89.8037 119.281" stroke="#263238" stroke-linecap="round" stroke-linejoin="round"/>
<path d="M100.043 104.609C98.812 105.226 97.713 106.077 96.8076 107.115L100.043 104.609Z" fill="#C53F3F"/>
<path d="M100.043 104.609C98.812 105.226 97.713 106.077 96.8076 107.115" stroke="#263238" stroke-linecap="round" stroke-linejoin="round"/>
<path d="M140.616 86.5501C140.616 86.5501 136.853 84.7863 137.988 73.2824C139.122 61.7785 138.639 59.3294 135.915 60.6832C135.106 61.1002 134.395 61.6853 133.83 62.3993C133.265 63.1132 132.86 63.9395 132.64 64.823C132.64 64.823 132.382 59.9305 129.472 61.1101C126.562 62.2896 127.225 65.2667 127.225 65.2667C127.225 65.2667 123.338 57.8746 120.485 60.099C117.631 62.3234 118.238 63.9074 119.603 66.5418C120.968 69.1763 125.843 74.844 125.843 74.844C125.843 74.844 119.563 71.777 115.732 68.755C111.902 65.733 108.088 63.048 106.47 65.469C104.852 67.8899 109.84 73.024 109.84 73.024C109.84 73.024 104.335 71.3726 104.504 74.5125C104.672 77.6525 107.913 79.4556 107.913 79.4556C107.913 79.4556 102.858 79.5511 105.318 83.2528C107.779 86.9545 113.553 86.8702 113.553 86.8702C113.773 87.4443 114.175 87.9305 114.697 88.2542C115.22 88.5778 115.834 88.7211 116.446 88.6621C118.693 88.5217 124.377 86.6905 124.377 86.6905C124.377 86.6905 118.283 90.4371 114.514 91.774C110.744 93.1109 113.8 98.0483 115.362 97.8967C116.549 97.7218 117.707 97.3874 118.805 96.9024C118.805 96.9024 117.277 101.065 119.895 100.93C122.512 100.795 123.686 99.9413 123.686 99.9413C123.686 99.9413 123.653 102.559 125.529 101.716C127.405 100.874 129.062 99.1549 130.348 97.0766C131.635 94.9982 133.915 91.8976 133.915 91.8976C135.348 90.9728 137.078 90.6255 138.757 90.9258L141.408 91.4875L143.094 90.1169L140.616 86.5501Z" fill="#C53F3F" stroke="#263238" stroke-linecap="round" stroke-linejoin="round"/>
<path d="M114.917 80.1858C113.563 79.5784 112.25 78.8842 110.985 78.1074L114.917 80.1858Z" fill="#C53F3F"/>
<path d="M114.917 80.1858C113.563 79.5784 112.25 78.8842 110.985 78.1074" stroke="#263238" stroke-linecap="round" stroke-linejoin="round"/>
<path d="M139.431 87.2702C139.431 87.2702 130.791 82.5967 125.034 82.6866C122.176 82.6305 119.355 82.0399 116.715 80.9453" fill="#C53F3F"/>
<path d="M139.431 87.2702C139.431 87.2702 130.791 82.5967 125.034 82.6866C122.176 82.6305 119.355 82.0399 116.715 80.9453" stroke="#263238" stroke-linecap="round" stroke-linejoin="round"/>
<path d="M130.764 77.5508C131.943 80.6908 132.825 82.4882 134.533 83.8757L130.764 77.5508Z" fill="#C53F3F"/>
<path d="M130.764 77.5508C131.943 80.6908 132.825 82.4882 134.533 83.8757" stroke="#263238" stroke-linecap="round" stroke-linejoin="round"/>
<path d="M124.72 67.1484C124.72 67.1484 127.815 69.4627 129.663 74.5518C129.82 74.99 129.972 75.4056 130.112 75.8044" fill="#C53F3F"/>
<path d="M124.72 67.1484C124.72 67.1484 127.815 69.4627 129.663 74.5518C129.82 74.99 129.972 75.4056 130.112 75.8044" stroke="#263238" stroke-linecap="round" stroke-linejoin="round"/>
<path d="M129.944 89.8535C129.654 90.0843 129.38 90.3338 129.124 90.6006C126.315 93.5271 123.99 95.9312 121.395 96.4199" fill="#C53F3F"/>
<path d="M129.944 89.8535C129.654 90.0843 129.38 90.3338 129.124 90.6006C126.315 93.5271 123.99 95.9312 121.395 96.4199" stroke="#263238" stroke-linecap="round" stroke-linejoin="round"/>
<path d="M135.785 87.7363C134.475 87.7737 133.184 88.0696 131.988 88.607L135.785 87.7363Z" fill="#C53F3F"/>
<path d="M135.785 87.7363C134.475 87.7737 133.184 88.0696 131.988 88.607" stroke="#263238" stroke-linecap="round" stroke-linejoin="round"/>
<path d="M95.3423 107.546C95.3423 107.546 83.7148 92.5425 83.7148 89.6497C83.7148 86.7569 89.1129 69.9897 92.1967 72.113C95.2805 74.2363 104.914 92.5425 104.144 99.8617C103.375 107.181 98.8811 110.214 95.3423 107.546Z" fill="#919191" stroke="#263238" stroke-miterlimit="10"/>
<path d="M92.0158 75.002C92.0158 75.002 87.9714 87.1462 89.5105 89.6514C91.0496 92.1567 94.7176 104.301 96.4533 104.879C98.189 105.458 100.11 106.031 101.267 102.756" fill="#919191"/>
<path d="M92.0158 75.002C92.0158 75.002 87.9714 87.1462 89.5105 89.6514C91.0496 92.1567 94.7176 104.301 96.4533 104.879C98.189 105.458 100.11 106.031 101.267 102.756" stroke="#263238" stroke-miterlimit="10"/>
<path d="M95.1 96.8533C95.1 96.8533 94.8585 98.3025 91.4657 101.347C88.073 104.392 78.6643 106.032 82.2368 113.952C85.8093 121.872 92.8419 129.214 95.628 122.619C98.4141 116.025 97.6109 105.768 100.043 104.594C102.475 103.42 110.07 104.442 112.215 99.3249C114.361 94.2076 108.604 84.1586 103.155 87.849C99.8024 90.1788 97.0434 93.2629 95.1 96.8533Z" fill="white" stroke="#263238" stroke-miterlimit="10"/>
<path d="M99.5211 124.571C99.5211 124.571 95.1004 108.905 95.1004 96.8509C95.1004 84.7965 93.8984 74.7587 96.7069 73.551C99.5155 72.3434 102.324 71.5457 103.942 72.7478C105.56 73.9499 104.745 90.4249 104.745 102.479C104.745 114.534 109.553 124.173 109.553 128.189C109.553 132.205 104.734 134.615 101.92 133.806C99.1054 132.997 99.5211 124.571 99.5211 124.571Z" fill="#D6D6D6" stroke="#263238" stroke-miterlimit="10"/>
<path d="M102.172 77.5957C102.172 77.5957 101.279 95.1436 102.47 103.474C103.661 111.804 106.042 121.915 106.34 125.779C106.638 129.644 107.228 130.273 104.256 130.835" stroke="#263238" stroke-miterlimit="10"/>
<path d="M139.959 125.618C139.959 125.618 136.336 123.523 139.178 111.794C142.02 100.066 141.886 97.5099 138.875 98.6951C137.977 99.0636 137.161 99.6083 136.477 100.297C135.793 100.986 135.254 101.805 134.892 102.706C134.892 102.706 135.336 97.6503 132.162 98.6502C131.285 98.9045 130.52 99.4492 129.992 100.195C129.464 100.941 129.206 101.844 129.258 102.756C129.258 102.756 126.321 94.8923 123.051 96.9426C119.782 98.9928 120.187 100.689 121.209 103.498C122.231 106.306 126.41 112.485 126.41 112.485C126.41 112.485 120.372 108.873 116.861 105.481C113.351 102.088 109.801 99.049 107.778 101.414C105.756 103.779 110.16 109.429 110.16 109.429C110.16 109.429 104.717 107.317 104.431 110.553C104.144 113.788 107.239 115.884 107.239 115.884C107.239 115.884 101.998 115.603 104.009 119.591C106.02 123.579 111.98 123.922 111.98 123.922C112.119 124.53 112.469 125.07 112.967 125.446C113.466 125.822 114.081 126.011 114.704 125.978C117.064 125.978 123.181 124.54 123.181 124.54C123.181 124.54 116.345 127.91 112.255 129.033C108.166 130.157 110.609 135.426 112.255 135.386C113.516 135.296 114.758 135.039 115.951 134.622C115.951 134.622 113.772 138.79 116.513 138.846C119.254 138.903 120.574 138.111 120.574 138.111C120.574 138.111 120.153 140.796 122.214 140.071C124.276 139.346 126.236 137.701 127.865 135.667C129.494 133.634 132.303 130.612 132.303 130.612C133.88 129.777 135.709 129.55 137.442 129.971L140.094 130.747L142.026 129.466L139.959 125.618Z" fill="#C53F3F" stroke="#263238" stroke-linecap="round" stroke-linejoin="round"/>
<path d="M114.361 117.165C113.054 116.443 111.798 115.63 110.604 114.732L114.361 117.165Z" fill="#C53F3F"/>
<path d="M114.361 117.165C113.054 116.443 111.798 115.63 110.604 114.732" stroke="#263238" stroke-linecap="round" stroke-linejoin="round"/>
<path d="M138.633 126.264C138.633 126.264 130.398 120.849 124.439 120.484C121.532 120.226 118.703 119.408 116.108 118.074" fill="#C53F3F"/>
<path d="M138.633 126.264C138.633 126.264 130.398 120.849 124.439 120.484C121.532 120.226 118.703 119.408 116.108 118.074" stroke="#263238" stroke-linecap="round" stroke-linejoin="round"/>
<path d="M131.101 115.635C131.859 118.949 132.51 120.864 134.072 122.415L131.101 115.635Z" fill="#C53F3F"/>
<path d="M131.101 115.635C131.859 118.949 132.51 120.864 134.072 122.415" stroke="#263238" stroke-linecap="round" stroke-linejoin="round"/>
<path d="M126.404 104.496C126.404 104.496 129.263 107.108 130.426 112.472C130.527 112.933 130.623 113.371 130.713 113.792" fill="#C53F3F"/>
<path d="M126.404 104.496C126.404 104.496 129.263 107.108 130.426 112.472C130.527 112.933 130.623 113.371 130.713 113.792" stroke="#263238" stroke-linecap="round" stroke-linejoin="round"/>
<path d="M128.466 128.213C128.134 128.429 127.815 128.665 127.511 128.921C124.18 131.729 121.433 134.015 118.687 134.319" fill="#C53F3F"/>
<path d="M128.466 128.213C128.134 128.429 127.815 128.665 127.511 128.921C124.18 131.729 121.433 134.015 118.687 134.319" stroke="#263238" stroke-linecap="round" stroke-linejoin="round"/>
<path d="M130.758 127.09C132.062 126.62 133.445 126.408 134.83 126.467L130.758 127.09Z" fill="#C53F3F"/>
<path d="M130.758 127.09C132.062 126.62 133.445 126.408 134.83 126.467" stroke="#263238" stroke-linecap="round" stroke-linejoin="round"/>
<path d="M129.544 139.946C129.544 139.946 117.939 124.943 117.939 122.05C117.939 119.157 123.332 102.39 126.416 104.513C129.5 106.637 139.139 124.943 138.369 132.262C137.599 139.581 133.061 142.637 129.544 139.946Z" fill="#919191" stroke="#263238" stroke-miterlimit="10"/>
<path d="M126.225 107.424C126.225 107.424 122.18 119.568 123.72 122.073C125.259 124.579 128.921 136.723 130.657 137.301C132.392 137.88 134.319 138.425 135.476 135.178" fill="#919191"/>
<path d="M126.225 107.424C126.225 107.424 122.18 119.568 123.72 122.073C125.259 124.579 128.921 136.723 130.657 137.301C132.392 137.88 134.319 138.425 135.476 135.178" stroke="#263238" stroke-miterlimit="10"/>
<path d="M114.665 87.9763C114.665 87.9763 112.587 95.1157 110.503 107.013C108.419 118.91 108.992 133.767 109.907 136.166C110.823 138.564 114.367 139.435 116.153 138.839C117.94 138.244 117.94 137.357 118.237 125.454C118.535 113.551 118.535 108.204 121.804 99.278C125.073 90.3523 123.888 86.4878 121.507 84.4094C119.125 82.3311 117.047 81.4323 114.665 87.9763Z" fill="#D6D6D6" stroke="#263238" stroke-miterlimit="10"/>
<path d="M121.804 90.9551C118.935 96.6286 117.121 102.776 116.451 109.098C115.26 119.805 118.333 130.123 116.794 133.291C116.451 134.143 115.79 134.827 114.95 135.197C114.111 135.568 113.159 135.596 112.3 135.274" stroke="#263238" stroke-miterlimit="10"/>
<path d="M60.8857 96.6938C60.8857 96.6938 63.7729 103.541 69.6597 114.107C75.5464 124.673 85.3877 135.817 87.5896 137.098C89.7915 138.379 93.1168 136.823 94.1223 135.239C95.1278 133.655 94.5717 132.958 87.2975 123.538C80.0233 114.118 76.6249 109.961 73.5524 100.974C70.4798 91.9866 67.0983 89.7398 63.9414 89.6218C60.7846 89.5039 58.5995 90.1049 60.8857 96.6938Z" fill="#D6D6D6" stroke="#263238" stroke-miterlimit="10"/>
<path d="M68.3008 94.4922C69.6571 100.704 72.1314 106.618 75.6031 111.945C81.4336 121.005 90.3256 127.077 91.1344 130.481C91.4051 131.36 91.3216 132.31 90.9019 133.129C90.4822 133.947 89.7594 134.569 88.8876 134.863" stroke="#263238" stroke-miterlimit="10"/>
<path d="M150.659 118.315C150.659 118.315 145.306 107.609 139.947 95.7121C134.588 83.815 129.241 75.7825 126.562 79.6471C123.882 83.5117 123.888 94.8134 125.674 100.768C127.46 106.722 126.264 103.447 127.455 106.716C128.646 109.985 127.157 107.311 130.432 113.855C133.707 120.399 134.594 122.781 136.678 123.376C138.762 123.972 151.254 129.623 150.659 118.315Z" fill="#C2C2C2" stroke="#263238" stroke-miterlimit="10"/>
<path d="M132.808 91.5488C132.808 91.5488 133.701 93.9249 133.701 104.041C133.701 114.158 133.403 115.343 133.403 115.343" fill="#C2C2C2"/>
<path d="M132.808 91.5488C132.808 91.5488 133.701 93.9249 133.701 104.041C133.701 114.158 133.403 115.343 133.403 115.343" stroke="#263238" stroke-miterlimit="10"/>
<path d="M136.083 117.129C137.869 109.99 136.381 96.3066 136.381 96.3066L136.083 117.129Z" fill="#C2C2C2"/>
<path d="M136.083 117.129C137.869 109.99 136.381 96.3066 136.381 96.3066" stroke="#263238" stroke-miterlimit="10"/>
<path d="M139.65 102.873C139.65 102.873 140.245 112.686 138.465 120.421L139.65 102.873Z" fill="#C2C2C2"/>
<path d="M139.65 102.873C139.65 102.873 140.245 112.686 138.465 120.421" stroke="#263238" stroke-miterlimit="10"/>
<path d="M142.33 110.586C142.33 110.586 142.032 117.13 141.139 121.292L142.33 110.586Z" fill="#C2C2C2"/>
<path d="M142.33 110.586C142.33 110.586 142.032 117.13 141.139 121.292" stroke="#263238" stroke-miterlimit="10"/>
<path d="M130.135 83.2129C130.135 83.2129 142.33 104.036 147.087 117.124L130.135 83.2129Z" fill="#C2C2C2"/>
<path d="M130.135 83.2129C130.135 83.2129 142.33 104.036 147.087 117.124" stroke="#263238" stroke-miterlimit="10"/>
<path d="M153.238 104.8C153.238 104.8 147.885 94.0884 142.532 82.1913C137.178 70.2942 131.82 62.2617 129.146 66.1319C126.472 70.0021 126.467 81.2982 128.253 87.2467C130.039 93.1953 128.848 89.9261 130.033 93.1953C131.219 96.4645 129.741 93.7907 133.011 100.335C136.28 106.879 137.173 109.26 139.257 109.884C141.341 110.507 153.833 116.102 153.238 104.8Z" fill="#C2C2C2" stroke="#263238" stroke-miterlimit="10"/>
<path d="M135.393 78.0293C135.393 78.0293 136.286 80.4053 136.286 90.5218C136.286 100.638 135.988 101.823 135.988 101.823" fill="#C2C2C2"/>
<path d="M135.393 78.0293C135.393 78.0293 136.286 80.4053 136.286 90.5218C136.286 100.638 135.988 101.823 135.988 101.823" stroke="#263238" stroke-miterlimit="10"/>
<path d="M138.959 82.7871C138.959 82.7871 140.447 96.4704 138.661 103.61L138.959 82.7871Z" fill="#C2C2C2"/>
<path d="M138.959 82.7871C138.959 82.7871 140.447 96.4704 138.661 103.61" stroke="#263238" stroke-miterlimit="10"/>
<path d="M142.234 89.3301C142.234 89.3301 142.829 99.1488 141.043 106.878L142.234 89.3301Z" fill="#C2C2C2"/>
<path d="M142.234 89.3301C142.234 89.3301 142.829 99.1488 141.043 106.878" stroke="#263238" stroke-miterlimit="10"/>
<path d="M144.908 97.0645C144.908 97.0645 144.61 103.608 143.717 107.771L144.908 97.0645Z" fill="#C2C2C2"/>
<path d="M144.908 97.0645C144.908 97.0645 144.61 103.608 143.717 107.771" stroke="#263238" stroke-miterlimit="10"/>
<path d="M132.713 69.6992C132.713 69.6992 144.908 90.5219 149.665 103.61L132.713 69.6992Z" fill="#C2C2C2"/>
<path d="M132.713 69.6992C132.713 69.6992 144.908 90.5219 149.665 103.61" stroke="#263238" stroke-miterlimit="10"/>
<path d="M124.231 132.992C124.231 132.992 123.029 118.534 131.864 107.687C140.7 96.8402 139.897 85.589 138.29 78.7586C136.684 71.9282 136.285 68.7152 139.498 71.1305C142.711 73.5459 149.542 77.9554 152.755 96.0369C155.968 114.118 163.601 141.833 165.208 159.106C166.814 176.379 168.016 190.843 171.235 200.083C174.454 209.323 170.027 216.553 165.618 220.17C161.208 223.787 155.574 220.17 153.563 212.536C151.553 204.903 124.231 132.992 124.231 132.992Z" fill="white" stroke="#263238" stroke-miterlimit="10"/>
<path d="M98.8804 129.919C98.8804 129.919 93.5442 119.208 88.2079 107.31C82.8716 95.4134 77.5016 87.3809 74.8223 91.2511C72.1429 95.1213 72.1485 106.417 73.9291 112.366C75.7098 118.314 74.5245 115.045 75.7154 118.314C76.9062 121.584 75.4177 118.91 78.6925 125.454C81.9673 131.998 82.8548 134.379 84.9387 134.975C87.0227 135.57 99.4983 141.221 98.8804 129.919Z" fill="#C2C2C2" stroke="#263238" stroke-miterlimit="10"/>
<path d="M81.0518 103.148C81.0518 103.148 81.9449 105.524 81.9449 115.641C81.9449 125.757 81.6472 126.943 81.6472 126.943" fill="#C2C2C2"/>
<path d="M81.0518 103.148C81.0518 103.148 81.9449 105.524 81.9449 115.641C81.9449 125.757 81.6472 126.943 81.6472 126.943" stroke="#263238" stroke-miterlimit="10"/>
<path d="M84.6249 107.928C84.6249 107.928 86.1134 121.611 84.3271 128.75L84.6249 107.928Z" fill="#C2C2C2"/>
<path d="M84.6249 107.928C84.6249 107.928 86.1134 121.611 84.3271 128.75" stroke="#263238" stroke-miterlimit="10"/>
<path d="M87.8932 114.451C87.8932 114.451 88.4886 124.27 86.708 131.999L87.8932 114.451Z" fill="#C2C2C2"/>
<path d="M87.8932 114.451C87.8932 114.451 88.4886 124.27 86.708 131.999" stroke="#263238" stroke-miterlimit="10"/>
<path d="M90.5727 122.186C90.5727 122.186 90.275 128.73 89.3818 132.892L90.5727 122.186Z" fill="#C2C2C2"/>
<path d="M90.5727 122.186C90.5727 122.186 90.275 128.73 89.3818 132.892" stroke="#263238" stroke-miterlimit="10"/>
<path d="M78.3779 94.8184C78.3779 94.8184 90.5727 115.641 95.3304 128.729L78.3779 94.8184Z" fill="#C2C2C2"/>
<path d="M78.3779 94.8184C78.3779 94.8184 90.5727 115.641 95.3304 128.729" stroke="#263238" stroke-miterlimit="10"/>
<path d="M145.121 149.497C145.121 149.497 144.267 138.762 128.652 128.578C110.171 116.524 74.817 118.934 63.9703 108.491C53.1236 98.0492 53.528 86.023 52.3203 91.6401C51.1127 97.2572 53.1236 114.94 61.1617 134.224C69.1998 153.507 100.128 171.583 108.565 178.037C117.002 184.491 131.865 208.965 132.269 214.992C132.673 221.02 135.482 230.26 141.105 232.67C146.728 235.079 155.968 222.626 158.377 201.337C160.787 180.048 145.121 149.497 145.121 149.497Z" fill="white" stroke="#263238" stroke-miterlimit="10"/>
<path d="M111.379 181.204C111.379 181.204 143.919 179.597 164.405 155.09L171.235 200.083C171.235 200.083 167.219 206.914 153.558 212.536C139.897 218.159 132.269 214.946 132.269 214.946L111.379 181.204Z" fill="#C53F3F" stroke="#263238" stroke-linecap="round" stroke-linejoin="round"/>
<path d="M110.8 68.0475C110.8 68.0475 107.047 65.3962 108.03 70.7381C109.013 76.08 110.457 77.136 111.693 73.6983C112.929 70.2606 118.237 68.0475 119.428 71.3223C120.618 74.5971 122.697 82.0285 124.185 82.0285C125.674 82.0285 123.938 78.3156 126.561 79.6469C129.185 80.9781 125.972 86.1908 128.05 90.3587C130.128 94.5266 136.678 90.3587 136.082 87.0839C135.487 83.8092 131.589 70.8785 131.589 70.8785C131.589 70.8785 125.668 76.3777 125.972 72.2098C126.275 68.0419 125.039 61.1328 123.275 60.1273C121.512 59.1218 121.938 69.2046 119.495 67.5869C117.052 65.9691 116.827 62.9752 114.558 64.4694C113.118 65.4488 111.848 66.6575 110.8 68.0475Z" fill="white" stroke="#263238" stroke-miterlimit="10"/>
<path d="M132.803 191.338L152.957 193.354" stroke="#263238" stroke-miterlimit="10"/>
<path d="M146.238 195.701L154.299 196.712" stroke="#263238" stroke-miterlimit="10"/>
<path d="M107.992 155.27C108.936 156.017 109.233 157.214 108.655 157.938C108.076 158.663 106.846 158.646 105.903 157.899C104.959 157.152 104.661 155.95 105.24 155.225C105.818 154.501 107.048 154.517 107.992 155.27Z" fill="#263238"/>
<path d="M118.816 162.757C118.915 162.886 118.977 163.04 118.994 163.202C119.01 163.364 118.981 163.528 118.909 163.674C118.838 163.82 118.726 163.943 118.588 164.03C118.45 164.116 118.29 164.161 118.127 164.161C117.965 164.161 117.805 164.116 117.667 164.03C117.529 163.943 117.417 163.82 117.346 163.674C117.274 163.528 117.245 163.364 117.261 163.202C117.278 163.04 117.34 162.886 117.439 162.757C117.624 162.578 117.871 162.479 118.127 162.479C118.384 162.479 118.631 162.578 118.816 162.757Z" fill="#263238"/>
<path d="M124.747 151.742C124.847 151.87 124.909 152.025 124.925 152.187C124.942 152.349 124.913 152.512 124.841 152.658C124.769 152.804 124.658 152.928 124.52 153.014C124.382 153.1 124.222 153.146 124.059 153.146C123.896 153.146 123.737 153.1 123.598 153.014C123.46 152.928 123.349 152.804 123.277 152.658C123.206 152.512 123.176 152.349 123.193 152.187C123.21 152.025 123.271 151.87 123.371 151.742C123.555 151.563 123.802 151.463 124.059 151.463C124.316 151.463 124.563 151.563 124.747 151.742Z" fill="#263238"/>
<path d="M160.343 147.357C160.443 147.485 160.504 147.64 160.521 147.802C160.538 147.964 160.508 148.127 160.437 148.273C160.365 148.42 160.254 148.543 160.116 148.629C159.977 148.715 159.818 148.761 159.655 148.761C159.492 148.761 159.332 148.715 159.194 148.629C159.056 148.543 158.945 148.42 158.873 148.273C158.801 148.127 158.772 147.964 158.789 147.802C158.805 147.64 158.867 147.485 158.967 147.357C159.152 147.179 159.398 147.08 159.655 147.08C159.911 147.08 160.158 147.179 160.343 147.357Z" fill="#263238"/>
<path d="M155.67 156.683C156.068 156.447 156.143 155.837 155.836 155.319C155.53 154.801 154.959 154.571 154.561 154.807C154.163 155.042 154.089 155.652 154.395 156.17C154.702 156.689 155.272 156.918 155.67 156.683Z" fill="#263238"/>
<path d="M152.956 134.588C153.001 134.745 153 134.911 152.955 135.067C152.911 135.223 152.823 135.364 152.702 135.473C152.581 135.582 152.432 135.655 152.272 135.684C152.112 135.712 151.947 135.696 151.796 135.635C151.645 135.575 151.514 135.474 151.417 135.342C151.321 135.211 151.263 135.056 151.251 134.894C151.238 134.732 151.271 134.569 151.346 134.425C151.421 134.28 151.535 134.16 151.675 134.077C151.914 133.98 152.18 133.979 152.419 134.075C152.658 134.17 152.85 134.354 152.956 134.588Z" fill="#263238"/>
<path d="M149.193 220.397C149.237 220.552 149.236 220.717 149.191 220.872C149.145 221.026 149.058 221.166 148.938 221.273C148.817 221.381 148.67 221.453 148.511 221.481C148.352 221.509 148.188 221.492 148.038 221.432C147.889 221.372 147.759 221.271 147.663 221.141C147.567 221.011 147.51 220.857 147.498 220.696C147.485 220.535 147.518 220.374 147.592 220.231C147.667 220.088 147.78 219.968 147.918 219.886C148.156 219.789 148.421 219.788 148.659 219.883C148.897 219.979 149.089 220.163 149.193 220.397Z" fill="#263238"/>
<path d="M162.354 211.155C162.451 211.248 162.525 211.362 162.571 211.489C162.616 211.615 162.632 211.75 162.617 211.884C162.601 212.017 162.555 212.145 162.482 212.258C162.409 212.37 162.311 212.464 162.195 212.533C162.079 212.601 161.949 212.642 161.815 212.652C161.682 212.662 161.547 212.64 161.423 212.59C161.298 212.539 161.187 212.46 161.099 212.359C161.01 212.259 160.945 212.139 160.911 212.009C160.757 211.803 160.689 211.545 160.72 211.29C160.752 211.035 160.88 210.801 161.079 210.638C161.317 210.54 161.584 210.54 161.822 210.636C162.061 210.733 162.252 210.919 162.354 211.155Z" fill="#263238"/>
<path d="M160.669 216.526C160.714 216.682 160.713 216.848 160.668 217.005C160.623 217.161 160.536 217.302 160.415 217.411C160.294 217.52 160.145 217.592 159.985 217.621C159.825 217.65 159.66 217.633 159.509 217.573C159.358 217.512 159.227 217.411 159.13 217.28C159.034 217.149 158.976 216.993 158.964 216.831C158.951 216.669 158.984 216.507 159.059 216.362C159.134 216.218 159.248 216.098 159.388 216.015C159.626 215.918 159.893 215.917 160.132 216.012C160.37 216.108 160.563 216.292 160.669 216.526Z" fill="#263238"/>
<path d="M164.371 214.846C164.414 215.001 164.414 215.166 164.368 215.321C164.323 215.476 164.235 215.615 164.115 215.723C163.995 215.83 163.847 215.902 163.688 215.93C163.529 215.958 163.366 215.941 163.216 215.881C163.066 215.821 162.936 215.721 162.841 215.59C162.745 215.46 162.688 215.306 162.675 215.145C162.663 214.984 162.696 214.823 162.77 214.68C162.844 214.537 162.957 214.417 163.096 214.335C163.333 214.238 163.599 214.237 163.837 214.333C164.075 214.428 164.266 214.612 164.371 214.846Z" fill="#263238"/>
<path d="M87.4718 126.19C87.5163 126.346 87.5161 126.512 87.4711 126.668C87.4262 126.825 87.3384 126.965 87.2176 127.074C87.0968 127.183 86.9479 127.256 86.7878 127.285C86.6276 127.314 86.4627 127.297 86.3116 127.237C86.1605 127.176 86.0293 127.075 85.9329 126.944C85.8366 126.813 85.7788 126.657 85.7663 126.495C85.7537 126.333 85.7869 126.17 85.8619 126.026C85.937 125.882 86.051 125.761 86.1911 125.679C86.4291 125.58 86.6961 125.578 86.9352 125.674C87.1744 125.769 87.3669 125.954 87.4718 126.19Z" fill="#263238"/>
<path d="M78.0968 146.339C78.1966 146.468 78.2583 146.622 78.2749 146.784C78.2915 146.946 78.2622 147.109 78.1906 147.256C78.1189 147.402 78.0076 147.525 77.8694 147.611C77.7312 147.698 77.5716 147.743 77.4087 147.743C77.2459 147.743 77.0863 147.698 76.9481 147.611C76.8099 147.525 76.6986 147.402 76.6269 147.256C76.5553 147.109 76.526 146.946 76.5426 146.784C76.5592 146.622 76.6209 146.468 76.7206 146.339C76.9058 146.162 77.1523 146.062 77.4087 146.062C77.6652 146.062 77.9117 146.162 78.0968 146.339Z" fill="#263238"/>
<path d="M106.312 143.013C106.41 143.142 106.47 143.295 106.485 143.455C106.5 143.616 106.471 143.777 106.399 143.922C106.327 144.066 106.217 144.188 106.08 144.273C105.943 144.358 105.785 144.403 105.624 144.403C105.463 144.403 105.305 144.358 105.168 144.273C105.031 144.188 104.92 144.066 104.849 143.922C104.777 143.777 104.747 143.616 104.763 143.455C104.778 143.295 104.838 143.142 104.936 143.013C105.119 142.833 105.367 142.732 105.624 142.732C105.881 142.732 106.128 142.833 106.312 143.013Z" fill="#263238"/>
<path d="M142.88 102.346L139.178 111.794C139.178 111.794 134.999 117.636 134.072 122.416C133.521 125.345 133.662 128.363 134.482 131.229" fill="#C2C2C2"/>
<path d="M142.88 102.346L139.178 111.794C139.178 111.794 134.999 117.636 134.072 122.416C133.521 125.345 133.662 128.363 134.482 131.229" stroke="#263238" stroke-miterlimit="10"/>
<path d="M134.83 153.395C134.83 153.395 126.09 162.124 126.405 170.521L134.83 153.395Z" fill="#C2C2C2"/>
<path d="M134.83 153.395C134.83 153.395 126.09 162.124 126.405 170.521" stroke="#263238" stroke-miterlimit="10"/>
<path d="M122.731 167.83C122.731 167.83 120.378 173.543 115.008 174.885L122.731 167.83Z" fill="#C2C2C2"/>
<path d="M122.731 167.83C122.731 167.83 120.378 173.543 115.008 174.885" stroke="#263238" stroke-miterlimit="10"/>
<path d="M42.2168 216.67L227.938 30.9492" stroke="#F54749" stroke-width="25" stroke-linecap="round"/>
<path d="M224.718 220L38.9971 34.2793" stroke="#F54749" stroke-width="25" stroke-linecap="round"/>
</svg>
