<svg width="270" height="267" viewBox="0 0 270 267" fill="none" xmlns="http://www.w3.org/2000/svg">
<path d="M260.99 128.661C258.22 152.14 247.509 179.445 226.085 191.982C193.736 210.94 196.444 240.087 133.296 252.76C124.086 254.652 114.697 255.539 105.295 255.405C100.696 255.32 96.107 254.945 91.5554 254.282C51.4212 248.423 24.4142 220.529 14.5056 186.848C1.46833 142.563 27.5036 113.545 44.7593 96.0985C62.0151 78.6518 74.6592 24.1996 136.638 11.2803C146.092 9.25153 155.748 8.32042 165.415 8.50543C187.467 9.06714 211.52 16.2907 228.163 31.4007C229.41 32.5242 230.627 33.7 231.814 34.9283C254.946 58.683 264.776 96.649 260.99 128.661Z" fill="#92E3A9"/>
<path opacity="0.7" d="M260.99 128.661C258.22 152.14 247.509 179.445 226.085 191.982C193.736 210.94 196.444 240.087 133.296 252.76C124.086 254.652 114.697 255.539 105.295 255.405C100.696 255.32 96.107 254.945 91.5554 254.282C51.4212 248.423 24.4142 220.529 14.5056 186.848C1.46833 142.563 27.5036 113.545 44.7593 96.0985C62.0151 78.6518 74.6592 24.1996 136.638 11.2803C146.092 9.25153 155.748 8.32042 165.415 8.50543C187.467 9.06714 211.52 16.2907 228.163 31.4007C229.41 32.5242 230.627 33.7 231.814 34.9283C254.946 58.683 264.776 96.649 260.99 128.661Z" fill="white"/>
<path d="M39.395 213.292C39.395 213.292 42.681 215.09 41.0239 225.375C39.3669 235.66 39.6646 237.884 42.1867 236.817C42.9377 236.487 43.6098 236.001 44.1581 235.39C44.7063 234.78 45.1181 234.06 45.366 233.278C45.366 233.278 45.3266 237.693 48.006 236.794C48.7492 236.558 49.3838 236.065 49.7956 235.403C50.2075 234.741 50.3696 233.954 50.2528 233.183C50.2528 233.183 53.3422 240.041 56.0272 238.199C58.7122 236.356 58.274 234.901 57.1506 232.452C56.0272 230.003 52.0222 224.645 52.0222 224.645C52.0222 224.645 57.5045 227.745 60.7793 230.683C64.054 233.621 67.3401 236.233 68.9297 234.149C70.5193 232.065 66.3121 227.161 66.3121 227.161C66.3121 227.161 71.1765 228.959 71.199 226.122C71.2215 223.285 68.3905 221.488 68.3905 221.488C68.3905 221.488 72.9459 221.684 70.9294 218.213C68.9128 214.742 63.7283 214.506 63.7283 214.506C63.564 213.976 63.2294 213.515 62.7764 213.195C62.3233 212.875 61.7772 212.714 61.223 212.736C59.184 212.736 53.9826 214.068 53.9826 214.068C53.9826 214.068 59.6671 211.04 63.1328 210.046C66.5986 209.052 64.1271 204.429 62.7116 204.49C61.6345 204.583 60.5747 204.819 59.5604 205.193C59.5604 205.193 61.1612 201.53 58.8021 201.508C56.4429 201.485 55.3363 202.187 55.3363 202.187C55.3363 202.187 55.5104 199.834 53.7804 200.502C52.0503 201.171 50.455 202.609 49.1856 204.406C47.9161 206.204 45.6861 208.866 45.6861 208.866C44.3484 209.62 42.774 209.837 41.2823 209.473L38.9287 208.821L37.3447 209.945L39.395 213.292Z" fill="#92E3A9" stroke="#263238" stroke-linecap="round" stroke-linejoin="round"/>
<path d="M62.1553 220.443C63.3422 221.064 64.4868 221.762 65.5817 222.533Z" fill="#92E3A9"/>
<path d="M62.1553 220.443C63.3422 221.064 64.4868 221.762 65.5817 222.533" stroke="#263238" stroke-linecap="round" stroke-linejoin="round"/>
<path d="M40.501 212.715C40.501 212.715 48.011 217.394 53.1956 217.635C55.7634 217.841 58.2693 218.529 60.5821 219.663" fill="#92E3A9"/>
<path d="M40.501 212.715C40.501 212.715 48.011 217.394 53.1956 217.635C55.7634 217.841 58.2693 218.529 60.5821 219.663" stroke="#263238" stroke-linecap="round" stroke-linejoin="round"/>
<path d="M47.7635 221.954C46.876 219.062 46.1851 217.393 44.7246 216.051Z" fill="#92E3A9"/>
<path d="M47.7635 221.954C46.876 219.062 46.1851 217.393 44.7246 216.051" stroke="#263238" stroke-linecap="round" stroke-linejoin="round"/>
<path d="M52.6113 231.626C52.6113 231.626 49.9544 229.379 48.5782 224.694L48.2412 223.543" fill="#92E3A9"/>
<path d="M52.6113 231.626C52.6113 231.626 49.9544 229.379 48.5782 224.694L48.2412 223.543" stroke="#263238" stroke-linecap="round" stroke-linejoin="round"/>
<path d="M49.1738 210.916C49.4493 210.726 49.7103 210.516 49.9546 210.287C52.6508 207.815 54.8696 205.793 57.2288 205.484" fill="#92E3A9"/>
<path d="M49.1738 210.916C49.4493 210.726 49.7103 210.516 49.9546 210.287C52.6508 207.815 54.8696 205.793 57.2288 205.484" stroke="#263238" stroke-linecap="round" stroke-linejoin="round"/>
<path d="M43.832 212.495C45.013 212.538 46.1907 212.347 47.2978 211.934Z" fill="#92E3A9"/>
<path d="M43.832 212.495C45.013 212.538 46.1907 212.347 47.2978 211.934" stroke="#263238" stroke-linecap="round" stroke-linejoin="round"/>
<path d="M30.5418 142.399C30.5418 142.399 29.9801 139.461 37.2037 135.31C44.4273 131.159 45.6293 129.856 43.7139 128.828C43.1315 128.529 42.492 128.358 41.8382 128.326C41.1843 128.294 40.5312 128.402 39.9224 128.642C39.9224 128.642 42.6748 126.44 40.7706 125.233C40.2495 124.891 39.6235 124.747 39.0055 124.826C38.3874 124.905 37.8181 125.203 37.4003 125.665C37.4003 125.665 40.0965 120.301 37.6025 119.559C35.1085 118.818 34.4345 119.84 33.4627 121.739C32.4909 123.637 31.2159 128.85 31.2159 128.85C31.2159 128.85 30.3789 123.89 30.5474 120.38C30.7159 116.869 30.6879 113.521 28.5927 113.583C26.4975 113.645 25.5819 118.723 25.5819 118.723C25.5819 118.723 24.245 114.791 22.4756 116.223C20.7063 117.655 21.004 120.284 21.004 120.284C21.004 120.284 18.8302 117.363 17.6955 120.357C16.5608 123.351 19.0211 126.688 19.0211 126.688C18.7755 127.056 18.6583 127.495 18.6877 127.937C18.7172 128.379 18.8917 128.798 19.184 129.131C20.2176 130.395 23.6777 132.951 23.6777 132.951C23.6777 132.951 18.9369 130.951 16.5721 129.3C14.2073 127.648 12.5839 131.518 13.331 132.361C13.9296 132.983 14.6098 133.522 15.3532 133.962C15.3532 133.962 12.275 134.81 13.449 136.287C13.9966 137.07 14.7431 137.692 15.6115 138.09C15.6115 138.09 14.0668 139.163 15.3475 139.91C16.8049 140.658 18.4484 140.964 20.0771 140.792C21.8297 140.68 24.6045 140.713 24.6045 140.713C25.7446 141.166 26.6715 142.033 27.1996 143.14L27.9804 144.926L29.4802 145.336L30.5418 142.399Z" fill="#92E3A9" stroke="#263238" stroke-linecap="round" stroke-linejoin="round"/>
<path d="M23.5089 124.693C23.2995 123.645 23.1569 122.585 23.082 121.52Z" fill="#92E3A9"/>
<path d="M23.5089 124.693C23.2995 123.645 23.1569 122.585 23.082 121.52" stroke="#263238" stroke-linecap="round" stroke-linejoin="round"/>
<path d="M29.6206 142.005C29.6206 142.005 28.7443 134.995 26.2503 131.658C25.0867 129.956 24.2523 128.051 23.79 126.041" fill="#92E3A9"/>
<path d="M29.6206 142.005C29.6206 142.005 28.7443 134.995 26.2503 131.658C25.0867 129.956 24.2523 128.051 23.79 126.041" stroke="#263238" stroke-linecap="round" stroke-linejoin="round"/>
<path d="M31.6819 132.867C30.3506 134.889 29.6541 136.142 29.5586 137.698Z" fill="#92E3A9"/>
<path d="M31.6819 132.867C30.3506 134.889 29.6541 136.142 29.5586 137.698" stroke="#263238" stroke-linecap="round" stroke-linejoin="round"/>
<path d="M35.249 124.98C35.0507 127.142 34.2746 129.21 33.0021 130.968L32.4404 131.76" fill="#92E3A9"/>
<path d="M35.249 124.98C35.0507 127.142 34.2746 129.21 33.0021 130.968L32.4404 131.76" stroke="#263238" stroke-linecap="round" stroke-linejoin="round"/>
<path d="M24.1719 137.533C23.9191 137.466 23.6607 137.41 23.3855 137.365C20.4983 136.944 18.1167 136.595 16.7461 135.275" fill="#92E3A9"/>
<path d="M24.1719 137.533C23.9191 137.466 23.6607 137.41 23.3855 137.365C20.4983 136.944 18.1167 136.595 16.7461 135.275" stroke="#263238" stroke-linecap="round" stroke-linejoin="round"/>
<path d="M27.8227 140.068C27.2541 139.318 26.5419 138.688 25.7275 138.215Z" fill="#92E3A9"/>
<path d="M27.8227 140.068C27.2541 139.318 26.5419 138.688 25.7275 138.215" stroke="#263238" stroke-linecap="round" stroke-linejoin="round"/>
<path d="M188.613 203.367C223.336 168.644 223.336 112.348 188.613 77.625C153.89 42.9023 97.5938 42.9023 62.8711 77.625C28.1483 112.348 28.1483 168.644 62.8711 203.367C97.5938 238.09 153.89 238.09 188.613 203.367Z" fill="#263238"/>
<path d="M167.542 182.296C190.628 159.211 190.628 121.782 167.542 98.6959C144.457 75.6103 107.027 75.6103 83.9418 98.6959C60.8562 121.782 60.8562 159.211 83.9418 182.296C107.027 205.382 144.457 205.382 167.542 182.296Z" stroke="#8A8A8A" stroke-miterlimit="10"/>
<path d="M245.975 142.794C252.533 142.794 257.85 137.478 257.85 130.919C257.85 124.361 252.533 119.045 245.975 119.045C239.417 119.045 234.101 124.361 234.101 130.919C234.101 137.478 239.417 142.794 245.975 142.794Z" fill="#BFBFBF" stroke="#263238" stroke-miterlimit="10"/>
<path d="M247.121 125.69C247.121 125.69 245.565 122.999 244.942 123.887C244.318 124.774 245.503 126.133 245.312 126.942C245.121 127.751 242.504 127.892 242.824 128.773C243.144 129.655 245.975 130.919 245.975 130.919C245.975 130.919 245.835 132.604 246.464 132.666C247.093 132.728 248.447 130.605 248.447 130.605C248.447 130.605 249.991 131.43 250.564 130.24C251.137 129.049 249.441 129.032 249.441 128.251C249.441 127.47 250.974 127.206 250.688 126.476C250.401 125.746 247.66 127.027 247.121 125.69Z" fill="#92E3A9" stroke="#263238" stroke-miterlimit="10"/>
<path d="M247.217 128.015C247.217 128.015 250.374 117.489 254.188 113.411C258.002 109.333 258.951 108.529 260.367 109.378C261.782 110.226 260.957 110.99 260.226 111.276C259.496 111.563 252.829 114.433 248.481 128.903C248.459 128.886 245.987 129.004 247.217 128.015Z" fill="#92E3A9" stroke="#263238" stroke-miterlimit="10"/>
<path d="M236.804 173.461C242.876 170.983 245.789 164.052 243.311 157.98C240.833 151.908 233.902 148.994 227.83 151.472C221.758 153.95 218.845 160.881 221.323 166.953C223.801 173.025 230.732 175.939 236.804 173.461Z" fill="#BFBFBF" stroke="#263238" stroke-miterlimit="10"/>
<path d="M234.191 158.297C234.191 158.297 229.276 156.449 230.04 158.139C230.804 159.83 232.039 158.6 231.579 160.291C231.118 161.982 230.658 163.515 231.27 163.661C231.882 163.807 233.129 160.729 233.421 161.852C233.713 162.976 234.191 165.223 234.955 163.998C235.719 162.774 234.803 160.926 235.264 160.926C235.724 160.926 238.948 162.156 238.488 159.853C238.027 157.55 236.342 158.623 235.876 158.471C235.41 158.319 235.876 155.55 234.651 156.011C233.427 156.471 234.191 158.297 234.191 158.297Z" fill="#92E3A9" stroke="#263238" stroke-miterlimit="10"/>
<path d="M234.584 159.129C234.584 159.129 229.208 159.893 227.057 164.044C225.621 166.7 224.537 169.533 223.833 172.47C223.681 173.391 224.754 174.155 225.215 173.542C225.675 172.93 227.214 167.246 228.287 165.117C229.36 162.988 229.562 162.308 231.742 161.252C233.921 160.196 235.32 159.904 234.584 159.129Z" fill="#92E3A9" stroke="#263238" stroke-miterlimit="10"/>
<path d="M222.41 130.6C228.482 128.122 231.396 121.191 228.918 115.119C226.44 109.047 219.509 106.133 213.437 108.611C207.365 111.089 204.451 118.02 206.929 124.092C209.407 130.164 216.338 133.078 222.41 130.6Z" fill="#BFBFBF" stroke="#263238" stroke-miterlimit="10"/>
<path d="M219.799 115.433C219.799 115.433 214.884 113.59 215.648 115.281C216.412 116.972 217.648 115.741 217.187 117.432C216.727 119.123 216.266 120.656 216.878 120.802C217.49 120.949 218.721 117.887 219.03 118.96C219.338 120.033 219.799 122.33 220.563 121.111C221.327 119.892 220.411 118.039 220.872 118.039C221.333 118.039 224.557 119.269 224.096 116.966C223.636 114.663 221.95 115.736 221.484 115.584C221.018 115.433 221.484 112.663 220.26 113.124C219.035 113.584 219.799 115.433 219.799 115.433Z" fill="#92E3A9" stroke="#263238" stroke-miterlimit="10"/>
<path d="M220.21 116.264C220.21 116.264 214.834 117.033 212.683 121.179C211.245 123.834 210.161 126.667 209.459 129.604C209.307 130.525 210.38 131.289 210.841 130.683C211.301 130.076 212.84 124.38 213.913 122.257C214.986 120.134 215.188 119.449 217.368 118.393C219.547 117.337 220.929 117.044 220.21 116.264Z" fill="#92E3A9" stroke="#263238" stroke-miterlimit="10"/>
<path d="M53.0116 146.381C53.0116 146.381 40.0923 141.107 29.6445 153.802C19.1967 166.496 30.987 182.971 30.987 182.971C30.987 182.971 36.8512 180.163 43.1985 173.815C49.5459 167.468 59.0949 156.47 60.2183 153.481C61.3418 150.493 53.0116 146.381 53.0116 146.381Z" fill="#92E3A9" stroke="#263238" stroke-linecap="round" stroke-linejoin="round"/>
<path opacity="0.34" d="M45.7207 169.559C45.7207 169.559 37.6827 160.729 32.9531 160.729C28.2235 160.729 26.9821 166.407 28.3808 173.024C29.7794 179.641 32.9531 180.433 33.5822 180.433C34.2113 180.433 43.5132 173.345 45.7207 169.559Z" fill="black"/>
<path opacity="0.34" d="M46.822 168.3C46.822 168.3 42.7102 163.098 40.3623 157.919C38.0143 152.74 39.413 149.544 43.8337 147.651C48.2543 145.758 57.0732 151.583 58.646 152.538L59.1178 153.802C59.1178 153.802 49.5013 165.783 46.822 168.3Z" fill="black"/>
<path d="M37.2105 166.091C37.2105 166.091 32.9527 165.462 32.009 167.827C31.0653 170.192 37.0532 167.984 37.2105 166.091Z" fill="#92E3A9" stroke="#263238" stroke-linecap="round" stroke-linejoin="round"/>
<path d="M38.7784 168.143C38.7784 168.143 34.998 169.715 34.998 172.075C34.998 174.434 39.0985 171.608 38.7784 168.143Z" fill="#92E3A9" stroke="#263238" stroke-linecap="round" stroke-linejoin="round"/>
<path d="M46.1919 154.43C45.6298 154.59 45.118 154.892 44.7052 155.306C44.2923 155.72 43.992 156.232 43.8327 156.794C43.5763 158.059 43.6854 159.37 44.1472 160.575C44.1472 160.575 47.2928 157.918 46.1919 154.43Z" fill="#92E3A9" stroke="#263238" stroke-linecap="round" stroke-linejoin="round"/>
<path d="M49.5013 158.998C49.0872 159.043 48.6884 159.18 48.3338 159.399C47.9792 159.618 47.6777 159.912 47.4511 160.262C46.826 161.013 46.4912 161.964 46.5074 162.941C46.5074 163.413 49.8159 162.784 49.5013 158.998Z" fill="#92E3A9" stroke="#263238" stroke-linecap="round" stroke-linejoin="round"/>
<path d="M95.2521 207.512C95.2521 207.512 105.779 198.356 99.1448 183.302C92.511 168.248 72.4804 171.399 72.4804 171.399C72.4804 171.399 72.3512 177.898 75.1654 186.425C77.9795 194.952 83.4899 208.433 85.6581 210.775C87.8263 213.118 95.2521 207.512 95.2521 207.512Z" fill="#92E3A9" stroke="#263238" stroke-linecap="round" stroke-linejoin="round"/>
<path d="M94.3867 206.338C94.3867 206.338 104.913 197.183 98.2849 182.134C91.6567 167.086 71.6318 170.198 71.6318 170.198C71.6318 170.198 71.5026 176.703 74.3111 185.224C77.1197 193.745 82.6413 207.232 84.8039 209.574C86.9665 211.916 94.3867 206.338 94.3867 206.338Z" fill="#92E3A9" stroke="#263238" stroke-linecap="round" stroke-linejoin="round"/>
<path opacity="0.34" d="M76.9737 189.373C76.9737 189.373 88.4719 186.171 90.6007 181.947C92.7296 177.723 88.2079 174.061 81.6639 172.353C75.12 170.646 72.9968 173.084 72.7103 173.645C72.4238 174.207 74.5752 185.716 76.9737 189.373Z" fill="black"/>
<path opacity="0.34" d="M77.5859 190.947C77.5859 190.947 84.0793 189.627 89.7863 189.857C95.4933 190.087 97.6502 192.772 97.3694 197.564C97.0885 202.355 87.8933 207.613 86.343 208.596L85.0005 208.45C85.0005 208.45 78.6588 194.474 77.5859 190.947Z" fill="black"/>
<path d="M83.8883 183.354C83.8883 183.354 86.3655 179.838 84.6803 177.928C82.9952 176.019 82.2706 182.366 83.8883 183.354Z" fill="#92E3A9" stroke="#263238" stroke-linecap="round" stroke-linejoin="round"/>
<path d="M81.3498 183.842C81.3498 183.842 81.6419 179.753 79.5298 178.692C77.4178 177.63 78.0975 182.562 81.3498 183.842Z" fill="#92E3A9" stroke="#263238" stroke-linecap="round" stroke-linejoin="round"/>
<path d="M90.2591 196.626C90.3685 196.051 90.3295 195.458 90.1456 194.903C89.9618 194.348 89.6393 193.848 89.2087 193.452C88.1968 192.652 86.9763 192.159 85.6924 192.031C85.6924 192.031 86.6641 196.047 90.2591 196.626Z" fill="#92E3A9" stroke="#263238" stroke-linecap="round" stroke-linejoin="round"/>
<path d="M84.6865 197.525C84.8327 197.135 84.8904 196.718 84.8554 196.303C84.8204 195.888 84.6937 195.486 84.4843 195.127C84.0941 194.229 83.3944 193.501 82.5127 193.076C82.0914 192.863 81.1646 196.115 84.6865 197.525Z" fill="#92E3A9" stroke="#263238" stroke-linecap="round" stroke-linejoin="round"/>
<path d="M202.19 84.9713C216.891 84.9713 228.809 73.0534 228.809 58.3519C228.809 43.6504 216.891 31.7324 202.19 31.7324C187.488 31.7324 175.57 43.6504 175.57 58.3519C175.57 73.0534 187.488 84.9713 202.19 84.9713Z" fill="white" stroke="#263238" stroke-miterlimit="10"/>
<path d="M200.084 82.8864C217.242 82.8864 231.152 68.9767 231.152 51.8182C231.152 34.6597 217.242 20.75 200.084 20.75C182.925 20.75 169.016 34.6597 169.016 51.8182C169.016 68.9767 182.925 82.8864 200.084 82.8864Z" fill="white" stroke="#263238" stroke-miterlimit="10"/>
<path d="M222.98 57.3334C226.023 44.6897 218.239 31.9736 205.596 28.9311C192.952 25.8886 180.236 33.6719 177.193 46.3156C174.151 58.9592 181.934 71.6754 194.578 74.7179C207.222 77.7604 219.938 69.977 222.98 57.3334Z" fill="#263238"/>
<path d="M209.268 36.6187C209.268 36.6187 217.43 24.5925 221.294 14.2851C222.67 10.6116 223.03 6.05608 225.788 2.98353C228.787 -0.341798 234.101 0.585023 234.607 5.23037C234.887 7.8367 233.77 9.79707 231.719 12.5326C228.849 16.3466 223.052 21.402 220.564 25.4969C216.154 32.7429 213.262 36.821 212.037 38.4836C211.778 38.8513 211.409 39.1273 210.983 39.2716C210.557 39.416 210.096 39.4213 209.667 39.2869C208.936 39.0229 208.414 38.3376 209.268 36.6187Z" fill="#92E3A9" stroke="#263238" stroke-linecap="round" stroke-linejoin="round"/>
<path d="M227.81 3.92238C227.81 3.92238 231.129 2.41699 231.882 6.48939" stroke="#263238" stroke-linecap="round" stroke-linejoin="round"/>
<path d="M141.104 232.628C141.104 232.628 156.77 232.229 169.627 213.345C169.627 213.345 166.01 197.274 162.797 196.875C159.584 196.476 149.54 210.918 145.524 218.967C141.508 227.017 141.104 232.628 141.104 232.628Z" fill="white" stroke="#263238" stroke-miterlimit="10"/>
<path d="M108.648 61.8682C106.947 68.1385 105.562 74.49 104.497 80.899C102.413 92.796 103.009 107.67 103.902 110.046C104.795 112.422 108.362 113.321 110.148 112.725C111.934 112.13 111.934 111.237 112.226 99.3399C112.518 87.4429 112.524 82.0898 115.799 73.1642C119.073 64.2386 117.883 60.3741 115.501 58.2901C113.119 56.2062 111.03 55.3187 108.648 61.8682Z" fill="#D6D6D6" stroke="#263238" stroke-miterlimit="10"/>
<path d="M115.787 64.834C112.919 70.5097 111.105 76.6591 110.434 82.9828C109.243 93.689 112.31 104.008 110.777 107.176C110.432 108.025 109.771 108.708 108.932 109.078C108.093 109.448 107.143 109.477 106.283 109.159" fill="white"/>
<path d="M115.787 64.834C112.919 70.5097 111.105 76.6591 110.434 82.9828C109.243 93.689 112.31 104.008 110.777 107.176C110.432 108.025 109.771 108.708 108.932 109.078C108.093 109.448 107.143 109.477 106.283 109.159" stroke="#263238" stroke-miterlimit="10"/>
<path d="M130.004 99.8295C130.004 99.8295 128.807 95.8189 138.94 89.2525C149.074 82.6861 150.736 80.7426 147.72 79.5349C146.819 79.1884 145.858 79.0253 144.894 79.0552C143.929 79.0851 142.98 79.3074 142.103 79.709C142.103 79.709 145.894 76.3388 142.906 74.8895C142.095 74.47 141.166 74.3387 140.271 74.5174C139.375 74.696 138.568 75.1739 137.98 75.8725C137.98 75.8725 141.266 68.1266 137.469 67.3851C133.672 66.6436 132.812 68.1322 131.621 70.8789C130.431 73.6257 129.212 80.9673 129.212 80.9673C129.212 80.9673 127.313 74.193 127.094 69.3118C126.875 64.4305 126.386 59.7627 123.297 60.1166C120.207 60.4705 119.517 67.5761 119.517 67.5761C119.517 67.5761 117.017 62.3016 114.579 64.4586C112.141 66.6156 112.922 70.2948 112.922 70.2948C112.922 70.2948 109.305 66.4864 108.024 70.7666C106.743 75.0468 110.832 79.3888 110.832 79.3888C110.515 79.927 110.397 80.5599 110.5 81.1762C110.602 81.7926 110.919 82.3531 111.394 82.7591C113.079 84.3993 118.539 87.5449 118.539 87.5449C118.539 87.5449 111.237 85.298 107.518 83.2983C103.8 81.2987 101.901 86.8034 103.143 87.8988C104.122 88.6996 105.202 89.3682 106.356 89.8872C106.356 89.8872 101.907 91.4151 103.839 93.3249C105.771 95.2347 107.294 95.5717 107.294 95.5717C107.294 95.5717 105.142 97.2569 107.136 98.1275C109.13 98.9982 111.686 99.1723 114.27 98.8128C116.854 98.4533 120.971 98.1893 120.971 98.1893C122.689 98.67 124.172 99.7629 125.139 101.262L126.133 102.947C126.258 103.161 126.428 103.345 126.632 103.486C126.836 103.627 127.069 103.721 127.313 103.761C127.725 103.834 128.15 103.751 128.504 103.527C128.858 103.304 129.116 102.957 129.228 102.554L130.004 99.8295Z" fill="#92E3A9" stroke="#263238" stroke-linecap="round" stroke-linejoin="round"/>
<path d="M117.225 76.0898C116.772 74.667 116.419 73.2142 116.169 71.7422Z" fill="#92E3A9"/>
<path d="M117.225 76.0898C116.772 74.667 116.419 73.2142 116.169 71.7422" stroke="#263238" stroke-linecap="round" stroke-linejoin="round"/>
<path d="M128.594 99.3899C128.594 99.3899 126.347 89.7735 122.258 85.4314C120.328 83.2439 118.837 80.7057 117.865 77.9551" fill="#92E3A9"/>
<path d="M128.594 99.3899C128.594 99.3899 126.347 89.7735 122.258 85.4314C120.328 83.2439 118.837 80.7057 117.865 77.9551" stroke="#263238" stroke-linecap="round" stroke-linejoin="round"/>
<path d="M130.431 86.4883C128.706 89.4204 127.858 91.2572 127.926 93.4591Z" fill="#92E3A9"/>
<path d="M130.431 86.4883C128.706 89.4204 127.858 91.2572 127.926 93.4591" stroke="#263238" stroke-linecap="round" stroke-linejoin="round"/>
<path d="M134.666 75.1582C134.666 75.1582 134.941 79.0228 132.099 83.7187L131.396 84.8421" fill="#92E3A9"/>
<path d="M134.666 75.1582C134.666 75.1582 134.941 79.0228 132.099 83.7187L131.396 84.8421" stroke="#263238" stroke-linecap="round" stroke-linejoin="round"/>
<path d="M119.87 93.8133C119.48 93.7432 119.086 93.6944 118.691 93.6672C114.349 93.4088 110.776 93.1954 108.58 91.5215" fill="#92E3A9"/>
<path d="M119.87 93.8133C119.48 93.7432 119.086 93.6944 118.691 93.6672C114.349 93.4088 110.776 93.1954 108.58 91.5215" stroke="#263238" stroke-linecap="round" stroke-linejoin="round"/>
<path d="M125.667 96.907C124.703 95.9199 123.559 95.1267 122.297 94.5703Z" fill="#92E3A9"/>
<path d="M125.667 96.907C124.703 95.9199 123.559 95.1267 122.297 94.5703" stroke="#263238" stroke-linecap="round" stroke-linejoin="round"/>
<path d="M104.126 101.345C104.126 101.345 99.9414 101.283 96.7116 89.6505C93.4818 78.0175 92.1224 75.8605 90.0722 78.3601C89.4685 79.1203 89.0225 79.9932 88.7602 80.9277C88.4978 81.8623 88.4245 82.8398 88.5443 83.8031C88.5443 83.8031 86.4772 79.1802 84.1855 81.5899C83.5383 82.2357 83.1301 83.0825 83.0281 83.9911C82.926 84.8996 83.1361 85.8158 83.6238 86.5892C83.6238 86.5892 77.2146 81.135 75.3722 84.5333C73.5298 87.9316 74.687 89.2011 76.9506 91.1615C79.2143 93.1218 85.8706 96.4753 85.8706 96.4753C85.8706 96.4753 78.8661 96.2562 74.1646 95.0092C69.463 93.7622 64.8683 92.8298 64.256 95.8798C63.6437 98.9299 70.2326 101.716 70.2326 101.716C70.2326 101.716 64.4526 102.525 65.7782 105.491C67.1039 108.457 70.8336 108.782 70.8336 108.782C70.8336 108.782 66.1209 111.091 69.8169 113.596C73.513 116.101 78.8885 113.501 78.8885 113.501C79.3064 113.961 79.8729 114.26 80.489 114.346C81.1051 114.431 81.7316 114.297 82.2588 113.967C84.3315 112.843 88.9656 108.586 88.9656 108.586C88.9656 108.586 84.6517 114.877 81.6128 117.826C78.574 120.775 83.298 124.207 84.691 123.381C85.748 122.686 86.7093 121.855 87.5501 120.91C87.5501 120.91 87.6737 125.611 90.0778 124.336C92.4819 123.061 93.2627 121.719 93.2627 121.719C93.2627 121.719 94.2064 124.269 95.65 122.634C97.0936 121 98.0092 118.607 98.4585 116.034C98.9079 113.461 99.874 109.456 99.874 109.456C100.846 107.959 102.333 106.87 104.053 106.395L106.749 105.783L107.805 103.721L104.126 101.345Z" fill="#92E3A9" stroke="#263238" stroke-linecap="round" stroke-linejoin="round"/>
<path d="M92.3746 96.6436C92.3746 96.6436 88.1843 96.5818 84.9601 84.9488C81.7358 73.3158 80.3428 71.1588 78.315 73.664C77.7114 74.4242 77.2653 75.2971 77.003 76.2317C76.7407 77.1662 76.6673 78.1437 76.7872 79.107C76.7872 79.107 74.7201 74.4841 72.4339 76.8939C71.7868 77.5397 71.3786 78.3864 71.2765 79.295C71.1744 80.2035 71.3845 81.1198 71.8722 81.8931C71.8722 81.8931 65.4687 76.4389 63.6207 79.8372C61.7727 83.2356 62.941 84.505 65.2047 86.4654C67.4684 88.4258 74.164 91.7736 74.164 91.7736C74.164 91.7736 67.1314 91.5545 62.4074 90.3019C57.6834 89.0493 53.1111 88.1281 52.4932 91.1725C51.8753 94.217 58.4361 97.0143 58.4361 97.0143C58.4361 97.0143 52.6561 97.8232 53.9874 100.789C55.3186 103.755 59.0427 104.081 59.0427 104.081C59.0427 104.081 54.33 106.389 58.0317 108.894C61.7333 111.4 67.0977 108.799 67.0977 108.799C67.5161 109.259 68.0826 109.557 68.6984 109.642C69.3142 109.728 69.9404 109.594 70.4679 109.265C72.5406 108.142 77.1748 103.884 77.1748 103.884C77.1748 103.884 72.8552 110.175 69.8163 113.124C66.7775 116.073 71.5015 119.505 72.9001 118.679C73.9559 117.983 74.9169 117.152 75.7592 116.208C75.7592 116.208 75.8828 120.909 78.2813 119.634C80.6798 118.359 81.4718 117.017 81.4718 117.017C81.4718 117.017 82.4155 119.567 83.8591 117.932C85.3027 116.298 86.2183 113.905 86.6676 111.332C87.117 108.76 88.0775 104.755 88.0775 104.755C89.0496 103.258 90.5363 102.169 92.2567 101.693L94.9529 101.081L96.0145 99.0196L92.3746 96.6436Z" fill="#92E3A9" stroke="#263238" stroke-linecap="round" stroke-linejoin="round"/>
<path d="M77.6529 106.429C76.1498 106.436 74.6481 106.336 73.1592 106.131Z" fill="#92E3A9"/>
<path d="M77.6529 106.429C76.1498 106.436 74.6481 106.336 73.1592 106.131" stroke="#263238" stroke-linecap="round" stroke-linejoin="round"/>
<path d="M103.284 102.558C103.284 102.558 93.4428 101.817 88.0673 104.423C85.4106 105.61 82.5495 106.272 79.6416 106.372" fill="#92E3A9"/>
<path d="M103.284 102.558C103.284 102.558 93.4428 101.817 88.0673 104.423C85.4106 105.61 82.5495 106.272 79.6416 106.372" stroke="#263238" stroke-linecap="round" stroke-linejoin="round"/>
<path d="M91.5273 96.9414C93.8079 99.4691 95.302 100.823 97.4253 101.435Z" fill="#92E3A9"/>
<path d="M91.5273 96.9414C93.8079 99.4691 95.302 100.823 97.4253 101.435" stroke="#263238" stroke-linecap="round" stroke-linejoin="round"/>
<path d="M81.9893 89.5098C81.9893 89.5098 85.7527 90.3973 89.3814 94.5202L90.2745 95.5369" fill="#92E3A9"/>
<path d="M81.9893 89.5098C81.9893 89.5098 85.7527 90.3973 89.3814 94.5202L90.2745 95.5369" stroke="#263238" stroke-linecap="round" stroke-linejoin="round"/>
<path d="M95.3524 109.209C95.1687 109.561 95.0037 109.923 94.8581 110.293C93.3134 114.36 92.0496 117.702 89.8027 119.28" fill="#92E3A9"/>
<path d="M95.3524 109.209C95.1687 109.561 95.0037 109.923 94.8581 110.293C93.3134 114.36 92.0496 117.702 89.8027 119.28" stroke="#263238" stroke-linecap="round" stroke-linejoin="round"/>
<path d="M100.042 104.607C98.8111 105.224 97.7121 106.075 96.8066 107.113Z" fill="#92E3A9"/>
<path d="M100.042 104.607C98.8111 105.224 97.7121 106.075 96.8066 107.113" stroke="#263238" stroke-linecap="round" stroke-linejoin="round"/>
<path d="M140.614 86.5499C140.614 86.5499 136.851 84.7861 137.985 73.2823C139.12 61.7785 138.637 59.3294 135.913 60.6831C135.104 61.1002 134.393 61.6853 133.828 62.3992C133.263 63.1132 132.858 63.9395 132.638 64.8229C132.638 64.8229 132.38 59.9305 129.47 61.11C126.56 62.2896 127.223 65.2667 127.223 65.2667C127.223 65.2667 123.336 57.8746 120.483 60.099C117.629 62.3233 118.236 63.9074 119.601 66.5418C120.966 69.1762 125.841 74.8439 125.841 74.8439C125.841 74.8439 119.561 71.7769 115.73 68.7549C111.9 65.7329 108.086 63.0479 106.468 65.4689C104.85 67.8899 109.838 73.0239 109.838 73.0239C109.838 73.0239 104.333 71.3725 104.502 74.5125C104.67 77.6524 107.911 79.4555 107.911 79.4555C107.911 79.4555 102.856 79.551 105.316 83.2527C107.777 86.9543 113.551 86.8701 113.551 86.8701C113.771 87.4441 114.173 87.9303 114.695 88.254C115.218 88.5777 115.832 88.721 116.444 88.6619C118.691 88.5215 124.375 86.6903 124.375 86.6903C124.375 86.6903 118.281 90.4369 114.512 91.7738C110.742 93.1107 113.798 98.0481 115.36 97.8965C116.547 97.7216 117.705 97.3872 118.803 96.9022C118.803 96.9022 117.275 101.064 119.893 100.93C122.51 100.795 123.684 99.9411 123.684 99.9411C123.684 99.9411 123.651 102.559 125.527 101.716C127.403 100.874 129.06 99.1547 130.346 97.0763C131.632 94.998 133.913 91.8974 133.913 91.8974C135.346 90.9726 137.076 90.6253 138.755 90.9256L141.406 91.4873L143.091 90.1168L140.614 86.5499Z" fill="#92E3A9" stroke="#263238" stroke-linecap="round" stroke-linejoin="round"/>
<path d="M114.916 80.1857C113.562 79.5784 112.249 78.8842 110.984 78.1074Z" fill="#92E3A9"/>
<path d="M114.916 80.1857C113.562 79.5784 112.249 78.8842 110.984 78.1074" stroke="#263238" stroke-linecap="round" stroke-linejoin="round"/>
<path d="M139.429 87.2682C139.429 87.2682 130.79 82.5948 125.033 82.6847C122.175 82.6285 119.354 82.0379 116.714 80.9434" fill="#92E3A9"/>
<path d="M139.429 87.2682C139.429 87.2682 130.79 82.5948 125.033 82.6847C122.175 82.6285 119.354 82.0379 116.714 80.9434" stroke="#263238" stroke-linecap="round" stroke-linejoin="round"/>
<path d="M130.763 77.5508C131.942 80.6907 132.824 82.4882 134.532 83.8756Z" fill="#92E3A9"/>
<path d="M130.763 77.5508C131.942 80.6907 132.824 82.4882 134.532 83.8756" stroke="#263238" stroke-linecap="round" stroke-linejoin="round"/>
<path d="M124.719 67.1484C124.719 67.1484 127.814 69.4627 129.662 74.5518C129.819 74.9899 129.971 75.4056 130.111 75.8044" fill="#92E3A9"/>
<path d="M124.719 67.1484C124.719 67.1484 127.814 69.4627 129.662 74.5518C129.819 74.9899 129.971 75.4056 130.111 75.8044" stroke="#263238" stroke-linecap="round" stroke-linejoin="round"/>
<path d="M129.943 89.8516C129.653 90.0823 129.379 90.3319 129.123 90.5986C126.314 93.5251 123.989 95.9293 121.394 96.4179" fill="#92E3A9"/>
<path d="M129.943 89.8516C129.653 90.0823 129.379 90.3319 129.123 90.5986C126.314 93.5251 123.989 95.9293 121.394 96.4179" stroke="#263238" stroke-linecap="round" stroke-linejoin="round"/>
<path d="M135.783 87.7344C134.473 87.7718 133.182 88.0677 131.986 88.605Z" fill="#92E3A9"/>
<path d="M135.783 87.7344C134.473 87.7718 133.182 88.0677 131.986 88.605" stroke="#263238" stroke-linecap="round" stroke-linejoin="round"/>
<path d="M95.3413 107.546C95.3413 107.546 83.7139 92.5424 83.7139 89.6496C83.7139 86.7568 89.1119 69.9897 92.1957 72.113C95.2795 74.2363 104.913 92.5424 104.143 99.8615C103.374 107.181 98.88 110.214 95.3413 107.546Z" fill="#919191" stroke="#263238" stroke-miterlimit="10"/>
<path d="M92.0148 75.002C92.0148 75.002 87.9705 87.1461 89.5095 89.6514C91.0486 92.1566 94.7166 104.301 96.4523 104.879C98.188 105.458 100.109 106.031 101.266 102.756" fill="#919191"/>
<path d="M92.0148 75.002C92.0148 75.002 87.9705 87.1461 89.5095 89.6514C91.0486 92.1566 94.7166 104.301 96.4523 104.879C98.188 105.458 100.109 106.031 101.266 102.756" stroke="#263238" stroke-miterlimit="10"/>
<path d="M95.099 96.8513C95.099 96.8513 94.8574 98.3005 91.4647 101.345C88.072 104.389 78.6633 106.03 82.2358 113.95C85.8083 121.87 92.8409 129.211 95.627 122.617C98.413 116.022 97.6098 105.766 100.042 104.592C102.474 103.418 110.069 104.44 112.214 99.3228C114.36 94.2056 108.602 84.1567 103.154 87.8471C99.8013 90.1768 97.0423 93.2609 95.099 96.8513V96.8513Z" fill="white" stroke="#263238" stroke-miterlimit="10"/>
<path d="M99.5201 124.571C99.5201 124.571 95.0994 108.905 95.0994 96.8508C95.0994 84.7965 93.8974 74.7587 96.7059 73.551C99.5145 72.3434 102.323 71.5457 103.941 72.7478C105.558 73.9498 104.744 90.4248 104.744 102.479C104.744 114.533 109.552 124.172 109.552 128.189C109.552 132.205 104.733 134.615 101.919 133.806C99.1044 132.997 99.5201 124.571 99.5201 124.571Z" fill="#D6D6D6" stroke="#263238" stroke-miterlimit="10"/>
<path d="M102.171 77.5957C102.171 77.5957 101.278 95.1435 102.469 103.474C103.66 111.804 106.041 121.915 106.339 125.779C106.637 129.644 107.227 130.273 104.255 130.835" stroke="#263238" stroke-miterlimit="10"/>
<path d="M139.958 125.618C139.958 125.618 136.335 123.523 139.177 111.794C142.019 100.066 141.884 97.5099 138.874 98.6951C137.976 99.0635 137.16 99.6083 136.476 100.297C135.792 100.986 135.253 101.805 134.891 102.706C134.891 102.706 135.335 97.6503 132.161 98.6502C131.284 98.9045 130.518 99.4492 129.991 100.195C129.463 100.941 129.205 101.844 129.257 102.756C129.257 102.756 126.319 94.8923 123.05 96.9426C119.781 98.9928 120.186 100.689 121.208 103.498C122.23 106.306 126.409 112.485 126.409 112.485C126.409 112.485 120.371 108.873 116.86 105.481C113.35 102.088 109.8 99.049 107.777 101.414C105.755 103.779 110.159 109.429 110.159 109.429C110.159 109.429 104.716 107.317 104.43 110.553C104.143 113.788 107.238 115.883 107.238 115.883C107.238 115.883 101.997 115.603 104.008 119.591C106.019 123.579 111.979 123.922 111.979 123.922C112.118 124.53 112.468 125.07 112.966 125.446C113.465 125.822 114.08 126.01 114.703 125.977C117.062 125.977 123.179 124.539 123.179 124.539C123.179 124.539 116.343 127.91 112.254 129.033C108.165 130.157 110.608 135.425 112.254 135.386C113.515 135.296 114.757 135.039 115.95 134.622C115.95 134.622 113.771 138.79 116.512 138.846C119.253 138.902 120.573 138.11 120.573 138.11C120.573 138.11 120.152 140.795 122.213 140.071C124.275 139.346 126.235 137.7 127.864 135.667C129.493 133.634 132.302 130.612 132.302 130.612C133.879 129.777 135.707 129.549 137.441 129.971L140.093 130.746L142.025 129.466L139.958 125.618Z" fill="#92E3A9" stroke="#263238" stroke-linecap="round" stroke-linejoin="round"/>
<path d="M114.36 117.163C113.053 116.441 111.797 115.628 110.603 114.73Z" fill="#92E3A9"/>
<path d="M114.36 117.163C113.053 116.441 111.797 115.628 110.603 114.73" stroke="#263238" stroke-linecap="round" stroke-linejoin="round"/>
<path d="M138.632 126.262C138.632 126.262 130.397 120.847 124.438 120.482C121.531 120.224 118.702 119.406 116.107 118.072" fill="#92E3A9"/>
<path d="M138.632 126.262C138.632 126.262 130.397 120.847 124.438 120.482C121.531 120.224 118.702 119.406 116.107 118.072" stroke="#263238" stroke-linecap="round" stroke-linejoin="round"/>
<path d="M131.099 115.635C131.857 118.949 132.509 120.864 134.07 122.415Z" fill="#92E3A9"/>
<path d="M131.099 115.635C131.857 118.949 132.509 120.864 134.07 122.415" stroke="#263238" stroke-linecap="round" stroke-linejoin="round"/>
<path d="M126.403 104.496C126.403 104.496 129.262 107.108 130.425 112.472C130.526 112.933 130.622 113.371 130.712 113.792" fill="#92E3A9"/>
<path d="M126.403 104.496C126.403 104.496 129.262 107.108 130.425 112.472C130.526 112.933 130.622 113.371 130.712 113.792" stroke="#263238" stroke-linecap="round" stroke-linejoin="round"/>
<path d="M128.465 128.213C128.132 128.429 127.814 128.665 127.51 128.921C124.179 131.729 121.432 134.015 118.686 134.319" fill="#92E3A9"/>
<path d="M128.465 128.213C128.132 128.429 127.814 128.665 127.51 128.921C124.179 131.729 121.432 134.015 118.686 134.319" stroke="#263238" stroke-linecap="round" stroke-linejoin="round"/>
<path d="M130.757 127.088C132.061 126.618 133.444 126.406 134.829 126.465Z" fill="#92E3A9"/>
<path d="M130.757 127.088C132.061 126.618 133.444 126.406 134.829 126.465" stroke="#263238" stroke-linecap="round" stroke-linejoin="round"/>
<path d="M129.543 139.946C129.543 139.946 117.938 124.943 117.938 122.05C117.938 119.157 123.331 102.39 126.415 104.513C129.498 106.637 139.137 124.943 138.368 132.262C137.598 139.581 133.06 142.637 129.543 139.946Z" fill="#919191" stroke="#263238" stroke-miterlimit="10"/>
<path d="M126.224 107.424C126.224 107.424 122.179 119.568 123.719 122.073C125.258 124.578 128.92 136.723 130.656 137.301C132.391 137.88 134.318 138.425 135.475 135.178" fill="#919191"/>
<path d="M126.224 107.424C126.224 107.424 122.179 119.568 123.719 122.073C125.258 124.578 128.92 136.723 130.656 137.301C132.391 137.88 134.318 138.425 135.475 135.178" stroke="#263238" stroke-miterlimit="10"/>
<path d="M114.664 87.9763C114.664 87.9763 112.586 95.1156 110.502 107.013C108.418 118.91 108.991 133.767 109.906 136.165C110.822 138.564 114.366 139.435 116.152 138.839C117.939 138.244 117.939 137.356 118.236 125.454C118.534 113.551 118.534 108.203 121.803 99.2779C125.072 90.3523 123.887 86.4877 121.506 84.4094C119.124 82.3311 117.046 81.4323 114.664 87.9763Z" fill="#D6D6D6" stroke="#263238" stroke-miterlimit="10"/>
<path d="M121.803 90.9531C118.934 96.6266 117.12 102.774 116.45 109.096C115.259 119.803 118.332 130.121 116.793 133.289C116.45 134.141 115.789 134.825 114.949 135.195C114.11 135.566 113.158 135.593 112.299 135.272" stroke="#263238" stroke-miterlimit="10"/>
<path d="M60.8857 96.6938C60.8857 96.6938 63.7729 103.541 69.6596 114.107C75.5463 124.673 85.3875 135.817 87.5894 137.098C89.7913 138.378 93.1166 136.822 94.1221 135.238C95.1276 133.654 94.5715 132.958 87.2973 123.538C80.0232 114.118 76.6248 109.961 73.5523 100.974C70.4797 91.9866 67.0982 89.7398 63.9414 89.6218C60.7846 89.5039 58.5995 90.1049 60.8857 96.6938Z" fill="#D6D6D6" stroke="#263238" stroke-miterlimit="10"/>
<path d="M68.2998 94.4922C69.6561 100.704 72.1304 106.618 75.602 111.945C81.4326 121.005 90.3245 127.077 91.1333 130.481C91.4039 131.36 91.3205 132.31 90.9008 133.128C90.4811 133.947 89.7583 134.569 88.8865 134.862" stroke="#263238" stroke-miterlimit="10"/>
<path d="M150.658 118.315C150.658 118.315 145.305 107.609 139.946 95.712C134.587 83.815 129.24 75.7825 126.561 79.6471C123.881 83.5116 123.887 94.8133 125.673 100.767C127.459 106.722 126.263 103.447 127.454 106.716C128.645 109.985 127.156 107.311 130.431 113.855C133.706 120.399 134.593 122.781 136.677 123.376C138.761 123.972 151.253 129.622 150.658 118.315Z" fill="#C2C2C2" stroke="#263238" stroke-miterlimit="10"/>
<path d="M132.807 91.5488C132.807 91.5488 133.7 93.9249 133.7 104.041C133.7 114.158 133.402 115.343 133.402 115.343" fill="#C2C2C2"/>
<path d="M132.807 91.5488C132.807 91.5488 133.7 93.9249 133.7 104.041C133.7 114.158 133.402 115.343 133.402 115.343" stroke="#263238" stroke-miterlimit="10"/>
<path d="M136.081 117.129C137.867 109.99 136.379 96.3066 136.379 96.3066Z" fill="#C2C2C2"/>
<path d="M136.081 117.129C137.867 109.99 136.379 96.3066 136.379 96.3066" stroke="#263238" stroke-miterlimit="10"/>
<path d="M139.648 102.873C139.648 102.873 140.244 112.686 138.463 120.421Z" fill="#C2C2C2"/>
<path d="M139.648 102.873C139.648 102.873 140.244 112.686 138.463 120.421" stroke="#263238" stroke-miterlimit="10"/>
<path d="M142.328 110.586C142.328 110.586 142.03 117.13 141.137 121.292Z" fill="#C2C2C2"/>
<path d="M142.328 110.586C142.328 110.586 142.03 117.13 141.137 121.292" stroke="#263238" stroke-miterlimit="10"/>
<path d="M130.133 83.2129C130.133 83.2129 142.328 104.035 147.085 117.123Z" fill="#C2C2C2"/>
<path d="M130.133 83.2129C130.133 83.2129 142.328 104.035 147.085 117.123" stroke="#263238" stroke-miterlimit="10"/>
<path d="M153.237 104.8C153.237 104.8 147.884 94.0882 142.53 82.1912C137.177 70.2942 131.819 62.2618 129.145 66.1319C126.471 70.0021 126.466 81.2981 128.252 87.2466C130.038 93.1951 128.847 89.926 130.032 93.1951C131.218 96.4643 129.74 93.7905 133.009 100.334C136.279 106.878 137.172 109.26 139.256 109.884C141.34 110.507 153.832 116.102 153.237 104.8Z" fill="#C2C2C2" stroke="#263238" stroke-miterlimit="10"/>
<path d="M135.391 78.0293C135.391 78.0293 136.284 80.4053 136.284 90.5217C136.284 100.638 135.986 101.823 135.986 101.823" fill="#C2C2C2"/>
<path d="M135.391 78.0293C135.391 78.0293 136.284 80.4053 136.284 90.5217C136.284 100.638 135.986 101.823 135.986 101.823" stroke="#263238" stroke-miterlimit="10"/>
<path d="M138.957 82.7852C138.957 82.7852 140.445 96.4684 138.659 103.608Z" fill="#C2C2C2"/>
<path d="M138.957 82.7852C138.957 82.7852 140.445 96.4684 138.659 103.608" stroke="#263238" stroke-miterlimit="10"/>
<path d="M142.232 89.3301C142.232 89.3301 142.827 99.1488 141.041 106.878Z" fill="#C2C2C2"/>
<path d="M142.232 89.3301C142.232 89.3301 142.827 99.1488 141.041 106.878" stroke="#263238" stroke-miterlimit="10"/>
<path d="M144.906 97.0645C144.906 97.0645 144.608 103.608 143.715 107.771Z" fill="#C2C2C2"/>
<path d="M144.906 97.0645C144.906 97.0645 144.608 103.608 143.715 107.771" stroke="#263238" stroke-miterlimit="10"/>
<path d="M132.711 69.6992C132.711 69.6992 144.906 90.5218 149.663 103.61Z" fill="#C2C2C2"/>
<path d="M132.711 69.6992C132.711 69.6992 144.906 90.5218 149.663 103.61" stroke="#263238" stroke-miterlimit="10"/>
<path d="M124.23 132.992C124.23 132.992 123.028 118.533 131.863 107.687C140.699 96.84 139.896 85.589 138.289 78.7586C136.683 71.9282 136.284 68.7152 139.497 71.1305C142.71 73.5459 149.54 77.9553 152.753 96.0368C155.966 114.118 163.6 141.833 165.207 159.106C166.813 176.378 168.015 190.842 171.234 200.082C174.452 209.322 170.026 216.552 165.617 220.169C161.207 223.787 155.573 220.169 153.562 212.535C151.551 204.902 124.23 132.992 124.23 132.992Z" fill="white" stroke="#263238" stroke-miterlimit="10"/>
<path d="M98.8793 129.919C98.8793 129.919 93.5431 119.207 88.2068 107.31C82.8706 95.4133 77.5006 87.3809 74.8213 91.2511C72.1419 95.1213 72.1475 106.417 73.9282 112.366C75.7088 118.314 74.5236 115.045 75.7144 118.314C76.9052 121.583 75.4167 118.91 78.6915 125.454C81.9662 131.998 82.8537 134.379 84.9377 134.975C87.0216 135.57 99.4972 141.221 98.8793 129.919Z" fill="#C2C2C2" stroke="#263238" stroke-miterlimit="10"/>
<path d="M81.0508 103.148C81.0508 103.148 81.9439 105.524 81.9439 115.641C81.9439 125.757 81.6462 126.942 81.6462 126.942" fill="#C2C2C2"/>
<path d="M81.0508 103.148C81.0508 103.148 81.9439 105.524 81.9439 115.641C81.9439 125.757 81.6462 126.942 81.6462 126.942" stroke="#263238" stroke-miterlimit="10"/>
<path d="M84.6239 107.928C84.6239 107.928 86.1124 121.611 84.3262 128.75Z" fill="#C2C2C2"/>
<path d="M84.6239 107.928C84.6239 107.928 86.1124 121.611 84.3262 128.75" stroke="#263238" stroke-miterlimit="10"/>
<path d="M87.8922 114.451C87.8922 114.451 88.4877 124.27 86.707 131.999Z" fill="#C2C2C2"/>
<path d="M87.8922 114.451C87.8922 114.451 88.4877 124.27 86.707 131.999" stroke="#263238" stroke-miterlimit="10"/>
<path d="M90.5717 122.186C90.5717 122.186 90.274 128.729 89.3809 132.892Z" fill="#C2C2C2"/>
<path d="M90.5717 122.186C90.5717 122.186 90.274 128.729 89.3809 132.892" stroke="#263238" stroke-miterlimit="10"/>
<path d="M78.377 94.8184C78.377 94.8184 90.5717 115.641 95.3294 128.729Z" fill="#C2C2C2"/>
<path d="M78.377 94.8184C78.377 94.8184 90.5717 115.641 95.3294 128.729" stroke="#263238" stroke-miterlimit="10"/>
<path d="M145.12 149.494C145.12 149.494 144.266 138.76 128.65 128.576C110.17 116.522 74.8159 118.932 63.9692 108.489C53.1226 98.0472 53.527 86.021 52.3194 91.6381C51.1117 97.2552 53.1226 114.938 61.1607 134.221C69.1988 153.505 100.127 171.581 108.563 178.035C117 184.489 131.863 208.963 132.268 214.99C132.672 221.017 135.481 230.257 141.103 232.667C146.726 235.076 155.966 222.623 158.376 201.335C160.786 180.046 145.12 149.494 145.12 149.494Z" fill="white" stroke="#263238" stroke-miterlimit="10"/>
<path d="M111.378 181.204C111.378 181.204 143.918 179.597 164.403 155.09L171.234 200.083C171.234 200.083 167.218 206.913 153.557 212.536C139.896 218.159 132.268 214.946 132.268 214.946L111.378 181.204Z" fill="#92E3A9" stroke="#263238" stroke-linecap="round" stroke-linejoin="round"/>
<path d="M110.799 68.0474C110.799 68.0474 107.046 65.3961 108.029 70.738C109.012 76.0799 110.456 77.1359 111.692 73.6982C112.928 70.2606 118.236 68.0474 119.427 71.3222C120.617 74.597 122.696 82.0284 124.184 82.0284C125.673 82.0284 123.937 78.3155 126.56 79.6467C129.183 80.978 125.97 86.1907 128.049 90.3586C130.127 94.5264 136.677 90.3586 136.081 87.0838C135.486 83.809 131.588 70.8784 131.588 70.8784C131.588 70.8784 125.667 76.3776 125.97 72.2097C126.274 68.0418 125.038 61.1328 123.274 60.1273C121.51 59.1218 121.937 69.2045 119.494 67.5868C117.05 65.9691 116.826 62.9752 114.556 64.4693C113.117 65.4487 111.847 66.6574 110.799 68.0474V68.0474Z" fill="white" stroke="#263238" stroke-miterlimit="10"/>
<path d="M132.801 191.336L152.955 193.352" stroke="#263238" stroke-miterlimit="10"/>
<path d="M146.237 195.701L154.298 196.712" stroke="#263238" stroke-miterlimit="10"/>
<path d="M107.99 155.27C108.934 156.017 109.232 157.214 108.653 157.938C108.074 158.663 106.844 158.646 105.901 157.899C104.957 157.152 104.659 155.95 105.238 155.225C105.816 154.501 107.046 154.517 107.99 155.27Z" fill="#263238"/>
<path d="M118.815 162.757C118.914 162.886 118.976 163.04 118.993 163.202C119.009 163.364 118.98 163.528 118.908 163.674C118.837 163.82 118.725 163.943 118.587 164.03C118.449 164.116 118.289 164.161 118.127 164.161C117.964 164.161 117.804 164.116 117.666 164.03C117.528 163.943 117.416 163.82 117.345 163.674C117.273 163.528 117.244 163.364 117.26 163.202C117.277 163.04 117.339 162.886 117.438 162.757C117.623 162.578 117.87 162.479 118.127 162.479C118.383 162.479 118.63 162.578 118.815 162.757Z" fill="#263238"/>
<path d="M124.746 151.742C124.846 151.87 124.908 152.024 124.924 152.187C124.941 152.349 124.912 152.512 124.84 152.658C124.768 152.804 124.657 152.928 124.519 153.014C124.381 153.1 124.221 153.146 124.058 153.146C123.895 153.146 123.736 153.1 123.597 153.014C123.459 152.928 123.348 152.804 123.276 152.658C123.205 152.512 123.175 152.349 123.192 152.187C123.209 152.024 123.27 151.87 123.37 151.742C123.555 151.563 123.801 151.463 124.058 151.463C124.315 151.463 124.562 151.563 124.746 151.742Z" fill="#263238"/>
<path d="M160.342 147.355C160.442 147.483 160.503 147.638 160.52 147.8C160.537 147.962 160.507 148.125 160.436 148.271C160.364 148.418 160.253 148.541 160.115 148.627C159.976 148.713 159.817 148.759 159.654 148.759C159.491 148.759 159.331 148.713 159.193 148.627C159.055 148.541 158.944 148.418 158.872 148.271C158.8 148.125 158.771 147.962 158.788 147.8C158.804 147.638 158.866 147.483 158.966 147.355C159.151 147.177 159.397 147.078 159.654 147.078C159.91 147.078 160.157 147.177 160.342 147.355V147.355Z" fill="#263238"/>
<path d="M155.668 156.681C156.066 156.445 156.141 155.835 155.834 155.317C155.528 154.799 154.957 154.569 154.559 154.805C154.161 155.04 154.087 155.65 154.393 156.169C154.7 156.687 155.271 156.916 155.668 156.681Z" fill="#263238"/>
<path d="M152.955 134.586C153 134.743 152.999 134.909 152.955 135.065C152.91 135.221 152.822 135.362 152.701 135.471C152.58 135.58 152.431 135.653 152.271 135.682C152.111 135.71 151.946 135.694 151.795 135.633C151.644 135.573 151.513 135.472 151.416 135.341C151.32 135.209 151.262 135.054 151.25 134.892C151.237 134.73 151.27 134.567 151.345 134.423C151.42 134.279 151.534 134.158 151.674 134.075C151.913 133.978 152.179 133.977 152.418 134.073C152.657 134.168 152.849 134.352 152.955 134.586Z" fill="#263238"/>
<path d="M149.191 220.395C149.235 220.55 149.234 220.715 149.189 220.87C149.143 221.024 149.056 221.164 148.936 221.271C148.815 221.379 148.668 221.451 148.509 221.479C148.35 221.507 148.186 221.49 148.036 221.43C147.887 221.37 147.757 221.269 147.661 221.139C147.565 221.009 147.508 220.855 147.496 220.694C147.483 220.533 147.516 220.372 147.59 220.229C147.665 220.086 147.778 219.966 147.916 219.884C148.154 219.787 148.419 219.786 148.657 219.882C148.895 219.977 149.087 220.161 149.191 220.395V220.395Z" fill="#263238"/>
<path d="M162.352 211.153C162.449 211.246 162.523 211.36 162.569 211.487C162.614 211.613 162.63 211.748 162.615 211.882C162.599 212.015 162.553 212.143 162.48 212.256C162.407 212.368 162.309 212.463 162.193 212.531C162.077 212.599 161.947 212.64 161.814 212.65C161.68 212.66 161.545 212.638 161.421 212.588C161.296 212.537 161.186 212.458 161.097 212.357C161.008 212.257 160.944 212.137 160.909 212.007C160.755 211.801 160.687 211.543 160.718 211.288C160.75 211.033 160.878 210.799 161.077 210.636C161.315 210.539 161.582 210.538 161.82 210.634C162.059 210.731 162.25 210.917 162.352 211.153Z" fill="#263238"/>
<path d="M160.668 216.524C160.713 216.68 160.712 216.846 160.667 217.003C160.622 217.159 160.535 217.3 160.414 217.409C160.293 217.518 160.144 217.591 159.984 217.619C159.824 217.648 159.659 217.631 159.508 217.571C159.357 217.51 159.226 217.409 159.129 217.278C159.033 217.147 158.975 216.992 158.963 216.829C158.95 216.667 158.983 216.505 159.058 216.36C159.133 216.216 159.247 216.096 159.387 216.013C159.625 215.916 159.892 215.915 160.131 216.01C160.37 216.106 160.562 216.29 160.668 216.524Z" fill="#263238"/>
<path d="M164.369 214.844C164.413 214.999 164.412 215.164 164.366 215.319C164.321 215.474 164.233 215.613 164.113 215.721C163.993 215.828 163.845 215.9 163.686 215.928C163.527 215.956 163.364 215.939 163.214 215.879C163.064 215.819 162.934 215.719 162.839 215.589C162.743 215.458 162.686 215.304 162.673 215.143C162.661 214.983 162.694 214.821 162.768 214.678C162.842 214.535 162.955 214.415 163.094 214.333C163.331 214.236 163.597 214.235 163.835 214.331C164.073 214.426 164.264 214.61 164.369 214.844V214.844Z" fill="#263238"/>
<path d="M87.4708 126.19C87.5153 126.346 87.5151 126.512 87.4701 126.668C87.4252 126.825 87.3374 126.965 87.2166 127.074C87.0958 127.183 86.9469 127.256 86.7868 127.285C86.6267 127.314 86.4617 127.297 86.3106 127.236C86.1595 127.176 86.0283 127.075 85.932 126.944C85.8356 126.813 85.7778 126.657 85.7653 126.495C85.7527 126.333 85.7859 126.17 85.861 126.026C85.936 125.882 86.0501 125.761 86.1901 125.679C86.4281 125.58 86.6951 125.578 86.9343 125.674C87.1734 125.769 87.3659 125.954 87.4708 126.19V126.19Z" fill="#263238"/>
<path d="M78.0959 146.339C78.1956 146.468 78.2573 146.622 78.2739 146.784C78.2905 146.946 78.2613 147.109 78.1896 147.256C78.1179 147.402 78.0066 147.525 77.8684 147.611C77.7302 147.697 77.5706 147.743 77.4078 147.743C77.2449 147.743 77.0853 147.697 76.9471 147.611C76.8089 147.525 76.6976 147.402 76.6259 147.256C76.5543 147.109 76.5251 146.946 76.5416 146.784C76.5582 146.622 76.6199 146.468 76.7197 146.339C76.9048 146.162 77.1513 146.062 77.4078 146.062C77.6642 146.062 77.9107 146.162 78.0959 146.339V146.339Z" fill="#263238"/>
<path d="M106.311 143.013C106.409 143.142 106.469 143.295 106.484 143.455C106.499 143.616 106.47 143.777 106.398 143.922C106.326 144.066 106.216 144.188 106.079 144.273C105.942 144.358 105.784 144.403 105.623 144.403C105.462 144.403 105.304 144.358 105.167 144.273C105.03 144.188 104.919 144.066 104.848 143.922C104.776 143.777 104.746 143.616 104.762 143.455C104.777 143.295 104.837 143.142 104.935 143.013C105.118 142.833 105.366 142.732 105.623 142.732C105.88 142.732 106.127 142.833 106.311 143.013V143.013Z" fill="#263238"/>
<path d="M142.879 102.346L139.177 111.794C139.177 111.794 134.998 117.635 134.071 122.416C133.52 125.345 133.661 128.363 134.481 131.229" fill="#C2C2C2"/>
<path d="M142.879 102.346L139.177 111.794C139.177 111.794 134.998 117.635 134.071 122.416C133.52 125.345 133.661 128.363 134.481 131.229" stroke="#263238" stroke-miterlimit="10"/>
<path d="M134.829 153.395C134.829 153.395 126.089 162.124 126.404 170.521Z" fill="#C2C2C2"/>
<path d="M134.829 153.395C134.829 153.395 126.089 162.124 126.404 170.521" stroke="#263238" stroke-miterlimit="10"/>
<path d="M122.73 167.83C122.73 167.83 120.377 173.543 115.007 174.885Z" fill="#C2C2C2"/>
<path d="M122.73 167.83C122.73 167.83 120.377 173.543 115.007 174.885" stroke="#263238" stroke-miterlimit="10"/>
<path d="M52 128.375L108.455 185L259 34" stroke="#29B067" stroke-width="21" stroke-linecap="round" stroke-linejoin="round"/>
</svg>
