<svg width="313" height="317" viewBox="0 0 313 317" fill="none" xmlns="http://www.w3.org/2000/svg">
<path d="M234.768 238.471C277.973 195.266 277.973 125.218 234.768 82.0135C191.564 38.809 121.515 38.809 78.3107 82.0135C35.1062 125.218 35.1062 195.266 78.3107 238.471C121.515 281.675 191.564 281.675 234.768 238.471Z" fill="#263238"/>
<path d="M156.579 271.28C95.3519 271.28 45.5449 221.465 45.5449 160.245C45.5449 99.0262 95.3117 49.2031 156.579 49.2031C217.847 49.2031 267.565 99.0181 267.565 160.245C267.565 221.473 217.766 271.28 156.579 271.28ZM156.579 50.0074C95.7942 50.0074 46.3492 99.4605 46.3492 160.245C46.3492 221.03 95.754 270.475 156.579 270.475C217.404 270.475 266.761 221.022 266.761 160.245C266.761 99.4685 217.316 50.0074 156.579 50.0074Z" fill="#263238"/>
<path d="M234.771 235.168C277.976 191.964 277.976 121.915 234.771 78.7108C191.566 35.5063 121.518 35.5063 78.3136 78.7108C35.1091 121.915 35.1091 191.964 78.3136 235.168C121.518 278.373 191.566 278.373 234.771 235.168Z" fill="white"/>
<path d="M156.579 267.973C95.3519 267.973 45.5449 218.166 45.5449 156.938C45.5449 95.7112 95.3117 45.9043 156.579 45.9043C217.847 45.9043 267.565 95.7112 267.565 156.938C267.565 218.166 217.766 267.973 156.579 267.973ZM156.579 46.7085C95.7942 46.7085 46.3492 96.1536 46.3492 156.938C46.3492 217.723 95.754 267.168 156.579 267.168C217.404 267.168 266.761 217.715 266.761 156.938C266.761 96.1616 217.316 46.7085 156.579 46.7085Z" fill="#263238"/>
<path d="M213.567 217.27C245.063 185.775 245.063 134.71 213.567 103.214C182.072 71.7185 131.007 71.7185 99.5114 103.214C68.0157 134.71 68.0157 185.774 99.5114 217.27C131.007 248.766 182.072 248.766 213.567 217.27Z" fill="white"/>
<path d="M156.58 241.287C140.547 241.297 124.871 236.551 111.536 227.651C98.2002 218.75 87.8041 206.094 81.6623 191.284C75.5205 176.474 73.909 160.176 77.0316 144.45C80.1542 128.724 87.8707 114.277 99.2049 102.937C110.539 91.5976 124.982 83.874 140.706 80.7436C156.431 77.6132 172.73 79.2166 187.543 85.351C202.356 91.4855 215.017 101.875 223.924 115.206C232.831 128.537 237.585 144.211 237.583 160.244C237.558 181.723 229.017 202.316 213.832 217.508C198.648 232.7 178.059 241.251 156.58 241.287ZM156.58 79.9959C140.708 79.9943 125.192 84.6994 111.994 93.5162C98.7966 102.333 88.5098 114.865 82.4348 129.529C76.3598 144.192 74.7695 160.327 77.8649 175.894C80.9604 191.461 88.6026 205.761 99.8251 216.984C111.048 228.208 125.346 235.852 140.913 238.949C156.48 242.046 172.615 240.457 187.279 234.383C201.943 228.31 214.476 218.024 223.295 204.828C232.113 191.631 236.819 176.115 236.819 160.244C236.796 138.969 228.335 118.573 213.292 103.529C198.25 88.4846 177.854 80.0215 156.58 79.9959Z" fill="#263238"/>
<path d="M188.668 93.8535C164.749 85.5778 131.647 94.8106 118.779 102.137C118.779 102.137 82.8932 120.538 79.2178 156.416C75.5424 192.293 102.187 226.337 150.949 235.554C199.71 244.77 232.829 196.95 232.829 162.874C232.829 128.798 212.586 102.137 188.668 93.8535ZM161.452 177.921C149.244 179.079 140.542 171.487 142.842 161.032C143.542 158.137 145.015 155.487 147.102 153.363C149.19 151.238 151.814 149.72 154.696 148.969C160.784 147.36 167.564 149.234 170.781 156.343C173.668 162.802 173.668 176.755 161.452 177.921Z" fill="#263238"/>
<path d="M187.703 90.9754C163.784 82.6916 130.666 91.8922 117.782 99.251C117.782 99.251 81.9042 117.652 78.2207 153.538C74.5373 189.423 101.222 223.491 149.984 232.659C198.745 241.828 231.864 194.056 231.864 159.98C231.864 125.904 211.629 99.251 187.703 90.9754ZM160.495 175.035C148.279 176.201 139.585 168.641 141.885 158.146C143.244 152.026 148.222 147.618 153.731 146.122C159.828 144.474 166.599 146.396 169.816 153.497C172.704 159.956 172.704 173.877 160.495 175.035Z" fill="#DBBE8F"/>
<path d="M162.16 234.227C158.049 234.216 153.948 233.823 149.911 233.052C126.467 228.629 107.181 218.367 94.1364 203.368C81.7752 189.157 75.9766 171.447 77.8183 153.504C81.4776 117.82 117.226 99.089 117.596 98.9041C129.982 91.8267 163.326 82.1114 187.839 90.6043C214.001 99.6359 232.266 128.179 232.266 159.954C232.266 180.68 220.467 204.389 202.903 218.946C194.016 226.337 180.271 234.227 162.16 234.227ZM166.028 88.0789C146.597 88.0789 126.869 94.5129 117.982 99.6038C117.612 99.7968 82.2336 118.335 78.6225 153.577C74.7621 191.24 104.133 223.594 150.056 232.264C173.998 236.776 191.732 227.189 202.388 218.351C219.784 203.939 231.461 180.479 231.461 159.979C231.461 128.516 213.414 100.295 187.574 91.3522C180.622 89.0793 173.341 87.9733 166.028 88.0789ZM158.026 175.557C152.332 175.557 147.434 173.635 144.354 170.12C142.938 168.49 141.94 166.54 141.445 164.439C140.951 162.337 140.975 160.147 141.515 158.056C142.238 155.098 143.748 152.39 145.884 150.22C148.021 148.05 150.704 146.497 153.651 145.727C160.728 143.813 167.218 146.797 170.186 153.319C172.14 157.622 172.679 164.852 169.824 169.782C167.894 173.112 164.781 175.002 160.551 175.412C159.682 175.517 158.846 175.557 158.026 175.557ZM157.841 146.001C156.482 146.001 155.13 146.183 153.82 146.54C151.016 147.271 148.463 148.746 146.429 150.808C144.395 152.871 142.955 155.445 142.262 158.257C141.755 160.22 141.731 162.277 142.193 164.25C142.655 166.224 143.59 168.056 144.917 169.589C148.294 173.417 153.956 175.219 160.438 174.64C164.387 174.262 167.299 172.501 169.084 169.412C171.81 164.716 171.288 157.807 169.414 153.689C166.848 148.003 162.208 146.001 157.841 146.001Z" fill="#263238"/>
<path d="M228.535 158.756C222.72 148.301 221.554 144.794 221.554 136.655C221.554 128.516 216.906 119.766 212.828 116.887C208.751 114.008 205.855 111.651 199.454 105.25C193.052 98.8478 184.334 96.5316 177.361 97.6897C170.388 98.8478 166.906 98.8559 158.164 97.6897C149.421 96.5236 149.445 94.2073 141.274 97.1107C133.103 100.014 117.461 105.266 117.461 105.266C117.461 105.266 100.571 112.247 97.6842 119.806C94.797 127.366 96.5261 141.328 94.2018 147.151C91.8776 152.974 85.4758 150.633 88.3791 164.04C91.2824 177.447 95.939 184.95 95.939 191.384C95.939 197.818 106.394 209.416 115.715 209.416C125.037 209.416 131.414 211.161 140.14 218.134C148.866 225.106 155.839 227.439 166.89 221.624C177.94 215.809 191.315 216.388 197.129 215.809C202.944 215.23 210.504 205.925 212.828 197.778C215.152 189.631 224.466 189.06 227.369 180.889C228.302 178.275 229.347 176.152 230.16 174.117C230.706 171.757 231.13 169.371 231.43 166.967C231.047 164.059 230.061 161.262 228.535 158.756ZM173.283 158.169C169.214 161.08 173.87 169.219 168.056 175.621C162.241 182.023 162.241 175.034 160.496 175.034C157.86 175.309 155.196 175.127 152.622 174.495C150.033 174.093 147.459 173.377 145.955 172.131C142.465 169.219 140.14 167.474 135.5 166.895C130.859 166.316 134.921 161.659 137.832 157.011C140.744 152.362 141.323 152.354 141.902 147.127C142.481 141.899 150.62 141.312 150.62 141.312C150.62 141.312 154.11 139.567 161.075 141.312C168.04 143.057 166.311 146.54 172.125 147.746C177.94 148.952 177.361 155.266 173.283 158.169Z" fill="#263238"/>
<path d="M155.46 225.261C149.895 225.261 145.15 222.591 139.89 218.384C130.81 211.146 124.392 209.755 115.715 209.755C105.911 209.755 95.5361 197.755 95.5361 191.321C95.5361 188.008 94.2493 184.316 92.6086 179.644C90.7337 174.559 89.1916 169.358 87.9923 164.074C85.9897 154.873 88.322 152.879 90.791 150.771C92.1163 149.793 93.1618 148.484 93.8231 146.975C94.9007 144.289 95.0857 139.737 95.2868 134.912C95.52 129.386 95.7532 123.652 97.3135 119.631C100.249 111.999 116.615 105.155 117.307 104.865C117.492 104.801 133.119 99.5892 141.169 96.718C146.799 94.6913 148.697 95.1658 152.059 96.0344C154.083 96.5826 156.141 96.999 158.219 97.281C166.937 98.4391 170.283 98.4391 177.288 97.281C185.105 95.9781 193.71 98.8895 199.742 104.954C205.943 111.154 208.862 113.543 213.069 116.543C217.275 119.543 221.956 128.413 221.956 136.649C221.956 144.587 223.057 148.061 228.888 158.556C230.43 161.103 231.432 163.939 231.832 166.888C231.836 166.918 231.836 166.948 231.832 166.977C231.535 169.395 231.108 171.795 230.553 174.167C230.223 174.971 229.885 175.775 229.523 176.628C228.936 177.987 228.325 179.386 227.754 180.979C226.282 185.097 223.234 187.332 220.283 189.488C217.331 191.643 214.371 193.815 213.229 197.82C210.953 205.782 203.45 215.513 197.145 216.14C196.027 216.253 194.635 216.317 193.035 216.398C186.215 216.736 175.912 217.25 167.05 221.907C162.683 224.231 158.911 225.253 155.46 225.261ZM147.635 96.1068C145.504 96.2078 143.406 96.6758 141.434 97.4901C133.392 100.369 117.741 105.581 117.589 105.637C117.436 105.693 100.876 112.626 98.0614 119.937C96.5495 123.861 96.3162 129.507 96.091 134.976C95.89 139.85 95.6969 144.458 94.571 147.273C93.8666 148.906 92.7429 150.324 91.3138 151.383C88.9011 153.417 86.8744 155.171 88.7724 163.905C89.9668 169.157 91.5008 174.325 93.3646 179.378C95.0294 184.123 96.3403 187.871 96.3403 191.321C96.3403 197.45 106.603 208.951 115.715 208.951C124.561 208.951 131.132 210.35 140.389 217.757C148.648 224.368 155.605 227.046 166.704 221.207C175.719 216.462 186.126 215.947 193.019 215.578C194.627 215.497 195.986 215.433 197.088 215.32C202.436 214.789 210.037 205.999 212.441 197.587C213.664 193.308 216.784 191.032 219.8 188.828C222.655 186.737 225.607 184.582 226.99 180.697C227.569 179.089 228.18 177.657 228.776 176.298C229.129 175.494 229.475 174.69 229.781 173.885C230.318 171.574 230.734 169.236 231.027 166.88C230.626 164.056 229.658 161.343 228.18 158.902C222.269 148.262 221.151 144.715 221.151 136.609C221.151 128.751 216.647 120.057 212.594 117.162C208.356 114.138 205.412 111.733 199.171 105.492C193.316 99.6374 184.984 96.7824 177.457 98.045C170.476 99.2032 166.865 99.2032 158.155 98.045C156.044 97.7598 153.954 97.338 151.898 96.7824C150.513 96.3689 149.08 96.1417 147.635 96.1068ZM164.066 178.719H163.817C162.61 178.59 161.951 177.48 161.404 176.58C161.082 176.025 160.744 175.446 160.455 175.446C157.787 175.727 155.09 175.542 152.485 174.899C149.316 174.4 147.008 173.58 145.657 172.486C142.279 169.671 139.971 167.918 135.395 167.347C134.18 167.194 133.432 166.768 133.102 166.052C132.387 164.444 134.043 161.975 135.974 159.079C136.464 158.347 136.963 157.599 137.429 156.843C137.896 156.087 138.362 155.388 138.732 154.817C140.542 152.034 140.976 151.375 141.442 147.128C142.03 141.844 149.565 141.04 150.466 140.96C151.029 140.71 154.56 139.351 161.13 140.96C163.57 141.433 165.777 142.717 167.395 144.603C168.584 146.086 170.286 147.068 172.165 147.353C174.577 147.844 176.186 149.259 176.66 151.375C177.199 153.892 175.856 156.843 173.484 158.565C171.787 159.779 171.746 162.007 171.698 164.83C171.642 168.191 171.57 172.365 168.312 175.952C166.599 177.818 165.232 178.719 164.066 178.719ZM160.455 174.641C161.259 174.641 161.677 175.381 162.144 176.169C162.61 176.958 163.109 177.826 163.921 177.915C164.733 178.003 166.125 177.11 167.757 175.349C170.814 171.987 170.878 168.111 170.974 164.757C171.031 161.822 171.071 159.288 173.09 157.849C175.253 156.305 176.427 153.691 175.953 151.479C175.575 149.726 174.199 148.528 172.084 148.101C170.043 147.783 168.192 146.72 166.889 145.118C165.38 143.34 163.308 142.134 161.018 141.7C154.294 140.019 150.86 141.651 150.828 141.7C150.781 141.724 150.728 141.738 150.675 141.74C150.595 141.74 142.858 142.367 142.327 147.201C141.828 151.64 141.338 152.396 139.488 155.243C139.118 155.814 138.684 156.473 138.193 157.262C137.703 158.05 137.22 158.782 136.722 159.522C135.113 161.991 133.384 164.54 133.915 165.714C134.116 166.149 134.679 166.43 135.58 166.519C140.405 167.114 142.761 168.931 146.252 171.835C147.49 172.872 149.67 173.636 152.686 174.119C155.225 174.743 157.853 174.926 160.455 174.657V174.641Z" fill="#263238"/>
<path d="M142.504 169.469C140.415 168.04 138.002 167.155 135.483 166.895C134.164 166.735 133.561 166.228 133.424 165.496C130.068 167.491 126.583 169.552 122.969 171.681C113.587 177.127 104.527 183.11 95.834 189.599C95.907 190.17 95.9446 190.745 95.9466 191.32C95.9466 193.87 97.6194 197.256 100.209 200.4C101.898 199.114 103.756 197.746 105.839 196.283C112.771 191.377 127.626 180.174 142.504 169.469Z" fill="white"/>
<path d="M100.201 200.802C100.143 200.802 100.085 200.789 100.032 200.764C99.9793 200.739 99.9327 200.703 99.8957 200.657C97.1291 197.304 95.5367 193.894 95.5367 191.32C95.5334 190.761 95.4958 190.202 95.4241 189.647C95.4168 189.577 95.4277 189.506 95.4559 189.441C95.4841 189.376 95.5285 189.32 95.5849 189.277C104.29 182.782 113.361 176.791 122.752 171.335C126.388 169.203 129.862 167.144 133.208 165.15C133.264 165.118 133.328 165.102 133.393 165.102C133.457 165.102 133.521 165.118 133.578 165.15C133.637 165.176 133.689 165.216 133.73 165.266C133.77 165.317 133.798 165.376 133.811 165.439C133.883 165.825 134.14 166.348 135.532 166.525C138.107 166.79 140.576 167.694 142.714 169.155C142.768 169.191 142.813 169.24 142.845 169.297C142.876 169.355 142.892 169.419 142.892 169.485C142.892 169.55 142.876 169.615 142.845 169.672C142.813 169.73 142.768 169.779 142.714 169.815C134.728 175.549 126.91 181.315 120.018 186.406C114.243 190.669 109.257 194.352 106.024 196.636C104.166 197.947 102.341 199.29 100.394 200.746C100.336 200.78 100.269 200.799 100.201 200.802ZM96.2605 189.784C96.3182 190.294 96.3478 190.807 96.349 191.32C96.349 193.604 97.8127 196.773 100.282 199.845C102.091 198.47 103.828 197.199 105.59 195.953C108.807 193.677 113.801 189.993 119.576 185.739C126.331 180.744 133.972 175.106 141.797 169.485C139.877 168.274 137.702 167.525 135.443 167.297C135.002 167.294 134.568 167.182 134.179 166.971C133.791 166.761 133.46 166.459 133.216 166.091C129.999 168.013 126.653 169.983 123.171 172.026C113.871 177.43 104.887 183.359 96.2605 189.784Z" fill="#263238"/>
<path d="M114.757 144.093C134.139 129.183 146.066 119.492 165.425 111.296C174.448 107.476 184.445 103.817 193.075 100.544C189.998 98.8909 186.625 97.8631 183.15 97.5195C180.737 98.3238 178.26 99.2165 175.856 100.109C155.749 107.565 138.579 114.272 112.489 137.386C102.541 146.192 94.2246 154.026 87.7344 160.347C87.8766 161.571 88.0806 162.787 88.3456 163.99C88.5628 164.972 88.7879 165.913 89.0212 166.837C94.6509 160.645 102.436 153.575 114.757 144.093Z" fill="white"/>
<path d="M89.0216 167.242H88.9251C88.8539 167.225 88.7885 167.19 88.7361 167.139C88.6836 167.088 88.6461 167.023 88.6275 166.952C88.3943 166.028 88.1691 165.079 87.96 164.089C87.6847 162.877 87.478 161.65 87.3407 160.414C87.3333 160.352 87.3404 160.289 87.3613 160.231C87.3822 160.172 87.4165 160.119 87.4614 160.076C95.2545 152.484 103.587 144.796 112.224 137.107C139.07 113.325 156.868 106.731 175.719 99.7497C178.06 98.8811 180.545 98.0125 183.014 97.16C183.069 97.1446 183.127 97.1446 183.183 97.16C186.714 97.5122 190.14 98.5562 193.268 100.232C193.336 100.269 193.393 100.324 193.431 100.392C193.468 100.459 193.486 100.536 193.48 100.614C193.475 100.691 193.448 100.765 193.402 100.827C193.356 100.89 193.292 100.937 193.22 100.964L188.113 102.894C180.617 105.709 172.832 108.621 165.594 111.741C147.579 119.357 136.15 128.172 118.851 141.498L114.991 144.474C103.418 153.369 95.2706 160.559 89.3353 167.162C89.2914 167.196 89.2409 167.221 89.1869 167.235C89.1329 167.249 89.0766 167.251 89.0216 167.242ZM88.2174 160.502C88.338 161.548 88.531 162.666 88.7964 163.904C88.9573 164.628 89.1181 165.328 89.287 166.012C95.2063 159.578 103.257 152.46 114.54 143.782L118.401 140.798C135.748 127.424 147.209 118.585 165.32 110.929C172.623 107.84 180.384 104.921 187.888 102.082L192.15 100.474C189.361 99.0985 186.349 98.2324 183.255 97.916C180.786 98.7605 178.365 99.621 176.057 100.474C157.278 107.43 139.544 113.993 112.811 137.67C104.214 145.286 95.9381 152.959 88.2174 160.502Z" fill="#263238"/>
<path d="M167.243 144.94C168.475 146.431 170.213 147.416 172.125 147.706C172.809 147.838 173.469 148.077 174.079 148.414L175.149 147.827C185.749 142.085 204.472 132.144 218.281 123.917C217.221 121.747 215.826 119.757 214.147 118.021C207.399 121.343 200.225 125.187 194.531 128.477C187.044 132.723 178.189 138.192 167.243 144.94Z" fill="white"/>
<path d="M174.079 148.816C174.012 148.816 173.945 148.799 173.886 148.767C173.311 148.448 172.69 148.223 172.044 148.1C170.051 147.787 168.239 146.761 166.945 145.213C166.906 145.17 166.876 145.119 166.858 145.063C166.84 145.008 166.834 144.949 166.841 144.891C166.847 144.832 166.866 144.774 166.898 144.724C166.931 144.674 166.974 144.632 167.026 144.601L168.562 143.652C178.969 137.218 187.188 132.176 194.298 128.09C200.426 124.592 207.584 120.788 213.937 117.635C214.012 117.597 214.096 117.584 214.178 117.597C214.261 117.61 214.337 117.648 214.396 117.707C216.107 119.475 217.527 121.503 218.602 123.715C218.649 123.805 218.659 123.91 218.63 124.007C218.602 124.105 218.537 124.187 218.449 124.238C206.892 131.13 191.982 139.165 181.092 145.036L175.301 148.156L174.497 148.607L174.264 148.743C174.209 148.781 174.145 148.806 174.079 148.816ZM167.838 145.02C168.977 146.258 170.508 147.068 172.173 147.312C172.824 147.438 173.455 147.655 174.047 147.955H174.087L174.891 147.497L180.674 144.368C191.459 138.562 206.184 130.624 217.669 123.796C216.692 121.877 215.453 120.104 213.986 118.528C207.713 121.624 200.683 125.364 194.684 128.814C187.55 132.892 179.339 137.95 168.948 144.36L167.838 145.02Z" fill="#263238"/>
<path d="M142.343 206.723C155.018 194.796 177.384 191.064 204.97 176.901C215.964 171.272 224.586 166.913 230.706 163.591C230.142 161.917 229.418 160.301 228.543 158.766C228.317 158.363 228.116 157.961 227.907 157.607C210.35 163.897 179.146 178.108 158.742 188.836C146.759 195.142 135.588 203.313 126.677 210.647C129.421 211.439 132.046 212.6 134.478 214.098C136.95 211.781 139.571 209.323 142.343 206.723Z" fill="white"/>
<path d="M134.478 214.49C134.405 214.488 134.333 214.468 134.269 214.434C131.867 212.954 129.275 211.807 126.564 211.024C126.494 211.003 126.43 210.964 126.381 210.91C126.331 210.856 126.297 210.79 126.283 210.718C126.268 210.646 126.273 210.572 126.297 210.502C126.321 210.433 126.363 210.372 126.419 210.324C136.379 201.975 147.157 194.654 158.589 188.473C179.797 177.31 210.865 163.292 227.754 157.22C227.845 157.188 227.943 157.19 228.033 157.224C228.123 157.257 228.198 157.321 228.245 157.405L228.88 158.563C229.766 160.122 230.502 161.762 231.076 163.461C231.103 163.551 231.098 163.648 231.063 163.736C231.028 163.823 230.965 163.896 230.883 163.943C226.323 166.42 220.476 169.404 213.077 173.192L205.139 177.213C193.727 183.076 183.199 187.162 173.902 190.757C160.543 195.936 149.992 200.03 142.609 206.97C139.837 209.587 137.215 212.043 134.743 214.337C134.711 214.379 134.672 214.414 134.626 214.441C134.58 214.467 134.53 214.484 134.478 214.49ZM127.513 210.469C129.933 211.234 132.254 212.282 134.43 213.589C136.826 211.354 139.373 208.968 142.07 206.432C149.565 199.37 160.182 195.261 173.62 190.049C182.893 186.454 193.405 182.385 204.785 176.538L212.723 172.476C219.961 168.777 225.703 165.833 230.215 163.396C229.665 161.858 228.985 160.371 228.181 158.949L227.714 158.096C210.72 164.217 179.974 178.106 158.935 189.18C147.783 195.22 137.257 202.351 127.513 210.469Z" fill="#263238"/>
<path d="M154.109 212.366C153.875 212.366 153.643 212.313 153.43 212.213C153.217 212.113 153.029 211.968 152.879 211.787C152.607 211.461 152.475 211.039 152.513 210.616C152.551 210.192 152.755 209.801 153.08 209.528C155.381 207.666 157.984 206.214 160.777 205.233C161.177 205.131 161.601 205.188 161.961 205.39C162.32 205.593 162.589 205.926 162.709 206.321C162.83 206.716 162.795 207.142 162.61 207.511C162.426 207.881 162.106 208.165 161.718 208.305C159.335 209.161 157.111 210.409 155.139 211.997C154.85 212.236 154.485 212.367 154.109 212.366Z" fill="#DBBE8F"/>
<path d="M181.767 197.336C181.627 197.037 181.582 196.702 181.639 196.376C181.696 196.05 181.853 195.75 182.086 195.516C182.32 195.282 182.62 195.126 182.946 195.069C183.272 195.012 183.607 195.057 183.907 195.197C186.566 196.489 188.984 198.228 191.056 200.336C191.343 200.656 191.491 201.077 191.468 201.506C191.445 201.935 191.252 202.337 190.932 202.624C190.612 202.911 190.191 203.059 189.762 203.036C189.333 203.013 188.931 202.82 188.644 202.5C186.861 200.7 184.786 199.215 182.507 198.109C182.18 197.943 181.919 197.671 181.767 197.336Z" fill="#DBBE8F"/>
<path d="M197.386 191.826C197.15 191.818 196.92 191.759 196.71 191.652C196.5 191.545 196.316 191.393 196.171 191.207C195.911 190.871 195.795 190.445 195.847 190.023C195.9 189.601 196.118 189.217 196.453 188.955C198.812 187.172 201.462 185.811 204.286 184.934C204.496 184.861 204.719 184.833 204.94 184.851C205.161 184.868 205.376 184.932 205.572 185.037C205.768 185.142 205.939 185.286 206.077 185.46C206.214 185.635 206.313 185.836 206.369 186.051C206.425 186.266 206.435 186.49 206.4 186.709C206.365 186.928 206.285 187.138 206.165 187.324C206.045 187.511 205.887 187.671 205.702 187.794C205.517 187.917 205.309 188 205.091 188.038C202.679 188.81 200.414 189.981 198.391 191.505C198.102 191.722 197.748 191.835 197.386 191.826Z" fill="white"/>
<path d="M109.329 204.021C109.303 203.692 109.379 203.364 109.545 203.08C109.711 202.796 109.961 202.57 110.26 202.433C110.559 202.295 110.893 202.252 111.217 202.31C111.541 202.369 111.839 202.525 112.072 202.758C114.123 204.889 115.788 207.36 116.994 210.06C117.137 210.453 117.122 210.886 116.952 211.267C116.782 211.649 116.47 211.95 116.082 212.105C115.695 212.261 115.262 212.26 114.875 212.102C114.488 211.944 114.178 211.641 114.01 211.259C112.958 208.956 111.532 206.845 109.788 205.01C109.524 204.743 109.362 204.394 109.329 204.021Z" fill="white"/>
<path d="M216.825 137.942C216.805 137.707 216.838 137.471 216.92 137.25C217.002 137.029 217.131 136.829 217.299 136.663C217.449 136.514 217.626 136.395 217.821 136.314C218.017 136.233 218.226 136.191 218.437 136.191C218.649 136.191 218.858 136.233 219.053 136.314C219.249 136.395 219.426 136.514 219.575 136.663C221.623 138.796 223.288 141.267 224.497 143.966C224.584 144.163 224.63 144.376 224.633 144.591C224.635 144.807 224.595 145.021 224.513 145.22C224.432 145.419 224.311 145.601 224.158 145.752C224.005 145.904 223.824 146.024 223.624 146.104C223.424 146.185 223.21 146.224 222.994 146.22C222.779 146.216 222.566 146.169 222.37 146.081C222.173 145.993 221.996 145.867 221.848 145.709C221.701 145.552 221.588 145.366 221.514 145.164C220.466 142.857 219.036 140.744 217.283 138.915C217.023 138.653 216.861 138.309 216.825 137.942Z" fill="white"/>
<path d="M117.17 156.263C117.144 155.935 117.219 155.606 117.386 155.322C117.552 155.038 117.802 154.812 118.101 154.675C118.4 154.537 118.734 154.494 119.058 154.553C119.382 154.611 119.68 154.767 119.913 155C121.96 157.137 123.625 159.61 124.835 162.311C124.978 162.703 124.963 163.136 124.793 163.518C124.623 163.899 124.311 164.2 123.923 164.356C123.536 164.511 123.102 164.51 122.716 164.352C122.329 164.194 122.019 163.892 121.851 163.509C120.803 161.202 119.373 159.089 117.62 157.26C117.358 156.99 117.199 156.638 117.17 156.263Z" fill="white"/>
<path d="M98.9142 130.905C98.8882 130.577 98.9635 130.249 99.13 129.965C99.2964 129.681 99.546 129.455 99.845 129.317C100.144 129.18 100.478 129.137 100.802 129.195C101.126 129.253 101.424 129.41 101.657 129.643C103.702 131.781 105.367 134.254 106.579 136.953C106.722 137.346 106.707 137.779 106.537 138.16C106.367 138.542 106.055 138.842 105.667 138.998C105.28 139.154 104.847 139.153 104.46 138.995C104.073 138.837 103.763 138.534 103.595 138.152C102.547 135.845 101.117 133.732 99.3646 131.903C99.1025 131.633 98.9432 131.28 98.9142 130.905Z" fill="white"/>
<path d="M131.317 195.399C130.988 195.386 130.671 195.273 130.409 195.074C130.146 194.876 129.951 194.601 129.849 194.288C129.748 193.975 129.744 193.639 129.84 193.324C129.936 193.009 130.125 192.731 130.384 192.527C132.743 190.744 135.393 189.383 138.217 188.506C138.427 188.434 138.65 188.405 138.871 188.423C139.092 188.441 139.307 188.504 139.503 188.609C139.699 188.714 139.87 188.858 140.008 189.033C140.145 189.207 140.244 189.408 140.3 189.623C140.356 189.838 140.366 190.062 140.331 190.281C140.296 190.5 140.216 190.71 140.096 190.897C139.976 191.083 139.818 191.243 139.633 191.366C139.449 191.489 139.24 191.572 139.022 191.611C136.61 192.382 134.345 193.554 132.322 195.077C132.033 195.294 131.679 195.408 131.317 195.399Z" fill="white"/>
<path d="M170.323 125.322C170.235 125.104 170.196 124.869 170.208 124.635C170.221 124.4 170.285 124.171 170.395 123.963C170.595 123.587 170.936 123.306 171.343 123.18C171.75 123.055 172.19 123.097 172.567 123.296C175.158 124.727 177.484 126.594 179.443 128.813C179.589 128.975 179.7 129.165 179.77 129.371C179.84 129.578 179.868 129.796 179.851 130.013C179.834 130.231 179.773 130.442 179.671 130.635C179.57 130.828 179.431 130.999 179.262 131.136C179.093 131.274 178.897 131.375 178.688 131.435C178.478 131.495 178.258 131.511 178.042 131.483C177.826 131.456 177.618 131.384 177.43 131.274C177.242 131.163 177.079 131.015 176.95 130.839C175.26 128.965 173.267 127.388 171.055 126.175C170.716 125.988 170.457 125.685 170.323 125.322Z" fill="white"/>
<path d="M194.829 109.215C194.5 109.202 194.183 109.089 193.92 108.891C193.658 108.692 193.463 108.418 193.361 108.105C193.259 107.792 193.256 107.455 193.352 107.14C193.447 106.825 193.637 106.548 193.896 106.344C196.257 104.563 198.906 103.203 201.729 102.323C202.141 102.212 202.58 102.269 202.949 102.482C203.318 102.695 203.588 103.045 203.7 103.457C203.81 103.868 203.753 104.307 203.54 104.677C203.328 105.046 202.977 105.316 202.566 105.427C200.153 106.2 197.888 107.375 195.866 108.901C195.567 109.123 195.2 109.234 194.829 109.215Z" fill="white"/>
<path d="M120.187 139.574C119.858 139.562 119.541 139.448 119.279 139.25C119.016 139.051 118.821 138.777 118.719 138.464C118.618 138.151 118.614 137.815 118.71 137.5C118.806 137.185 118.996 136.907 119.254 136.703C121.613 134.92 124.263 133.559 127.088 132.682C127.297 132.609 127.52 132.581 127.741 132.599C127.962 132.617 128.178 132.68 128.373 132.785C128.569 132.89 128.741 133.034 128.878 133.208C129.015 133.383 129.114 133.584 129.17 133.799C129.226 134.014 129.236 134.238 129.201 134.457C129.166 134.676 129.086 134.886 128.966 135.072C128.846 135.259 128.688 135.419 128.504 135.542C128.319 135.665 128.11 135.748 127.892 135.786C125.48 136.558 123.215 137.729 121.192 139.253C120.905 139.473 120.549 139.587 120.187 139.574Z" fill="white"/>
<path d="M146.179 184.886C146.04 184.588 145.997 184.254 146.054 183.929C146.111 183.605 146.266 183.306 146.498 183.073C146.731 182.84 147.029 182.683 147.353 182.625C147.677 182.567 148.011 182.609 148.311 182.747C150.975 184.034 153.397 185.773 155.468 187.886C155.754 188.206 155.901 188.627 155.877 189.055C155.853 189.483 155.66 189.884 155.34 190.17C155.02 190.456 154.599 190.603 154.171 190.579C153.743 190.555 153.341 190.362 153.056 190.042C151.267 188.247 149.19 186.765 146.911 185.658C146.589 185.489 146.331 185.218 146.179 184.886Z" fill="#DBBE8F"/>
<path d="M202.96 154.131C202.86 153.917 202.808 153.683 202.808 153.447C202.808 153.211 202.86 152.977 202.96 152.764C203.047 152.57 203.171 152.395 203.326 152.249C203.481 152.104 203.663 151.99 203.862 151.915C204.061 151.841 204.273 151.806 204.485 151.814C204.698 151.821 204.906 151.871 205.099 151.959C207.763 153.245 210.182 154.984 212.249 157.098C212.391 157.257 212.5 157.442 212.57 157.642C212.64 157.843 212.67 158.055 212.658 158.267C212.646 158.479 212.592 158.687 212.5 158.878C212.408 159.07 212.279 159.241 212.12 159.382C211.962 159.524 211.777 159.633 211.577 159.703C211.376 159.773 211.164 159.803 210.952 159.791C210.74 159.779 210.532 159.726 210.341 159.633C210.149 159.541 209.978 159.412 209.836 159.254C208.052 157.458 205.977 155.976 203.7 154.871C203.378 154.713 203.117 154.453 202.96 154.131Z" fill="#DBBE8F"/>
<path d="M202.991 128.742C202.731 128.947 202.414 129.066 202.083 129.084C201.752 129.101 201.424 129.016 201.143 128.84C200.862 128.664 200.642 128.406 200.514 128.1C200.386 127.795 200.355 127.457 200.426 127.133C201.083 124.247 202.233 121.496 203.828 119.002C203.943 118.817 204.095 118.657 204.274 118.532C204.453 118.407 204.655 118.32 204.869 118.276C205.083 118.231 205.303 118.231 205.517 118.275C205.731 118.319 205.933 118.405 206.113 118.53C206.292 118.655 206.444 118.814 206.559 118.999C206.675 119.185 206.751 119.391 206.785 119.607C206.818 119.823 206.806 120.043 206.752 120.254C206.697 120.466 206.6 120.664 206.466 120.836C205.119 122.98 204.14 125.334 203.571 127.801C203.495 128.173 203.29 128.506 202.991 128.742Z" fill="#DBBE8F"/>
<path d="M145.496 136.238C145.31 136.384 145.094 136.487 144.863 136.54C144.632 136.592 144.392 136.594 144.161 136.543C143.746 136.453 143.383 136.201 143.153 135.844C142.922 135.487 142.842 135.053 142.931 134.637C143.587 131.755 144.735 129.007 146.325 126.514C146.44 126.329 146.591 126.169 146.77 126.044C146.949 125.919 147.152 125.831 147.365 125.787C147.579 125.743 147.8 125.743 148.014 125.787C148.227 125.83 148.43 125.917 148.609 126.042C148.789 126.166 148.941 126.326 149.056 126.511C149.172 126.696 149.248 126.903 149.281 127.119C149.314 127.335 149.303 127.555 149.248 127.766C149.193 127.977 149.096 128.175 148.963 128.348C147.616 130.491 146.64 132.846 146.075 135.313C145.992 135.677 145.788 136.003 145.496 136.238Z" fill="#DBBE8F"/>
<path d="M100.136 170.522C99.8755 170.727 99.5581 170.847 99.2272 170.864C98.8963 170.882 98.568 170.797 98.2873 170.621C98.0065 170.445 97.787 170.186 97.6587 169.881C97.5304 169.575 97.4996 169.238 97.5704 168.914C98.2278 166.03 99.3787 163.282 100.972 160.791C101.225 160.465 101.593 160.249 102 160.187C102.408 160.124 102.823 160.22 103.162 160.456C103.5 160.691 103.735 161.047 103.819 161.451C103.902 161.854 103.828 162.275 103.61 162.625C102.263 164.768 101.285 167.123 100.715 169.589C100.637 169.959 100.432 170.289 100.136 170.522Z" fill="#DBBE8F"/>
<path d="M175.238 107.14C175.099 106.842 175.055 106.508 175.112 106.183C175.169 105.859 175.324 105.56 175.557 105.327C175.789 105.094 176.088 104.937 176.412 104.879C176.736 104.821 177.07 104.863 177.369 105.001C180.031 106.292 182.452 108.03 184.527 110.14C184.669 110.299 184.778 110.483 184.849 110.684C184.92 110.885 184.95 111.097 184.938 111.31C184.927 111.522 184.874 111.731 184.782 111.922C184.69 112.114 184.561 112.286 184.402 112.428C184.244 112.57 184.059 112.68 183.858 112.75C183.658 112.821 183.445 112.851 183.232 112.84C183.02 112.828 182.812 112.775 182.62 112.683C182.428 112.591 182.256 112.462 182.114 112.304C180.329 110.507 178.254 109.023 175.978 107.912C175.65 107.747 175.389 107.474 175.238 107.14Z" fill="#DBBE8F"/>
<path d="M138.796 103.787C138.658 103.488 138.614 103.154 138.671 102.83C138.728 102.506 138.883 102.207 139.115 101.973C139.348 101.74 139.646 101.584 139.97 101.525C140.294 101.467 140.629 101.51 140.928 101.647C143.59 102.939 146.011 104.677 148.086 106.787C148.372 107.107 148.52 107.527 148.497 107.956C148.474 108.386 148.281 108.788 147.961 109.075C147.641 109.362 147.22 109.51 146.791 109.486C146.362 109.463 145.96 109.27 145.673 108.95C143.885 107.156 141.811 105.672 139.536 104.559C139.209 104.393 138.948 104.121 138.796 103.787Z" fill="#DBBE8F"/>
<path d="M210.817 181.67C210.716 181.456 210.664 181.223 210.664 180.986C210.664 180.75 210.716 180.516 210.817 180.303C210.903 180.109 211.028 179.934 211.183 179.788C211.337 179.643 211.52 179.529 211.719 179.454C211.917 179.38 212.129 179.345 212.342 179.353C212.554 179.36 212.763 179.41 212.956 179.498C215.619 180.784 218.038 182.523 220.106 184.637C220.248 184.796 220.357 184.981 220.428 185.181C220.498 185.382 220.529 185.595 220.517 185.807C220.506 186.02 220.452 186.228 220.36 186.42C220.268 186.612 220.139 186.784 219.981 186.926C219.823 187.068 219.638 187.177 219.437 187.248C219.236 187.318 219.024 187.349 218.811 187.337C218.599 187.326 218.391 187.272 218.199 187.18C218.007 187.088 217.835 186.959 217.693 186.801C215.91 185.001 213.835 183.517 211.556 182.41C211.234 182.252 210.974 181.992 210.817 181.67Z" fill="#DBBE8F"/>
<path d="M186.834 163.518C187.047 163.419 187.279 163.367 187.514 163.367C187.748 163.367 187.98 163.419 188.193 163.518C188.579 163.693 188.88 164.014 189.03 164.41C189.181 164.806 189.169 165.246 188.997 165.633C187.771 168.316 186.086 170.766 184.019 172.871C183.866 173.017 183.685 173.13 183.487 173.206C183.29 173.281 183.079 173.317 182.868 173.311C182.656 173.305 182.448 173.257 182.255 173.171C182.062 173.084 181.888 172.961 181.743 172.807C181.452 172.497 181.295 172.085 181.307 171.66C181.319 171.235 181.499 170.832 181.807 170.539C183.562 168.712 185 166.606 186.062 164.306C186.218 163.96 186.492 163.681 186.834 163.518Z" fill="#DBBE8F"/>
<path d="M120.17 114.225C120.465 114.079 120.798 114.027 121.124 114.077C121.45 114.127 121.753 114.275 121.991 114.502C122.23 114.729 122.393 115.024 122.458 115.347C122.524 115.67 122.489 116.006 122.357 116.308C121.121 118.988 119.435 121.436 117.371 123.546C117.058 123.819 116.652 123.96 116.238 123.941C115.823 123.921 115.432 123.742 115.146 123.441C114.861 123.14 114.703 122.74 114.705 122.325C114.708 121.91 114.87 121.512 115.159 121.214C116.914 119.387 118.352 117.28 119.414 114.981C119.572 114.65 119.839 114.383 120.17 114.225Z" fill="#DBBE8F"/>
<path d="M180.047 211.732C180.345 211.581 180.682 211.527 181.012 211.576C181.342 211.626 181.648 211.777 181.889 212.009C182.129 212.24 182.291 212.541 182.353 212.869C182.415 213.197 182.374 213.536 182.234 213.839C180.998 216.519 179.311 218.967 177.248 221.077C176.935 221.35 176.529 221.491 176.115 221.472C175.7 221.452 175.309 221.273 175.023 220.972C174.738 220.671 174.58 220.271 174.582 219.856C174.584 219.441 174.747 219.043 175.036 218.745C176.791 216.918 178.229 214.811 179.291 212.512C179.445 212.172 179.712 211.896 180.047 211.732Z" fill="#DBBE8F"/>
<path d="M156.41 81.2832H155.364C142.291 81.2909 129.427 84.5715 117.947 90.8258C106.466 97.0802 96.7346 106.109 89.6389 117.089C82.5431 128.07 78.3093 140.652 77.3235 153.688C76.3378 166.724 78.6315 179.8 83.9954 191.722L156.378 157.26L156.41 81.2832Z" fill="white"/>
<path opacity="0.3" d="M166.117 74.6333C170.218 68.5532 172.173 64.1781 173.106 59.8674V59.7226C173.162 59.4492 173.218 59.1757 173.266 58.9184C173.315 58.661 173.339 58.5162 173.371 58.3152L173.492 57.5109C173.492 57.3018 173.548 57.1008 173.572 56.8917C173.596 56.6826 173.628 56.3448 173.661 56.0874C173.693 55.8301 173.701 55.6531 173.717 55.436C173.733 55.2188 173.717 54.8891 173.773 54.6317C173.829 54.3744 173.773 54.1653 173.813 53.932C173.854 53.6988 173.813 53.3932 173.813 53.1278V52.3235V51.5193C173.813 51.1976 173.813 50.8598 173.813 50.5301C173.813 50.2003 173.813 50.0958 173.813 49.8786C173.813 49.3157 173.813 48.7446 173.813 48.1575C173.813 48.053 173.813 47.9243 173.813 47.7795C173.813 47.7152 173.813 47.6348 173.813 47.5624C173.813 47.49 173.813 47.4016 173.813 47.3131V47.2327C173.813 47.1362 173.813 47.0316 173.813 46.9351C173.813 46.8386 173.813 46.7742 173.813 46.6938V46.5812C173.813 46.4525 173.813 46.3158 173.813 46.1791C173.813 46.0424 173.813 46.0343 173.813 45.962C173.612 42.568 173.146 36.7694 172.856 34.0832C172.309 28.9924 171.368 14.7331 168.578 10.7601H168.513V53.5138C168.459 53.8871 168.273 54.2284 167.988 54.4753C167.703 54.7222 167.338 54.8581 166.961 54.8581C166.584 54.8581 166.22 54.7222 165.934 54.4753C165.649 54.2284 165.463 53.8871 165.409 53.5138V25.0113C165.41 20.1497 164.667 15.3165 163.205 10.6797L162.795 12.4973C162.024 15.929 161.633 19.4352 161.629 22.9525V53.5138C161.582 53.8911 161.398 54.2382 161.113 54.4899C160.828 54.7415 160.461 54.8804 160.081 54.8804C159.701 54.8804 159.333 54.7415 159.048 54.4899C158.763 54.2382 158.58 53.8911 158.533 53.5138V24.3358C158.53 19.9187 157.916 15.5233 156.707 11.2748L156.538 10.6797L156.233 11.87C155.244 15.7275 154.744 19.6941 154.745 23.6763V53.5138C154.697 53.8911 154.514 54.2382 154.229 54.4899C153.944 54.7415 153.577 54.8804 153.197 54.8804C152.816 54.8804 152.449 54.7415 152.164 54.4899C151.879 54.2382 151.696 53.8911 151.648 53.5138V10.6797C148.93 14.5642 147.941 28.92 147.394 33.6489C147.064 36.5121 146.59 42.4313 146.405 45.8896C146.405 45.97 146.405 46.0424 146.405 46.1228C146.405 46.2032 146.405 46.348 146.405 46.4606V46.6134C146.405 46.6938 146.405 46.7662 146.405 46.8466C146.405 46.9271 146.405 47.0396 146.405 47.1362V47.2407C146.405 47.3292 146.405 47.4016 146.405 47.49C146.409 47.557 146.409 47.6241 146.405 47.6911V48.1656C146.405 57.4144 145.48 65.3765 152.943 74.4886C155.469 77.8924 156.839 82.0158 156.852 86.2547C156.852 97.7715 156.442 121.368 155.243 136.351C154.672 143.244 153.675 150.216 152.758 155.75C152.573 156.867 152.388 157.929 152.211 158.926V159.071C152.059 159.924 151.922 160.72 151.785 161.484C151.745 161.669 151.713 161.854 151.681 162.031L151.608 162.433C151.544 162.738 151.487 163.044 151.431 163.326C151.326 163.869 151.28 164.421 151.294 164.974C151.294 165.256 151.294 165.529 151.359 165.779C151.429 166.327 151.559 166.866 151.745 167.387C152.029 168.166 152.433 168.896 152.943 169.55C154.033 170.933 155.562 171.904 157.278 172.301C157.848 172.433 158.43 172.5 159.015 172.502H160.543C161.713 172.503 162.867 172.237 163.919 171.726C164.971 171.215 165.893 170.471 166.615 169.55C166.958 169.113 167.254 168.641 167.5 168.143C167.62 167.898 167.724 167.645 167.814 167.387C168.278 166.086 168.389 164.684 168.135 163.326C168.079 163.044 168.015 162.73 167.958 162.417L167.894 162.087L167.773 161.411C167.717 161.114 167.661 160.8 167.605 160.487C167.605 160.374 167.564 160.269 167.54 160.165C167.492 159.902 167.444 159.634 167.395 159.361V159.304C167.291 158.709 167.178 158.074 167.066 157.422C167.009 157.093 166.953 156.747 166.897 156.401C165.948 150.771 164.894 143.533 164.307 136.383C163.077 121.4 162.047 97.7795 162.699 86.2868C163.012 77.7458 165.144 76.2257 166.117 74.6333Z" fill="black"/>
<path d="M160.423 84.6776C160.874 76.2169 162.997 74.6889 163.97 73.1045C171.49 61.9657 171.811 56.6255 171.811 46.5644C171.811 44.6342 171.128 35.9242 170.758 32.4579C170.211 27.367 169.27 13.1077 166.479 9.13477H166.415V51.9769C166.361 52.3502 166.174 52.6915 165.889 52.9384C165.604 53.1853 165.24 53.3212 164.863 53.3212C164.485 53.3212 164.121 53.1853 163.836 52.9384C163.551 52.6915 163.364 52.3502 163.31 51.9769V23.4745C163.312 18.6154 162.569 13.7847 161.107 9.15085L160.697 10.9684C159.925 14.4001 159.534 17.9063 159.53 21.4236V51.9769C159.477 52.3502 159.29 52.6915 159.005 52.9384C158.72 53.1853 158.355 53.3212 157.978 53.3212C157.601 53.3212 157.237 53.1853 156.952 52.9384C156.666 52.6915 156.48 52.3502 156.426 51.9769V22.8069C156.428 18.3869 155.814 13.9882 154.6 9.73795L154.44 9.15085L154.166 10.3653C153.178 14.2229 152.678 18.1894 152.678 22.1716V52.0091C152.631 52.3864 152.448 52.7335 152.163 52.9852C151.878 53.2368 151.51 53.3757 151.13 53.3757C150.75 53.3757 150.383 53.2368 150.098 52.9852C149.812 52.7335 149.629 52.3864 149.582 52.0091V9.15085C146.831 13.0273 145.842 27.3911 145.319 32.0799C144.893 35.7714 144.242 44.5216 144.242 46.5563C144.242 55.8052 143.325 63.7752 150.788 72.8793C153.315 76.2831 154.684 80.4065 154.697 84.6454C154.697 96.1622 154.287 119.759 153.088 134.75C152.262 143.795 150.981 152.792 149.252 161.708C149.027 162.8 149.041 163.927 149.292 165.012C149.543 166.098 150.026 167.116 150.708 167.997C151.43 168.917 152.352 169.661 153.404 170.172C154.456 170.683 155.61 170.949 156.78 170.949H158.308C159.478 170.95 160.632 170.684 161.684 170.173C162.736 169.662 163.658 168.918 164.38 167.997C165.063 167.129 165.553 166.124 165.815 165.05C166.077 163.976 166.106 162.859 165.9 161.773C164.163 152.858 162.883 143.86 162.064 134.814C160.833 119.791 159.796 96.1783 160.423 84.6776Z" fill="#D9D9D9"/>
<path d="M158.308 171.319H156.78C155.584 171.32 154.402 171.055 153.32 170.546C152.238 170.036 151.281 169.294 150.519 168.372C149.757 167.45 149.208 166.371 148.911 165.212C148.614 164.053 148.577 162.843 148.802 161.669C150.528 152.766 151.806 143.782 152.63 134.75C153.836 120.097 154.238 96.7819 154.238 84.678C154.213 80.5345 152.876 76.5055 150.418 73.1693C143.614 64.8534 143.687 57.3096 143.767 49.3234C143.767 48.4226 143.767 47.5138 143.767 46.589C143.767 44.5623 144.427 35.7397 144.853 32.0723C144.933 31.3324 145.03 30.3673 145.142 29.2494C145.77 22.9039 146.815 12.2798 149.164 8.91807C149.213 8.84769 149.283 8.79486 149.364 8.76734C149.446 8.73981 149.534 8.73901 149.615 8.76508C149.697 8.79114 149.769 8.84269 149.819 8.91218C149.869 8.98168 149.896 9.06547 149.895 9.15131V51.9774C149.946 52.2446 150.088 52.4858 150.297 52.6594C150.506 52.8329 150.77 52.9279 151.042 52.9279C151.313 52.9279 151.577 52.8329 151.786 52.6594C151.995 52.4858 152.137 52.2446 152.188 51.9774V22.1399C152.188 18.1249 152.693 14.1259 153.692 10.237L153.989 9.04675C154.011 8.96104 154.061 8.8851 154.131 8.83113C154.201 8.77716 154.287 8.7483 154.375 8.74918C154.463 8.74999 154.548 8.77838 154.619 8.83035C154.69 8.88231 154.742 8.9552 154.769 9.03871L154.938 9.62581C156.16 13.913 156.78 18.3494 156.78 22.8074V51.9774C156.83 52.2446 156.972 52.4858 157.181 52.6594C157.391 52.8329 157.654 52.9279 157.926 52.9279C158.198 52.9279 158.461 52.8329 158.67 52.6594C158.88 52.4858 159.022 52.2446 159.072 51.9774V21.4563C159.072 17.8984 159.465 14.3515 160.246 10.8804L160.656 9.06284C160.676 8.97614 160.723 8.89834 160.792 8.84159C160.86 8.78484 160.945 8.75235 161.034 8.74918C161.124 8.74218 161.212 8.76643 161.286 8.81778C161.359 8.86913 161.412 8.94439 161.436 9.03067C162.911 13.7145 163.66 18.5966 163.656 23.5071V51.9774C163.702 52.2494 163.842 52.4964 164.053 52.6746C164.263 52.8528 164.53 52.9505 164.806 52.9505C165.082 52.9505 165.349 52.8528 165.559 52.6746C165.77 52.4964 165.911 52.2494 165.956 51.9774V9.15131C165.956 9.04466 165.999 8.94237 166.074 8.86696C166.149 8.79155 166.252 8.74918 166.358 8.74918C166.432 8.74887 166.505 8.76369 166.573 8.79274C166.641 8.8218 166.702 8.86445 166.752 8.91807C169.165 12.4246 170.227 23.2819 170.838 29.7722C170.935 30.8096 171.023 31.7104 171.103 32.4342C171.457 35.7718 172.157 44.6025 172.157 46.589C172.157 56.7305 171.819 62.1029 164.243 73.3301C164.098 73.5634 163.922 73.8046 163.729 74.0781C162.699 75.4936 161.147 77.6328 160.769 84.7022C160.166 95.9616 161.147 119.438 162.377 134.75C163.193 143.783 164.471 152.767 166.206 161.669C166.431 162.844 166.393 164.055 166.096 165.214C165.799 166.374 165.249 167.453 164.486 168.375C163.723 169.297 162.765 170.039 161.682 170.548C160.599 171.057 159.416 171.321 158.219 171.319H158.308ZM149.148 10.7839C147.402 15.0303 146.502 24.1505 145.987 29.3298C145.874 30.4558 145.786 31.4289 145.697 32.1608C145.279 35.8201 144.62 44.5783 144.62 46.589C144.62 47.5138 144.62 48.4307 144.62 49.3314C144.539 57.5106 144.467 64.6121 151.054 72.6546C153.664 76.1349 155.075 80.3679 155.075 84.7183C155.075 96.8382 154.632 120.177 153.466 134.855C152.643 143.916 151.36 152.93 149.622 161.862C149.421 162.92 149.456 164.01 149.724 165.053C149.992 166.096 150.487 167.068 151.174 167.898C151.861 168.728 152.722 169.397 153.696 169.856C154.671 170.315 155.735 170.554 156.812 170.555H158.34C159.418 170.556 160.482 170.318 161.458 169.859C162.433 169.4 163.295 168.732 163.982 167.901C164.668 167.07 165.163 166.098 165.431 165.054C165.699 164.01 165.733 162.92 165.53 161.862C163.799 152.929 162.519 143.916 161.694 134.855C160.431 119.518 159.45 95.9777 160.085 84.7022C160.471 77.3916 162.112 75.1397 163.198 73.6438C163.374 73.4141 163.538 73.1751 163.688 72.928C171.144 61.8938 171.473 56.6018 171.473 46.6292C171.473 44.6668 170.774 35.8844 170.42 32.5629C170.347 31.8391 170.259 30.9544 170.162 29.8848C169.656 24.4963 168.755 14.9258 166.881 10.6392V51.9774C166.837 52.4651 166.612 52.9187 166.25 53.2489C165.889 53.5792 165.417 53.7623 164.927 53.7623C164.437 53.7623 163.965 53.5792 163.603 53.2489C163.242 52.9187 163.017 52.4651 162.973 51.9774V23.4749C162.973 19.1715 162.386 14.8882 161.227 10.7437L161.155 11.0493C160.384 14.4646 159.995 17.9551 159.997 21.4563V51.9774C159.943 52.4573 159.715 52.9006 159.355 53.2225C158.995 53.5445 158.529 53.7225 158.047 53.7225C157.564 53.7225 157.098 53.5445 156.738 53.2225C156.378 52.9006 156.15 52.4573 156.096 51.9774V22.8074C156.082 18.7337 155.541 14.6789 154.488 10.7437C153.554 14.4842 153.081 18.3248 153.08 22.1801V52.0176C153.027 52.4975 152.798 52.9408 152.439 53.2627C152.079 53.5847 151.613 53.7627 151.13 53.7627C150.647 53.7627 150.181 53.5847 149.821 53.2627C149.462 52.9408 149.233 52.4975 149.18 52.0176L149.148 10.7839Z" fill="#263238"/>
<path d="M170.967 58.3313C171.771 54.7283 171.811 51.1414 171.811 46.5893C171.811 46.4848 171.811 46.3561 171.811 46.2194C171.811 46.0826 171.811 45.9218 171.811 45.7449V45.6966C171.811 45.5197 171.811 45.3267 171.811 45.1256V45.0773C171.811 44.8602 171.811 44.635 171.771 44.3937H166.471V52.018C166.417 52.3912 166.23 52.7326 165.945 52.9794C165.66 53.2263 165.296 53.3622 164.919 53.3622C164.541 53.3622 164.177 53.2263 163.892 52.9794C163.607 52.7326 163.42 52.3912 163.366 52.018V44.3535H159.586V51.9778C159.533 52.351 159.346 52.6924 159.061 52.9392C158.776 53.1861 158.411 53.322 158.034 53.322C157.657 53.322 157.293 53.1861 157.008 52.9392C156.722 52.6924 156.536 52.351 156.482 51.9778V44.3535H152.702V51.9778C152.655 52.3551 152.471 52.7022 152.186 52.9538C151.901 53.2055 151.534 53.3444 151.154 53.3444C150.774 53.3444 150.406 53.2055 150.121 52.9538C149.836 52.7022 149.653 52.3551 149.606 51.9778V44.3535H144.362C144.362 44.5867 144.362 44.8039 144.362 45.013V45.0854C144.362 45.2784 144.362 45.4634 144.362 45.6403V45.7046C144.362 45.8735 144.362 46.0263 144.362 46.1711C144.362 46.3159 144.362 46.4446 144.362 46.5491C144.307 50.5483 144.603 54.5447 145.247 58.4922C149.284 60.3521 153.68 61.3019 158.124 61.2741C162.569 61.2463 166.953 60.2416 170.967 58.3313Z" fill="#263238"/>
<path d="M157.825 61.7179C153.381 61.7236 148.99 60.7603 144.957 58.895C144.9 58.8675 144.849 58.8271 144.81 58.7768C144.771 58.7266 144.744 58.6679 144.732 58.6055C144.071 54.6246 143.764 50.5929 143.815 46.5579C143.815 46.4453 143.815 46.3166 143.815 46.1718L143.895 44.2979C143.903 44.1962 143.949 44.1011 144.023 44.0312C144.098 43.9613 144.196 43.9216 144.298 43.9199H149.541C149.594 43.9193 149.646 43.9297 149.695 43.9505C149.743 43.9713 149.787 44.002 149.823 44.0406C149.898 44.1153 149.941 44.2162 149.943 44.3221V51.9463C149.994 52.2135 150.136 52.4547 150.345 52.6283C150.554 52.8019 150.818 52.8969 151.089 52.8969C151.361 52.8969 151.625 52.8019 151.834 52.6283C152.043 52.4547 152.185 52.2135 152.235 51.9463V44.3542C152.235 44.2476 152.278 44.1453 152.353 44.0699C152.429 43.9945 152.531 43.9521 152.638 43.9521H156.426C156.532 43.9521 156.635 43.9945 156.71 44.0699C156.785 44.1453 156.828 44.2476 156.828 44.3542V51.9785C156.878 52.2457 157.02 52.4869 157.229 52.6605C157.439 52.834 157.702 52.929 157.974 52.929C158.246 52.929 158.509 52.834 158.718 52.6605C158.927 52.4869 159.07 52.2457 159.12 51.9785V44.3542C159.12 44.2476 159.162 44.1453 159.238 44.0699C159.313 43.9945 159.415 43.9521 159.522 43.9521H163.302C163.409 43.9521 163.511 43.9945 163.586 44.0699C163.662 44.1453 163.704 44.2476 163.704 44.3542V51.9785C163.75 52.2505 163.89 52.4975 164.101 52.6757C164.311 52.8539 164.578 52.9516 164.854 52.9516C165.13 52.9516 165.397 52.8539 165.607 52.6757C165.818 52.4975 165.958 52.2505 166.004 51.9785V44.3542C166.004 44.2476 166.047 44.1453 166.122 44.0699C166.197 43.9945 166.3 43.9521 166.406 43.9521H171.706C171.808 43.9538 171.906 43.9935 171.98 44.0634C172.055 44.1333 172.1 44.2284 172.108 44.3301L172.197 46.1718C172.197 46.3488 172.197 46.4855 172.197 46.59C172.197 51.0456 172.132 54.7451 171.344 58.4125C171.331 58.4737 171.304 58.531 171.265 58.5799C171.226 58.6287 171.176 58.6678 171.119 58.6939C166.966 60.6741 162.426 61.7069 157.825 61.7179ZM145.456 58.2597C149.415 60.0445 153.714 60.9501 158.057 60.914C162.4 60.8779 166.683 59.901 170.612 58.0506C171.272 54.268 171.542 50.4277 171.417 46.59C171.417 46.4855 171.417 46.3649 171.417 46.2281L171.352 44.7564H166.833V51.9946C166.788 52.4823 166.563 52.9358 166.202 53.2661C165.84 53.5963 165.368 53.7795 164.878 53.7795C164.388 53.7795 163.916 53.5963 163.555 53.2661C163.193 52.9358 162.968 52.4823 162.924 51.9946V44.7564H159.948V51.9946C159.895 52.4744 159.666 52.9178 159.306 53.2397C158.947 53.5617 158.481 53.7397 157.998 53.7397C157.515 53.7397 157.049 53.5617 156.689 53.2397C156.33 52.9178 156.101 52.4744 156.048 51.9946V44.7564H153.064V51.9946C153.01 52.4744 152.782 52.9178 152.422 53.2397C152.062 53.5617 151.596 53.7397 151.114 53.7397C150.631 53.7397 150.165 53.5617 149.805 53.2397C149.445 52.9178 149.217 52.4744 149.163 51.9946V44.7564H144.708L144.643 46.1799C144.643 46.3568 144.643 46.4855 144.643 46.59C144.579 50.496 144.851 54.4002 145.456 58.2597Z" fill="#263238"/>
<path opacity="0.3" d="M190.421 149.686C190.357 148.803 190.139 147.937 189.778 147.129L189.167 145.737C188.694 144.667 187.985 143.717 187.092 142.961C186.199 142.204 185.145 141.66 184.012 141.37C183.738 141.306 183.465 141.25 183.207 141.209C182.39 141.09 181.559 141.104 180.746 141.25C180.475 141.298 180.206 141.363 179.942 141.443C179.147 141.674 178.395 142.032 177.714 142.504H177.666L176.958 142.995L176.661 143.196L176.146 143.55L175.342 144.113L175.076 144.29L174.393 144.756H174.345L171.884 146.365C167.13 149.501 160.93 153.394 154.624 156.82C146.863 161.042 136.352 166.406 126.814 170.934L115.554 176.09L107.52 179.821L47.1209 207.407C47.1209 207.407 36.545 212.393 45.8019 216.406C45.8019 216.406 55.091 219.784 77.6903 211.661C90.5582 207.029 108.935 199.099 110.906 197.909C111.658 197.547 112.299 196.988 112.759 196.292C113.22 195.595 113.482 194.786 113.519 193.952C113.729 192.303 112.9 185.491 117.163 181.735L117.517 181.43C128.977 176.5 146.284 169.366 158.252 165.184C164.782 162.916 171.562 161.01 176.991 159.611L180.119 158.806H180.256L182.596 158.243L183.191 158.099L183.537 158.018L184.462 157.801C186.257 157.384 187.843 156.34 188.936 154.856C190.029 153.373 190.555 151.548 190.421 149.71V149.686Z" fill="black"/>
<path d="M176.476 140.968C169.019 146.159 161.305 150.969 153.362 155.38C145.593 159.603 135.081 164.967 125.543 169.503L45.9226 205.863C45.9226 205.863 35.3468 210.849 44.6037 214.862C44.6037 214.862 53.8927 218.24 76.5001 210.117C89.368 205.485 107.737 197.555 109.715 196.373C110.467 196.008 111.107 195.447 111.567 194.749C112.027 194.051 112.29 193.243 112.329 192.408C112.53 190.759 111.702 183.947 115.972 180.191L116.326 179.894C127.779 174.956 145.086 167.83 157.053 163.64C165.661 160.736 174.408 158.266 183.264 156.241C184.341 155.993 185.353 155.517 186.23 154.844C187.107 154.171 187.829 153.317 188.347 152.34C188.894 151.307 189.2 150.163 189.242 148.994C189.284 147.825 189.06 146.662 188.588 145.593L187.969 144.201C187.506 143.163 186.82 142.24 185.96 141.497C185.1 140.755 184.087 140.21 182.993 139.903C181.899 139.596 180.751 139.534 179.63 139.721C178.509 139.907 177.443 140.339 176.508 140.984L176.476 140.968Z" fill="#D9D9D9"/>
<path d="M50.7078 215.981C48.5907 216.07 46.473 215.82 44.4347 215.241C41.7565 214.083 40.4134 212.707 40.4134 211.139C40.3652 208.083 45.5445 205.606 45.7617 205.509L125.43 169.141C134.518 164.823 145.166 159.418 153.217 155.035C161.133 150.635 168.821 145.835 176.251 140.655C177.235 139.974 178.358 139.518 179.54 139.322C180.721 139.125 181.931 139.191 183.083 139.516C184.236 139.841 185.302 140.417 186.206 141.202C187.111 141.987 187.83 142.962 188.314 144.057L188.934 145.448C189.418 146.545 189.653 147.734 189.624 148.932C189.594 150.13 189.299 151.307 188.761 152.378C188.223 153.449 187.455 154.387 186.511 155.126C185.568 155.865 184.472 156.386 183.304 156.651C174.462 158.673 165.727 161.14 157.134 164.043C145.673 168.024 128.631 175.02 116.487 180.256L116.189 180.513C112.804 183.497 112.755 188.467 112.723 191.138C112.733 191.583 112.716 192.029 112.675 192.473C112.631 193.369 112.347 194.238 111.854 194.987C111.36 195.737 110.674 196.341 109.868 196.735C107.866 197.933 89.5126 205.871 76.5884 210.512C64.195 214.959 55.7986 215.981 50.7078 215.981ZM176.685 141.298C169.219 146.5 161.494 151.318 153.539 155.735C145.496 160.118 134.808 165.538 125.704 169.865L46.0351 206.225C44.6679 206.877 41.1212 209.016 41.1533 211.131C41.1533 212.346 42.3677 213.48 44.7081 214.501C44.7805 214.501 54.158 217.718 76.3069 209.74C89.1749 205.107 107.463 197.218 109.45 196.068C110.149 195.735 110.743 195.217 111.168 194.571C111.593 193.924 111.834 193.174 111.863 192.4C111.897 191.986 111.911 191.57 111.903 191.154C111.903 188.556 111.983 183.151 115.643 179.894L116.005 179.581C116.034 179.557 116.066 179.538 116.101 179.524C128.261 174.281 145.351 167.259 156.86 163.262C165.482 160.351 174.246 157.879 183.119 155.855C184.168 155.611 185.151 155.138 185.997 154.471C186.843 153.803 187.531 152.958 188.012 151.994C188.494 151.03 188.757 149.972 188.783 148.895C188.808 147.817 188.596 146.748 188.161 145.762L187.542 144.363C187.107 143.377 186.459 142.499 185.646 141.792C184.832 141.086 183.872 140.568 182.835 140.275C181.798 139.982 180.708 139.922 179.645 140.099C178.582 140.276 177.571 140.686 176.685 141.298Z" fill="#263238"/>
<path d="M114.26 174.658L106.306 178.285C109.248 183.251 111.076 188.797 111.662 194.539C112.019 193.88 112.235 193.155 112.297 192.408C112.498 190.759 111.67 183.947 115.941 180.191L116.294 179.894L116.528 179.789L114.26 174.658Z" fill="#263238"/>
<path d="M111.661 194.942H111.54C111.457 194.922 111.382 194.876 111.325 194.811C111.269 194.747 111.235 194.666 111.227 194.58C110.65 188.897 108.841 183.408 105.927 178.495C105.898 178.446 105.88 178.391 105.873 178.334C105.866 178.278 105.871 178.22 105.887 178.165C105.904 178.112 105.932 178.063 105.97 178.022C106.007 177.98 106.053 177.947 106.104 177.924L114.058 174.289C114.107 174.266 114.16 174.254 114.214 174.252C114.268 174.25 114.321 174.26 114.371 174.279C114.422 174.299 114.468 174.328 114.506 174.366C114.545 174.403 114.576 174.448 114.597 174.498L116.865 179.629C116.886 179.678 116.897 179.73 116.898 179.783C116.899 179.836 116.89 179.889 116.87 179.938C116.851 179.987 116.822 180.032 116.785 180.07C116.748 180.108 116.704 180.139 116.655 180.16L116.47 180.24L116.173 180.498C112.787 183.481 112.739 188.452 112.707 191.122C112.716 191.567 112.7 192.013 112.658 192.457C112.593 193.258 112.36 194.036 111.975 194.741C111.944 194.798 111.899 194.847 111.844 194.882C111.789 194.917 111.726 194.938 111.661 194.942ZM106.836 178.471C109.368 182.86 111.054 187.686 111.806 192.698C111.806 192.596 111.822 192.484 111.854 192.36C111.889 191.946 111.902 191.53 111.894 191.114C111.894 188.516 111.975 183.111 115.634 179.854L115.964 179.565L114.018 175.149L106.836 178.471Z" fill="#263238"/>
<path d="M79 166.375L135.455 223L286 72" stroke="#29B067" stroke-width="21" stroke-linecap="round" stroke-linejoin="round"/>
</svg>
