<svg width="300" height="264" viewBox="0 0 300 264" fill="none" xmlns="http://www.w3.org/2000/svg">
<path d="M202.789 4.2927C202.789 4.2927 153.623 -10.1859 105.074 19.0926C56.524 48.371 31.7706 102.985 10.5313 146.796C-10.7079 190.606 1.06639 233.533 37.8552 251.559C74.6439 269.586 99.953 239.102 151.762 235.133C203.572 231.164 217.455 237.616 260.623 207.287C303.791 176.958 312.004 109.92 278.421 62.2672C244.839 14.6144 202.789 4.2927 202.789 4.2927Z" fill="#DBBE8F"/>
<path opacity="0.7" d="M202.789 4.2927C202.789 4.2927 153.623 -10.1859 105.074 19.0926C56.524 48.371 31.7706 102.985 10.5313 146.796C-10.7079 190.606 1.06639 233.533 37.8552 251.559C74.6439 269.586 99.953 239.102 151.762 235.133C203.572 231.164 217.455 237.616 260.623 207.287C303.791 176.958 312.004 109.92 278.421 62.2672C244.839 14.6144 202.789 4.2927 202.789 4.2927Z" fill="white"/>
<path d="M285.462 130.649H16.6016V143.113H285.462V130.649Z" fill="#263238"/>
<path d="M289.064 49.2129H12.6123V138.24H289.064V49.2129Z" fill="white"/>
<path d="M102.549 49.2119V93.8123H95.6544C86.9526 94.7293 81.872 87.8415 83.7128 77.2721C85.5536 66.7026 55.6861 83.2496 48.7983 77.2721C43.9185 73.0483 61.1348 57.7799 71.6105 49.2119H102.549ZM238.305 73.3763C243.399 85.425 297.31 51.8894 285.295 71.1941C273.279 90.4989 260.889 103.612 287.845 97.7884L289.063 97.5005V49.2119H263.487C251.257 55.591 235.058 65.7321 238.305 73.3763Z" fill="#DBBE8F"/>
<path opacity="0.5" d="M102.549 49.2119V93.8123H95.6544C86.9526 94.7293 81.872 87.8415 83.7128 77.2721C85.5536 66.7026 55.6861 83.2496 48.7983 77.2721C43.9185 73.0483 61.1348 57.7799 71.6105 49.2119H102.549ZM238.305 73.3763C243.399 85.425 297.31 51.8894 285.295 71.1941C273.279 90.4989 260.889 103.612 287.845 97.7884L289.063 97.5005V49.2119H263.487C251.257 55.591 235.058 65.7321 238.305 73.3763Z" fill="white"/>
<path d="M289.064 49.2129H12.6123V138.24H289.064V49.2129Z" stroke="#263238" stroke-linecap="round" stroke-linejoin="round"/>
<path d="M199.294 49.2129H102.375V138.24H199.294V49.2129Z" fill="white"/>
<path d="M166.956 96.7383C156.333 102.415 125.656 127.188 112.161 138.239H199.3V50.3105C187.921 54.9426 144.552 73.0291 142.162 80.004C139.405 88.0364 180.732 89.3752 166.956 96.7383Z" fill="#DBBE8F"/>
<path opacity="0.5" d="M166.956 96.7383C156.333 102.415 125.656 127.188 112.161 138.239H199.3V50.3105C187.921 54.9426 144.552 73.0291 142.162 80.004C139.405 88.0364 180.732 89.3752 166.956 96.7383Z" fill="white"/>
<path d="M199.294 49.2129H102.375V138.24H199.294V49.2129Z" stroke="#263238" stroke-linecap="round" stroke-linejoin="round"/>
<path d="M205.686 83.0907C208.558 89.3962 216.631 94.229 220.52 95.4004C220.52 95.4004 230.935 99.0418 238.747 93.0041C246.558 86.9663 248.279 75.2523 240.909 63.8462C233.539 52.44 217.795 54.8966 211.048 61.3159C204.301 67.7352 202.821 76.7852 205.686 83.0907ZM227.481 72.6417C230.018 74.8507 230.159 77.9967 227.648 79.5162C226.943 79.9203 226.141 80.1261 225.328 80.112C224.515 80.0979 223.721 79.8642 223.03 79.4359C222.242 79.008 221.644 78.3004 221.352 77.4527C221.061 76.605 221.098 75.6789 221.457 74.8574C222.193 73.0634 224.964 70.4261 227.481 72.6417Z" fill="white" stroke="#263238" stroke-miterlimit="10"/>
<path d="M211.417 62.2044C210.439 65.3304 209.964 66.2207 208.351 67.7602C206.738 69.2998 205.881 71.8635 206.075 73.2156C206.306 74.8201 206.378 76.4434 206.289 78.0619C206.253 79.1719 206.476 80.2749 206.941 81.2835C207.406 82.2921 208.099 83.1784 208.967 83.8721C210.394 84.9126 211.621 86.203 212.588 87.6808C214 89.6287 213.538 90.0705 215.654 91.1348C217.769 92.1991 221.765 94.3277 221.765 94.3277C221.765 94.3277 226.33 96.3358 228.379 95.5058C230.427 94.6758 232.863 91.6837 234.456 91.0477C236.05 90.4118 236.793 92.1187 238.901 89.0396C241.01 85.9605 241.625 83.5909 242.917 82.3794C244.209 81.1678 244.517 76.9039 242.763 75.0631C240.993 73.3578 239.96 71.0273 239.885 68.5702C239.624 65.5245 238.767 63.6971 235.534 62.6061C232.301 61.515 229.885 58.7505 228.673 57.7062C227.461 56.662 224.188 56.9164 222.133 57.9874C220.078 59.0584 218.211 57.318 216.049 58.2886C215.379 58.5965 214.71 58.7906 214.181 59.0115C213.608 59.347 213.054 59.7135 212.521 60.1093C212.012 60.7238 211.636 61.4372 211.417 62.2044ZM221.738 73.3093C223.077 73.5637 223.82 71.1071 226.183 71.0536C228.546 71 227.167 72.3187 227.522 72.6601C228.072 73.1338 228.538 73.6974 228.901 74.3268C229.304 74.8426 229.575 75.4493 229.69 76.0939C229.652 77.1918 229.982 78.271 230.628 79.1597C231.384 80.1905 229.697 80.2641 228.225 80.5654C226.752 80.8666 226.645 80.7461 225.494 81.6163C224.342 82.4865 222.696 80.9871 222.696 80.9871C222.696 80.9871 221.691 80.6256 220.721 78.912C219.75 77.1984 220.774 76.9039 219.904 75.5116C219.034 74.1193 220.393 73.0148 221.738 73.3093Z" fill="white" stroke="#263238" stroke-miterlimit="10"/>
<path d="M222.367 65.057C223.01 65.057 223.532 64.5355 223.532 63.8922C223.532 63.249 223.01 62.7275 222.367 62.7275C221.724 62.7275 221.202 63.249 221.202 63.8922C221.202 64.5355 221.724 65.057 222.367 65.057Z" fill="white" stroke="#263238" stroke-miterlimit="10"/>
<path d="M215.372 67.2257C215.649 67.2257 215.874 67.001 215.874 66.7237C215.874 66.4464 215.649 66.2217 215.372 66.2217C215.095 66.2217 214.87 66.4464 214.87 66.7237C214.87 67.001 215.095 67.2257 215.372 67.2257Z" fill="white" stroke="#263238" stroke-miterlimit="10"/>
<path d="M218.284 61.723C218.698 61.723 219.034 61.3874 219.034 60.9733C219.034 60.5593 218.698 60.2236 218.284 60.2236C217.87 60.2236 217.534 60.5593 217.534 60.9733C217.534 61.3874 217.87 61.723 218.284 61.723Z" fill="white" stroke="#263238" stroke-miterlimit="10"/>
<path d="M214.703 72.5536C214.703 72.8184 214.624 73.0772 214.477 73.2974C214.33 73.5175 214.121 73.6891 213.876 73.7904C213.632 73.8918 213.363 73.9183 213.103 73.8666C212.843 73.815 212.605 73.6875 212.418 73.5002C212.23 73.313 212.103 73.0745 212.051 72.8148C211.999 72.5551 212.026 72.2859 212.127 72.0413C212.229 71.7967 212.4 71.5876 212.62 71.4405C212.841 71.2934 213.099 71.2148 213.364 71.2148C213.719 71.2148 214.06 71.3559 214.311 71.607C214.562 71.858 214.703 72.1985 214.703 72.5536Z" fill="white" stroke="#263238" stroke-miterlimit="10"/>
<path d="M230.199 68.3106C230.199 68.492 230.146 68.6693 230.045 68.8201C229.944 68.9709 229.801 69.0884 229.633 69.1579C229.466 69.2273 229.281 69.2454 229.103 69.21C228.925 69.1747 228.762 69.0873 228.634 68.9591C228.506 68.8308 228.418 68.6674 228.383 68.4895C228.347 68.3116 228.366 68.1272 228.435 67.9597C228.504 67.7921 228.622 67.6489 228.773 67.5481C228.924 67.4474 229.101 67.3936 229.282 67.3936C229.403 67.3927 229.523 67.4158 229.634 67.4616C229.746 67.5073 229.847 67.5749 229.933 67.6602C230.018 67.7455 230.086 67.847 230.131 67.9586C230.177 68.0703 230.2 68.1899 230.199 68.3106Z" fill="white" stroke="#263238" stroke-miterlimit="10"/>
<path d="M229.952 63.557C230.366 63.557 230.702 63.2214 230.702 62.8073C230.702 62.3933 230.366 62.0576 229.952 62.0576C229.538 62.0576 229.202 62.3933 229.202 62.8073C229.202 63.2214 229.538 63.557 229.952 63.557Z" fill="white" stroke="#263238" stroke-miterlimit="10"/>
<path d="M236.852 69.1401C236.852 69.3545 236.789 69.5642 236.67 69.7425C236.55 69.9208 236.381 70.0598 236.183 70.1419C235.985 70.224 235.767 70.2454 235.556 70.2036C235.346 70.1618 235.153 70.0585 235.001 69.9068C234.85 69.7552 234.746 69.562 234.704 69.3516C234.663 69.1413 234.684 68.9232 234.766 68.7251C234.848 68.5269 234.987 68.3576 235.166 68.2384C235.344 68.1193 235.554 68.0557 235.768 68.0557C236.055 68.0574 236.33 68.1722 236.533 68.3752C236.736 68.5782 236.851 68.853 236.852 69.1401Z" fill="white" stroke="#263238" stroke-miterlimit="10"/>
<path d="M238.192 78.3038C238.192 78.4851 238.138 78.6624 238.037 78.8132C237.936 78.9641 237.793 79.0816 237.625 79.151C237.458 79.2204 237.273 79.2386 237.096 79.2032C236.918 79.1678 236.754 79.0805 236.626 78.9522C236.498 78.824 236.41 78.6606 236.375 78.4827C236.34 78.3048 236.358 78.1204 236.427 77.9528C236.497 77.7853 236.614 77.642 236.765 77.5413C236.916 77.4405 237.093 77.3867 237.274 77.3867C237.518 77.3867 237.751 77.4833 237.923 77.6553C238.095 77.8273 238.192 78.0606 238.192 78.3038Z" fill="white" stroke="#263238" stroke-miterlimit="10"/>
<path d="M232.534 87.7151C232.536 87.914 232.478 88.1088 232.369 88.2748C232.259 88.4408 232.103 88.5705 231.919 88.6475C231.736 88.7246 231.534 88.7454 231.339 88.7074C231.143 88.6694 230.964 88.5743 230.823 88.4342C230.682 88.294 230.585 88.1151 230.546 87.9202C230.507 87.7252 230.526 87.523 230.602 87.3392C230.678 87.1553 230.807 86.9981 230.972 86.8875C231.137 86.7768 231.332 86.7178 231.53 86.7178C231.796 86.7178 232.05 86.8226 232.238 87.0095C232.426 87.1963 232.533 87.45 232.534 87.7151Z" fill="white" stroke="#263238" stroke-miterlimit="10"/>
<path d="M220.868 90.7136C221.696 90.7136 222.367 90.0423 222.367 89.2142C222.367 88.3861 221.696 87.7148 220.868 87.7148C220.039 87.7148 219.368 88.3861 219.368 89.2142C219.368 90.0423 220.039 90.7136 220.868 90.7136Z" fill="white" stroke="#263238" stroke-miterlimit="10"/>
<path d="M215.286 80.8881C215.7 80.8881 216.036 80.5524 216.036 80.1384C216.036 79.7243 215.7 79.3887 215.286 79.3887C214.872 79.3887 214.536 79.7243 214.536 80.1384C214.536 80.5524 214.872 80.8881 215.286 80.8881Z" fill="white" stroke="#263238" stroke-miterlimit="10"/>
<path d="M223.372 83.8871C223.372 84.0195 223.333 84.149 223.259 84.259C223.186 84.3691 223.081 84.4549 222.959 84.5056C222.836 84.5562 222.702 84.5695 222.572 84.5437C222.442 84.5178 222.323 84.4541 222.229 84.3605C222.136 84.2669 222.072 84.1476 222.046 84.0177C222.02 83.8879 222.033 83.7533 222.084 83.631C222.135 83.5087 222.221 83.4041 222.331 83.3306C222.441 83.257 222.57 83.2178 222.703 83.2178C222.88 83.2178 223.05 83.2883 223.176 83.4138C223.301 83.5394 223.372 83.7096 223.372 83.8871Z" fill="white" stroke="#263238" stroke-miterlimit="10"/>
<path d="M210.205 76.6575C210.205 76.7727 210.171 76.8853 210.107 76.9811C210.043 77.0769 209.952 77.1515 209.845 77.1956C209.739 77.2396 209.622 77.2512 209.509 77.2287C209.396 77.2062 209.292 77.1508 209.211 77.0693C209.129 76.9879 209.074 76.8841 209.051 76.7712C209.029 76.6582 209.04 76.5411 209.084 76.4347C209.128 76.3283 209.203 76.2373 209.299 76.1733C209.395 76.1094 209.507 76.0752 209.622 76.0752C209.777 76.0752 209.925 76.1365 210.034 76.2458C210.143 76.355 210.205 76.5031 210.205 76.6575Z" fill="white" stroke="#263238" stroke-miterlimit="10"/>
<path d="M214.87 61.5626C214.87 61.6619 214.841 61.759 214.786 61.8415C214.73 61.9241 214.652 61.9884 214.56 62.0264C214.469 62.0644 214.368 62.0744 214.27 62.055C214.173 62.0356 214.083 61.9878 214.013 61.9176C213.943 61.8474 213.895 61.758 213.876 61.6606C213.856 61.5632 213.866 61.4622 213.904 61.3705C213.942 61.2788 214.007 61.2004 214.089 61.1452C214.172 61.09 214.269 61.0606 214.368 61.0606C214.434 61.0597 214.5 61.0721 214.561 61.097C214.623 61.1219 214.678 61.1588 214.725 61.2056C214.772 61.2524 214.809 61.3081 214.834 61.3694C214.859 61.4308 214.871 61.4964 214.87 61.5626Z" fill="white" stroke="#263238" stroke-miterlimit="10"/>
<path d="M221.036 68.3104C221.036 68.3649 221.025 68.4188 221.004 68.4692C220.983 68.5195 220.953 68.5653 220.914 68.6038C220.876 68.6424 220.83 68.6729 220.779 68.6938C220.729 68.7147 220.675 68.7254 220.621 68.7254C220.519 68.7125 220.425 68.6629 220.357 68.5858C220.289 68.5088 220.252 68.4097 220.252 68.307C220.252 68.2044 220.289 68.1052 220.357 68.0282C220.425 67.9512 220.519 67.9016 220.621 67.8887C220.731 67.8904 220.837 67.9356 220.915 68.0145C220.992 68.0934 221.036 68.1997 221.036 68.3104Z" fill="white" stroke="#263238" stroke-miterlimit="10"/>
<path d="M233.198 74.14C233.198 74.2552 233.164 74.3677 233.1 74.4635C233.036 74.5593 232.945 74.6339 232.838 74.678C232.732 74.7221 232.615 74.7336 232.502 74.7111C232.389 74.6887 232.285 74.6332 232.204 74.5518C232.122 74.4703 232.067 74.3666 232.044 74.2536C232.022 74.1406 232.033 74.0235 232.078 73.9171C232.122 73.8107 232.196 73.7198 232.292 73.6558C232.388 73.5918 232.5 73.5576 232.616 73.5576C232.692 73.5576 232.768 73.5727 232.838 73.6019C232.909 73.6312 232.973 73.6741 233.027 73.7282C233.081 73.7823 233.124 73.8465 233.154 73.9171C233.183 73.9878 233.198 74.0635 233.198 74.14Z" fill="white" stroke="#263238" stroke-miterlimit="10"/>
<path d="M238.7 83.5521C238.701 83.7509 238.643 83.9457 238.534 84.1117C238.424 84.2777 238.268 84.4074 238.084 84.4845C237.901 84.5615 237.699 84.5823 237.504 84.5444C237.308 84.5064 237.129 84.4113 236.988 84.2711C236.847 84.131 236.75 83.9521 236.711 83.7571C236.672 83.5622 236.691 83.36 236.767 83.1761C236.843 82.9922 236.972 82.835 237.137 82.7244C237.302 82.6138 237.497 82.5547 237.695 82.5547C237.827 82.5538 237.957 82.579 238.079 82.6287C238.201 82.6784 238.312 82.7518 238.405 82.8445C238.498 82.9372 238.572 83.0474 238.623 83.1688C238.673 83.2903 238.7 83.4205 238.7 83.5521Z" fill="white" stroke="#263238" stroke-miterlimit="10"/>
<path d="M218.866 75.3194C218.866 75.5011 218.812 75.6786 218.711 75.8296C218.61 75.9805 218.467 76.0981 218.299 76.1673C218.131 76.2365 217.946 76.2542 217.768 76.2183C217.59 76.1824 217.426 76.0944 217.298 75.9655C217.17 75.8365 217.084 75.6725 217.049 75.4942C217.014 75.3158 217.034 75.1312 217.104 74.9638C217.174 74.7964 217.293 74.6536 217.445 74.5536C217.596 74.4537 217.774 74.401 217.956 74.4024C218.076 74.4024 218.195 74.4261 218.306 74.4723C218.417 74.5185 218.517 74.5861 218.602 74.6714C218.687 74.7566 218.754 74.8578 218.799 74.969C218.844 75.0802 218.867 75.1993 218.866 75.3194Z" fill="white" stroke="#263238" stroke-miterlimit="10"/>
<path d="M214.703 83.5522C214.703 83.6846 214.664 83.814 214.59 83.9241C214.517 84.0341 214.412 84.1199 214.29 84.1706C214.167 84.2213 214.033 84.2345 213.903 84.2087C213.773 84.1829 213.654 84.1191 213.56 84.0255C213.467 83.9319 213.403 83.8126 213.377 83.6828C213.351 83.5529 213.365 83.4183 213.415 83.296C213.466 83.1737 213.552 83.0692 213.662 82.9956C213.772 82.9221 213.901 82.8828 214.034 82.8828C214.211 82.8828 214.381 82.9533 214.507 83.0789C214.632 83.2044 214.703 83.3747 214.703 83.5522Z" fill="white" stroke="#263238" stroke-miterlimit="10"/>
<path d="M211.042 71.0546C211.043 71.2204 210.995 71.3828 210.904 71.5213C210.813 71.6598 210.682 71.7681 210.53 71.8324C210.377 71.8968 210.209 71.9143 210.046 71.8828C209.883 71.8512 209.733 71.7721 209.616 71.6553C209.498 71.5386 209.418 71.3895 209.385 71.227C209.352 71.0645 209.368 70.896 209.431 70.7427C209.494 70.5894 209.602 70.4583 209.739 70.3661C209.877 70.2739 210.039 70.2246 210.205 70.2246C210.426 70.2246 210.637 70.3118 210.794 70.4673C210.951 70.6228 211.04 70.8339 211.042 71.0546Z" fill="white" stroke="#263238" stroke-miterlimit="10"/>
<path d="M226.035 60.3918C226.037 60.4914 226.008 60.5891 225.954 60.6725C225.9 60.756 225.822 60.8214 225.73 60.8604C225.638 60.8994 225.537 60.9103 225.439 60.8917C225.342 60.8731 225.252 60.8258 225.181 60.7559C225.11 60.6859 225.061 60.5965 225.041 60.4989C225.021 60.4014 225.031 60.3001 225.069 60.208C225.107 60.1159 225.171 60.037 225.254 59.9816C225.336 59.9261 225.434 59.8965 225.533 59.8965C225.665 59.8965 225.792 59.9484 225.886 60.0412C225.98 60.1339 226.034 60.2598 226.035 60.3918Z" fill="white" stroke="#263238" stroke-miterlimit="10"/>
<path d="M56.2088 81.2424C55.9398 81.2165 55.6838 81.1146 55.4704 80.9487C55.2571 80.7828 55.0953 80.5596 55.004 80.3053C54.203 78.09 52.7842 76.1506 50.9155 74.7165C49.0467 73.2823 46.8063 72.4135 44.4593 72.2128C42.1122 72.0121 39.7568 72.4879 37.6717 73.584C35.5867 74.6801 33.8592 76.3505 32.6937 78.3976C32.5622 78.6327 32.3665 78.8256 32.1294 78.9536C31.8924 79.0816 31.6238 79.1395 31.355 79.1205L29.8087 78.9866C29.561 78.9641 29.3117 79.0074 29.0861 79.1122C28.8605 79.217 28.6665 79.3795 28.5239 79.5833C28.3812 79.7871 28.2949 80.0249 28.2737 80.2728C28.2525 80.5206 28.2971 80.7697 28.4031 80.9947L31.1676 87.1597C31.3885 87.6617 31.6094 88.1637 31.7968 88.6792C32.6461 91.0649 34.2095 93.1312 36.2743 94.5973C38.3392 96.0634 40.8054 96.8581 43.3377 96.8735C45.8701 96.8888 48.3457 96.1241 50.4282 94.6831C52.5107 93.2422 54.099 91.195 54.9772 88.8197C55.4056 87.6483 55.8608 86.4769 56.3896 85.3457L57.3602 83.2706C57.4628 83.0644 57.5133 82.8361 57.507 82.6059C57.5008 82.3756 57.438 82.1504 57.3243 81.9501C57.2106 81.7498 57.0494 81.5804 56.8549 81.4571C56.6604 81.3337 56.4385 81.2599 56.2088 81.2424Z" fill="white" stroke="#263238" stroke-miterlimit="10"/>
<path d="M56.2086 81.2426C55.9396 81.2167 55.6835 81.1148 55.4702 80.9489C55.2568 80.783 55.0951 80.5598 55.0037 80.3055C54.6922 79.4485 54.2859 78.629 53.7921 77.8623L51.4359 83.8063C47.4909 88.113 43.2908 92.179 38.8584 95.9822C40.3054 96.5543 41.8475 96.8473 43.4034 96.8457H43.9256C47.8746 94.342 51.6151 91.5238 55.1108 88.4183C55.5057 87.3741 55.9073 86.3366 56.3826 85.3325L57.3532 83.2575C57.4529 83.0523 57.5011 82.8259 57.4938 82.5979C57.4864 82.37 57.4237 82.1472 57.311 81.9489C57.1984 81.7505 57.0391 81.5826 56.847 81.4596C56.655 81.3365 56.4358 81.2621 56.2086 81.2426Z" fill="white" stroke="#263238" stroke-miterlimit="10"/>
<path d="M43.4174 89.9111C53.5357 89.9111 61.7382 81.7086 61.7382 71.5903C61.7382 61.472 53.5357 53.2695 43.4174 53.2695C33.2992 53.2695 25.0967 61.472 25.0967 71.5903C25.0967 81.7086 33.2992 89.9111 43.4174 89.9111Z" fill="white" stroke="#263238" stroke-miterlimit="10"/>
<path d="M43.4166 87.468C52.1855 87.468 59.2941 80.3594 59.2941 71.5904C59.2941 62.8215 52.1855 55.7129 43.4166 55.7129C34.6477 55.7129 27.5391 62.8215 27.5391 71.5904C27.5391 80.3594 34.6477 87.468 43.4166 87.468Z" fill="white" stroke="#263238" stroke-miterlimit="10"/>
<path d="M43.4168 83.9195C50.2264 83.9195 55.7466 78.3992 55.7466 71.5896C55.7466 64.78 50.2264 59.2598 43.4168 59.2598C36.6072 59.2598 31.0869 64.78 31.0869 71.5896C31.0869 78.3992 36.6072 83.9195 43.4168 83.9195Z" fill="white" stroke="#263238" stroke-miterlimit="10"/>
<path d="M35.5848 62.9951L20.5172 55.3643L19.3057 59.0927L33.5633 66.5227C33.9064 66.7575 34.3123 66.8835 34.728 66.8842C35.2114 66.92 35.6915 66.7797 36.0795 66.4893C36.4676 66.1988 36.7375 65.7778 36.8395 65.3039C36.9415 64.83 36.8686 64.3353 36.6343 63.9109C36.4 63.4866 36.0201 63.1613 35.5648 62.9951H35.5848Z" fill="white" stroke="#263238" stroke-miterlimit="10"/>
<path d="M21.361 57.0579C21.361 57.4551 21.2432 57.8433 21.0225 58.1736C20.8019 58.5038 20.4883 58.7612 20.1213 58.9132C19.7544 59.0652 19.3506 59.1049 18.9611 59.0275C18.5715 58.95 18.2137 58.7587 17.9329 58.4779C17.6521 58.197 17.4608 57.8392 17.3833 57.4497C17.3058 57.0602 17.3456 56.6564 17.4976 56.2895C17.6496 55.9225 17.907 55.6089 18.2372 55.3882C18.5674 55.1676 18.9557 55.0498 19.3528 55.0498C19.8854 55.0498 20.3962 55.2614 20.7728 55.638C21.1494 56.0146 21.361 56.5253 21.361 57.0579Z" fill="white" stroke="#263238" stroke-miterlimit="10"/>
<path d="M117.697 60.4785H157.866" stroke="#263238" stroke-miterlimit="10"/>
<path d="M169.192 60.4785H186.014" stroke="#263238" stroke-miterlimit="10"/>
<path d="M117.697 67.3398H157.866" stroke="#263238" stroke-miterlimit="10"/>
<path d="M169.192 67.3398H186.014" stroke="#263238" stroke-miterlimit="10"/>
<path d="M117.697 74.207H157.866" stroke="#263238" stroke-miterlimit="10"/>
<path d="M169.192 74.207H186.014" stroke="#263238" stroke-miterlimit="10"/>
<path d="M117.697 81.0752H157.866" stroke="#263238" stroke-miterlimit="10"/>
<path d="M169.192 81.0752H186.014" stroke="#263238" stroke-miterlimit="10"/>
<path d="M117.697 87.9424H157.866" stroke="#263238" stroke-miterlimit="10"/>
<path d="M169.192 87.9424H186.014" stroke="#263238" stroke-miterlimit="10"/>
<path d="M117.697 102.014H157.866" stroke="#263238" stroke-miterlimit="10"/>
<path d="M169.192 102.014H186.014" stroke="#263238" stroke-miterlimit="10"/>
<path d="M117.697 108.881H157.866" stroke="#263238" stroke-miterlimit="10"/>
<path d="M169.192 108.881H186.014" stroke="#263238" stroke-miterlimit="10"/>
<path d="M117.697 115.749H157.866" stroke="#263238" stroke-miterlimit="10"/>
<path d="M169.192 115.749H186.014" stroke="#263238" stroke-miterlimit="10"/>
<path d="M117.697 122.616H157.866" stroke="#263238" stroke-miterlimit="10"/>
<path d="M169.192 122.616H186.014" stroke="#263238" stroke-miterlimit="10"/>
<path d="M117.697 129.478H157.866" stroke="#263238" stroke-miterlimit="10"/>
<path d="M169.192 129.478H186.014" stroke="#263238" stroke-miterlimit="10"/>
<path d="M209.703 102.014H249.872" stroke="#263238" stroke-miterlimit="10"/>
<path d="M261.197 102.014H278.019" stroke="#263238" stroke-miterlimit="10"/>
<path d="M209.703 108.881H249.872" stroke="#263238" stroke-miterlimit="10"/>
<path d="M261.197 108.881H278.019" stroke="#263238" stroke-miterlimit="10"/>
<path d="M209.703 115.749H249.872" stroke="#263238" stroke-miterlimit="10"/>
<path d="M261.197 115.749H278.019" stroke="#263238" stroke-miterlimit="10"/>
<path d="M209.703 122.616H249.872" stroke="#263238" stroke-miterlimit="10"/>
<path d="M261.197 122.616H278.019" stroke="#263238" stroke-miterlimit="10"/>
<path d="M209.703 129.478H249.872" stroke="#263238" stroke-miterlimit="10"/>
<path d="M261.197 129.478H278.019" stroke="#263238" stroke-miterlimit="10"/>
<path d="M21.917 102.702H62.0794" stroke="#263238" stroke-miterlimit="10"/>
<path d="M73.4111 102.702H90.2325" stroke="#263238" stroke-miterlimit="10"/>
<path d="M21.917 109.57H62.0794" stroke="#263238" stroke-miterlimit="10"/>
<path d="M73.4111 109.57H90.2325" stroke="#263238" stroke-miterlimit="10"/>
<path d="M21.917 116.438H62.0794" stroke="#263238" stroke-miterlimit="10"/>
<path d="M73.4111 116.438H90.2325" stroke="#263238" stroke-miterlimit="10"/>
<path d="M21.917 123.299H62.0794" stroke="#263238" stroke-miterlimit="10"/>
<path d="M73.4111 123.299H90.2325" stroke="#263238" stroke-miterlimit="10"/>
<path d="M21.917 130.167H62.0794" stroke="#263238" stroke-miterlimit="10"/>
<path d="M73.4111 130.167H90.2325" stroke="#263238" stroke-miterlimit="10"/>
<path d="M47.0196 167.023C47.0196 167.023 47.0196 164.446 43.4184 160.845C39.8172 157.243 37.4945 155.182 37.4945 155.182C37.4945 155.182 35.6938 161.106 39.0407 164.707C41.5025 167.241 44.1714 169.565 47.0196 171.655V167.023Z" fill="#DBBE8F"/>
<path d="M41.7911 183.087C41.7911 183.087 41.7911 180.517 38.1832 176.916C34.5753 173.315 32.2659 171.253 32.2659 171.253C32.2659 171.253 30.4653 177.17 33.8122 180.771C36.2721 183.307 38.9411 185.632 41.7911 187.72V183.087Z" fill="#DBBE8F"/>
<path d="M46.7914 171.394C46.7914 171.394 47.0591 168.837 51.0218 165.638C54.9845 162.438 57.508 160.631 57.508 160.631C57.508 160.631 58.6728 166.709 54.9644 169.935C52.2527 172.198 49.3553 174.229 46.3027 176.006L46.7914 171.394Z" fill="#DBBE8F"/>
<path d="M40.4725 190.377C40.4725 190.377 41.0147 187.86 45.292 185.089C49.5693 182.317 52.2669 180.798 52.2669 180.798C52.2669 180.798 52.7756 186.956 48.7594 189.781C45.8233 191.745 42.7265 193.458 39.502 194.902L40.4725 190.377Z" fill="#DBBE8F"/>
<path d="M41.6641 211.068C41.6641 211.068 41.6641 208.491 45.2653 204.89C48.8665 201.288 51.1826 199.233 51.1826 199.233C51.1826 199.233 52.9832 205.151 49.6363 208.752C47.1777 211.287 44.511 213.611 41.6641 215.7V211.068Z" fill="#DBBE8F"/>
<path d="M41.6034 216.115C41.6034 216.115 41.9649 213.571 38.9259 209.495C35.887 205.418 33.8722 203.049 33.8722 203.049C33.8722 203.049 31.2482 208.651 34.0462 212.688C36.1197 215.554 38.4305 218.241 40.9541 220.72L41.6034 216.115Z" fill="#DBBE8F"/>
<path d="M38.0488 231.083C38.0488 231.083 38.0488 228.512 41.6501 224.911C45.2513 221.31 47.5673 219.248 47.5673 219.248C47.5673 219.248 49.3679 225.165 46.0278 228.767C43.5679 231.302 40.8988 233.627 38.0488 235.715V231.083Z" fill="#DBBE8F"/>
<path d="M40.4527 244.67C40.4527 244.67 39.7833 242.18 42.3738 237.782C44.9643 233.385 46.6645 230.808 46.6645 230.808C46.6645 230.808 49.911 236.076 47.5882 240.406C45.2655 244.737 40.9748 248.131 40.9748 248.131L40.4527 244.67Z" fill="#DBBE8F"/>
<path d="M47.3403 166.354C47.1595 169.034 46.831 171.702 46.3563 174.346C44.9306 181.709 41.3695 186.448 39.9504 193.088C38.5314 199.728 42.6279 208.29 41.5168 216.831C40.4056 225.372 37.0989 230.111 38.0494 235.808C38.9999 241.504 42.735 259.396 42.735 259.396" stroke="#263238" stroke-linecap="round" stroke-linejoin="round"/>
<path d="M46.7578 173.108L50.6335 170.129" stroke="#263238" stroke-linecap="round" stroke-linejoin="round"/>
<path d="M46.9324 169.673L45.3125 166.788" stroke="#263238" stroke-linecap="round" stroke-linejoin="round"/>
<path d="M40.1641 192.787C40.1641 192.787 43.4105 190.351 46.7574 187.914" stroke="#263238" stroke-linecap="round" stroke-linejoin="round"/>
<path d="M41.7909 187.713C40.1779 184.583 38.2514 181.625 36.041 178.884" stroke="#263238" stroke-linecap="round" stroke-linejoin="round"/>
<path d="M41.792 214.729C43.6512 211.306 45.9985 208.172 48.7602 205.425" stroke="#263238" stroke-linecap="round" stroke-linejoin="round"/>
<path d="M41.1556 218.338C40.1726 216.011 38.9947 213.772 37.6347 211.644C35.7404 208.846 35.4727 208.484 35.4727 208.484" stroke="#263238" stroke-linecap="round" stroke-linejoin="round"/>
<path d="M38.0488 235.814C38.8742 233.769 39.852 231.788 40.974 229.89C42.0912 228.135 43.3517 226.476 44.7426 224.93" stroke="#263238" stroke-linecap="round" stroke-linejoin="round"/>
<path d="M40.7266 249.731C41.0647 247.556 41.7022 245.438 42.6209 243.438C43.9596 240.814 45.5126 237.414 46.1418 236.035" stroke="#263238" stroke-linecap="round" stroke-linejoin="round"/>
<path d="M17.6205 201.389C17.6205 201.389 17.3394 199.776 19.2069 197.125C21.0745 194.474 22.3061 192.935 22.3061 192.935C22.3061 192.935 24.08 196.449 22.3731 199.073C21.1054 200.929 19.6836 202.676 18.1226 204.294L17.6205 201.389Z" fill="#DBBE8F"/>
<path d="M22.6538 210.9C22.6538 210.9 22.3794 209.287 24.2469 206.636C26.1145 203.986 27.3394 202.439 27.3394 202.439C27.3394 202.439 29.1133 205.96 27.4064 208.578C26.1379 210.436 24.7161 212.184 23.1558 213.805L22.6538 210.9Z" fill="#DBBE8F"/>
<path d="M18.236 204.113C18.236 204.113 17.7875 202.54 14.9561 200.96C12.1246 199.38 10.3508 198.523 10.3508 198.523C10.3508 198.523 10.2772 202.459 12.9546 204.086C14.902 205.208 16.9395 206.167 19.046 206.951L18.236 204.113Z" fill="#DBBE8F"/>
<path d="M24.2608 215.324C24.2608 215.324 23.645 213.805 20.6462 212.54C17.6474 211.275 15.8066 210.599 15.8066 210.599C15.8066 210.599 16.148 214.521 18.9795 215.853C21.0341 216.765 23.1611 217.504 25.3385 218.062L24.2608 215.324Z" fill="#DBBE8F"/>
<path d="M25.7595 228.432C25.7595 228.432 25.4784 226.819 22.8277 224.951C20.1769 223.083 18.5035 222.046 18.5035 222.046C18.5035 222.046 18.0149 225.948 20.5116 227.843C22.3289 229.167 24.2546 230.336 26.2682 231.337L25.7595 228.432Z" fill="#DBBE8F"/>
<path d="M26.3486 231.59C26.3486 231.59 25.8399 230.037 27.3125 227.145C28.7851 224.254 29.7825 222.58 29.7825 222.58C29.7825 222.58 32.0383 225.813 30.7196 228.651C29.7284 230.667 28.5708 232.597 27.259 234.421L26.3486 231.59Z" fill="#DBBE8F"/>
<path d="M30.8669 244.61C30.8669 244.61 31.0543 242.983 33.5913 240.961C36.1282 238.94 37.7481 237.815 37.7481 237.815C37.7481 237.815 38.4576 241.684 36.0813 243.719C34.3412 245.144 32.4851 246.42 30.5322 247.535L30.8669 244.61Z" fill="#DBBE8F"/>
<path d="M30.198 240.595C30.198 240.595 29.9169 238.981 27.2661 237.114C24.6154 235.246 22.942 234.202 22.942 234.202C22.942 234.202 22.4533 238.111 24.9501 240.006C26.7692 241.327 28.6947 242.496 30.7067 243.5L30.198 240.595Z" fill="#DBBE8F"/>
<path d="M30.1635 249.356C30.1635 249.356 30.2973 247.722 28.2089 245.246C26.1205 242.769 24.7616 241.323 24.7616 241.323C24.7616 241.323 23.3024 244.978 25.2302 247.448C26.6545 249.187 28.2218 250.803 29.9158 252.281L30.1635 249.356Z" fill="#DBBE8F"/>
<path d="M17.3457 201.014C17.7479 202.674 18.2441 204.31 18.8317 205.913C20.5185 210.372 23.2697 212.962 24.8561 216.978C26.4425 220.994 24.8561 226.798 26.4492 232.032C28.0423 237.267 30.6863 239.884 30.6863 243.559C30.6863 247.234 29.0062 258.058 29.0062 258.058" stroke="#263238" stroke-linecap="round" stroke-linejoin="round"/>
<path d="M18.4434 205.183L15.6855 203.73" stroke="#263238" stroke-linecap="round" stroke-linejoin="round"/>
<path d="M17.9619 203.048L18.6648 201.06" stroke="#263238" stroke-linecap="round" stroke-linejoin="round"/>
<path d="M24.7149 216.805C24.7149 216.805 22.4123 215.633 20.0293 214.469" stroke="#263238" stroke-linecap="round" stroke-linejoin="round"/>
<path d="M23.1426 213.805C23.8233 211.664 24.7205 209.598 25.8201 207.64" stroke="#263238" stroke-linecap="round" stroke-linejoin="round"/>
<path d="M26.0747 230.741C24.545 228.799 22.7411 227.09 20.7197 225.667" stroke="#263238" stroke-linecap="round" stroke-linejoin="round"/>
<path d="M26.8643 232.936C27.2336 231.374 27.7306 229.845 28.3503 228.364C29.2338 226.403 29.361 226.148 29.361 226.148" stroke="#263238" stroke-linecap="round" stroke-linejoin="round"/>
<path d="M30.5859 246.343C31.4826 245.232 32.4749 244.202 33.5513 243.264C34.2379 242.759 34.8826 242.2 35.4791 241.591" stroke="#263238" stroke-linecap="round" stroke-linejoin="round"/>
<path d="M30.6862 243.56C29.9467 242.368 29.1188 241.233 28.2095 240.166C27.3112 239.195 26.3351 238.3 25.291 237.488" stroke="#263238" stroke-linecap="round" stroke-linejoin="round"/>
<path d="M29.9165 252.301C29.8182 251.056 29.3909 249.859 28.6782 248.833C27.547 247.334 26.2082 245.353 25.666 244.569" stroke="#263238" stroke-linecap="round" stroke-linejoin="round"/>
<path d="M155.986 87.367C155.986 87.367 174.461 105.219 175.291 114.142C176.121 123.065 162.419 130.334 166.368 133.239C170.318 136.144 181.095 143.829 176.951 150.469C172.808 157.109 170.726 158.776 172.179 160.228C173.631 161.681 177.159 162.906 176.951 166.454C176.744 170.001 172.594 173.047 172.594 173.047H106.995C106.995 173.047 103.467 173.254 103.882 168.274C104.297 163.294 111.353 160.597 110.108 156.855C108.863 153.113 99.7256 150.215 99.7256 142.738C99.7256 135.261 110.523 132.155 112.183 128.627C113.843 125.1 106.787 122.81 105.335 118.245C103.882 113.68 111.359 105.788 115.918 101.638C120.476 97.488 138.757 85.4459 146.04 85.0309C153.322 84.6159 155.986 87.367 155.986 87.367Z" fill="#263238"/>
<path d="M160.939 92.1992C160.939 92.1992 170.98 109.744 169.393 116.631C167.807 123.519 157.177 131.358 161.247 136.679C165.317 142.001 171.288 144.196 168.771 150.776C167.276 154.713 165.043 158.327 162.191 161.426" stroke="#858585" stroke-linecap="round" stroke-linejoin="round"/>
<path d="M116.145 116.323C116.145 116.323 122.41 126.029 120.83 128.847C119.25 131.665 110.18 135.113 111.459 142.315C112.737 149.517 125.871 160.796 125.871 162.055" stroke="#858585" stroke-linecap="round" stroke-linejoin="round"/>
<path d="M155.986 87.367C155.986 87.367 174.461 105.219 175.291 114.142C176.121 123.065 162.419 130.334 166.368 133.239C170.318 136.144 181.095 143.829 176.951 150.469C172.808 157.109 170.726 158.776 172.179 160.228C173.631 161.681 177.159 162.906 176.951 166.454C176.744 170.001 172.594 173.047 172.594 173.047H106.995C106.995 173.047 103.467 173.254 103.882 168.274C104.297 163.294 111.353 160.597 110.108 156.855C108.863 153.113 99.7256 150.215 99.7256 142.738C99.7256 135.261 110.523 132.155 112.183 128.627C113.843 125.1 106.787 122.81 105.335 118.245C103.882 113.68 111.359 105.788 115.918 101.638C120.476 97.488 138.757 85.4459 146.04 85.0309C153.322 84.6159 155.986 87.367 155.986 87.367Z" stroke="#263238" stroke-linecap="round" stroke-linejoin="round"/>
<path d="M179.702 163.188C179.702 163.188 204.803 202.346 208.485 207.031C212.167 211.717 208.15 219.415 202.461 223.431C196.771 227.447 187.246 223.94 182.306 218.833C177.366 213.725 172.339 201.676 172.339 201.676L179.702 163.188Z" fill="white" stroke="#263238" stroke-linecap="round" stroke-linejoin="round"/>
<path d="M137.531 150.134C137.531 150.134 114.103 157.163 106.74 159.84C99.3766 162.518 97.3685 162.852 97.3685 165.53C97.3685 167.089 102.958 197.419 102.389 223.431C101.98 242.227 95.3604 259.242 95.3604 259.242H180.705C180.705 259.242 173.704 243.278 173.677 224.1C173.637 197.225 180.485 164.365 179.701 163.187C178.363 161.179 140.543 149.8 137.531 150.134Z" fill="white" stroke="#263238" stroke-linecap="round" stroke-linejoin="round"/>
<path d="M173.932 230.419C170.867 228.03 166.884 224.1 164.976 218.745C162.011 210.438 159.829 165.865 159.374 155.824C157.787 155.342 156.194 154.86 154.628 154.398L155.297 196.321H125.51L122.906 154.613C121.32 155.101 119.72 155.603 118.154 156.099C118.187 164.566 118.187 204.066 115.804 215.398C113.977 224.1 106.366 229.971 101.747 232.802C100.627 241.818 98.5011 250.68 95.4082 259.222H180.753C177.042 250.02 174.742 240.309 173.932 230.419Z" fill="#263238"/>
<path d="M119.104 155.79L118.126 156.098C118.16 164.566 118.16 204.065 115.777 215.398C115.643 216.027 115.476 216.629 115.288 217.225V259.242H119.104V155.79Z" fill="#424242"/>
<path d="M135.201 196.321H131.386V259.242H135.201V196.321Z" fill="#424242"/>
<path d="M99.1895 246.491V259.209H102.978V231.952C102.523 232.253 102.081 232.541 101.673 232.796C101.112 237.405 100.283 241.978 99.1895 246.491Z" fill="#424242"/>
<path d="M111.051 224.843C109.893 226.25 108.619 227.558 107.242 228.752V259.242H111.051V224.843Z" fill="#424242"/>
<path d="M123.334 161.982V259.242H127.149V196.321H125.483L123.334 161.982Z" fill="#424242"/>
<path d="M163.577 211.985V259.243H167.386V223.499C166.393 222.018 165.584 220.422 164.976 218.746C164.317 216.537 163.849 214.275 163.577 211.985Z" fill="#424242"/>
<path d="M171.622 228.445V259.237H175.438V241.324C174.725 237.722 174.222 234.081 173.931 230.42C173.202 229.851 172.419 229.188 171.622 228.445Z" fill="#424242"/>
<path d="M159.339 155.817C158.067 155.422 156.789 155.041 155.53 154.666V259.242H159.339V155.817Z" fill="#424242"/>
<path d="M151.293 196.321H147.478V259.242H151.293V196.321Z" fill="#424242"/>
<path d="M143.248 196.321H139.433V259.242H143.248V196.321Z" fill="#424242"/>
<path d="M173.932 230.419C170.867 228.03 166.884 224.1 164.976 218.745C162.011 210.438 159.829 165.865 159.374 155.824C157.787 155.342 156.194 154.86 154.628 154.398L155.297 196.321H125.51L122.906 154.613C121.32 155.101 119.72 155.603 118.154 156.099C118.187 164.566 118.187 204.066 115.804 215.398C113.977 224.1 106.366 229.971 101.747 232.802C100.627 241.818 98.5011 250.68 95.4082 259.222H180.753C177.042 250.02 174.742 240.309 173.932 230.419V230.419Z" stroke="#263238" stroke-linecap="round" stroke-linejoin="round"/>
<path d="M134.813 144.01C134.813 144.01 126.112 147.123 124.431 150.651C122.751 154.178 123.601 168.054 122.149 172.238C120.696 176.421 117.169 179.507 119.043 179.742C120.917 179.976 126.513 171.435 129.418 172.472C132.323 173.51 140.215 184.307 140.838 184.307C141.46 184.307 147.485 177.044 148.73 174.761C149.975 172.479 154.54 176.006 156.615 181.194C158.69 186.382 159.292 184.541 159.292 182.647C159.292 180.752 156.802 172.68 157.217 171.227C157.632 169.775 157.01 162.525 157.01 155.242C157.053 152.377 156.073 149.59 154.246 147.382C152.42 145.173 149.866 143.689 147.043 143.194C142.471 142.344 134.813 144.01 134.813 144.01Z" fill="white" stroke="#263238" stroke-linecap="round" stroke-linejoin="round"/>
<path d="M130.864 138.815V162.277C130.864 162.277 138.549 187.599 141.246 185.705C143.944 183.811 150.176 163.288 150.176 163.288V139.023C150.176 139.023 140.624 143.18 130.864 138.815Z" fill="white" stroke="#263238" stroke-linecap="round" stroke-linejoin="round"/>
<path d="M130.864 138.815V143.695C134.747 145.924 139.318 147.43 143.435 147.43C145.78 147.401 148.087 146.831 150.176 145.764V139.023C150.176 139.023 140.624 143.18 130.864 138.815Z" fill="#263238" stroke="#263238" stroke-linecap="round" stroke-linejoin="round"/>
<path d="M122.979 113.285C122.979 113.285 118.414 107.261 115.71 111.619C113.005 115.976 120.074 124.076 122.149 123.868C124.224 123.661 122.979 113.285 122.979 113.285Z" fill="white" stroke="#263238" stroke-linecap="round" stroke-linejoin="round"/>
<path d="M159.695 113.285C159.695 113.285 164.26 107.261 166.964 111.619C169.668 115.976 162.6 124.076 160.525 123.868C158.45 123.661 159.695 113.285 159.695 113.285Z" fill="white" stroke="#263238" stroke-linecap="round" stroke-linejoin="round"/>
<path d="M122.391 104.852C122.391 104.852 120.088 125.602 122.103 131.627C124.118 137.651 134.774 144.298 143.416 144.298C152.057 144.298 159.246 135.951 160.404 131.051C161.562 126.151 158.959 94.7709 157.232 91.317C155.505 87.863 144.567 87.5752 133.623 93.044C122.679 98.5127 122.391 104.852 122.391 104.852Z" fill="white" stroke="#263238" stroke-linecap="round" stroke-linejoin="round"/>
<path d="M143.944 108.118C143.944 108.118 142.077 113.105 143.737 116.01C145.397 118.915 144.36 120.99 142.492 120.99C140.624 120.99 139.814 117.878 139.814 117.878" stroke="#263238" stroke-linecap="round" stroke-linejoin="round"/>
<path d="M133.361 123.038C133.361 123.038 142.063 129.062 149.761 123.038" stroke="#263238" stroke-linecap="round" stroke-linejoin="round"/>
<path d="M145.818 105.186C145.818 105.186 149.56 101.036 153.918 105.601" stroke="#263238" stroke-linecap="round" stroke-linejoin="round"/>
<path d="M137.304 104.771C137.304 104.771 133.569 100.828 128.997 104.356" stroke="#263238" stroke-linecap="round" stroke-linejoin="round"/>
<path d="M149.346 113.901C150.033 113.901 150.591 112.786 150.591 111.411C150.591 110.036 150.033 108.921 149.346 108.921C148.658 108.921 148.101 110.036 148.101 111.411C148.101 112.786 148.658 113.901 149.346 113.901Z" fill="#263238"/>
<path d="M133.776 113.901C134.464 113.901 135.021 112.786 135.021 111.411C135.021 110.036 134.464 108.921 133.776 108.921C133.089 108.921 132.531 110.036 132.531 111.411C132.531 112.786 133.089 113.901 133.776 113.901Z" fill="#263238"/>
<path d="M127.745 114.945C129.877 114.594 132.052 114.594 134.184 114.945" stroke="#263238" stroke-linecap="round" stroke-linejoin="round"/>
<path d="M148.931 115.153C150.988 114.773 153.098 114.773 155.156 115.153" stroke="#263238" stroke-linecap="round" stroke-linejoin="round"/>
<path d="M112.39 116.82C112.39 116.82 144.982 103.326 152.874 97.0937C160.766 90.8618 162.834 78.8265 144.359 79.449C125.885 80.0715 106.372 101.666 104.712 111.626C103.052 121.586 109.672 119.498 109.672 119.498" fill="#263238"/>
<path d="M156.863 80.0049C149.33 89.182 140.206 96.9276 129.927 102.871C112.698 112.911 101.733 114.779 101.733 114.779" stroke="#858585" stroke-linecap="round" stroke-linejoin="round"/>
<path d="M144.647 76.8516C144.647 76.8516 129.298 100.949 100.796 110.367" stroke="#858585" stroke-linecap="round" stroke-linejoin="round"/>
<path d="M112.39 116.82C112.39 116.82 144.982 103.326 152.874 97.0937C160.766 90.8618 162.834 78.8265 144.359 79.449C125.885 80.0715 106.372 101.666 104.712 111.626C103.052 121.586 109.672 119.498 109.672 119.498" stroke="#263238" stroke-linecap="round" stroke-linejoin="round"/>
<path d="M181.71 191.469C181.71 191.469 177.861 189.796 173.343 188.289C168.825 186.783 166.315 189.796 168.155 192.473C169.996 195.15 176.522 195.653 179.702 198.497C182.882 201.342 185.392 210.546 188.571 212.22C190.67 213.269 192.935 213.948 195.265 214.228V191.469H181.71Z" fill="white" stroke="#263238" stroke-linecap="round" stroke-linejoin="round"/>
<path d="M201.396 218.831H182.306L178.035 179.452H205.667L201.396 218.831Z" fill="#DBBE8F" stroke="#263238" stroke-linecap="round" stroke-linejoin="round"/>
<path d="M206.323 173.281H177.372L174.849 178.583H209.154L206.323 173.281Z" fill="white" stroke="#263238" stroke-linecap="round" stroke-linejoin="round"/>
<path d="M178.45 180.297H205.847L208.237 178.583H175.772L178.45 180.297Z" fill="white" stroke="#263238" stroke-linecap="round" stroke-linejoin="round"/>
<path d="M202.568 208.036L205.018 185.444H178.685L181.134 208.036H202.568Z" fill="white" stroke="#263238" stroke-linecap="round" stroke-linejoin="round"/>
<path d="M208.819 192.306C208.819 192.306 199.95 192.473 198.277 194.146C196.603 195.82 197.105 197.828 200.285 198.163C203.464 198.497 208.15 199.167 210.66 198.497C213.17 197.828 213.17 192.306 208.819 192.306Z" fill="white" stroke="#263238" stroke-linecap="round" stroke-linejoin="round"/>
<path d="M206.785 210.211C206.785 210.211 199.743 210.345 198.418 211.677C197.092 213.009 197.487 214.595 200.011 214.863C202.534 215.131 206.249 215.66 208.244 215.124C210.239 214.589 210.232 210.211 206.785 210.211Z" fill="white" stroke="#263238" stroke-linecap="round" stroke-linejoin="round"/>
<path d="M210.493 199.153C210.493 199.153 198.946 199.153 196.101 199.655C193.256 200.157 192.252 203.001 196.436 203.838C200.619 204.675 209.154 205.177 211.831 204.842C214.509 204.508 214.676 198.999 210.493 199.153Z" fill="white" stroke="#263238" stroke-linecap="round" stroke-linejoin="round"/>
<path d="M209.824 205.177C209.824 205.177 200.62 204.842 197.441 206.014C194.261 207.185 195.433 208.859 198.445 209.528C201.457 210.197 208.151 211.034 210.661 210.197C213.171 209.361 213.171 204.856 209.824 205.177Z" fill="white" stroke="#263238" stroke-linecap="round" stroke-linejoin="round"/>
<path d="M67.5012 146.125C67.5012 146.125 65.7274 147.19 66.9724 152.518L68.2108 157.839L75.8416 156.42C75.8416 156.42 72.4948 150.396 71.0489 147.718C69.6031 145.041 67.8828 145.416 67.5012 146.125Z" fill="white" stroke="#263238" stroke-linecap="round" stroke-linejoin="round"/>
<path d="M61.4772 155.891C61.4772 155.891 85.7888 151.807 93.0716 149.324C98.5501 147.553 104.118 146.071 109.752 144.886C111.208 144.55 112.696 144.37 114.19 144.351C114.19 144.351 114.9 144.351 114.726 147.369C114.552 150.388 118.628 189.614 122.357 201.682C126.085 213.751 128.381 219.434 128.381 219.434C128.381 219.434 106.553 223.872 86.3176 223.872C75.1313 223.945 63.9618 222.993 52.9493 221.027C52.2398 221.027 61.6512 185.551 61.2897 173.462C60.9551 161.239 61.4772 155.891 61.4772 155.891Z" fill="#DBBE8F" stroke="#263238" stroke-linecap="round" stroke-linejoin="round"/>
<path d="M122.39 201.682C118.661 189.634 114.578 150.388 114.759 147.369C114.939 144.351 114.223 144.351 114.223 144.351C113.39 144.362 112.559 144.423 111.733 144.531C111.639 145.296 111.639 146.069 111.733 146.834C111.733 146.834 111.546 166.186 111.01 189.112C110.568 208.108 110.856 219.033 110.97 222.205C121.071 220.954 128.374 219.468 128.374 219.468C128.374 219.468 126.105 213.751 122.39 201.682Z" fill="#DBBE8F" stroke="#263238" stroke-linecap="round" stroke-linejoin="round"/>
<path d="M113.855 145.241V154.116C113.855 156.955 114.391 158.374 113.32 158.374C112.249 158.374 103.386 159.973 89.0081 162.812C79.8709 164.635 70.6178 165.821 61.3161 166.359C60.2518 166.359 61.4968 155.89 61.4968 155.89C61.4968 155.89 88.4726 151.626 97.1677 148.788C102.342 147.094 107.618 145.73 112.965 144.705" fill="#DBBE8F"/>
<path d="M113.855 145.241V154.116C113.855 156.955 114.391 158.374 113.32 158.374C112.249 158.374 103.386 159.973 89.0081 162.812C79.8709 164.635 70.6178 165.821 61.3161 166.359C60.2518 166.359 61.4968 155.89 61.4968 155.89C61.4968 155.89 88.4726 151.626 97.1677 148.788C102.342 147.094 107.618 145.73 112.965 144.705" stroke="#263238" stroke-linecap="round" stroke-linejoin="round"/>
<path d="M82.7968 138.849C82.7968 138.849 84.5706 134.766 89.3633 137.43C94.156 140.094 97.349 149.679 96.6394 151.627C95.9299 153.575 93.6206 154.117 91.666 152.163C89.7114 150.208 84.7447 143.113 83.5063 141.158C82.268 139.204 82.7968 138.849 82.7968 138.849Z" fill="white" stroke="#263238" stroke-linecap="round" stroke-linejoin="round"/>
<path d="M77.468 141.332C77.468 141.332 86.4377 154.411 88.1178 155.536C89.7979 156.66 92.9239 157.303 92.0202 153.407C91.1701 149.706 87.763 142.577 85.4537 140.093C83.1443 137.61 81.5512 137.255 79.5967 138.32C77.6421 139.384 77.1133 139.913 77.468 141.332Z" fill="white" stroke="#263238" stroke-linecap="round" stroke-linejoin="round"/>
<path d="M78.2111 140.622C78.2111 140.622 86.5515 151.272 87.2677 153.762C87.984 156.252 86.5515 160.328 82.8298 158.019C79.1081 155.71 75.7277 148.079 73.5991 145.415C71.4705 142.751 75.1588 138.674 78.2111 140.622Z" fill="white" stroke="#263238" stroke-linecap="round" stroke-linejoin="round"/>
<path d="M73.2113 143.287C73.2113 143.287 67.8563 143.997 67.1869 146.835C66.5175 149.673 71.0893 155.891 74.8177 156.956C78.5462 158.02 79.6105 155.001 78.5462 152.518C77.4819 150.034 74.9851 143.823 73.2113 143.287Z" fill="white" stroke="#263238" stroke-linecap="round" stroke-linejoin="round"/>
<path d="M266.955 247.021H209.041L222.589 184.134H280.503L266.955 247.021Z" fill="#263238" stroke="#263238" stroke-linecap="round" stroke-linejoin="round"/>
<path d="M280.503 184.134H222.589C222.589 184.134 255.381 192.052 280.503 184.134Z" fill="#6B6B6B" stroke="#263238" stroke-linecap="round" stroke-linejoin="round"/>
<path d="M241.152 211.277L235.047 230.053L245.456 237.068L249.525 225.307L241.152 211.277Z" fill="#3B3B3B" stroke="#263238" stroke-linecap="round" stroke-linejoin="round"/>
<path d="M241.151 211.277H261.286L264.452 223.273L249.525 225.307L241.151 211.277Z" fill="#3B3B3B" stroke="#263238" stroke-linecap="round" stroke-linejoin="round"/>
<path d="M259.003 257.65C257.967 243.745 253.714 230.271 246.58 218.291L230.702 257.65H259.003Z" fill="#3B3B3B" stroke="#263238" stroke-linecap="round" stroke-linejoin="round"/>
<path d="M283.984 257.65C284.399 239.276 274.86 218.291 274.86 218.291H246.579C253.713 230.271 257.966 243.745 259.003 257.65H283.984Z" fill="#6B6B6B" stroke="#263238" stroke-linecap="round" stroke-linejoin="round"/>
<path d="M293.288 255.563H8.38965V262.746H293.288V255.563Z" fill="white" stroke="#263238" stroke-linecap="round" stroke-linejoin="round"/>
</svg>
