<svg width="262" height="267" viewBox="0 0 262 267" fill="none" xmlns="http://www.w3.org/2000/svg">
<path d="M261.21 128.661C258.441 152.141 247.729 179.446 226.305 191.983C193.956 210.941 196.663 240.089 133.515 252.761C124.304 254.654 114.915 255.541 105.513 255.407C100.914 255.322 96.3252 254.947 91.7735 254.284C51.6387 248.425 24.6312 220.53 14.7225 186.849C1.68498 142.563 27.7207 113.545 44.9767 96.098C62.2327 78.651 74.877 24.1979 136.857 11.2784C146.311 9.24959 155.967 8.31847 165.634 8.50348C187.687 9.0652 211.74 16.2889 228.384 31.3992C229.631 32.5226 230.848 33.6985 232.035 34.9267C255.166 58.6819 264.996 96.6484 261.21 128.661Z" fill="#DBBE8F"/>
<path opacity="0.7" d="M261.21 128.661C258.441 152.141 247.729 179.446 226.305 191.983C193.956 210.941 196.663 240.089 133.515 252.761C124.304 254.654 114.915 255.541 105.513 255.407C100.914 255.322 96.3252 254.947 91.7735 254.284C51.6387 248.425 24.6312 220.53 14.7225 186.849C1.68498 142.563 27.7207 113.545 44.9767 96.098C62.2327 78.651 74.877 24.1979 136.857 11.2784C146.311 9.24959 155.967 8.31847 165.634 8.50348C187.687 9.0652 211.74 16.2889 228.384 31.3992C229.631 32.5226 230.848 33.6985 232.035 34.9267C255.166 58.6819 264.996 96.6484 261.21 128.661Z" fill="white"/>
<path d="M39.6098 213.299C39.6098 213.299 42.8959 215.096 41.2388 225.381C39.5818 235.666 39.8795 237.891 42.4016 236.823C43.1527 236.493 43.8248 236.007 44.373 235.397C44.9213 234.787 45.3331 234.067 45.5809 233.284C45.5809 233.284 45.5416 237.7 48.221 236.801C48.9642 236.565 49.5988 236.071 50.0107 235.409C50.4226 234.747 50.5847 233.96 50.4679 233.189C50.4679 233.189 53.5573 240.048 56.2423 238.205C58.9274 236.363 58.4892 234.908 57.3658 232.459C56.2423 230.01 52.2373 224.651 52.2373 224.651C52.2373 224.651 57.7197 227.752 60.9945 230.689C64.2693 233.627 67.5554 236.239 69.145 234.155C70.7347 232.071 66.5274 227.167 66.5274 227.167C66.5274 227.167 71.3919 228.965 71.4144 226.128C71.4369 223.292 68.6058 221.494 68.6058 221.494C68.6058 221.494 73.1613 221.691 71.1448 218.219C69.1282 214.748 63.9435 214.512 63.9435 214.512C63.7793 213.982 63.4447 213.521 62.9916 213.201C62.5385 212.881 61.9925 212.72 61.4383 212.742C59.3992 212.742 54.1977 214.074 54.1977 214.074C54.1977 214.074 59.8823 211.046 63.3481 210.052C66.8139 209.058 64.3423 204.435 62.9268 204.496C61.8497 204.589 60.7899 204.825 59.7756 205.199C59.7756 205.199 61.3765 201.536 59.0172 201.514C56.658 201.491 55.5514 202.193 55.5514 202.193C55.5514 202.193 55.7256 199.84 53.9955 200.508C52.2654 201.177 50.6701 202.615 49.4006 204.412C48.1311 206.21 45.9011 208.872 45.9011 208.872C44.5633 209.626 42.989 209.843 41.4972 209.479L39.1436 208.827L37.5596 209.951L39.6098 213.299Z" fill="#DBBE8F" stroke="#263238" stroke-linecap="round" stroke-linejoin="round"/>
<path d="M62.3721 220.447C63.559 221.068 64.7037 221.766 65.7986 222.537Z" fill="#DBBE8F"/>
<path d="M62.3721 220.447C63.559 221.068 64.7037 221.766 65.7986 222.537" stroke="#263238" stroke-linecap="round" stroke-linejoin="round"/>
<path d="M40.7158 212.719C40.7158 212.719 48.226 217.398 53.4107 217.639C55.9784 217.845 58.4844 218.533 60.7973 219.667" fill="#DBBE8F"/>
<path d="M40.7158 212.719C40.7158 212.719 48.226 217.398 53.4107 217.639C55.9784 217.845 58.4844 218.533 60.7973 219.667" stroke="#263238" stroke-linecap="round" stroke-linejoin="round"/>
<path d="M47.9803 221.956C47.0928 219.064 46.4019 217.395 44.9414 216.053Z" fill="#DBBE8F"/>
<path d="M47.9803 221.956C47.0928 219.064 46.4019 217.395 44.9414 216.053" stroke="#263238" stroke-linecap="round" stroke-linejoin="round"/>
<path d="M52.8272 231.632C52.8272 231.632 50.1703 229.385 48.7941 224.7L48.457 223.549" fill="#DBBE8F"/>
<path d="M52.8272 231.632C52.8272 231.632 50.1703 229.385 48.7941 224.7L48.457 223.549" stroke="#263238" stroke-linecap="round" stroke-linejoin="round"/>
<path d="M49.3906 210.92C49.6661 210.73 49.9271 210.52 50.1714 210.291C52.8677 207.819 55.0865 205.797 57.4457 205.488" fill="#DBBE8F"/>
<path d="M49.3906 210.92C49.6661 210.73 49.9271 210.52 50.1714 210.291C52.8677 207.819 55.0865 205.797 57.4457 205.488" stroke="#263238" stroke-linecap="round" stroke-linejoin="round"/>
<path d="M44.0479 212.497C45.2288 212.54 46.4066 212.349 47.5137 211.936Z" fill="#DBBE8F"/>
<path d="M44.0479 212.497C45.2288 212.54 46.4066 212.349 47.5137 211.936" stroke="#263238" stroke-linecap="round" stroke-linejoin="round"/>
<path d="M30.7579 142.401C30.7579 142.401 30.1962 139.463 37.4199 135.312C44.6436 131.161 45.8457 129.858 43.9302 128.83C43.3478 128.531 42.7083 128.36 42.0544 128.328C41.4006 128.296 40.7474 128.404 40.1386 128.645C40.1386 128.645 42.891 126.443 40.9868 125.235C40.4658 124.893 39.8397 124.749 39.2217 124.828C38.6037 124.907 38.0343 125.205 37.6165 125.667C37.6165 125.667 40.3127 120.303 37.8187 119.562C35.3247 118.82 34.6506 119.842 33.6788 121.741C32.7071 123.64 31.432 128.852 31.432 128.852C31.432 128.852 30.595 123.892 30.7635 120.382C30.932 116.871 30.904 113.523 28.8087 113.585C26.7135 113.647 25.7979 118.725 25.7979 118.725C25.7979 118.725 24.461 114.793 22.6916 116.225C20.9222 117.657 21.2199 120.286 21.2199 120.286C21.2199 120.286 19.0461 117.365 17.9114 120.359C16.7767 123.353 19.237 126.69 19.237 126.69C18.9914 127.058 18.8742 127.497 18.9037 127.939C18.9331 128.381 19.1076 128.801 19.3999 129.133C20.4335 130.397 23.8937 132.953 23.8937 132.953C23.8937 132.953 19.1528 130.953 16.7879 129.302C14.4231 127.65 12.7997 131.521 13.5468 132.363C14.1454 132.986 14.8257 133.524 15.569 133.964C15.569 133.964 12.4908 134.812 13.6648 136.29C14.2125 137.072 14.959 137.695 15.8274 138.093C15.8274 138.093 14.2827 139.166 15.5634 139.913C17.0207 140.66 18.6643 140.966 20.2931 140.794C22.0456 140.682 24.8205 140.716 24.8205 140.716C25.9606 141.169 26.8875 142.035 27.4157 143.142L28.1965 144.929L29.6963 145.339L30.7579 142.401Z" fill="#DBBE8F" stroke="#263238" stroke-linecap="round" stroke-linejoin="round"/>
<path d="M23.7248 124.693C23.5153 123.645 23.3727 122.585 23.2979 121.52Z" fill="#DBBE8F"/>
<path d="M23.7248 124.693C23.5153 123.645 23.3727 122.585 23.2979 121.52" stroke="#263238" stroke-linecap="round" stroke-linejoin="round"/>
<path d="M29.8375 142.009C29.8375 142.009 28.9612 134.999 26.4672 131.662C25.3036 129.96 24.4691 128.055 24.0068 126.045" fill="#DBBE8F"/>
<path d="M29.8375 142.009C29.8375 142.009 28.9612 134.999 26.4672 131.662C25.3036 129.96 24.4691 128.055 24.0068 126.045" stroke="#263238" stroke-linecap="round" stroke-linejoin="round"/>
<path d="M31.8987 132.867C30.5674 134.889 29.8709 136.142 29.7754 137.698Z" fill="#DBBE8F"/>
<path d="M31.8987 132.867C30.5674 134.889 29.8709 136.142 29.7754 137.698" stroke="#263238" stroke-linecap="round" stroke-linejoin="round"/>
<path d="M35.4648 124.98C35.2665 127.142 34.4904 129.21 33.218 130.968L32.6562 131.76" fill="#DBBE8F"/>
<path d="M35.4648 124.98C35.2665 127.142 34.4904 129.21 33.218 130.968L32.6562 131.76" stroke="#263238" stroke-linecap="round" stroke-linejoin="round"/>
<path d="M24.3898 137.537C24.137 137.47 23.8786 137.414 23.6034 137.369C20.7162 136.948 18.3345 136.599 16.9639 135.279" fill="#DBBE8F"/>
<path d="M24.3898 137.537C24.137 137.47 23.8786 137.414 23.6034 137.369C20.7162 136.948 18.3345 136.599 16.9639 135.279" stroke="#263238" stroke-linecap="round" stroke-linejoin="round"/>
<path d="M28.0395 140.07C27.4709 139.32 26.7587 138.69 25.9443 138.217Z" fill="#DBBE8F"/>
<path d="M28.0395 140.07C27.4709 139.32 26.7587 138.69 25.9443 138.217" stroke="#263238" stroke-linecap="round" stroke-linejoin="round"/>
<path d="M188.832 203.372C223.555 168.649 223.555 112.351 188.832 77.628C154.109 42.9047 97.8112 42.9047 63.0879 77.6279C28.3646 112.351 28.3646 168.649 63.0879 203.372C97.8112 238.095 154.109 238.095 188.832 203.372Z" fill="#263238"/>
<path d="M167.76 182.301C190.846 159.215 190.846 121.785 167.76 98.6992C144.674 75.6132 107.244 75.6132 84.1583 98.6992C61.0723 121.785 61.0723 159.215 84.1583 182.301C107.244 205.387 144.674 205.387 167.76 182.301Z" stroke="#8A8A8A" stroke-miterlimit="10"/>
<path d="M246.195 142.796C252.753 142.796 258.07 137.48 258.07 130.922C258.07 124.363 252.753 119.047 246.195 119.047C239.637 119.047 234.32 124.363 234.32 130.922C234.32 137.48 239.637 142.796 246.195 142.796Z" fill="#BFBFBF" stroke="#263238" stroke-miterlimit="10"/>
<path d="M247.341 125.692C247.341 125.692 245.785 123.001 245.161 123.889C244.538 124.776 245.723 126.135 245.532 126.944C245.341 127.753 242.724 127.894 243.044 128.776C243.364 129.657 246.195 130.921 246.195 130.921C246.195 130.921 246.055 132.606 246.684 132.668C247.313 132.73 248.667 130.607 248.667 130.607C248.667 130.607 250.211 131.432 250.784 130.242C251.357 129.051 249.661 129.034 249.661 128.253C249.661 127.472 251.194 127.208 250.908 126.478C250.621 125.748 247.88 127.029 247.341 125.692Z" fill="#DBBE8F" stroke="#263238" stroke-miterlimit="10"/>
<path d="M247.437 128.015C247.437 128.015 250.594 117.489 254.408 113.411C258.222 109.333 259.171 108.529 260.587 109.378C262.002 110.226 261.177 110.99 260.446 111.276C259.716 111.563 253.048 114.433 248.701 128.903C248.678 128.886 246.207 129.004 247.437 128.015Z" fill="#DBBE8F" stroke="#263238" stroke-miterlimit="10"/>
<path d="M237.022 173.461C243.094 170.983 246.007 164.052 243.529 157.98C241.051 151.908 234.12 148.994 228.048 151.472C221.976 153.95 219.062 160.881 221.54 166.953C224.018 173.026 230.95 175.939 237.022 173.461Z" fill="#BFBFBF" stroke="#263238" stroke-miterlimit="10"/>
<path d="M234.409 158.301C234.409 158.301 229.494 156.453 230.258 158.143C231.022 159.834 232.258 158.604 231.797 160.295C231.337 161.986 230.876 163.519 231.489 163.665C232.101 163.811 233.348 160.733 233.64 161.856C233.932 162.98 234.409 165.227 235.173 164.002C235.937 162.778 235.022 160.93 235.482 160.93C235.943 160.93 239.167 162.16 238.707 159.857C238.246 157.554 236.561 158.627 236.095 158.475C235.628 158.323 236.095 155.554 234.87 156.015C233.646 156.475 234.409 158.301 234.409 158.301Z" fill="#DBBE8F" stroke="#263238" stroke-miterlimit="10"/>
<path d="M234.803 159.131C234.803 159.131 229.427 159.895 227.276 164.046C225.839 166.702 224.755 169.535 224.052 172.472C223.9 173.393 224.973 174.157 225.433 173.545C225.894 172.932 227.433 167.248 228.506 165.119C229.579 162.99 229.781 162.31 231.961 161.254C234.14 160.198 235.539 159.906 234.803 159.131Z" fill="#DBBE8F" stroke="#263238" stroke-miterlimit="10"/>
<path d="M222.629 130.6C228.701 128.122 231.615 121.191 229.137 115.119C226.659 109.047 219.728 106.133 213.656 108.611C207.584 111.089 204.67 118.02 207.148 124.092C209.626 130.164 216.557 133.078 222.629 130.6Z" fill="#BFBFBF" stroke="#263238" stroke-miterlimit="10"/>
<path d="M220.019 115.435C220.019 115.435 215.104 113.592 215.868 115.283C216.632 116.974 217.867 115.743 217.407 117.434C216.946 119.125 216.486 120.658 217.098 120.805C217.71 120.951 218.94 117.889 219.249 118.962C219.558 120.035 220.019 122.332 220.783 121.113C221.547 119.895 220.631 118.041 221.092 118.041C221.552 118.041 224.777 119.271 224.316 116.968C223.855 114.665 222.17 115.738 221.704 115.586C221.238 115.435 221.704 112.665 220.479 113.126C219.255 113.586 220.019 115.435 220.019 115.435Z" fill="#DBBE8F" stroke="#263238" stroke-miterlimit="10"/>
<path d="M220.43 116.264C220.43 116.264 215.054 117.033 212.903 121.179C211.465 123.834 210.381 126.667 209.679 129.605C209.527 130.526 210.6 131.29 211.06 130.683C211.521 130.076 213.06 124.381 214.133 122.257C215.206 120.134 215.408 119.449 217.588 118.393C219.767 117.337 221.149 117.044 220.43 116.264Z" fill="#DBBE8F" stroke="#263238" stroke-miterlimit="10"/>
<path d="M53.2298 146.387C53.2298 146.387 40.3103 141.113 29.8623 153.808C19.4143 166.502 31.2048 182.978 31.2048 182.978C31.2048 182.978 37.0692 180.169 43.4166 173.822C49.764 167.474 59.3132 156.476 60.4367 153.487C61.5601 150.499 53.2298 146.387 53.2298 146.387Z" fill="#DBBE8F" stroke="#263238" stroke-linecap="round" stroke-linejoin="round"/>
<path opacity="0.34" d="M45.9388 169.565C45.9388 169.565 37.9006 160.734 33.1709 160.734C28.4413 160.734 27.1999 166.413 28.5985 173.03C29.9972 179.647 33.1709 180.439 33.8001 180.439C34.4292 180.439 43.7312 173.351 45.9388 169.565Z" fill="black"/>
<path opacity="0.34" d="M47.0399 168.306C47.0399 168.306 42.9281 163.104 40.5801 157.925C38.2321 152.746 39.6308 149.55 44.0515 147.657C48.4722 145.764 57.2912 151.589 58.864 152.544L59.3359 153.808C59.3359 153.808 49.7193 165.789 47.0399 168.306Z" fill="black"/>
<path d="M37.4283 166.099C37.4283 166.099 33.1705 165.47 32.2268 167.835C31.2831 170.2 37.271 167.992 37.4283 166.099Z" fill="#DBBE8F" stroke="#263238" stroke-linecap="round" stroke-linejoin="round"/>
<path d="M38.9952 168.146C38.9952 168.146 35.2148 169.719 35.2148 172.079C35.2148 174.438 39.3154 171.612 38.9952 168.146Z" fill="#DBBE8F" stroke="#263238" stroke-linecap="round" stroke-linejoin="round"/>
<path d="M46.4107 154.436C45.8486 154.596 45.3368 154.898 44.9239 155.312C44.5111 155.725 44.2107 156.238 44.0514 156.8C43.7951 158.065 43.9042 159.376 44.366 160.581C44.366 160.581 47.5116 157.924 46.4107 154.436Z" fill="#DBBE8F" stroke="#263238" stroke-linecap="round" stroke-linejoin="round"/>
<path d="M49.7201 159.004C49.306 159.049 48.9072 159.186 48.5526 159.405C48.198 159.623 47.8965 159.918 47.6698 160.268C47.0448 161.019 46.7099 161.97 46.7261 162.947C46.7261 163.419 50.0347 162.79 49.7201 159.004Z" fill="#DBBE8F" stroke="#263238" stroke-linecap="round" stroke-linejoin="round"/>
<path d="M95.4712 207.52C95.4712 207.52 105.998 198.364 99.364 183.31C92.7301 168.256 72.6992 171.407 72.6992 171.407C72.6992 171.407 72.57 177.906 75.3842 186.433C78.1984 194.96 83.7089 208.441 85.8771 210.784C88.0453 213.126 95.4712 207.52 95.4712 207.52Z" fill="#DBBE8F" stroke="#263238" stroke-linecap="round" stroke-linejoin="round"/>
<path d="M94.6067 206.347C94.6067 206.347 105.133 197.191 98.5051 182.142C91.8768 167.094 71.8515 170.206 71.8515 170.206C71.8515 170.206 71.7223 176.711 74.5309 185.232C77.3395 193.753 82.8612 207.24 85.0238 209.582C87.1864 211.925 94.6067 206.347 94.6067 206.347Z" fill="#DBBE8F" stroke="#263238" stroke-linecap="round" stroke-linejoin="round"/>
<path opacity="0.34" d="M77.1935 189.381C77.1935 189.381 88.6918 186.18 90.8208 181.955C92.9497 177.731 88.4278 174.069 81.8838 172.361C75.3398 170.654 73.2165 173.091 72.93 173.653C72.6435 174.215 74.7949 185.725 77.1935 189.381Z" fill="black"/>
<path opacity="0.34" d="M77.8047 190.951C77.8047 190.951 84.2982 189.631 90.0052 189.861C95.7123 190.091 97.8693 192.776 97.5884 197.568C97.3076 202.359 88.1122 207.617 86.5619 208.6L85.2194 208.454C85.2194 208.454 78.8776 194.478 77.8047 190.951Z" fill="black"/>
<path d="M84.1081 183.36C84.1081 183.36 86.5852 179.844 84.9001 177.934C83.2149 176.024 82.4903 182.372 84.1081 183.36Z" fill="#DBBE8F" stroke="#263238" stroke-linecap="round" stroke-linejoin="round"/>
<path d="M81.5676 183.846C81.5676 183.846 81.8597 179.757 79.7476 178.695C77.6356 177.634 78.3152 182.566 81.5676 183.846Z" fill="#DBBE8F" stroke="#263238" stroke-linecap="round" stroke-linejoin="round"/>
<path d="M90.4769 196.634C90.5863 196.059 90.5473 195.466 90.3635 194.911C90.1797 194.355 89.8572 193.856 89.4265 193.46C88.4146 192.66 87.1941 192.166 85.9102 192.039C85.9102 192.039 86.8819 196.055 90.4769 196.634Z" fill="#DBBE8F" stroke="#263238" stroke-linecap="round" stroke-linejoin="round"/>
<path d="M84.9053 197.533C85.0515 197.143 85.1092 196.726 85.0742 196.311C85.0392 195.896 84.9125 195.494 84.7031 195.135C84.3128 194.237 83.6132 193.509 82.7315 193.084C82.3102 192.871 81.3834 196.123 84.9053 197.533Z" fill="#DBBE8F" stroke="#263238" stroke-linecap="round" stroke-linejoin="round"/>
<path d="M202.407 84.9702C217.109 84.9702 229.027 73.0521 229.027 58.3503C229.027 43.6486 217.109 31.7305 202.407 31.7305C187.705 31.7305 175.787 43.6486 175.787 58.3503C175.787 73.0521 187.705 84.9702 202.407 84.9702Z" fill="white" stroke="#263238" stroke-miterlimit="10"/>
<path d="M200.301 82.8893C217.46 82.8893 231.37 68.9794 231.37 51.8206C231.37 34.6619 217.46 20.752 200.301 20.752C183.142 20.752 169.232 34.6619 169.232 51.8206C169.232 68.9794 183.142 82.8893 200.301 82.8893Z" fill="white" stroke="#263238" stroke-miterlimit="10"/>
<path d="M223.198 57.3351C226.24 44.6913 218.457 31.9749 205.813 28.9324C193.169 25.8899 180.453 33.6733 177.41 46.3172C174.368 58.961 182.151 71.6774 194.795 74.7199C207.439 77.7625 220.155 69.979 223.198 57.3351Z" fill="#263238"/>
<path d="M209.485 36.6193C209.485 36.6193 217.646 24.5929 221.511 14.2853C222.887 10.6117 223.247 6.05616 226.005 2.98356C229.004 -0.341819 234.318 0.585016 234.824 5.23043C235.105 7.83681 233.987 9.79721 231.937 12.5328C229.066 16.3469 223.269 21.4023 220.781 25.4973C216.371 32.7434 213.479 36.8215 212.254 38.4842C211.995 38.8519 211.626 39.1279 211.2 39.2722C210.774 39.4166 210.313 39.4219 209.884 39.2875C209.153 39.0235 208.631 38.3382 209.485 36.6193Z" fill="#DBBE8F" stroke="#263238" stroke-linecap="round" stroke-linejoin="round"/>
<path d="M228.027 3.92238C228.027 3.92238 231.347 2.41697 232.1 6.48944" stroke="#263238" stroke-linecap="round" stroke-linejoin="round"/>
<path d="M141.321 232.635C141.321 232.635 156.988 232.236 169.845 213.351C169.845 213.351 166.228 197.28 163.015 196.881C159.802 196.482 149.758 210.924 145.742 218.974C141.726 227.023 141.321 232.635 141.321 232.635Z" fill="white" stroke="#263238" stroke-miterlimit="10"/>
<path d="M108.866 61.8702C107.165 68.1406 105.78 74.4923 104.715 80.9013C102.631 92.7985 103.226 107.673 104.119 110.049C105.013 112.425 108.58 113.324 110.366 112.728C112.152 112.133 112.152 111.24 112.444 99.3425C112.736 87.4453 112.742 82.0921 116.017 73.1664C119.292 64.2407 118.101 60.3761 115.719 58.2921C113.337 56.2081 111.248 55.3206 108.866 61.8702Z" fill="#D6D6D6" stroke="#263238" stroke-miterlimit="10"/>
<path d="M116.005 64.8359C113.137 70.5118 111.323 76.6612 110.652 82.9851C109.461 93.6914 112.528 104.01 110.995 107.178C110.65 108.028 109.988 108.71 109.15 109.08C108.311 109.45 107.361 109.479 106.501 109.161" fill="white"/>
<path d="M116.005 64.8359C113.137 70.5118 111.323 76.6612 110.652 82.9851C109.461 93.6914 112.528 104.01 110.995 107.178C110.65 108.028 109.988 108.71 109.15 109.08C108.311 109.45 107.361 109.479 106.501 109.161" stroke="#263238" stroke-miterlimit="10"/>
<path d="M130.222 99.8321C130.222 99.8321 129.025 95.8214 139.159 89.2549C149.292 82.6884 150.955 80.7448 147.938 79.5372C147.038 79.1907 146.077 79.0276 145.112 79.0575C144.148 79.0874 143.199 79.3097 142.321 79.7113C142.321 79.7113 146.113 76.341 143.125 74.8917C142.314 74.4722 141.384 74.3409 140.489 74.5196C139.594 74.6982 138.786 75.1761 138.198 75.8747C138.198 75.8747 141.484 68.1286 137.687 67.3872C133.89 66.6457 133.03 68.1343 131.84 70.8811C130.649 73.6279 129.43 80.9695 129.43 80.9695C129.43 80.9695 127.531 74.1952 127.312 69.3139C127.093 64.4325 126.604 59.7646 123.515 60.1185C120.425 60.4724 119.735 67.5782 119.735 67.5782C119.735 67.5782 117.235 62.3036 114.797 64.4606C112.359 66.6176 113.14 70.2969 113.14 70.2969C113.14 70.2969 109.522 66.4884 108.242 70.7687C106.961 75.049 111.05 79.3911 111.05 79.3911C110.733 79.9292 110.615 80.5621 110.718 81.1785C110.82 81.7949 111.137 82.3554 111.612 82.7614C113.297 84.4016 118.757 87.5473 118.757 87.5473C118.757 87.5473 111.455 85.3004 107.736 83.3007C104.018 81.3009 102.119 86.8058 103.36 87.9012C104.34 88.702 105.42 89.3706 106.573 89.8896C106.573 89.8896 102.125 91.4175 104.057 93.3274C105.989 95.2372 107.512 95.5742 107.512 95.5742C107.512 95.5742 105.36 97.2594 107.354 98.1301C109.348 99.0007 111.904 99.1749 114.488 98.8154C117.072 98.4559 121.189 98.1919 121.189 98.1919C122.907 98.6725 124.39 99.7655 125.357 101.264L126.352 102.95C126.476 103.164 126.647 103.348 126.85 103.489C127.054 103.629 127.287 103.723 127.531 103.764C127.943 103.837 128.368 103.753 128.722 103.53C129.076 103.307 129.334 102.96 129.447 102.556L130.222 99.8321Z" fill="#DBBE8F" stroke="#263238" stroke-linecap="round" stroke-linejoin="round"/>
<path d="M117.442 76.0958C116.989 74.6729 116.636 73.2201 116.386 71.748Z" fill="#DBBE8F"/>
<path d="M117.442 76.0958C116.989 74.6729 116.636 73.2201 116.386 71.748" stroke="#263238" stroke-linecap="round" stroke-linejoin="round"/>
<path d="M128.812 99.3942C128.812 99.3942 126.565 89.7776 122.476 85.4355C120.546 83.2479 119.054 80.7097 118.083 77.959" fill="#DBBE8F"/>
<path d="M128.812 99.3942C128.812 99.3942 126.565 89.7776 122.476 85.4355C120.546 83.2479 119.054 80.7097 118.083 77.959" stroke="#263238" stroke-linecap="round" stroke-linejoin="round"/>
<path d="M130.648 86.4922C128.923 89.4244 128.075 91.2612 128.142 93.4631Z" fill="#DBBE8F"/>
<path d="M130.648 86.4922C128.923 89.4244 128.075 91.2612 128.142 93.4631" stroke="#263238" stroke-linecap="round" stroke-linejoin="round"/>
<path d="M134.885 75.1621C134.885 75.1621 135.161 79.0267 132.318 83.7227L131.616 84.8461" fill="#DBBE8F"/>
<path d="M134.885 75.1621C134.885 75.1621 135.161 79.0267 132.318 83.7227L131.616 84.8461" stroke="#263238" stroke-linecap="round" stroke-linejoin="round"/>
<path d="M120.089 93.8172C119.699 93.7471 119.305 93.6984 118.91 93.6712C114.568 93.4128 110.995 93.1993 108.799 91.5254" fill="#DBBE8F"/>
<path d="M120.089 93.8172C119.699 93.7471 119.305 93.6984 118.91 93.6712C114.568 93.4128 110.995 93.1993 108.799 91.5254" stroke="#263238" stroke-linecap="round" stroke-linejoin="round"/>
<path d="M125.885 96.909C124.921 95.9219 123.777 95.1287 122.515 94.5723Z" fill="#DBBE8F"/>
<path d="M125.885 96.909C124.921 95.9219 123.777 95.1287 122.515 94.5723" stroke="#263238" stroke-linecap="round" stroke-linejoin="round"/>
<path d="M104.344 101.348C104.344 101.348 100.159 101.286 96.9289 89.6526C93.699 78.0194 92.3397 75.8624 90.2894 78.3621C89.6857 79.1222 89.2397 79.9951 88.9773 80.9297C88.715 81.8643 88.6416 82.8418 88.7615 83.8051C88.7615 83.8051 86.6944 79.1822 84.4026 81.592C83.7554 82.2378 83.3472 83.0846 83.2452 83.9931C83.1431 84.9017 83.3532 85.8179 83.8409 86.5912C83.8409 86.5912 77.4316 81.137 75.5892 84.5354C73.7468 87.9338 74.9039 89.2032 77.1676 91.1636C79.4314 93.124 86.0877 96.4775 86.0877 96.4775C86.0877 96.4775 79.0831 96.2584 74.3815 95.0114C69.6799 93.7644 65.0851 92.832 64.4728 95.8821C63.8605 98.9322 70.4495 101.718 70.4495 101.718C70.4495 101.718 64.6694 102.527 65.995 105.493C67.3207 108.459 71.0505 108.785 71.0505 108.785C71.0505 108.785 66.3377 111.093 70.0338 113.599C73.7299 116.104 79.1056 113.503 79.1056 113.503C79.5234 113.964 80.09 114.263 80.7061 114.348C81.3222 114.433 81.9486 114.299 82.4759 113.969C84.5486 112.846 89.1828 108.588 89.1828 108.588C89.1828 108.588 84.8688 114.879 81.8299 117.828C78.791 120.777 83.5151 124.21 84.9081 123.384C85.9652 122.689 86.9264 121.858 87.7673 120.912C87.7673 120.912 87.8909 125.614 90.295 124.339C92.6992 123.064 93.48 121.721 93.48 121.721C93.48 121.721 94.4237 124.271 95.8673 122.637C97.3109 121.002 98.2265 118.609 98.6759 116.037C99.1252 113.464 100.091 109.459 100.091 109.459C101.064 107.962 102.55 106.873 104.271 106.397L106.967 105.785L108.023 103.724L104.344 101.348Z" fill="#DBBE8F" stroke="#263238" stroke-linecap="round" stroke-linejoin="round"/>
<path d="M92.593 96.6459C92.593 96.6459 88.4026 96.5841 85.1783 84.9509C81.9541 73.3177 80.561 71.1607 78.5332 73.666C77.9295 74.4262 77.4835 75.2991 77.2212 76.2337C76.9588 77.1683 76.8854 78.1458 77.0053 79.1091C77.0053 79.1091 74.9382 74.4861 72.652 76.8959C72.0048 77.5417 71.5967 78.3885 71.4946 79.297C71.3925 80.2056 71.6026 81.1218 72.0903 81.8952C72.0903 81.8952 65.6867 76.4409 63.8386 79.8393C61.9906 83.2377 63.159 84.5072 65.4227 86.4676C67.6864 88.428 74.3821 91.7758 74.3821 91.7758C74.3821 91.7758 67.3494 91.5567 62.6253 90.3041C57.9013 89.0515 53.3289 88.1303 52.711 91.1748C52.0931 94.2193 58.654 97.0167 58.654 97.0167C58.654 97.0167 52.8739 97.8255 54.2052 100.791C55.5364 103.757 59.2606 104.083 59.2606 104.083C59.2606 104.083 54.5478 106.392 58.2495 108.897C61.9513 111.402 67.3157 108.802 67.3157 108.802C67.7342 109.261 68.3006 109.56 68.9164 109.645C69.5322 109.73 70.1584 109.597 70.686 109.268C72.7587 108.144 77.3929 103.886 77.3929 103.886C77.3929 103.886 73.0733 110.178 70.0344 113.127C66.9955 116.076 71.7196 119.508 73.1182 118.682C74.174 117.985 75.135 117.154 75.9774 116.211C75.9774 116.211 76.101 120.912 78.4995 119.637C80.898 118.362 81.6901 117.019 81.6901 117.019C81.6901 117.019 82.6338 119.57 84.0774 117.935C85.521 116.3 86.4366 113.908 86.886 111.335C87.3353 108.762 88.2959 104.757 88.2959 104.757C89.268 103.26 90.7547 102.171 92.4751 101.696L95.1713 101.083L96.233 99.022L92.593 96.6459Z" fill="#DBBE8F" stroke="#263238" stroke-linecap="round" stroke-linejoin="round"/>
<path d="M77.8688 106.432C76.3657 106.44 74.864 106.34 73.375 106.135Z" fill="#DBBE8F"/>
<path d="M77.8688 106.432C76.3657 106.44 74.864 106.34 73.375 106.135" stroke="#263238" stroke-linecap="round" stroke-linejoin="round"/>
<path d="M103.501 102.56C103.501 102.56 93.6598 101.819 88.2842 104.425C85.6275 105.612 82.7664 106.274 79.8584 106.374" fill="#DBBE8F"/>
<path d="M103.501 102.56C103.501 102.56 93.6598 101.819 88.2842 104.425C85.6275 105.612 82.7664 106.274 79.8584 106.374" stroke="#263238" stroke-linecap="round" stroke-linejoin="round"/>
<path d="M91.7451 96.9434C94.0257 99.4711 95.5199 100.825 97.6432 101.437Z" fill="#DBBE8F"/>
<path d="M91.7451 96.9434C94.0257 99.4711 95.5199 100.825 97.6432 101.437" stroke="#263238" stroke-linecap="round" stroke-linejoin="round"/>
<path d="M82.2051 89.5117C82.2051 89.5117 85.9686 90.3992 89.5973 94.5223L90.4904 95.539" fill="#DBBE8F"/>
<path d="M82.2051 89.5117C82.2051 89.5117 85.9686 90.3992 89.5973 94.5223L90.4904 95.539" stroke="#263238" stroke-linecap="round" stroke-linejoin="round"/>
<path d="M95.5693 109.213C95.3856 109.565 95.2206 109.927 95.075 110.297C93.5303 114.364 92.2664 117.706 90.0195 119.285" fill="#DBBE8F"/>
<path d="M95.5693 109.213C95.3856 109.565 95.2206 109.927 95.075 110.297C93.5303 114.364 92.2664 117.706 90.0195 119.285" stroke="#263238" stroke-linecap="round" stroke-linejoin="round"/>
<path d="M100.26 104.609C99.0289 105.226 97.9299 106.077 97.0244 107.115Z" fill="#DBBE8F"/>
<path d="M100.26 104.609C99.0289 105.226 97.9299 106.077 97.0244 107.115" stroke="#263238" stroke-linecap="round" stroke-linejoin="round"/>
<path d="M140.833 86.5523C140.833 86.5523 137.069 84.7885 138.204 73.2845C139.338 61.7805 138.855 59.3314 136.131 60.6851C135.322 61.1022 134.611 61.6873 134.046 62.4012C133.481 63.1152 133.076 63.9415 132.856 64.825C132.856 64.825 132.598 59.9324 129.688 61.112C126.778 62.2916 127.441 65.2687 127.441 65.2687C127.441 65.2687 123.554 57.8765 120.701 60.1009C117.847 62.3253 118.454 63.9094 119.819 66.5439C121.184 69.1783 126.059 74.8461 126.059 74.8461C126.059 74.8461 119.779 71.7791 115.948 68.757C112.117 65.735 108.303 63.05 106.686 65.471C105.068 67.892 110.056 73.0261 110.056 73.0261C110.056 73.0261 104.551 71.3746 104.72 74.5146C104.888 77.6546 108.129 79.4578 108.129 79.4578C108.129 79.4578 103.074 79.5533 105.534 83.255C107.994 86.9567 113.769 86.8725 113.769 86.8725C113.989 87.4465 114.391 87.9327 114.913 88.2564C115.436 88.5801 116.05 88.7234 116.662 88.6643C118.909 88.5239 124.593 86.6927 124.593 86.6927C124.593 86.6927 118.499 90.4394 114.729 91.7763C110.96 93.1132 114.016 98.0507 115.578 97.899C116.765 97.7242 117.923 97.3897 119.021 96.9048C119.021 96.9048 117.493 101.067 120.111 100.932C122.728 100.797 123.902 99.9437 123.902 99.9437C123.902 99.9437 123.869 102.561 125.745 101.719C127.621 100.876 129.278 99.1573 130.564 97.0789C131.851 95.0005 134.131 91.8999 134.131 91.8999C135.564 90.975 137.294 90.6278 138.973 90.9281L141.625 91.4898L143.31 90.1192L140.833 86.5523Z" fill="#DBBE8F" stroke="#263238" stroke-linecap="round" stroke-linejoin="round"/>
<path d="M115.134 80.1858C113.78 79.5784 112.467 78.8842 111.202 78.1074Z" fill="#DBBE8F"/>
<path d="M115.134 80.1858C113.78 79.5784 112.467 78.8842 111.202 78.1074" stroke="#263238" stroke-linecap="round" stroke-linejoin="round"/>
<path d="M139.649 87.2722C139.649 87.2722 131.009 82.5987 125.252 82.6886C122.394 82.6324 119.573 82.0418 116.933 80.9473" fill="#DBBE8F"/>
<path d="M139.649 87.2722C139.649 87.2722 131.009 82.5987 125.252 82.6886C122.394 82.6324 119.573 82.0418 116.933 80.9473" stroke="#263238" stroke-linecap="round" stroke-linejoin="round"/>
<path d="M130.979 77.5547C132.159 80.6947 133.041 82.4922 134.749 83.8796Z" fill="#DBBE8F"/>
<path d="M130.979 77.5547C132.159 80.6947 133.041 82.4922 134.749 83.8796" stroke="#263238" stroke-linecap="round" stroke-linejoin="round"/>
<path d="M124.936 67.1504C124.936 67.1504 128.031 69.4647 129.879 74.5539C130.036 74.992 130.188 75.4077 130.328 75.8065" fill="#DBBE8F"/>
<path d="M124.936 67.1504C124.936 67.1504 128.031 69.4647 129.879 74.5539C130.036 74.992 130.188 75.4077 130.328 75.8065" stroke="#263238" stroke-linecap="round" stroke-linejoin="round"/>
<path d="M130.16 89.8535C129.87 90.0843 129.596 90.3338 129.34 90.6006C126.531 93.5272 124.205 95.9313 121.61 96.42" fill="#DBBE8F"/>
<path d="M130.16 89.8535C129.87 90.0843 129.596 90.3338 129.34 90.6006C126.531 93.5272 124.205 95.9313 121.61 96.42" stroke="#263238" stroke-linecap="round" stroke-linejoin="round"/>
<path d="M136.001 87.7383C134.691 87.7757 133.4 88.0716 132.204 88.6089Z" fill="#DBBE8F"/>
<path d="M136.001 87.7383C134.691 87.7757 133.4 88.0716 132.204 88.6089" stroke="#263238" stroke-linecap="round" stroke-linejoin="round"/>
<path d="M95.5582 107.548C95.5582 107.548 83.9307 92.5447 83.9307 89.6518C83.9307 86.759 89.3288 69.9917 92.4126 72.115C95.4965 74.2383 105.13 92.5447 104.36 99.8639C103.591 107.183 99.0971 110.216 95.5582 107.548Z" fill="#919191" stroke="#263238" stroke-miterlimit="10"/>
<path d="M92.2326 75.002C92.2326 75.002 88.1882 87.1463 89.7273 89.6516C91.2664 92.1569 94.9345 104.301 96.6702 104.88C98.4059 105.458 100.327 106.031 101.484 102.756" fill="#919191"/>
<path d="M92.2326 75.002C92.2326 75.002 88.1882 87.1463 89.7273 89.6516C91.2664 92.1569 94.9345 104.301 96.6702 104.88C98.4059 105.458 100.327 106.031 101.484 102.756" stroke="#263238" stroke-miterlimit="10"/>
<path d="M95.3169 96.8573C95.3169 96.8573 95.0754 98.3066 91.6826 101.351C88.2898 104.396 78.881 106.036 82.4536 113.956C86.0261 121.876 93.0588 129.218 95.845 122.623C98.6311 116.029 97.8278 105.772 100.26 104.598C102.692 103.424 110.287 104.446 112.433 99.3289C114.578 94.2116 108.821 84.1625 103.372 87.853C100.019 90.1827 97.2603 93.2669 95.3169 96.8573V96.8573Z" fill="white" stroke="#263238" stroke-miterlimit="10"/>
<path d="M99.7379 124.574C99.7379 124.574 95.3172 108.908 95.3172 96.8531C95.3172 84.7986 94.1151 74.7607 96.9237 73.553C99.7323 72.3453 102.541 71.5477 104.159 72.7497C105.776 73.9518 104.962 90.427 104.962 102.482C104.962 114.536 109.77 124.175 109.77 128.191C109.77 132.208 104.951 134.617 102.136 133.809C99.3223 133 99.7379 124.574 99.7379 124.574Z" fill="#D6D6D6" stroke="#263238" stroke-miterlimit="10"/>
<path d="M102.389 77.5977C102.389 77.5977 101.496 95.1458 102.687 103.476C103.877 111.806 106.259 121.917 106.557 125.782C106.855 129.647 107.444 130.276 104.473 130.837" stroke="#263238" stroke-miterlimit="10"/>
<path d="M140.175 125.618C140.175 125.618 136.552 123.523 139.394 111.794C142.237 100.066 142.102 97.5099 139.091 98.6952C138.193 99.0636 137.378 99.6083 136.694 100.297C136.01 100.986 135.471 101.805 135.108 102.706C135.108 102.706 135.552 97.6504 132.378 98.6502C131.501 98.9045 130.736 99.4492 130.208 100.195C129.68 100.941 129.422 101.844 129.474 102.756C129.474 102.756 126.537 94.8923 123.267 96.9426C119.998 98.9929 120.403 100.689 121.425 103.498C122.447 106.306 126.626 112.485 126.626 112.485C126.626 112.485 120.588 108.874 117.077 105.481C113.567 102.088 110.016 99.049 107.994 101.414C105.972 103.779 110.376 109.43 110.376 109.43C110.376 109.43 104.933 107.318 104.646 110.553C104.36 113.789 107.455 115.884 107.455 115.884C107.455 115.884 102.214 115.603 104.225 119.591C106.236 123.579 112.196 123.922 112.196 123.922C112.335 124.531 112.685 125.07 113.183 125.447C113.682 125.823 114.297 126.011 114.92 125.978C117.279 125.978 123.397 124.54 123.397 124.54C123.397 124.54 116.56 127.91 112.471 129.034C108.382 130.157 110.825 135.426 112.471 135.387C113.732 135.296 114.974 135.039 116.167 134.623C116.167 134.623 113.988 138.791 116.729 138.847C119.47 138.903 120.79 138.111 120.79 138.111C120.79 138.111 120.369 140.796 122.43 140.071C124.492 139.347 126.452 137.701 128.081 135.668C129.71 133.634 132.519 130.612 132.519 130.612C134.096 129.778 135.925 129.55 137.659 129.972L140.31 130.747L142.242 129.466L140.175 125.618Z" fill="#DBBE8F" stroke="#263238" stroke-linecap="round" stroke-linejoin="round"/>
<path d="M114.577 117.167C113.269 116.445 112.014 115.632 110.819 114.734Z" fill="#DBBE8F"/>
<path d="M114.577 117.167C113.269 116.445 112.014 115.632 110.819 114.734" stroke="#263238" stroke-linecap="round" stroke-linejoin="round"/>
<path d="M138.85 126.266C138.85 126.266 130.615 120.851 124.655 120.486C121.749 120.228 118.92 119.41 116.325 118.076" fill="#DBBE8F"/>
<path d="M138.85 126.266C138.85 126.266 130.615 120.851 124.655 120.486C121.749 120.228 118.92 119.41 116.325 118.076" stroke="#263238" stroke-linecap="round" stroke-linejoin="round"/>
<path d="M131.316 115.637C132.075 118.951 132.726 120.866 134.288 122.417Z" fill="#DBBE8F"/>
<path d="M131.316 115.637C132.075 118.951 132.726 120.866 134.288 122.417" stroke="#263238" stroke-linecap="round" stroke-linejoin="round"/>
<path d="M126.622 104.5C126.622 104.5 129.481 107.112 130.644 112.476C130.745 112.937 130.841 113.375 130.93 113.796" fill="#DBBE8F"/>
<path d="M126.622 104.5C126.622 104.5 129.481 107.112 130.644 112.476C130.745 112.937 130.841 113.375 130.93 113.796" stroke="#263238" stroke-linecap="round" stroke-linejoin="round"/>
<path d="M128.684 128.215C128.351 128.431 128.032 128.667 127.729 128.923C124.398 131.731 121.651 134.017 118.904 134.321" fill="#DBBE8F"/>
<path d="M128.684 128.215C128.351 128.431 128.032 128.667 127.729 128.923C124.398 131.731 121.651 134.017 118.904 134.321" stroke="#263238" stroke-linecap="round" stroke-linejoin="round"/>
<path d="M130.975 127.092C132.279 126.622 133.662 126.41 135.047 126.469Z" fill="#DBBE8F"/>
<path d="M130.975 127.092C132.279 126.622 133.662 126.41 135.047 126.469" stroke="#263238" stroke-linecap="round" stroke-linejoin="round"/>
<path d="M129.762 139.949C129.762 139.949 118.157 124.945 118.157 122.052C118.157 119.159 123.55 102.392 126.634 104.515C129.717 106.639 139.357 124.945 138.587 132.264C137.817 139.583 133.279 142.639 129.762 139.949Z" fill="#919191" stroke="#263238" stroke-miterlimit="10"/>
<path d="M126.441 107.426C126.441 107.426 122.396 119.57 123.935 122.075C125.474 124.581 129.137 136.725 130.873 137.304C132.608 137.882 134.535 138.427 135.692 135.18" fill="#919191"/>
<path d="M126.441 107.426C126.441 107.426 122.396 119.57 123.935 122.075C125.474 124.581 129.137 136.725 130.873 137.304C132.608 137.882 134.535 138.427 135.692 135.18" stroke="#263238" stroke-miterlimit="10"/>
<path d="M114.882 87.9802C114.882 87.9802 112.803 95.1197 110.719 107.017C108.635 118.914 109.208 133.772 110.124 136.17C111.04 138.569 114.584 139.439 116.37 138.844C118.157 138.248 118.157 137.361 118.454 125.458C118.752 113.555 118.752 108.208 122.021 99.282C125.29 90.3563 124.105 86.4917 121.724 84.4133C119.342 82.335 117.263 81.4362 114.882 87.9802Z" fill="#D6D6D6" stroke="#263238" stroke-miterlimit="10"/>
<path d="M122.021 90.957C119.152 96.6306 117.338 102.778 116.668 109.101C115.477 119.807 118.549 130.126 117.01 133.294C116.668 134.145 116.007 134.829 115.167 135.2C114.327 135.57 113.376 135.598 112.517 135.277" stroke="#263238" stroke-miterlimit="10"/>
<path d="M61.1025 96.6978C61.1025 96.6978 63.9898 103.545 69.8766 114.111C75.7634 124.677 85.6047 135.822 87.8066 137.102C90.0086 138.383 93.334 136.827 94.3394 135.243C95.3449 133.659 94.7888 132.962 87.5146 123.542C80.2403 114.122 76.8419 109.966 73.7693 100.978C70.6967 91.9906 67.3151 89.7437 64.1583 89.6257C61.0014 89.5078 58.8163 90.1088 61.1025 96.6978Z" fill="#D6D6D6" stroke="#263238" stroke-miterlimit="10"/>
<path d="M68.5176 94.4941C69.8739 100.706 72.3482 106.62 75.8199 111.947C81.6506 121.007 90.5426 127.079 91.3515 130.483C91.6221 131.363 91.5386 132.313 91.1189 133.131C90.6992 133.95 89.9764 134.572 89.1046 134.865" stroke="#263238" stroke-miterlimit="10"/>
<path d="M150.876 118.32C150.876 118.32 145.523 107.613 140.164 95.7162C134.805 83.819 129.458 75.7864 126.778 79.651C124.099 83.5156 124.105 94.8174 125.891 100.772C127.677 106.726 126.481 103.451 127.672 106.72C128.862 109.989 127.374 107.316 130.649 113.86C133.923 120.404 134.811 122.785 136.895 123.381C138.979 123.976 151.472 129.627 150.876 118.32Z" fill="#C2C2C2" stroke="#263238" stroke-miterlimit="10"/>
<path d="M133.025 91.5527C133.025 91.5527 133.919 93.9288 133.919 104.045C133.919 114.162 133.621 115.347 133.621 115.347" fill="#C2C2C2"/>
<path d="M133.025 91.5527C133.025 91.5527 133.919 93.9288 133.919 104.045C133.919 114.162 133.621 115.347 133.621 115.347" stroke="#263238" stroke-miterlimit="10"/>
<path d="M136.3 117.133C138.086 109.994 136.598 96.3105 136.598 96.3105Z" fill="#C2C2C2"/>
<path d="M136.3 117.133C138.086 109.994 136.598 96.3105 136.598 96.3105" stroke="#263238" stroke-miterlimit="10"/>
<path d="M139.867 102.875C139.867 102.875 140.462 112.688 138.682 120.423Z" fill="#C2C2C2"/>
<path d="M139.867 102.875C139.867 102.875 140.462 112.688 138.682 120.423" stroke="#263238" stroke-miterlimit="10"/>
<path d="M142.545 110.588C142.545 110.588 142.248 117.132 141.354 121.294Z" fill="#C2C2C2"/>
<path d="M142.545 110.588C142.545 110.588 142.248 117.132 141.354 121.294" stroke="#263238" stroke-miterlimit="10"/>
<path d="M130.351 83.2148C130.351 83.2148 142.546 104.038 147.303 117.126Z" fill="#C2C2C2"/>
<path d="M130.351 83.2148C130.351 83.2148 142.546 104.038 147.303 117.126" stroke="#263238" stroke-miterlimit="10"/>
<path d="M153.455 104.803C153.455 104.803 148.102 94.0907 142.749 82.1935C137.395 70.2962 132.037 62.2637 129.363 66.1339C126.689 70.0041 126.683 81.3003 128.47 87.2489C130.256 93.1975 129.065 89.9283 130.25 93.1975C131.435 96.4667 129.958 93.793 133.227 100.337C136.497 106.881 137.39 109.263 139.474 109.886C141.558 110.51 154.05 116.104 153.455 104.803Z" fill="#C2C2C2" stroke="#263238" stroke-miterlimit="10"/>
<path d="M135.608 78.0293C135.608 78.0293 136.502 80.4054 136.502 90.5219C136.502 100.638 136.204 101.824 136.204 101.824" fill="#C2C2C2"/>
<path d="M135.608 78.0293C135.608 78.0293 136.502 80.4054 136.502 90.5219C136.502 100.638 136.204 101.824 136.204 101.824" stroke="#263238" stroke-miterlimit="10"/>
<path d="M139.176 82.7871C139.176 82.7871 140.664 96.4706 138.878 103.61Z" fill="#C2C2C2"/>
<path d="M139.176 82.7871C139.176 82.7871 140.664 96.4706 138.878 103.61" stroke="#263238" stroke-miterlimit="10"/>
<path d="M142.451 89.332C142.451 89.332 143.046 99.1509 141.26 106.88Z" fill="#C2C2C2"/>
<path d="M142.451 89.332C142.451 89.332 143.046 99.1509 141.26 106.88" stroke="#263238" stroke-miterlimit="10"/>
<path d="M145.123 97.0684C145.123 97.0684 144.826 103.612 143.933 107.775Z" fill="#C2C2C2"/>
<path d="M145.123 97.0684C145.123 97.0684 144.826 103.612 143.933 107.775" stroke="#263238" stroke-miterlimit="10"/>
<path d="M132.929 69.7031C132.929 69.7031 145.124 90.5261 149.881 103.614Z" fill="#C2C2C2"/>
<path d="M132.929 69.7031C132.929 69.7031 145.124 90.5261 149.881 103.614" stroke="#263238" stroke-miterlimit="10"/>
<path d="M124.448 132.993C124.448 132.993 123.245 118.534 132.081 107.687C140.917 96.8404 140.114 85.5892 138.507 78.7587C136.901 71.9282 136.502 68.7152 139.715 71.1305C142.928 73.5459 149.759 77.9554 152.972 96.0372C156.185 114.119 163.818 141.834 165.425 159.107C167.031 176.38 168.234 190.844 171.452 200.084C174.671 209.325 170.245 216.554 165.835 220.171C161.426 223.789 155.792 220.171 153.781 212.538C151.77 204.904 124.448 132.993 124.448 132.993Z" fill="white" stroke="#263238" stroke-miterlimit="10"/>
<path d="M99.0975 129.924C99.0975 129.924 93.7612 119.212 88.4248 107.315C83.0885 95.4173 77.7185 87.3848 75.0391 91.255C72.3597 95.1252 72.3653 106.421 74.1459 112.37C75.9266 118.319 74.7414 115.049 75.9322 118.319C77.1231 121.588 75.6345 118.914 78.9093 125.458C82.1841 132.002 83.0717 134.384 85.1556 134.979C87.2396 135.575 99.7154 141.226 99.0975 129.924Z" fill="#C2C2C2" stroke="#263238" stroke-miterlimit="10"/>
<path d="M81.2686 103.15C81.2686 103.15 82.1617 105.526 82.1617 115.643C82.1617 125.76 81.864 126.945 81.864 126.945" fill="#C2C2C2"/>
<path d="M81.2686 103.15C81.2686 103.15 82.1617 105.526 82.1617 115.643C82.1617 125.76 81.864 126.945 81.864 126.945" stroke="#263238" stroke-miterlimit="10"/>
<path d="M84.8417 107.934C84.8417 107.934 86.3302 121.617 84.5439 128.757Z" fill="#C2C2C2"/>
<path d="M84.8417 107.934C84.8417 107.934 86.3302 121.617 84.5439 128.757" stroke="#263238" stroke-miterlimit="10"/>
<path d="M88.11 114.451C88.11 114.451 88.7055 124.27 86.9248 131.999Z" fill="#C2C2C2"/>
<path d="M88.11 114.451C88.11 114.451 88.7055 124.27 86.9248 131.999" stroke="#263238" stroke-miterlimit="10"/>
<path d="M90.7895 122.188C90.7895 122.188 90.4918 128.732 89.5986 132.894Z" fill="#C2C2C2"/>
<path d="M90.7895 122.188C90.7895 122.188 90.4918 128.732 89.5986 132.894" stroke="#263238" stroke-miterlimit="10"/>
<path d="M78.5947 94.8203C78.5947 94.8203 90.7896 115.643 95.5474 128.731Z" fill="#C2C2C2"/>
<path d="M78.5947 94.8203C78.5947 94.8203 90.7896 115.643 95.5474 128.731" stroke="#263238" stroke-miterlimit="10"/>
<path d="M145.338 149.497C145.338 149.497 144.484 138.763 128.868 128.579C110.388 116.524 75.033 118.934 64.1862 108.492C53.3394 98.0493 53.7439 86.0229 52.5362 91.6401C51.3285 97.2573 53.3394 114.94 61.3776 134.224C69.4158 153.508 100.344 171.584 108.781 178.038C117.218 184.492 132.081 208.966 132.486 214.994C132.89 221.021 135.699 230.261 141.321 232.671C146.944 235.081 156.185 222.627 158.594 201.338C161.004 180.049 145.338 149.497 145.338 149.497Z" fill="white" stroke="#263238" stroke-miterlimit="10"/>
<path d="M111.596 181.206C111.596 181.206 144.136 179.6 164.622 155.092L171.452 200.086C171.452 200.086 167.436 206.916 153.775 212.539C140.114 218.162 132.486 214.949 132.486 214.949L111.596 181.206Z" fill="#DBBE8F" stroke="#263238" stroke-linecap="round" stroke-linejoin="round"/>
<path d="M111.016 68.0476C111.016 68.0476 107.264 65.3962 108.247 70.7382C109.23 76.0801 110.674 77.1362 111.91 73.6984C113.145 70.2607 118.454 68.0476 119.644 71.3224C120.835 74.5972 122.914 82.0287 124.402 82.0287C125.891 82.0287 124.155 78.3158 126.778 79.647C129.402 80.9783 126.188 86.1911 128.267 90.359C130.345 94.527 136.895 90.359 136.299 87.0842C135.704 83.8094 131.806 70.8786 131.806 70.8786C131.806 70.8786 125.885 76.3778 126.188 72.2099C126.492 68.0419 125.256 61.1328 123.492 60.1273C121.728 59.1218 122.155 69.2047 119.712 67.5869C117.268 65.9692 117.044 62.9752 114.774 64.4694C113.335 65.4488 112.065 66.6575 111.016 68.0476V68.0476Z" fill="white" stroke="#263238" stroke-miterlimit="10"/>
<path d="M133.019 191.34L153.173 193.356" stroke="#263238" stroke-miterlimit="10"/>
<path d="M146.456 195.705L154.517 196.716" stroke="#263238" stroke-miterlimit="10"/>
<path d="M108.208 155.272C109.152 156.019 109.449 157.216 108.871 157.94C108.292 158.665 107.062 158.648 106.118 157.901C105.175 157.154 104.877 155.952 105.456 155.227C106.034 154.502 107.264 154.519 108.208 155.272Z" fill="#263238"/>
<path d="M119.031 162.763C119.131 162.892 119.193 163.046 119.209 163.208C119.226 163.37 119.197 163.533 119.125 163.68C119.053 163.826 118.942 163.949 118.804 164.035C118.666 164.122 118.506 164.167 118.343 164.167C118.18 164.167 118.021 164.122 117.883 164.035C117.744 163.949 117.633 163.826 117.561 163.68C117.49 163.533 117.461 163.37 117.477 163.208C117.494 163.046 117.555 162.892 117.655 162.763C117.84 162.584 118.086 162.484 118.343 162.484C118.6 162.484 118.847 162.584 119.031 162.763Z" fill="#263238"/>
<path d="M124.963 151.746C125.063 151.874 125.125 152.028 125.141 152.19C125.158 152.352 125.128 152.516 125.057 152.662C124.985 152.808 124.874 152.932 124.736 153.018C124.597 153.104 124.438 153.15 124.275 153.15C124.112 153.15 123.952 153.104 123.814 153.018C123.676 152.932 123.565 152.808 123.493 152.662C123.421 152.516 123.392 152.352 123.409 152.19C123.425 152.028 123.487 151.874 123.587 151.746C123.771 151.567 124.018 151.467 124.275 151.467C124.532 151.467 124.779 151.567 124.963 151.746Z" fill="#263238"/>
<path d="M160.561 147.361C160.661 147.489 160.722 147.643 160.739 147.805C160.755 147.967 160.726 148.131 160.654 148.277C160.583 148.423 160.472 148.547 160.333 148.633C160.195 148.719 160.035 148.765 159.873 148.765C159.71 148.765 159.55 148.719 159.412 148.633C159.274 148.547 159.162 148.423 159.091 148.277C159.019 148.131 158.99 147.967 159.006 147.805C159.023 147.643 159.085 147.489 159.185 147.361C159.37 147.183 159.616 147.084 159.873 147.084C160.129 147.084 160.376 147.183 160.561 147.361V147.361Z" fill="#263238"/>
<path d="M155.887 156.685C156.285 156.449 156.359 155.839 156.053 155.321C155.747 154.803 155.176 154.573 154.778 154.808C154.38 155.044 154.306 155.654 154.612 156.172C154.918 156.691 155.489 156.92 155.887 156.685Z" fill="#263238"/>
<path d="M153.174 134.59C153.218 134.747 153.218 134.913 153.173 135.069C153.128 135.225 153.041 135.366 152.92 135.475C152.799 135.584 152.65 135.657 152.49 135.686C152.33 135.714 152.165 135.698 152.014 135.637C151.863 135.577 151.731 135.475 151.635 135.344C151.539 135.213 151.481 135.058 151.468 134.896C151.456 134.734 151.489 134.571 151.564 134.427C151.639 134.282 151.753 134.162 151.893 134.079C152.131 133.982 152.398 133.981 152.637 134.077C152.875 134.172 153.068 134.356 153.174 134.59Z" fill="#263238"/>
<path d="M149.411 220.399C149.455 220.554 149.454 220.719 149.408 220.873C149.363 221.028 149.276 221.168 149.155 221.275C149.035 221.383 148.887 221.455 148.728 221.483C148.569 221.511 148.406 221.494 148.256 221.434C148.106 221.374 147.976 221.273 147.881 221.143C147.785 221.013 147.728 220.859 147.715 220.698C147.703 220.537 147.736 220.376 147.81 220.233C147.884 220.09 147.997 219.97 148.136 219.888C148.373 219.791 148.639 219.79 148.877 219.885C149.115 219.981 149.306 220.165 149.411 220.399V220.399Z" fill="#263238"/>
<path d="M162.571 211.157C162.668 211.25 162.742 211.364 162.788 211.491C162.833 211.617 162.849 211.752 162.833 211.886C162.818 212.019 162.772 212.147 162.699 212.26C162.626 212.372 162.527 212.466 162.412 212.535C162.296 212.603 162.166 212.644 162.032 212.654C161.898 212.664 161.764 212.642 161.64 212.592C161.515 212.541 161.404 212.462 161.315 212.361C161.227 212.261 161.162 212.141 161.128 212.011C160.974 211.805 160.906 211.547 160.937 211.292C160.969 211.037 161.097 210.803 161.296 210.64C161.534 210.542 161.801 210.542 162.039 210.638C162.277 210.735 162.468 210.921 162.571 211.157Z" fill="#263238"/>
<path d="M160.887 216.53C160.931 216.686 160.931 216.852 160.886 217.008C160.841 217.165 160.753 217.305 160.633 217.414C160.512 217.523 160.363 217.596 160.203 217.625C160.043 217.654 159.878 217.637 159.727 217.577C159.576 217.516 159.444 217.415 159.348 217.284C159.252 217.153 159.194 216.997 159.181 216.835C159.169 216.673 159.202 216.511 159.277 216.366C159.352 216.222 159.466 216.102 159.606 216.019C159.844 215.922 160.111 215.921 160.349 216.016C160.588 216.111 160.781 216.296 160.887 216.53Z" fill="#263238"/>
<path d="M164.588 214.848C164.631 215.003 164.63 215.168 164.585 215.323C164.54 215.478 164.452 215.617 164.332 215.725C164.212 215.832 164.064 215.904 163.905 215.932C163.746 215.96 163.583 215.943 163.433 215.883C163.283 215.823 163.153 215.723 163.057 215.592C162.962 215.462 162.905 215.308 162.892 215.147C162.88 214.986 162.913 214.825 162.987 214.682C163.061 214.539 163.174 214.419 163.313 214.337C163.55 214.24 163.816 214.239 164.054 214.335C164.292 214.43 164.483 214.614 164.588 214.848V214.848Z" fill="#263238"/>
<path d="M87.6876 126.192C87.7321 126.348 87.7319 126.514 87.687 126.67C87.642 126.827 87.5542 126.967 87.4334 127.076C87.3126 127.185 87.1637 127.258 87.0036 127.287C86.8435 127.316 86.6785 127.299 86.5274 127.238C86.3763 127.178 86.2451 127.077 86.1488 126.946C86.0524 126.815 85.9946 126.659 85.9821 126.497C85.9695 126.335 86.0027 126.172 86.0778 126.028C86.1528 125.884 86.2669 125.763 86.4069 125.68C86.6449 125.582 86.9119 125.58 87.1511 125.676C87.3903 125.771 87.5828 125.956 87.6876 126.192V126.192Z" fill="#263238"/>
<path d="M78.3137 146.341C78.4134 146.47 78.4751 146.624 78.4917 146.786C78.5083 146.948 78.4791 147.111 78.4074 147.258C78.3357 147.404 78.2244 147.527 78.0862 147.613C77.948 147.699 77.7884 147.745 77.6255 147.745C77.4627 147.745 77.3031 147.699 77.1649 147.613C77.0267 147.527 76.9154 147.404 76.8437 147.258C76.772 147.111 76.7428 146.948 76.7594 146.786C76.776 146.624 76.8377 146.47 76.9374 146.341C77.1226 146.164 77.3691 146.064 77.6255 146.064C77.882 146.064 78.1285 146.164 78.3137 146.341V146.341Z" fill="#263238"/>
<path d="M106.528 143.017C106.625 143.146 106.685 143.299 106.701 143.459C106.716 143.619 106.686 143.781 106.615 143.926C106.543 144.07 106.433 144.192 106.296 144.277C106.159 144.362 106.001 144.407 105.84 144.407C105.678 144.407 105.52 144.362 105.383 144.277C105.247 144.192 105.136 144.07 105.064 143.926C104.993 143.781 104.963 143.619 104.979 143.459C104.994 143.299 105.054 143.146 105.152 143.017C105.335 142.837 105.582 142.736 105.84 142.736C106.097 142.736 106.344 142.837 106.528 143.017V143.017Z" fill="#263238"/>
<path d="M143.098 102.348L139.396 111.796C139.396 111.796 135.217 117.638 134.29 122.418C133.739 125.348 133.879 128.365 134.7 131.231" fill="#C2C2C2"/>
<path d="M143.098 102.348L139.396 111.796C139.396 111.796 135.217 117.638 134.29 122.418C133.739 125.348 133.879 128.365 134.7 131.231" stroke="#263238" stroke-miterlimit="10"/>
<path d="M135.047 153.396C135.047 153.396 126.307 162.126 126.622 170.523Z" fill="#C2C2C2"/>
<path d="M135.047 153.396C135.047 153.396 126.307 162.126 126.622 170.523" stroke="#263238" stroke-miterlimit="10"/>
<path d="M122.949 167.834C122.949 167.834 120.596 173.547 115.226 174.889Z" fill="#C2C2C2"/>
<path d="M122.949 167.834C122.949 167.834 120.596 173.547 115.226 174.889" stroke="#263238" stroke-miterlimit="10"/>
</svg>
