<svg width="262" height="267" fill="none" xmlns="http://www.w3.org/2000/svg"><path d="M261.21 128.661c-2.769 23.48-13.481 50.785-34.905 63.322-32.349 18.958-29.642 48.106-92.79 60.778a129.904 129.904 0 0 1-28.002 2.646c-4.599-.085-9.188-.46-13.74-1.123-40.134-5.859-67.142-33.754-77.05-67.435-13.038-44.286 12.998-73.304 30.254-90.751 17.256-17.447 29.9-71.9 91.88-84.82a125.687 125.687 0 0 1 28.777-2.775c22.053.562 46.106 7.786 62.75 22.896a73.411 73.411 0 0 1 3.651 3.528c23.131 23.755 32.961 61.721 29.175 93.734z" fill="#DBBE8F"/><path opacity=".7" d="M261.21 128.661c-2.769 23.48-13.481 50.785-34.905 63.322-32.349 18.958-29.642 48.106-92.79 60.778a129.904 129.904 0 0 1-28.002 2.646c-4.599-.085-9.188-.46-13.74-1.123-40.134-5.859-67.142-33.754-77.05-67.435-13.038-44.286 12.998-73.304 30.254-90.751 17.256-17.447 29.9-71.9 91.88-84.82a125.687 125.687 0 0 1 28.777-2.775c22.053.562 46.106 7.786 62.75 22.896a73.411 73.411 0 0 1 3.651 3.528c23.131 23.755 32.961 61.721 29.175 93.734z" fill="#fff"/><path d="M39.61 213.299s3.286 1.797 1.629 12.082-1.36 12.51 1.163 11.442a5.772 5.772 0 0 0 3.179-3.539s-.04 4.416 2.64 3.517a3.276 3.276 0 0 0 2.247-3.612s3.09 6.859 5.774 5.016c2.685-1.842 2.247-3.297 1.124-5.746-1.124-2.449-5.129-7.808-5.129-7.808s5.483 3.101 8.758 6.038c3.274 2.938 6.56 5.55 8.15 3.466 1.59-2.084-2.618-6.988-2.618-6.988s4.865 1.798 4.887-1.039c.023-2.836-2.808-4.634-2.808-4.634s4.555.197 2.539-3.275c-2.017-3.471-7.201-3.707-7.201-3.707a2.517 2.517 0 0 0-2.506-1.77c-2.039 0-7.24 1.332-7.24 1.332s5.684-3.028 9.15-4.022c3.466-.994.994-5.617-.421-5.556a12.122 12.122 0 0 0-3.151.703s1.6-3.663-.759-3.685c-2.359-.023-3.466.679-3.466.679s.175-2.353-1.556-1.685c-1.73.669-3.325 2.107-4.594 3.904-1.27 1.798-3.5 4.46-3.5 4.46a6.049 6.049 0 0 1-4.404.607l-2.353-.652-1.584 1.124 2.05 3.348z" fill="#DBBE8F" stroke="#263238" stroke-linecap="round" stroke-linejoin="round"/><path d="M62.372 220.447a30.548 30.548 0 0 1 3.427 2.09z" fill="#DBBE8F"/><path d="M62.372 220.447a30.548 30.548 0 0 1 3.427 2.09" stroke="#263238" stroke-linecap="round" stroke-linejoin="round"/><path d="M40.716 212.719s7.51 4.679 12.695 4.92c2.567.206 5.073.894 7.386 2.028" fill="#DBBE8F"/><path d="M40.716 212.719s7.51 4.679 12.695 4.92c2.567.206 5.073.894 7.386 2.028" stroke="#263238" stroke-linecap="round" stroke-linejoin="round"/><path d="M47.98 221.956c-.887-2.892-1.578-4.561-3.039-5.903z" fill="#DBBE8F"/><path d="M47.98 221.956c-.887-2.892-1.578-4.561-3.039-5.903" stroke="#263238" stroke-linecap="round" stroke-linejoin="round"/><path d="M52.827 231.632s-2.657-2.247-4.033-6.932l-.337-1.151" fill="#DBBE8F"/><path d="M52.827 231.632s-2.657-2.247-4.033-6.932l-.337-1.151" stroke="#263238" stroke-linecap="round" stroke-linejoin="round"/><path d="M49.39 210.92c.276-.19.537-.4.781-.629 2.697-2.472 4.916-4.494 7.275-4.803" fill="#DBBE8F"/><path d="M49.39 210.92c.276-.19.537-.4.781-.629 2.697-2.472 4.916-4.494 7.275-4.803" stroke="#263238" stroke-linecap="round" stroke-linejoin="round"/><path d="M44.048 212.497a8.981 8.981 0 0 0 3.466-.561z" fill="#DBBE8F"/><path d="M44.048 212.497a8.981 8.981 0 0 0 3.466-.561" stroke="#263238" stroke-linecap="round" stroke-linejoin="round"/><path d="M30.758 142.401s-.562-2.938 6.662-7.089 8.426-5.454 6.51-6.482a4.599 4.599 0 0 0-3.791-.185s2.752-2.202.848-3.41a2.613 2.613 0 0 0-3.37.432s2.696-5.364.202-6.105c-2.494-.742-3.168.28-4.14 2.179-.972 1.899-2.247 7.111-2.247 7.111s-.837-4.96-.668-8.47c.168-3.511.14-6.859-1.955-6.797-2.096.062-3.011 5.14-3.011 5.14s-1.337-3.932-3.106-2.5c-1.77 1.432-1.472 4.061-1.472 4.061s-2.174-2.921-3.309.073c-1.134 2.994 1.326 6.331 1.326 6.331a2.009 2.009 0 0 0 .163 2.443c1.034 1.264 4.494 3.82 4.494 3.82s-4.741-2-7.106-3.651c-2.365-1.652-3.988 2.219-3.241 3.061a9.549 9.549 0 0 0 2.022 1.601s-3.078.848-1.904 2.326a5.376 5.376 0 0 0 2.162 1.803s-1.544 1.073-.264 1.82a8.428 8.428 0 0 0 4.73.881c1.753-.112 4.527-.078 4.527-.078a4.865 4.865 0 0 1 2.596 2.426l.78 1.787 1.5.41 1.062-2.938z" fill="#DBBE8F" stroke="#263238" stroke-linecap="round" stroke-linejoin="round"/><path d="M23.725 124.693a25.192 25.192 0 0 1-.427-3.173z" fill="#DBBE8F"/><path d="M23.725 124.693a25.192 25.192 0 0 1-.427-3.173" stroke="#263238" stroke-linecap="round" stroke-linejoin="round"/><path d="M29.837 142.009s-.876-7.01-3.37-10.347a16.509 16.509 0 0 1-2.46-5.617" fill="#DBBE8F"/><path d="M29.837 142.009s-.876-7.01-3.37-10.347a16.509 16.509 0 0 1-2.46-5.617" stroke="#263238" stroke-linecap="round" stroke-linejoin="round"/><path d="M31.899 132.867c-1.332 2.022-2.028 3.275-2.124 4.831z" fill="#DBBE8F"/><path d="M31.899 132.867c-1.332 2.022-2.028 3.275-2.124 4.831" stroke="#263238" stroke-linecap="round" stroke-linejoin="round"/><path d="M35.465 124.98a12.097 12.097 0 0 1-2.247 5.988l-.562.792" fill="#DBBE8F"/><path d="M35.465 124.98a12.097 12.097 0 0 1-2.247 5.988l-.562.792" stroke="#263238" stroke-linecap="round" stroke-linejoin="round"/><path d="M24.39 137.537a8.232 8.232 0 0 0-.787-.168c-2.887-.421-5.269-.77-6.64-2.09" fill="#DBBE8F"/><path d="M24.39 137.537a8.232 8.232 0 0 0-.787-.168c-2.887-.421-5.269-.77-6.64-2.09" stroke="#263238" stroke-linecap="round" stroke-linejoin="round"/><path d="M28.04 140.07a7.111 7.111 0 0 0-2.096-1.853z" fill="#DBBE8F"/><path d="M28.04 140.07a7.111 7.111 0 0 0-2.096-1.853" stroke="#263238" stroke-linecap="round" stroke-linejoin="round"/><path d="M188.832 203.372c34.723-34.723 34.723-91.021 0-125.744s-91.02-34.723-125.744 0c-34.723 34.723-34.723 91.021 0 125.744s91.021 34.723 125.744 0z" fill="#263238"/><path d="M167.76 182.301c23.086-23.086 23.086-60.516 0-83.602-23.086-23.086-60.516-23.086-83.602 0-23.086 23.086-23.086 60.516 0 83.602 23.086 23.086 60.516 23.086 83.602 0z" stroke="#8A8A8A" stroke-miterlimit="10"/><path d="M246.195 142.796c6.558 0 11.875-5.316 11.875-11.874 0-6.559-5.317-11.875-11.875-11.875s-11.875 5.316-11.875 11.875c0 6.558 5.317 11.874 11.875 11.874z" fill="#BFBFBF" stroke="#263238" stroke-miterlimit="10"/><path d="M247.341 125.692s-1.556-2.691-2.18-1.803c-.623.887.562 2.246.371 3.055-.191.809-2.808.95-2.488 1.832.32.881 3.151 2.145 3.151 2.145s-.14 1.685.489 1.747c.629.062 1.983-2.061 1.983-2.061s1.544.825 2.117-.365c.573-1.191-1.123-1.208-1.123-1.989 0-.781 1.533-1.045 1.247-1.775-.287-.73-3.028.551-3.567-.786z" fill="#DBBE8F" stroke="#263238" stroke-miterlimit="10"/><path d="M247.437 128.015s3.157-10.526 6.971-14.604c3.814-4.078 4.763-4.882 6.179-4.033 1.415.848.59 1.612-.141 1.898-.73.287-7.398 3.157-11.745 17.627-.023-.017-2.494.101-1.264-.888z" fill="#DBBE8F" stroke="#263238" stroke-miterlimit="10"/><path d="M237.022 173.461c6.072-2.478 8.985-9.409 6.507-15.481-2.478-6.072-9.409-8.986-15.481-6.508-6.072 2.478-8.986 9.409-6.508 15.481 2.478 6.073 9.41 8.986 15.482 6.508z" fill="#BFBFBF" stroke="#263238" stroke-miterlimit="10"/><path d="M234.409 158.301s-4.915-1.848-4.151-.158c.764 1.691 2 .461 1.539 2.152-.46 1.691-.921 3.224-.308 3.37.612.146 1.859-2.932 2.151-1.809.292 1.124.769 3.371 1.533 2.146.764-1.224-.151-3.072.309-3.072.461 0 3.685 1.23 3.225-1.073-.461-2.303-2.146-1.23-2.612-1.382-.467-.152 0-2.921-1.225-2.46-1.224.46-.461 2.286-.461 2.286z" fill="#DBBE8F" stroke="#263238" stroke-miterlimit="10"/><path d="M234.803 159.131s-5.376.764-7.527 4.915a34.667 34.667 0 0 0-3.224 8.426c-.152.921.921 1.685 1.381 1.073.461-.613 2-6.297 3.073-8.426 1.073-2.129 1.275-2.809 3.455-3.865 2.179-1.056 3.578-1.348 2.842-2.123z" fill="#DBBE8F" stroke="#263238" stroke-miterlimit="10"/><path d="M222.629 130.6c6.072-2.478 8.986-9.409 6.508-15.481-2.478-6.072-9.409-8.986-15.481-6.508-6.072 2.478-8.986 9.409-6.508 15.481 2.478 6.072 9.409 8.986 15.481 6.508z" fill="#BFBFBF" stroke="#263238" stroke-miterlimit="10"/><path d="M220.019 115.435s-4.915-1.843-4.151-.152c.764 1.691 1.999.46 1.539 2.151-.461 1.691-.921 3.224-.309 3.371.612.146 1.842-2.916 2.151-1.843.309 1.073.77 3.37 1.534 2.151.764-1.218-.152-3.072.309-3.072.46 0 3.685 1.23 3.224-1.073-.461-2.303-2.146-1.23-2.612-1.382-.466-.151 0-2.921-1.225-2.46-1.224.46-.46 2.309-.46 2.309z" fill="#DBBE8F" stroke="#263238" stroke-miterlimit="10"/><path d="M220.43 116.264s-5.376.769-7.527 4.915a34.554 34.554 0 0 0-3.224 8.426c-.152.921.921 1.685 1.381 1.078.461-.607 2-6.302 3.073-8.426 1.073-2.123 1.275-2.808 3.455-3.864 2.179-1.056 3.561-1.349 2.842-2.129z" fill="#DBBE8F" stroke="#263238" stroke-miterlimit="10"/><path d="M53.23 146.387s-12.92-5.274-23.368 7.421c-10.448 12.694 1.343 29.17 1.343 29.17s5.864-2.809 12.212-9.156c6.347-6.348 15.896-17.346 17.02-20.335 1.123-2.988-7.207-7.1-7.207-7.1z" fill="#DBBE8F" stroke="#263238" stroke-linecap="round" stroke-linejoin="round"/><path opacity=".34" d="M45.939 169.565s-8.038-8.831-12.768-8.831-5.971 5.679-4.572 12.296c1.398 6.617 4.572 7.409 5.201 7.409.63 0 9.931-7.088 12.139-10.874zM47.04 168.306s-4.112-5.202-6.46-10.381-.95-8.375 3.471-10.268c4.421-1.893 13.24 3.932 14.813 4.887l.472 1.264s-9.617 11.981-12.296 14.498z" fill="#000"/><path d="M37.428 166.099s-4.258-.629-5.201 1.736c-.944 2.365 5.044.157 5.201-1.736zM38.995 168.146s-3.78 1.573-3.78 3.933c0 2.359 4.1-.467 3.78-3.933zM46.41 154.436a3.425 3.425 0 0 0-2.359 2.364 6.794 6.794 0 0 0 .315 3.781s3.146-2.657 2.045-6.145zM49.72 159.004a2.797 2.797 0 0 0-2.05 1.264 4.083 4.083 0 0 0-.944 2.679c0 .472 3.309-.157 2.994-3.943zM95.471 207.52s10.527-9.156 3.893-24.21c-6.634-15.054-26.665-11.903-26.665-11.903s-.129 6.499 2.685 15.026c2.814 8.527 8.325 22.008 10.493 24.351 2.168 2.342 9.594-3.264 9.594-3.264z" fill="#DBBE8F" stroke="#263238" stroke-linecap="round" stroke-linejoin="round"/><path d="M94.607 206.347s10.526-9.156 3.898-24.205c-6.628-15.048-26.653-11.936-26.653-11.936s-.13 6.505 2.679 15.026c2.808 8.521 8.33 22.008 10.493 24.35 2.162 2.343 9.583-3.235 9.583-3.235z" fill="#DBBE8F" stroke="#263238" stroke-linecap="round" stroke-linejoin="round"/><path opacity=".34" d="M77.194 189.381s11.498-3.201 13.627-7.426c2.129-4.224-2.393-7.886-8.937-9.594-6.544-1.707-8.668.73-8.954 1.292-.287.562 1.865 12.072 4.263 15.728zM77.805 190.951s6.493-1.32 12.2-1.09c5.707.23 7.864 2.915 7.583 7.707-.28 4.791-9.476 10.049-11.026 11.032l-1.343-.146s-6.341-13.976-7.414-17.503z" fill="#000"/><path d="M84.108 183.36s2.477-3.516.792-5.426c-1.685-1.91-2.41 4.438-.792 5.426zM81.568 183.846s.292-4.089-1.82-5.151c-2.112-1.061-1.433 3.871 1.82 5.151zM90.477 196.634a3.437 3.437 0 0 0-1.05-3.174 6.741 6.741 0 0 0-3.517-1.421s.972 4.016 4.567 4.595zM84.905 197.533a2.808 2.808 0 0 0-.202-2.398 4.083 4.083 0 0 0-1.972-2.051c-.42-.213-1.348 3.039 2.174 4.449z" fill="#DBBE8F" stroke="#263238" stroke-linecap="round" stroke-linejoin="round"/><path d="M202.407 84.97c14.702 0 26.62-11.918 26.62-26.62 0-14.701-11.918-26.62-26.62-26.62-14.702 0-26.62 11.919-26.62 26.62 0 14.702 11.918 26.62 26.62 26.62z" fill="#fff" stroke="#263238" stroke-miterlimit="10"/><path d="M200.301 82.89c17.159 0 31.069-13.91 31.069-31.07 0-17.158-13.91-31.068-31.069-31.068s-31.069 13.91-31.069 31.069c0 17.158 13.91 31.068 31.069 31.068z" fill="#fff" stroke="#263238" stroke-miterlimit="10"/><path d="M223.198 57.335c3.042-12.644-4.741-25.36-17.385-28.403-12.644-3.042-25.36 4.741-28.403 17.385-3.042 12.644 4.741 25.36 17.385 28.403 12.644 3.043 25.36-4.741 28.403-17.385z" fill="#263238"/><path d="M209.485 36.62s8.161-12.027 12.026-22.335c1.376-3.673 1.736-8.229 4.494-11.301 2.999-3.326 8.313-2.399 8.819 2.246.281 2.607-.837 4.567-2.887 7.303-2.871 3.814-8.668 8.87-11.156 12.964-4.41 7.246-7.302 11.325-8.527 12.987a2.122 2.122 0 0 1-2.37.803c-.731-.264-1.253-.949-.399-2.668z" fill="#DBBE8F" stroke="#263238" stroke-linecap="round" stroke-linejoin="round"/><path d="M228.027 3.922s3.32-1.505 4.073 2.567" stroke="#263238" stroke-linecap="round" stroke-linejoin="round"/><path d="M141.321 232.635s15.667-.399 28.524-19.284c0 0-3.617-16.071-6.83-16.47-3.213-.399-13.257 14.043-17.273 22.093-4.016 8.049-4.421 13.661-4.421 13.661z" fill="#fff" stroke="#263238" stroke-miterlimit="10"/><path d="M108.866 61.87a194.416 194.416 0 0 0-4.151 19.031c-2.084 11.898-1.489 26.772-.596 29.148.894 2.376 4.461 3.275 6.247 2.679 1.786-.595 1.786-1.488 2.078-13.385.292-11.898.298-17.25 3.573-26.177 3.275-8.925 2.084-12.79-.298-14.874-2.382-2.084-4.471-2.971-6.853 3.578z" fill="#D6D6D6" stroke="#263238" stroke-miterlimit="10"/><path d="M116.005 64.836a52.534 52.534 0 0 0-5.353 18.15c-1.191 10.705 1.876 21.024.343 24.192a3.53 3.53 0 0 1-4.494 1.983" fill="#fff"/><path d="M116.005 64.836a52.534 52.534 0 0 0-5.353 18.15c-1.191 10.705 1.876 21.024.343 24.192a3.53 3.53 0 0 1-4.494 1.983" stroke="#263238" stroke-miterlimit="10"/><path d="M130.222 99.832s-1.197-4.01 8.937-10.577c10.133-6.567 11.796-8.51 8.779-9.718a7.242 7.242 0 0 0-5.617.174s3.792-3.37.804-4.82a4.024 4.024 0 0 0-4.927.984s3.286-7.746-.511-8.488c-3.797-.741-4.657.747-5.847 3.494-1.191 2.747-2.41 10.088-2.41 10.088s-1.899-6.774-2.118-11.655c-.219-4.881-.708-9.55-3.797-9.195-3.09.353-3.78 7.46-3.78 7.46s-2.5-5.275-4.938-3.118c-2.438 2.157-1.657 5.836-1.657 5.836s-3.618-3.809-4.898.472c-1.281 4.28 2.808 8.622 2.808 8.622a2.659 2.659 0 0 0 .562 3.37c1.685 1.64 7.145 4.786 7.145 4.786s-7.302-2.247-11.021-4.246c-3.718-2-5.617 3.505-4.376 4.6.98.801 2.06 1.47 3.213 1.989 0 0-4.448 1.528-2.516 3.437 1.932 1.91 3.455 2.247 3.455 2.247s-2.152 1.685-.158 2.556c1.994.87 4.55 1.045 7.134.685 2.584-.36 6.701-.623 6.701-.623a7.302 7.302 0 0 1 4.168 3.072l.995 1.686a1.689 1.689 0 0 0 1.179.814 1.685 1.685 0 0 0 1.916-1.208l.775-2.724z" fill="#DBBE8F" stroke="#263238" stroke-linecap="round" stroke-linejoin="round"/><path d="M117.442 76.096a31.985 31.985 0 0 1-1.056-4.348z" fill="#DBBE8F"/><path d="M117.442 76.096a31.985 31.985 0 0 1-1.056-4.348" stroke="#263238" stroke-linecap="round" stroke-linejoin="round"/><path d="M128.812 99.394s-2.247-9.616-6.336-13.959a22.747 22.747 0 0 1-4.393-7.476" fill="#DBBE8F"/><path d="M128.812 99.394s-2.247-9.616-6.336-13.959a22.747 22.747 0 0 1-4.393-7.476" stroke="#263238" stroke-linecap="round" stroke-linejoin="round"/><path d="M130.648 86.492c-1.725 2.932-2.573 4.77-2.506 6.971z" fill="#DBBE8F"/><path d="M130.648 86.492c-1.725 2.932-2.573 4.77-2.506 6.971" stroke="#263238" stroke-linecap="round" stroke-linejoin="round"/><path d="M134.885 75.162s.276 3.865-2.567 8.56l-.702 1.124" fill="#DBBE8F"/><path d="M134.885 75.162s.276 3.865-2.567 8.56l-.702 1.124" stroke="#263238" stroke-linecap="round" stroke-linejoin="round"/><path d="M120.089 93.817a10.9 10.9 0 0 0-1.179-.146c-4.342-.258-7.915-.472-10.111-2.146" fill="#DBBE8F"/><path d="M120.089 93.817a10.9 10.9 0 0 0-1.179-.146c-4.342-.258-7.915-.472-10.111-2.146" stroke="#263238" stroke-linecap="round" stroke-linejoin="round"/><path d="M125.885 96.909a10.801 10.801 0 0 0-3.37-2.337z" fill="#DBBE8F"/><path d="M125.885 96.909a10.801 10.801 0 0 0-3.37-2.337" stroke="#263238" stroke-linecap="round" stroke-linejoin="round"/><path d="M104.344 101.348s-4.185-.062-7.415-11.695c-3.23-11.634-4.59-13.79-6.64-11.29a7.302 7.302 0 0 0-1.528 5.442s-2.067-4.623-4.358-2.213a4.027 4.027 0 0 0-.562 5s-6.41-5.455-8.252-2.057c-1.842 3.399-.685 4.668 1.579 6.629 2.263 1.96 8.92 5.314 8.92 5.314s-7.005-.22-11.706-1.467c-4.702-1.247-9.297-2.179-9.91.871-.611 3.05 5.978 5.836 5.978 5.836s-5.78.809-4.455 3.775c1.326 2.966 5.055 3.292 5.055 3.292s-4.712 2.308-1.016 4.814c3.696 2.505 9.072-.096 9.072-.096a2.648 2.648 0 0 0 3.37.466c2.073-1.123 6.707-5.381 6.707-5.381s-4.314 6.291-7.353 9.24c-3.039 2.949 1.685 6.382 3.078 5.556a14.437 14.437 0 0 0 2.86-2.472s.123 4.702 2.527 3.427 3.185-2.618 3.185-2.618.944 2.55 2.387.916c1.444-1.635 2.36-4.028 2.809-6.6.45-2.573 1.415-6.578 1.415-6.578a7.308 7.308 0 0 1 4.18-3.062l2.696-.612 1.056-2.061-3.679-2.376z" fill="#DBBE8F" stroke="#263238" stroke-linecap="round" stroke-linejoin="round"/><path d="M92.593 96.646s-4.19-.062-7.415-11.695c-3.224-11.633-4.617-13.79-6.645-11.285a7.301 7.301 0 0 0-1.528 5.443s-2.067-4.623-4.353-2.213a4.027 4.027 0 0 0-.562 5s-6.403-5.455-8.251-2.057c-1.848 3.399-.68 4.668 1.584 6.629 2.263 1.96 8.96 5.308 8.96 5.308s-7.034-.22-11.758-1.472c-4.724-1.252-9.296-2.174-9.914.87-.618 3.045 5.943 5.843 5.943 5.843s-5.78.809-4.449 3.774c1.331 2.966 5.056 3.292 5.056 3.292s-4.713 2.309-1.012 4.814c3.702 2.505 9.067-.095 9.067-.095a2.66 2.66 0 0 0 3.37.466c2.073-1.124 6.707-5.382 6.707-5.382s-4.32 6.292-7.359 9.241c-3.038 2.949 1.686 6.381 3.084 5.555a14.678 14.678 0 0 0 2.86-2.471s.123 4.701 2.522 3.426c2.398-1.275 3.19-2.618 3.19-2.618s.944 2.551 2.387.916c1.444-1.635 2.36-4.027 2.809-6.6.45-2.573 1.41-6.578 1.41-6.578a7.3 7.3 0 0 1 4.18-3.061l2.695-.613 1.062-2.061-3.64-2.376z" fill="#DBBE8F" stroke="#263238" stroke-linecap="round" stroke-linejoin="round"/><path d="M77.869 106.432a31.712 31.712 0 0 1-4.494-.297z" fill="#DBBE8F"/><path d="M77.869 106.432a31.712 31.712 0 0 1-4.494-.297" stroke="#263238" stroke-linecap="round" stroke-linejoin="round"/><path d="M103.501 102.56s-9.841-.741-15.217 1.865a22.555 22.555 0 0 1-8.426 1.949" fill="#DBBE8F"/><path d="M103.501 102.56s-9.841-.741-15.217 1.865a22.555 22.555 0 0 1-8.426 1.949" stroke="#263238" stroke-linecap="round" stroke-linejoin="round"/><path d="M91.745 96.943c2.28 2.528 3.775 3.882 5.898 4.494z" fill="#DBBE8F"/><path d="M91.745 96.943c2.28 2.528 3.775 3.882 5.898 4.494" stroke="#263238" stroke-linecap="round" stroke-linejoin="round"/><path d="M82.205 89.512s3.764.887 7.392 5.01l.893 1.017" fill="#DBBE8F"/><path d="M82.205 89.512s3.764.887 7.392 5.01l.893 1.017" stroke="#263238" stroke-linecap="round" stroke-linejoin="round"/><path d="M95.57 109.213c-.184.352-.35.714-.495 1.084-1.545 4.067-2.809 7.409-5.056 8.988" fill="#DBBE8F"/><path d="M95.57 109.213c-.184.352-.35.714-.495 1.084-1.545 4.067-2.809 7.409-5.056 8.988" stroke="#263238" stroke-linecap="round" stroke-linejoin="round"/><path d="M100.26 104.609a10.59 10.59 0 0 0-3.236 2.506z" fill="#DBBE8F"/><path d="M100.26 104.609a10.59 10.59 0 0 0-3.236 2.506" stroke="#263238" stroke-linecap="round" stroke-linejoin="round"/><path d="M140.833 86.552s-3.764-1.764-2.629-13.268c1.134-11.504.651-13.953-2.073-12.599a6.398 6.398 0 0 0-3.275 4.14s-.258-4.893-3.168-3.713c-2.91 1.18-2.247 4.157-2.247 4.157s-3.887-7.393-6.74-5.168c-2.854 2.224-2.247 3.808-.882 6.443 1.365 2.634 6.24 8.302 6.24 8.302s-6.28-3.067-10.111-6.089c-3.831-3.022-7.645-5.707-9.262-3.286-1.618 2.421 3.37 7.555 3.37 7.555s-5.505-1.651-5.336 1.489c.168 3.14 3.409 4.943 3.409 4.943s-5.055.095-2.595 3.797c2.46 3.702 8.235 3.618 8.235 3.618a2.813 2.813 0 0 0 2.893 1.791c2.247-.14 7.931-1.971 7.931-1.971s-6.094 3.746-9.864 5.083c-3.769 1.337-.713 6.275.849 6.123a13.33 13.33 0 0 0 3.443-.994s-1.528 4.162 1.09 4.027c2.617-.135 3.791-.988 3.791-.988s-.033 2.617 1.843 1.775c1.876-.843 3.533-2.562 4.819-4.64 1.287-2.078 3.567-5.18 3.567-5.18a6.74 6.74 0 0 1 4.842-.97l2.652.56 1.685-1.37-2.477-3.567z" fill="#DBBE8F" stroke="#263238" stroke-linecap="round" stroke-linejoin="round"/><path d="M115.134 80.186a34.492 34.492 0 0 1-3.932-2.079z" fill="#DBBE8F"/><path d="M115.134 80.186a34.492 34.492 0 0 1-3.932-2.079" stroke="#263238" stroke-linecap="round" stroke-linejoin="round"/><path d="M139.649 87.272s-8.64-4.673-14.397-4.583a22.895 22.895 0 0 1-8.319-1.742" fill="#DBBE8F"/><path d="M139.649 87.272s-8.64-4.673-14.397-4.583a22.895 22.895 0 0 1-8.319-1.742" stroke="#263238" stroke-linecap="round" stroke-linejoin="round"/><path d="M130.979 77.555c1.18 3.14 2.062 4.937 3.77 6.325z" fill="#DBBE8F"/><path d="M130.979 77.555c1.18 3.14 2.062 4.937 3.77 6.325" stroke="#263238" stroke-linecap="round" stroke-linejoin="round"/><path d="M124.936 67.15s3.095 2.315 4.943 7.404c.157.438.309.854.449 1.252" fill="#DBBE8F"/><path d="M124.936 67.15s3.095 2.315 4.943 7.404c.157.438.309.854.449 1.252" stroke="#263238" stroke-linecap="round" stroke-linejoin="round"/><path d="M130.16 89.853c-.29.231-.564.48-.82.748-2.809 2.926-5.135 5.33-7.73 5.819" fill="#DBBE8F"/><path d="M130.16 89.853c-.29.231-.564.48-.82.748-2.809 2.926-5.135 5.33-7.73 5.819" stroke="#263238" stroke-linecap="round" stroke-linejoin="round"/><path d="M136.001 87.738a9.962 9.962 0 0 0-3.797.87z" fill="#DBBE8F"/><path d="M136.001 87.738a9.962 9.962 0 0 0-3.797.87" stroke="#263238" stroke-linecap="round" stroke-linejoin="round"/><path d="M95.558 107.548S83.931 92.545 83.931 89.652c0-2.893 5.398-19.66 8.482-17.537 3.084 2.123 12.717 20.43 11.947 27.749-.769 7.319-5.263 10.352-8.802 7.684z" fill="#919191" stroke="#263238" stroke-miterlimit="10"/><path d="M92.233 75.002s-4.045 12.144-2.506 14.65c1.54 2.505 5.207 14.649 6.943 15.228 1.736.578 3.657 1.151 4.814-2.124" fill="#919191"/><path d="M92.233 75.002s-4.045 12.144-2.506 14.65c1.54 2.505 5.207 14.649 6.943 15.228 1.736.578 3.657 1.151 4.814-2.124" stroke="#263238" stroke-miterlimit="10"/><path d="M95.317 96.857s-.242 1.45-3.634 4.494c-3.393 3.045-12.802 4.685-9.23 12.605 3.573 7.92 10.606 15.262 13.392 8.667 2.786-6.594 1.983-16.851 4.415-18.025 2.432-1.174 10.027-.152 12.173-5.27 2.145-5.116-3.612-15.166-9.061-11.475a26.082 26.082 0 0 0-8.055 9.004z" fill="#fff" stroke="#263238" stroke-miterlimit="10"/><path d="M99.738 124.574s-4.42-15.666-4.42-27.72c0-12.055-1.203-22.093 1.606-23.301 2.808-1.208 5.617-2.005 7.235-.803 1.617 1.202.803 17.677.803 29.732 0 12.054 4.808 21.693 4.808 25.709 0 4.017-4.819 6.426-7.634 5.618-2.814-.809-2.398-9.235-2.398-9.235z" fill="#D6D6D6" stroke="#263238" stroke-miterlimit="10"/><path d="M102.389 77.598s-.893 17.548.298 25.878c1.19 8.33 3.572 18.441 3.87 22.306.298 3.865.887 4.494-2.084 5.055" stroke="#263238" stroke-miterlimit="10"/><path d="M140.175 125.618s-3.623-2.095-.781-13.824c2.843-11.728 2.708-14.284-.303-13.099a7.264 7.264 0 0 0-3.983 4.011s.444-5.056-2.73-4.056a4.037 4.037 0 0 0-2.904 4.106s-2.937-7.864-6.207-5.813c-3.269 2.05-2.864 3.746-1.842 6.555 1.022 2.808 5.201 8.987 5.201 8.987s-6.038-3.611-9.549-7.004c-3.51-3.393-7.061-6.432-9.083-4.067-2.022 2.365 2.382 8.016 2.382 8.016s-5.443-2.112-5.73 1.123c-.286 3.236 2.809 5.331 2.809 5.331s-5.241-.281-3.23 3.707c2.011 3.988 7.971 4.331 7.971 4.331a2.653 2.653 0 0 0 2.724 2.056c2.359 0 8.477-1.438 8.477-1.438s-6.837 3.37-10.926 4.494c-4.089 1.123-1.646 6.392 0 6.353a14.362 14.362 0 0 0 3.696-.764s-2.179 4.168.562 4.224c2.741.056 4.061-.736 4.061-.736s-.421 2.685 1.64 1.96c2.062-.724 4.022-2.37 5.651-4.403 1.629-2.034 4.438-5.056 4.438-5.056a7.303 7.303 0 0 1 5.14-.64l2.651.775 1.932-1.281-2.067-3.848z" fill="#DBBE8F" stroke="#263238" stroke-linecap="round" stroke-linejoin="round"/><path d="M114.577 117.167a31.981 31.981 0 0 1-3.758-2.433z" fill="#DBBE8F"/><path d="M114.577 117.167a31.981 31.981 0 0 1-3.758-2.433" stroke="#263238" stroke-linecap="round" stroke-linejoin="round"/><path d="M138.85 126.266s-8.235-5.415-14.195-5.78a22.59 22.59 0 0 1-8.33-2.41" fill="#DBBE8F"/><path d="M138.85 126.266s-8.235-5.415-14.195-5.78a22.59 22.59 0 0 1-8.33-2.41" stroke="#263238" stroke-linecap="round" stroke-linejoin="round"/><path d="M131.316 115.637c.759 3.314 1.41 5.229 2.972 6.78z" fill="#DBBE8F"/><path d="M131.316 115.637c.759 3.314 1.41 5.229 2.972 6.78" stroke="#263238" stroke-linecap="round" stroke-linejoin="round"/><path d="M126.622 104.5s2.859 2.612 4.022 7.976c.101.461.197.899.286 1.32" fill="#DBBE8F"/><path d="M126.622 104.5s2.859 2.612 4.022 7.976c.101.461.197.899.286 1.32" stroke="#263238" stroke-linecap="round" stroke-linejoin="round"/><path d="M128.684 128.215a9.431 9.431 0 0 0-.955.708c-3.331 2.808-6.078 5.094-8.825 5.398" fill="#DBBE8F"/><path d="M128.684 128.215a9.431 9.431 0 0 0-.955.708c-3.331 2.808-6.078 5.094-8.825 5.398" stroke="#263238" stroke-linecap="round" stroke-linejoin="round"/><path d="M130.975 127.092a10.67 10.67 0 0 1 4.072-.623z" fill="#DBBE8F"/><path d="M130.975 127.092a10.67 10.67 0 0 1 4.072-.623" stroke="#263238" stroke-linecap="round" stroke-linejoin="round"/><path d="M129.762 139.949s-11.605-15.004-11.605-17.897c0-2.893 5.393-19.66 8.477-17.537 3.083 2.124 12.723 20.43 11.953 27.749-.77 7.319-5.308 10.375-8.825 7.685z" fill="#919191" stroke="#263238" stroke-miterlimit="10"/><path d="M126.441 107.426s-4.045 12.144-2.506 14.649c1.539 2.506 5.202 14.65 6.938 15.229 1.735.578 3.662 1.123 4.819-2.124" fill="#919191"/><path d="M126.441 107.426s-4.045 12.144-2.506 14.649c1.539 2.506 5.202 14.65 6.938 15.229 1.735.578 3.662 1.123 4.819-2.124" stroke="#263238" stroke-miterlimit="10"/><path d="M114.882 87.98s-2.079 7.14-4.163 19.037c-2.084 11.897-1.511 26.755-.595 29.153.916 2.399 4.46 3.269 6.246 2.674 1.787-.596 1.787-1.483 2.084-13.386.298-11.903.298-17.25 3.567-26.176 3.269-8.926 2.084-12.79-.297-14.869-2.382-2.078-4.461-2.977-6.842 3.567z" fill="#D6D6D6" stroke="#263238" stroke-miterlimit="10"/><path d="M122.021 90.957a52.455 52.455 0 0 0-5.353 18.144c-1.191 10.706 1.881 21.025.342 24.193a3.517 3.517 0 0 1-4.493 1.983" stroke="#263238" stroke-miterlimit="10"/><path d="M61.102 96.698s2.888 6.847 8.775 17.413c5.886 10.566 15.728 21.711 17.93 22.991 2.202 1.281 5.527-.275 6.532-1.859 1.006-1.584.45-2.281-6.824-11.701-7.275-9.42-10.673-13.576-13.746-22.564-3.072-8.987-6.454-11.234-9.61-11.352-3.158-.118-5.343.483-3.057 7.072z" fill="#D6D6D6" stroke="#263238" stroke-miterlimit="10"/><path d="M68.518 94.494a52.461 52.461 0 0 0 7.302 17.453c5.83 9.06 14.723 15.132 15.532 18.536a3.528 3.528 0 0 1-2.247 4.382" stroke="#263238" stroke-miterlimit="10"/><path d="M150.876 118.32s-5.353-10.707-10.712-22.604c-5.359-11.897-10.706-19.93-13.386-16.065-2.679 3.865-2.673 15.166-.887 21.121 1.786 5.954.59 2.679 1.781 5.948 1.19 3.269-.298.596 2.977 7.14 3.274 6.544 4.162 8.925 6.246 9.521 2.084.595 14.577 6.246 13.981-5.061z" fill="#C2C2C2" stroke="#263238" stroke-miterlimit="10"/><path d="M133.025 91.553s.894 2.376.894 12.492c0 10.117-.298 11.302-.298 11.302" fill="#C2C2C2"/><path d="M133.025 91.553s.894 2.376.894 12.492c0 10.117-.298 11.302-.298 11.302" stroke="#263238" stroke-miterlimit="10"/><path d="M136.3 117.133c1.786-7.139.298-20.822.298-20.822z" fill="#C2C2C2"/><path d="M136.3 117.133c1.786-7.139.298-20.822.298-20.822" stroke="#263238" stroke-miterlimit="10"/><path d="M139.867 102.875s.595 9.813-1.185 17.548z" fill="#C2C2C2"/><path d="M139.867 102.875s.595 9.813-1.185 17.548" stroke="#263238" stroke-miterlimit="10"/><path d="M142.545 110.588s-.297 6.544-1.191 10.706z" fill="#C2C2C2"/><path d="M142.545 110.588s-.297 6.544-1.191 10.706" stroke="#263238" stroke-miterlimit="10"/><path d="M130.351 83.215s12.195 20.823 16.952 33.911z" fill="#C2C2C2"/><path d="M130.351 83.215s12.195 20.823 16.952 33.911" stroke="#263238" stroke-miterlimit="10"/><path d="M153.455 104.803s-5.353-10.712-10.706-22.61c-5.354-11.897-10.712-19.93-13.386-16.06-2.674 3.871-2.68 15.167-.893 21.116 1.786 5.949.595 2.68 1.78 5.949 1.185 3.269-.292.595 2.977 7.139 3.27 6.544 4.163 8.926 6.247 9.549 2.084.624 14.576 6.218 13.981-5.083z" fill="#C2C2C2" stroke="#263238" stroke-miterlimit="10"/><path d="M135.608 78.03s.894 2.375.894 12.492c0 10.116-.298 11.302-.298 11.302" fill="#C2C2C2"/><path d="M135.608 78.03s.894 2.375.894 12.492c0 10.116-.298 11.302-.298 11.302" stroke="#263238" stroke-miterlimit="10"/><path d="M139.176 82.787s1.488 13.684-.298 20.823z" fill="#C2C2C2"/><path d="M139.176 82.787s1.488 13.684-.298 20.823" stroke="#263238" stroke-miterlimit="10"/><path d="M142.451 89.332s.595 9.819-1.191 17.548z" fill="#C2C2C2"/><path d="M142.451 89.332s.595 9.819-1.191 17.548" stroke="#263238" stroke-miterlimit="10"/><path d="M145.123 97.068s-.297 6.544-1.19 10.707z" fill="#C2C2C2"/><path d="M145.123 97.068s-.297 6.544-1.19 10.707" stroke="#263238" stroke-miterlimit="10"/><path d="M132.929 69.703s12.195 20.823 16.952 33.911z" fill="#C2C2C2"/><path d="M132.929 69.703s12.195 20.823 16.952 33.911" stroke="#263238" stroke-miterlimit="10"/><path d="M124.448 132.993s-1.203-14.459 7.633-25.306c8.836-10.847 8.033-22.098 6.426-28.928-1.606-6.83-2.005-10.044 1.208-7.629 3.213 2.416 10.044 6.825 13.257 24.907 3.213 18.082 10.846 45.797 12.453 63.07 1.606 17.273 2.809 31.737 6.027 40.977 3.219 9.241-1.207 16.47-5.617 20.087-4.409 3.618-10.043 0-12.054-7.633-2.011-7.634-29.333-79.545-29.333-79.545z" fill="#fff" stroke="#263238" stroke-miterlimit="10"/><path d="M99.097 129.924s-5.336-10.712-10.672-22.609c-5.337-11.898-10.706-19.93-13.386-16.06-2.68 3.87-2.674 15.166-.893 21.115 1.78 5.949.595 2.679 1.786 5.949 1.191 3.269-.297.595 2.977 7.139 3.275 6.544 4.163 8.926 6.247 9.521 2.084.596 14.56 6.247 13.941-5.055z" fill="#C2C2C2" stroke="#263238" stroke-miterlimit="10"/><path d="M81.269 103.15s.893 2.376.893 12.493-.298 11.302-.298 11.302" fill="#C2C2C2"/><path d="M81.269 103.15s.893 2.376.893 12.493-.298 11.302-.298 11.302" stroke="#263238" stroke-miterlimit="10"/><path d="M84.842 107.934s1.488 13.683-.298 20.823z" fill="#C2C2C2"/><path d="M84.842 107.934s1.488 13.683-.298 20.823" stroke="#263238" stroke-miterlimit="10"/><path d="M88.11 114.451s.596 9.819-1.185 17.548z" fill="#C2C2C2"/><path d="M88.11 114.451s.596 9.819-1.185 17.548" stroke="#263238" stroke-miterlimit="10"/><path d="M90.79 122.188s-.298 6.544-1.191 10.706z" fill="#C2C2C2"/><path d="M90.79 122.188s-.298 6.544-1.191 10.706" stroke="#263238" stroke-miterlimit="10"/><path d="M78.595 94.82s12.195 20.823 16.952 33.911z" fill="#C2C2C2"/><path d="M78.595 94.82s12.195 20.823 16.952 33.911" stroke="#263238" stroke-miterlimit="10"/><path d="M145.338 149.497s-.854-10.734-16.47-20.918c-18.48-12.055-53.835-9.645-64.682-20.087-10.847-10.443-10.442-22.47-11.65-16.852-1.208 5.617.803 23.3 8.842 42.584 8.038 19.284 38.966 37.36 47.403 43.814 8.437 6.454 23.3 30.928 23.705 36.956.404 6.027 3.213 15.267 8.835 17.677 5.623 2.41 14.864-10.044 17.273-31.333 2.41-21.289-13.256-51.841-13.256-51.841z" fill="#fff" stroke="#263238" stroke-miterlimit="10"/><path d="M111.596 181.206s32.54-1.606 53.026-26.114l6.83 44.994s-4.016 6.83-17.677 12.453c-13.661 5.623-21.289 2.41-21.289 2.41l-20.89-33.743z" fill="#DBBE8F" stroke="#263238" stroke-linecap="round" stroke-linejoin="round"/><path d="M111.016 68.048s-3.752-2.652-2.769 2.69c.983 5.342 2.427 6.398 3.663 2.96 1.235-3.437 6.544-5.65 7.734-2.376 1.191 3.275 3.27 10.707 4.758 10.707 1.489 0-.247-3.713 2.376-2.382 2.624 1.331-.59 6.544 1.489 10.712 2.078 4.168 8.628 0 8.032-3.275-.595-3.275-4.493-16.205-4.493-16.205s-5.921 5.499-5.618 1.33c.304-4.167-.932-11.076-2.696-12.082-1.764-1.005-1.337 9.078-3.78 7.46-2.444-1.618-2.668-4.612-4.938-3.118a15.953 15.953 0 0 0-3.758 3.579z" fill="#fff" stroke="#263238" stroke-miterlimit="10"/><path d="m133.019 191.34 20.154 2.016M146.456 195.705l8.061 1.011" stroke="#263238" stroke-miterlimit="10"/><path d="M108.208 155.272c.944.747 1.241 1.944.663 2.668-.579.725-1.809.708-2.753-.039-.943-.747-1.241-1.949-.662-2.674.578-.725 1.808-.708 2.752.045zM119.031 162.763a.865.865 0 0 1 .094.917.873.873 0 0 1-1.564 0 .874.874 0 0 1 .094-.917.988.988 0 0 1 1.376 0zM124.963 151.746a.873.873 0 0 1-.688 1.404.873.873 0 0 1-.866-.96.859.859 0 0 1 .178-.444.987.987 0 0 1 1.376 0zM160.561 147.361a.867.867 0 0 1-.228 1.272.872.872 0 0 1-1.327-.828.869.869 0 0 1 .179-.444.99.99 0 0 1 1.376 0zM155.887 156.685c.398-.236.472-.846.166-1.364-.306-.518-.877-.748-1.275-.513-.398.236-.472.846-.166 1.364.306.519.877.748 1.275.513zM153.174 134.59a.876.876 0 0 1-.254.885.876.876 0 0 1-.906.162.869.869 0 0 1-.45-1.21.868.868 0 0 1 .329-.348.992.992 0 0 1 1.281.511zM149.411 220.399a.849.849 0 0 1-.003.474.862.862 0 0 1-1.527.27.865.865 0 0 1 .255-1.255.99.99 0 0 1 1.275.511zM162.571 211.157a.874.874 0 0 1 .128 1.103.882.882 0 0 1-1.059.332.872.872 0 0 1-.512-.581 1 1 0 0 1 .168-1.371.985.985 0 0 1 1.275.517zM160.887 216.53a.872.872 0 0 1-1.16 1.047.876.876 0 0 1-.546-.742.878.878 0 0 1 .425-.816.994.994 0 0 1 1.281.511zM164.588 214.848a.871.871 0 0 1-.256.877.868.868 0 0 1-1.275-.133.871.871 0 0 1 .256-1.255.985.985 0 0 1 1.275.511zM87.688 126.192a.869.869 0 0 1-1.16 1.046.866.866 0 0 1-.45-1.21.875.875 0 0 1 .329-.348.988.988 0 0 1 1.28.512zM78.314 146.341a.873.873 0 0 1-.228 1.272.872.872 0 0 1-1.242-.355.872.872 0 0 1 .093-.917.997.997 0 0 1 1.377 0zM106.528 143.017a.882.882 0 0 1 .173.442.87.87 0 0 1-.861.948.866.866 0 0 1-.688-1.39.98.98 0 0 1 1.376 0z" fill="#263238"/><path d="m143.098 102.348-3.702 9.448s-4.179 5.842-5.106 10.622a19.148 19.148 0 0 0 .41 8.813" fill="#C2C2C2"/><path d="m143.098 102.348-3.702 9.448s-4.179 5.842-5.106 10.622a19.148 19.148 0 0 0 .41 8.813" stroke="#263238" stroke-miterlimit="10"/><path d="M135.047 153.396s-8.74 8.73-8.425 17.127z" fill="#C2C2C2"/><path d="M135.047 153.396s-8.74 8.73-8.425 17.127" stroke="#263238" stroke-miterlimit="10"/><path d="M122.949 167.834s-2.353 5.713-7.723 7.055z" fill="#C2C2C2"/><path d="M122.949 167.834s-2.353 5.713-7.723 7.055" stroke="#263238" stroke-miterlimit="10"/></svg>