<svg width="270" height="267" fill="none" xmlns="http://www.w3.org/2000/svg"><path d="M260.99 128.661c-2.77 23.479-13.481 50.784-34.905 63.321-32.349 18.958-29.641 48.105-92.789 60.778a129.951 129.951 0 0 1-28.001 2.645c-4.599-.085-9.188-.46-13.74-1.123-40.134-5.859-67.14-33.753-77.05-67.434-13.037-44.285 12.999-73.303 30.254-90.75C62.015 78.653 74.66 24.2 136.638 11.28a125.689 125.689 0 0 1 28.777-2.775c22.052.562 46.105 7.786 62.748 22.896a73.413 73.413 0 0 1 3.651 3.527c23.132 23.755 32.962 61.721 29.176 93.733z" fill="#92E3A9"/><path opacity=".7" d="M260.99 128.661c-2.77 23.479-13.481 50.784-34.905 63.321-32.349 18.958-29.641 48.105-92.789 60.778a129.951 129.951 0 0 1-28.001 2.645c-4.599-.085-9.188-.46-13.74-1.123-40.134-5.859-67.14-33.753-77.05-67.434-13.037-44.285 12.999-73.303 30.254-90.75C62.015 78.653 74.66 24.2 136.638 11.28a125.689 125.689 0 0 1 28.777-2.775c22.052.562 46.105 7.786 62.748 22.896a73.413 73.413 0 0 1 3.651 3.527c23.132 23.755 32.962 61.721 29.176 93.733z" fill="#fff"/><path d="M39.395 213.292s3.286 1.798 1.629 12.083-1.36 12.509 1.163 11.442a5.763 5.763 0 0 0 3.179-3.539s-.04 4.415 2.64 3.516a3.274 3.274 0 0 0 2.247-3.611s3.09 6.858 5.774 5.016c2.685-1.843 2.247-3.298 1.124-5.747-1.124-2.449-5.129-7.807-5.129-7.807s5.483 3.1 8.757 6.038c3.275 2.938 6.561 5.55 8.15 3.466 1.59-2.084-2.617-6.988-2.617-6.988s4.865 1.798 4.887-1.039c.023-2.837-2.808-4.634-2.808-4.634s4.555.196 2.538-3.275c-2.016-3.471-7.2-3.707-7.2-3.707a2.518 2.518 0 0 0-2.506-1.77c-2.039 0-7.24 1.332-7.24 1.332s5.684-3.028 9.15-4.022c3.466-.994.994-5.617-.421-5.556a12.122 12.122 0 0 0-3.152.703s1.601-3.663-.758-3.685c-2.36-.023-3.466.679-3.466.679s.174-2.353-1.556-1.685c-1.73.669-3.325 2.107-4.594 3.904-1.27 1.798-3.5 4.46-3.5 4.46a6.049 6.049 0 0 1-4.404.607l-2.353-.652-1.584 1.124 2.05 3.347z" fill="#92E3A9" stroke="#263238" stroke-linecap="round" stroke-linejoin="round"/><path d="M62.155 220.443a30.547 30.547 0 0 1 3.427 2.09z" fill="#92E3A9"/><path d="M62.155 220.443a30.547 30.547 0 0 1 3.427 2.09" stroke="#263238" stroke-linecap="round" stroke-linejoin="round"/><path d="M40.501 212.715s7.51 4.679 12.695 4.92c2.567.206 5.073.894 7.386 2.028" fill="#92E3A9"/><path d="M40.501 212.715s7.51 4.679 12.695 4.92c2.567.206 5.073.894 7.386 2.028" stroke="#263238" stroke-linecap="round" stroke-linejoin="round"/><path d="M47.764 221.954c-.888-2.892-1.579-4.561-3.04-5.903z" fill="#92E3A9"/><path d="M47.764 221.954c-.888-2.892-1.579-4.561-3.04-5.903" stroke="#263238" stroke-linecap="round" stroke-linejoin="round"/><path d="M52.611 231.626s-2.657-2.247-4.033-6.932l-.337-1.151" fill="#92E3A9"/><path d="M52.611 231.626s-2.657-2.247-4.033-6.932l-.337-1.151" stroke="#263238" stroke-linecap="round" stroke-linejoin="round"/><path d="M49.174 210.916c.275-.19.536-.4.78-.629 2.697-2.472 4.916-4.494 7.275-4.803" fill="#92E3A9"/><path d="M49.174 210.916c.275-.19.536-.4.78-.629 2.697-2.472 4.916-4.494 7.275-4.803" stroke="#263238" stroke-linecap="round" stroke-linejoin="round"/><path d="M43.832 212.495a8.981 8.981 0 0 0 3.466-.561z" fill="#92E3A9"/><path d="M43.832 212.495a8.981 8.981 0 0 0 3.466-.561" stroke="#263238" stroke-linecap="round" stroke-linejoin="round"/><path d="M30.542 142.399s-.562-2.938 6.662-7.089c7.223-4.151 8.425-5.454 6.51-6.482a4.599 4.599 0 0 0-3.792-.186s2.753-2.202.849-3.409a2.613 2.613 0 0 0-3.37.432s2.695-5.364.201-6.106c-2.493-.741-3.167.281-4.14 2.18-.971 1.898-2.246 7.111-2.246 7.111s-.837-4.96-.669-8.47c.169-3.511.14-6.859-1.954-6.797-2.096.062-3.011 5.14-3.011 5.14s-1.337-3.932-3.106-2.5c-1.77 1.432-1.472 4.061-1.472 4.061s-2.174-2.921-3.309.073c-1.134 2.994 1.326 6.331 1.326 6.331a2.01 2.01 0 0 0 .163 2.443c1.034 1.264 4.494 3.82 4.494 3.82s-4.741-2-7.106-3.651c-2.365-1.652-3.988 2.218-3.241 3.061a9.578 9.578 0 0 0 2.022 1.601s-3.078.848-1.904 2.325a5.367 5.367 0 0 0 2.162 1.803s-1.544 1.073-.264 1.82a8.42 8.42 0 0 0 4.73.882c1.753-.112 4.527-.079 4.527-.079a4.866 4.866 0 0 1 2.596 2.427l.78 1.786 1.5.41 1.062-2.937z" fill="#92E3A9" stroke="#263238" stroke-linecap="round" stroke-linejoin="round"/><path d="M23.509 124.693a25.229 25.229 0 0 1-.427-3.173z" fill="#92E3A9"/><path d="M23.509 124.693a25.229 25.229 0 0 1-.427-3.173" stroke="#263238" stroke-linecap="round" stroke-linejoin="round"/><path d="M29.62 142.005s-.876-7.01-3.37-10.347a16.508 16.508 0 0 1-2.46-5.617" fill="#92E3A9"/><path d="M29.62 142.005s-.876-7.01-3.37-10.347a16.508 16.508 0 0 1-2.46-5.617" stroke="#263238" stroke-linecap="round" stroke-linejoin="round"/><path d="M31.682 132.867c-1.331 2.022-2.028 3.275-2.123 4.831z" fill="#92E3A9"/><path d="M31.682 132.867c-1.331 2.022-2.028 3.275-2.123 4.831" stroke="#263238" stroke-linecap="round" stroke-linejoin="round"/><path d="M35.249 124.98a12.096 12.096 0 0 1-2.247 5.988l-.562.792" fill="#92E3A9"/><path d="M35.249 124.98a12.096 12.096 0 0 1-2.247 5.988l-.562.792" stroke="#263238" stroke-linecap="round" stroke-linejoin="round"/><path d="M24.172 137.533a8.232 8.232 0 0 0-.787-.168c-2.887-.421-5.268-.77-6.639-2.09" fill="#92E3A9"/><path d="M24.172 137.533a8.232 8.232 0 0 0-.787-.168c-2.887-.421-5.268-.77-6.639-2.09" stroke="#263238" stroke-linecap="round" stroke-linejoin="round"/><path d="M27.823 140.068a7.111 7.111 0 0 0-2.096-1.853z" fill="#92E3A9"/><path d="M27.823 140.068a7.111 7.111 0 0 0-2.096-1.853" stroke="#263238" stroke-linecap="round" stroke-linejoin="round"/><path d="M188.613 203.367c34.723-34.723 34.723-91.019 0-125.742s-91.02-34.723-125.742 0c-34.723 34.723-34.723 91.019 0 125.742s91.019 34.723 125.742 0z" fill="#263238"/><path d="M167.542 182.296c23.086-23.085 23.086-60.514 0-83.6-23.085-23.086-60.515-23.086-83.6 0-23.086 23.086-23.086 60.515 0 83.6 23.085 23.086 60.515 23.086 83.6 0z" stroke="#8A8A8A" stroke-miterlimit="10"/><path d="M245.975 142.794c6.558 0 11.875-5.316 11.875-11.875 0-6.558-5.317-11.874-11.875-11.874s-11.874 5.316-11.874 11.874c0 6.559 5.316 11.875 11.874 11.875z" fill="#BFBFBF" stroke="#263238" stroke-miterlimit="10"/><path d="M247.121 125.69s-1.556-2.691-2.179-1.803c-.624.887.561 2.246.37 3.055-.191.809-2.808.95-2.488 1.831.32.882 3.151 2.146 3.151 2.146s-.14 1.685.489 1.747c.629.062 1.983-2.061 1.983-2.061s1.544.825 2.117-.365c.573-1.191-1.123-1.208-1.123-1.989 0-.781 1.533-1.045 1.247-1.775-.287-.73-3.028.551-3.567-.786z" fill="#92E3A9" stroke="#263238" stroke-miterlimit="10"/><path d="M247.217 128.015s3.157-10.526 6.971-14.604c3.814-4.078 4.763-4.882 6.179-4.033 1.415.848.59 1.612-.141 1.898-.73.287-7.397 3.157-11.745 17.627-.022-.017-2.494.101-1.264-.888z" fill="#92E3A9" stroke="#263238" stroke-miterlimit="10"/><path d="M236.804 173.461c6.072-2.478 8.985-9.409 6.507-15.481-2.478-6.072-9.409-8.986-15.481-6.508-6.072 2.478-8.985 9.409-6.507 15.481 2.478 6.072 9.409 8.986 15.481 6.508z" fill="#BFBFBF" stroke="#263238" stroke-miterlimit="10"/><path d="M234.191 158.297s-4.915-1.848-4.151-.158c.764 1.691 1.999.461 1.539 2.152-.461 1.691-.921 3.224-.309 3.37.612.146 1.859-2.932 2.151-1.809.292 1.124.77 3.371 1.534 2.146.764-1.224-.152-3.072.309-3.072.46 0 3.684 1.23 3.224-1.073-.461-2.303-2.146-1.23-2.612-1.382-.466-.152 0-2.921-1.225-2.46-1.224.46-.46 2.286-.46 2.286z" fill="#92E3A9" stroke="#263238" stroke-miterlimit="10"/><path d="M234.584 159.129s-5.376.764-7.527 4.915a34.749 34.749 0 0 0-3.224 8.426c-.152.921.921 1.685 1.382 1.072.46-.612 1.999-6.296 3.072-8.425 1.073-2.129 1.275-2.809 3.455-3.865 2.179-1.056 3.578-1.348 2.842-2.123z" fill="#92E3A9" stroke="#263238" stroke-miterlimit="10"/><path d="M222.41 130.6c6.072-2.478 8.986-9.409 6.508-15.481-2.478-6.072-9.409-8.986-15.481-6.508-6.072 2.478-8.986 9.409-6.508 15.481 2.478 6.072 9.409 8.986 15.481 6.508z" fill="#BFBFBF" stroke="#263238" stroke-miterlimit="10"/><path d="M219.799 115.433s-4.915-1.843-4.151-.152c.764 1.691 2 .46 1.539 2.151-.46 1.691-.921 3.224-.309 3.37.612.147 1.843-2.915 2.152-1.842.308 1.073.769 3.37 1.533 2.151.764-1.219-.152-3.072.309-3.072.461 0 3.685 1.23 3.224-1.073-.46-2.303-2.146-1.23-2.612-1.382-.466-.151 0-2.921-1.224-2.46-1.225.46-.461 2.309-.461 2.309z" fill="#92E3A9" stroke="#263238" stroke-miterlimit="10"/><path d="M220.21 116.264s-5.376.769-7.527 4.915a34.563 34.563 0 0 0-3.224 8.425c-.152.921.921 1.685 1.382 1.079.46-.607 1.999-6.303 3.072-8.426s1.275-2.808 3.455-3.864c2.179-1.056 3.561-1.349 2.842-2.129z" fill="#92E3A9" stroke="#263238" stroke-miterlimit="10"/><path d="M53.012 146.381s-12.92-5.274-23.367 7.421c-10.448 12.694 1.342 29.169 1.342 29.169s5.864-2.808 12.212-9.156c6.347-6.347 15.896-17.345 17.02-20.334 1.123-2.988-7.207-7.1-7.207-7.1z" fill="#92E3A9" stroke="#263238" stroke-linecap="round" stroke-linejoin="round"/><path opacity=".34" d="M45.72 169.559s-8.037-8.83-12.767-8.83c-4.73 0-5.97 5.678-4.572 12.295 1.398 6.617 4.572 7.409 5.201 7.409.63 0 9.931-7.088 12.139-10.874zM46.822 168.3s-4.112-5.202-6.46-10.381-.949-8.375 3.472-10.268c4.42-1.893 13.24 3.932 14.812 4.887l.472 1.264S49.5 165.783 46.822 168.3z" fill="#000"/><path d="M37.21 166.091s-4.257-.629-5.201 1.736 5.044.157 5.202-1.736zM38.778 168.143s-3.78 1.572-3.78 3.932c0 2.359 4.1-.467 3.78-3.932zM46.192 154.43a3.424 3.424 0 0 0-2.36 2.364 6.793 6.793 0 0 0 .315 3.781s3.146-2.657 2.045-6.145zM49.501 158.998a2.797 2.797 0 0 0-2.05 1.264 4.082 4.082 0 0 0-.944 2.679c0 .472 3.309-.157 2.994-3.943zM95.252 207.512s10.527-9.156 3.893-24.21c-6.634-15.054-26.665-11.903-26.665-11.903s-.129 6.499 2.685 15.026c2.814 8.527 8.325 22.008 10.493 24.35 2.168 2.343 9.594-3.263 9.594-3.263z" fill="#92E3A9" stroke="#263238" stroke-linecap="round" stroke-linejoin="round"/><path d="M94.387 206.338s10.526-9.155 3.898-24.204c-6.628-15.048-26.653-11.936-26.653-11.936s-.13 6.505 2.68 15.026c2.808 8.521 8.33 22.008 10.492 24.35 2.162 2.342 9.583-3.236 9.583-3.236z" fill="#92E3A9" stroke="#263238" stroke-linecap="round" stroke-linejoin="round"/><path opacity=".34" d="M76.974 189.373s11.498-3.202 13.627-7.426c2.129-4.224-2.393-7.886-8.937-9.594-6.544-1.707-8.667.731-8.954 1.292-.286.562 1.865 12.071 4.264 15.728zM77.586 190.947s6.493-1.32 12.2-1.09c5.707.23 7.864 2.915 7.583 7.707-.28 4.791-9.476 10.049-11.026 11.032L85 208.45s-6.341-13.976-7.414-17.503z" fill="#000"/><path d="M83.888 183.354s2.477-3.516.792-5.426c-1.685-1.909-2.41 4.438-.792 5.426zM81.35 183.842s.292-4.089-1.82-5.15c-2.112-1.062-1.433 3.87 1.82 5.15zM90.26 196.626a3.436 3.436 0 0 0-1.051-3.174 6.75 6.75 0 0 0-3.517-1.421s.972 4.016 4.567 4.595zM84.686 197.525a2.808 2.808 0 0 0-.202-2.398 4.083 4.083 0 0 0-1.971-2.051c-.422-.213-1.348 3.039 2.173 4.449z" fill="#92E3A9" stroke="#263238" stroke-linecap="round" stroke-linejoin="round"/><path d="M202.19 84.971c14.701 0 26.619-11.918 26.619-26.62 0-14.7-11.918-26.619-26.619-26.619-14.702 0-26.62 11.918-26.62 26.62 0 14.701 11.918 26.62 26.62 26.62z" fill="#fff" stroke="#263238" stroke-miterlimit="10"/><path d="M200.084 82.886c17.158 0 31.068-13.91 31.068-31.068s-13.91-31.068-31.068-31.068c-17.159 0-31.068 13.91-31.068 31.068 0 17.159 13.909 31.068 31.068 31.068z" fill="#fff" stroke="#263238" stroke-miterlimit="10"/><path d="M222.98 57.333c3.043-12.643-4.741-25.36-17.384-28.402-12.644-3.042-25.36 4.74-28.403 17.385-3.042 12.643 4.741 25.36 17.385 28.402 12.644 3.042 25.36-4.741 28.402-17.385z" fill="#263238"/><path d="M209.268 36.619s8.162-12.026 12.026-22.334c1.376-3.673 1.736-8.229 4.494-11.301 2.999-3.326 8.313-2.399 8.819 2.246.28 2.607-.837 4.567-2.888 7.303-2.87 3.814-8.667 8.869-11.155 12.964-4.41 7.246-7.302 11.324-8.527 12.987a2.122 2.122 0 0 1-2.37.803c-.731-.264-1.253-.95-.399-2.668z" fill="#92E3A9" stroke="#263238" stroke-linecap="round" stroke-linejoin="round"/><path d="M227.81 3.922s3.319-1.505 4.072 2.567" stroke="#263238" stroke-linecap="round" stroke-linejoin="round"/><path d="M141.104 232.628s15.666-.399 28.523-19.283c0 0-3.617-16.071-6.83-16.47-3.213-.399-13.257 14.043-17.273 22.092-4.016 8.05-4.42 13.661-4.42 13.661z" fill="#fff" stroke="#263238" stroke-miterlimit="10"/><path d="M108.648 61.868a194.404 194.404 0 0 0-4.151 19.031c-2.084 11.897-1.488 26.771-.595 29.147.893 2.376 4.46 3.275 6.246 2.679 1.786-.595 1.786-1.488 2.078-13.385.292-11.897.298-17.25 3.573-26.176 3.274-8.925 2.084-12.79-.298-14.874-2.382-2.084-4.471-2.971-6.853 3.578z" fill="#D6D6D6" stroke="#263238" stroke-miterlimit="10"/><path d="M115.787 64.834a52.532 52.532 0 0 0-5.353 18.149c-1.191 10.706 1.876 21.025.343 24.193a3.53 3.53 0 0 1-4.494 1.983" fill="#fff"/><path d="M115.787 64.834a52.532 52.532 0 0 0-5.353 18.149c-1.191 10.706 1.876 21.025.343 24.193a3.53 3.53 0 0 1-4.494 1.983" stroke="#263238" stroke-miterlimit="10"/><path d="M130.004 99.83s-1.197-4.011 8.936-10.578c10.134-6.566 11.796-8.51 8.78-9.717a7.248 7.248 0 0 0-5.617.174s3.791-3.37.803-4.82a4.021 4.021 0 0 0-4.926.984s3.286-7.746-.511-8.488c-3.797-.741-4.657.747-5.848 3.494-1.19 2.747-2.409 10.088-2.409 10.088s-1.899-6.774-2.118-11.655c-.219-4.882-.708-9.55-3.797-9.195-3.09.354-3.78 7.46-3.78 7.46s-2.5-5.275-4.938-3.118c-2.438 2.157-1.657 5.836-1.657 5.836s-3.617-3.809-4.898.472c-1.281 4.28 2.808 8.622 2.808 8.622a2.659 2.659 0 0 0 .562 3.37c1.685 1.64 7.145 4.786 7.145 4.786s-7.302-2.247-11.021-4.247c-3.718-2-5.617 3.505-4.375 4.6.979.802 2.059 1.47 3.213 1.99 0 0-4.449 1.527-2.517 3.437s3.455 2.247 3.455 2.247-2.152 1.685-.158 2.555c1.994.871 4.55 1.045 7.134.686 2.584-.36 6.701-.624 6.701-.624a7.3 7.3 0 0 1 4.168 3.073l.994 1.685a1.692 1.692 0 0 0 1.18.814 1.68 1.68 0 0 0 1.915-1.207l.776-2.725z" fill="#92E3A9" stroke="#263238" stroke-linecap="round" stroke-linejoin="round"/><path d="M117.225 76.09a31.983 31.983 0 0 1-1.056-4.348z" fill="#92E3A9"/><path d="M117.225 76.09a31.983 31.983 0 0 1-1.056-4.348" stroke="#263238" stroke-linecap="round" stroke-linejoin="round"/><path d="M128.594 99.39s-2.247-9.617-6.336-13.959a22.764 22.764 0 0 1-4.393-7.476" fill="#92E3A9"/><path d="M128.594 99.39s-2.247-9.617-6.336-13.959a22.764 22.764 0 0 1-4.393-7.476" stroke="#263238" stroke-linecap="round" stroke-linejoin="round"/><path d="M130.431 86.488c-1.725 2.932-2.573 4.77-2.505 6.971z" fill="#92E3A9"/><path d="M130.431 86.488c-1.725 2.932-2.573 4.77-2.505 6.971" stroke="#263238" stroke-linecap="round" stroke-linejoin="round"/><path d="M134.666 75.158s.275 3.865-2.567 8.56l-.703 1.124" fill="#92E3A9"/><path d="M134.666 75.158s.275 3.865-2.567 8.56l-.703 1.124" stroke="#263238" stroke-linecap="round" stroke-linejoin="round"/><path d="M119.87 93.813c-.39-.07-.784-.119-1.179-.146-4.342-.258-7.915-.472-10.111-2.145" fill="#92E3A9"/><path d="M119.87 93.813c-.39-.07-.784-.119-1.179-.146-4.342-.258-7.915-.472-10.111-2.145" stroke="#263238" stroke-linecap="round" stroke-linejoin="round"/><path d="M125.667 96.907a10.801 10.801 0 0 0-3.37-2.337z" fill="#92E3A9"/><path d="M125.667 96.907a10.801 10.801 0 0 0-3.37-2.337" stroke="#263238" stroke-linecap="round" stroke-linejoin="round"/><path d="M104.126 101.345s-4.185-.062-7.414-11.695c-3.23-11.633-4.59-13.79-6.64-11.29a7.302 7.302 0 0 0-1.528 5.443s-2.067-4.623-4.358-2.213a4.027 4.027 0 0 0-.562 5s-6.41-5.455-8.252-2.057c-1.842 3.399-.685 4.668 1.579 6.629 2.263 1.96 8.92 5.313 8.92 5.313s-7.005-.219-11.706-1.466c-4.702-1.247-9.297-2.18-9.909.87-.612 3.05 5.977 5.837 5.977 5.837s-5.78.809-4.455 3.775c1.326 2.966 5.056 3.291 5.056 3.291s-4.713 2.309-1.017 4.814 9.072-.095 9.072-.095a2.652 2.652 0 0 0 3.37.466c2.073-1.124 6.707-5.381 6.707-5.381s-4.314 6.291-7.353 9.24c-3.039 2.949 1.685 6.381 3.078 5.555a14.464 14.464 0 0 0 2.86-2.471s.123 4.701 2.527 3.426c2.404-1.275 3.185-2.617 3.185-2.617s.943 2.55 2.387.915c1.444-1.634 2.36-4.027 2.808-6.6.45-2.573 1.416-6.578 1.416-6.578a7.3 7.3 0 0 1 4.179-3.061l2.696-.612 1.056-2.062-3.679-2.376z" fill="#92E3A9" stroke="#263238" stroke-linecap="round" stroke-linejoin="round"/><path d="M92.375 96.644s-4.19-.062-7.415-11.695c-3.224-11.633-4.617-13.79-6.645-11.285a7.303 7.303 0 0 0-1.528 5.443s-2.067-4.623-4.353-2.213a4.028 4.028 0 0 0-.562 5s-6.403-5.455-8.251-2.057c-1.848 3.399-.68 4.668 1.584 6.628 2.263 1.96 8.959 5.309 8.959 5.309s-7.033-.22-11.757-1.472c-4.724-1.253-9.296-2.174-9.914.87-.618 3.045 5.943 5.842 5.943 5.842s-5.78.81-4.449 3.775c1.332 2.966 5.056 3.292 5.056 3.292s-4.713 2.308-1.011 4.813c3.701 2.506 9.066-.095 9.066-.095a2.654 2.654 0 0 0 3.37.466c2.073-1.123 6.707-5.381 6.707-5.381s-4.32 6.291-7.359 9.24c-3.038 2.949 1.685 6.381 3.084 5.555a14.608 14.608 0 0 0 2.86-2.471s.123 4.701 2.521 3.426c2.399-1.275 3.19-2.617 3.19-2.617s.944 2.55 2.388.915c1.444-1.634 2.36-4.027 2.809-6.6.449-2.572 1.41-6.577 1.41-6.577a7.305 7.305 0 0 1 4.179-3.062l2.696-.612 1.061-2.061-3.64-2.376z" fill="#92E3A9" stroke="#263238" stroke-linecap="round" stroke-linejoin="round"/><path d="M77.653 106.429a31.859 31.859 0 0 1-4.494-.298z" fill="#92E3A9"/><path d="M77.653 106.429a31.859 31.859 0 0 1-4.494-.298" stroke="#263238" stroke-linecap="round" stroke-linejoin="round"/><path d="M103.284 102.558s-9.841-.741-15.217 1.865a22.555 22.555 0 0 1-8.425 1.949" fill="#92E3A9"/><path d="M103.284 102.558s-9.841-.741-15.217 1.865a22.555 22.555 0 0 1-8.425 1.949" stroke="#263238" stroke-linecap="round" stroke-linejoin="round"/><path d="M91.527 96.941c2.28 2.528 3.775 3.882 5.898 4.494z" fill="#92E3A9"/><path d="M91.527 96.941c2.28 2.528 3.775 3.882 5.898 4.494" stroke="#263238" stroke-linecap="round" stroke-linejoin="round"/><path d="M81.99 89.51s3.763.887 7.391 5.01l.894 1.017" fill="#92E3A9"/><path d="M81.99 89.51s3.763.887 7.391 5.01l.894 1.017" stroke="#263238" stroke-linecap="round" stroke-linejoin="round"/><path d="M95.352 109.209c-.183.352-.348.714-.494 1.084-1.545 4.067-2.808 7.409-5.055 8.987" fill="#92E3A9"/><path d="M95.352 109.209c-.183.352-.348.714-.494 1.084-1.545 4.067-2.808 7.409-5.055 8.987" stroke="#263238" stroke-linecap="round" stroke-linejoin="round"/><path d="M100.042 104.607a10.592 10.592 0 0 0-3.235 2.506z" fill="#92E3A9"/><path d="M100.042 104.607a10.592 10.592 0 0 0-3.235 2.506" stroke="#263238" stroke-linecap="round" stroke-linejoin="round"/><path d="M140.614 86.55s-3.763-1.764-2.629-13.268c1.135-11.503.652-13.953-2.072-12.599a6.398 6.398 0 0 0-3.275 4.14s-.258-4.892-3.168-3.713c-2.91 1.18-2.247 4.157-2.247 4.157s-3.887-7.392-6.74-5.168c-2.854 2.224-2.247 3.808-.882 6.443 1.365 2.634 6.24 8.302 6.24 8.302s-6.28-3.067-10.111-6.09c-3.83-3.021-7.644-5.706-9.262-3.285-1.618 2.42 3.37 7.555 3.37 7.555s-5.505-1.651-5.336 1.489c.168 3.14 3.409 4.942 3.409 4.942s-5.055.096-2.595 3.798c2.461 3.701 8.235 3.617 8.235 3.617a2.813 2.813 0 0 0 2.893 1.792c2.247-.14 7.931-1.972 7.931-1.972s-6.094 3.747-9.863 5.084c-3.77 1.337-.714 6.274.848 6.123a13.33 13.33 0 0 0 3.443-.995s-1.528 4.162 1.09 4.028c2.617-.135 3.791-.989 3.791-.989s-.033 2.618 1.843 1.775c1.876-.842 3.533-2.561 4.819-4.64 1.286-2.078 3.567-5.179 3.567-5.179a6.74 6.74 0 0 1 4.842-.971l2.651.561 1.685-1.37-2.477-3.567z" fill="#92E3A9" stroke="#263238" stroke-linecap="round" stroke-linejoin="round"/><path d="M114.916 80.186a34.476 34.476 0 0 1-3.932-2.079z" fill="#92E3A9"/><path d="M114.916 80.186a34.476 34.476 0 0 1-3.932-2.079" stroke="#263238" stroke-linecap="round" stroke-linejoin="round"/><path d="M139.429 87.268s-8.639-4.673-14.396-4.583a22.895 22.895 0 0 1-8.319-1.742" fill="#92E3A9"/><path d="M139.429 87.268s-8.639-4.673-14.396-4.583a22.895 22.895 0 0 1-8.319-1.742" stroke="#263238" stroke-linecap="round" stroke-linejoin="round"/><path d="M130.763 77.55c1.179 3.14 2.061 4.938 3.769 6.326z" fill="#92E3A9"/><path d="M130.763 77.55c1.179 3.14 2.061 4.938 3.769 6.326" stroke="#263238" stroke-linecap="round" stroke-linejoin="round"/><path d="M124.719 67.148s3.095 2.315 4.943 7.404c.157.438.309.854.449 1.252" fill="#92E3A9"/><path d="M124.719 67.148s3.095 2.315 4.943 7.404c.157.438.309.854.449 1.252" stroke="#263238" stroke-linecap="round" stroke-linejoin="round"/><path d="M129.943 89.852c-.29.23-.564.48-.82.747-2.809 2.926-5.134 5.33-7.729 5.819" fill="#92E3A9"/><path d="M129.943 89.852c-.29.23-.564.48-.82.747-2.809 2.926-5.134 5.33-7.729 5.819" stroke="#263238" stroke-linecap="round" stroke-linejoin="round"/><path d="M135.783 87.734a9.962 9.962 0 0 0-3.797.871z" fill="#92E3A9"/><path d="M135.783 87.734a9.962 9.962 0 0 0-3.797.871" stroke="#263238" stroke-linecap="round" stroke-linejoin="round"/><path d="M95.341 107.546S83.714 92.542 83.714 89.65c0-2.893 5.398-19.66 8.482-17.537 3.084 2.123 12.717 20.43 11.947 27.749-.769 7.319-5.263 10.352-8.802 7.684z" fill="#919191" stroke="#263238" stroke-miterlimit="10"/><path d="M92.015 75.002s-4.044 12.144-2.505 14.65c1.539 2.505 5.207 14.649 6.942 15.227 1.736.579 3.657 1.152 4.814-2.123" fill="#919191"/><path d="M92.015 75.002s-4.044 12.144-2.505 14.65c1.539 2.505 5.207 14.649 6.942 15.227 1.736.579 3.657 1.152 4.814-2.123" stroke="#263238" stroke-miterlimit="10"/><path d="M95.099 96.851s-.242 1.45-3.634 4.494c-3.393 3.044-12.802 4.685-9.23 12.605 3.573 7.92 10.606 15.261 13.392 8.667 2.786-6.595 1.983-16.851 4.415-18.025 2.432-1.174 10.027-.152 12.172-5.27 2.146-5.116-3.612-15.165-9.06-11.475a26.084 26.084 0 0 0-8.055 9.004z" fill="#fff" stroke="#263238" stroke-miterlimit="10"/><path d="M99.52 124.571s-4.42-15.666-4.42-27.72c0-12.055-1.203-22.092 1.606-23.3 2.808-1.208 5.617-2.005 7.235-.803 1.617 1.202.803 17.677.803 29.731 0 12.054 4.808 21.693 4.808 25.71 0 4.016-4.819 6.426-7.633 5.617-2.815-.809-2.399-9.235-2.399-9.235z" fill="#D6D6D6" stroke="#263238" stroke-miterlimit="10"/><path d="M102.171 77.596s-.893 17.547.298 25.878c1.191 8.33 3.572 18.441 3.87 22.305.298 3.865.888 4.494-2.084 5.056" stroke="#263238" stroke-miterlimit="10"/><path d="M139.958 125.618s-3.623-2.095-.781-13.824c2.842-11.728 2.707-14.284-.303-13.099a7.269 7.269 0 0 0-3.983 4.011s.444-5.056-2.73-4.056a4.033 4.033 0 0 0-2.904 4.106s-2.938-7.864-6.207-5.813c-3.269 2.05-2.864 3.746-1.842 6.555 1.022 2.808 5.201 8.987 5.201 8.987s-6.038-3.612-9.549-7.004c-3.51-3.393-7.06-6.432-9.083-4.067-2.022 2.365 2.382 8.015 2.382 8.015s-5.443-2.112-5.729 1.124c-.287 3.235 2.808 5.33 2.808 5.33s-5.241-.28-3.23 3.708c2.011 3.988 7.971 4.331 7.971 4.331a2.651 2.651 0 0 0 2.724 2.055c2.359 0 8.476-1.438 8.476-1.438s-6.836 3.371-10.925 4.494c-4.089 1.124-1.646 6.392 0 6.353a14.279 14.279 0 0 0 3.696-.764s-2.179 4.168.562 4.224c2.741.056 4.061-.736 4.061-.736s-.421 2.685 1.64 1.961c2.062-.725 4.022-2.371 5.651-4.404 1.629-2.033 4.438-5.055 4.438-5.055a7.295 7.295 0 0 1 5.139-.641l2.652.775 1.932-1.28-2.067-3.848z" fill="#92E3A9" stroke="#263238" stroke-linecap="round" stroke-linejoin="round"/><path d="M114.36 117.163a31.97 31.97 0 0 1-3.757-2.433z" fill="#92E3A9"/><path d="M114.36 117.163a31.97 31.97 0 0 1-3.757-2.433" stroke="#263238" stroke-linecap="round" stroke-linejoin="round"/><path d="M138.632 126.262s-8.235-5.415-14.194-5.78a22.589 22.589 0 0 1-8.331-2.41" fill="#92E3A9"/><path d="M138.632 126.262s-8.235-5.415-14.194-5.78a22.589 22.589 0 0 1-8.331-2.41" stroke="#263238" stroke-linecap="round" stroke-linejoin="round"/><path d="M131.099 115.635c.758 3.314 1.41 5.229 2.971 6.78z" fill="#92E3A9"/><path d="M131.099 115.635c.758 3.314 1.41 5.229 2.971 6.78" stroke="#263238" stroke-linecap="round" stroke-linejoin="round"/><path d="M126.403 104.496s2.859 2.612 4.022 7.976c.101.461.197.899.287 1.32" fill="#92E3A9"/><path d="M126.403 104.496s2.859 2.612 4.022 7.976c.101.461.197.899.287 1.32" stroke="#263238" stroke-linecap="round" stroke-linejoin="round"/><path d="M128.465 128.213a9.545 9.545 0 0 0-.955.708c-3.331 2.808-6.078 5.094-8.824 5.398" fill="#92E3A9"/><path d="M128.465 128.213a9.545 9.545 0 0 0-.955.708c-3.331 2.808-6.078 5.094-8.824 5.398" stroke="#263238" stroke-linecap="round" stroke-linejoin="round"/><path d="M130.757 127.088a10.67 10.67 0 0 1 4.072-.623z" fill="#92E3A9"/><path d="M130.757 127.088a10.67 10.67 0 0 1 4.072-.623" stroke="#263238" stroke-linecap="round" stroke-linejoin="round"/><path d="M129.543 139.946s-11.605-15.003-11.605-17.896c0-2.893 5.393-19.66 8.477-17.537 3.083 2.124 12.722 20.43 11.953 27.749-.77 7.319-5.308 10.375-8.825 7.684z" fill="#919191" stroke="#263238" stroke-miterlimit="10"/><path d="M126.224 107.424s-4.045 12.144-2.505 14.649c1.539 2.505 5.201 14.65 6.937 15.228 1.735.579 3.662 1.124 4.819-2.123" fill="#919191"/><path d="M126.224 107.424s-4.045 12.144-2.505 14.649c1.539 2.505 5.201 14.65 6.937 15.228 1.735.579 3.662 1.124 4.819-2.123" stroke="#263238" stroke-miterlimit="10"/><path d="M114.664 87.976s-2.078 7.14-4.162 19.037c-2.084 11.897-1.511 26.754-.596 29.152.916 2.399 4.46 3.27 6.246 2.674 1.787-.595 1.787-1.483 2.084-13.385.298-11.903.298-17.251 3.567-26.176 3.269-8.926 2.084-12.79-.297-14.869-2.382-2.078-4.46-2.977-6.842 3.567z" fill="#D6D6D6" stroke="#263238" stroke-miterlimit="10"/><path d="M121.803 90.953a52.454 52.454 0 0 0-5.353 18.143c-1.191 10.707 1.882 21.025.343 24.193a3.516 3.516 0 0 1-4.494 1.983" stroke="#263238" stroke-miterlimit="10"/><path d="M60.886 96.694s2.887 6.847 8.774 17.413c5.886 10.566 15.728 21.71 17.93 22.991 2.201 1.28 5.527-.276 6.532-1.86 1.006-1.584.45-2.28-6.825-11.7-7.274-9.42-10.672-13.577-13.745-22.564-3.072-8.987-6.454-11.234-9.61-11.352-3.157-.118-5.343.483-3.056 7.072z" fill="#D6D6D6" stroke="#263238" stroke-miterlimit="10"/><path d="M68.3 94.492a52.463 52.463 0 0 0 7.302 17.453c5.83 9.06 14.722 15.132 15.531 18.536a3.526 3.526 0 0 1-2.246 4.381" stroke="#263238" stroke-miterlimit="10"/><path d="M150.658 118.315s-5.353-10.706-10.712-22.603c-5.359-11.897-10.706-19.93-13.385-16.065-2.68 3.865-2.674 15.166-.888 21.12 1.786 5.955.59 2.68 1.781 5.949 1.191 3.269-.298.595 2.977 7.139 3.275 6.544 4.162 8.926 6.246 9.521 2.084.596 14.576 6.246 13.981-5.061z" fill="#C2C2C2" stroke="#263238" stroke-miterlimit="10"/><path d="M132.807 91.549s.893 2.376.893 12.492c0 10.117-.298 11.302-.298 11.302" fill="#C2C2C2"/><path d="M132.807 91.549s.893 2.376.893 12.492c0 10.117-.298 11.302-.298 11.302" stroke="#263238" stroke-miterlimit="10"/><path d="M136.081 117.129c1.786-7.139.298-20.822.298-20.822z" fill="#C2C2C2"/><path d="M136.081 117.129c1.786-7.139.298-20.822.298-20.822" stroke="#263238" stroke-miterlimit="10"/><path d="M139.648 102.873s.596 9.813-1.185 17.548z" fill="#C2C2C2"/><path d="M139.648 102.873s.596 9.813-1.185 17.548" stroke="#263238" stroke-miterlimit="10"/><path d="M142.328 110.586s-.298 6.544-1.191 10.706z" fill="#C2C2C2"/><path d="M142.328 110.586s-.298 6.544-1.191 10.706" stroke="#263238" stroke-miterlimit="10"/><path d="M130.133 83.213s12.195 20.822 16.952 33.91z" fill="#C2C2C2"/><path d="M130.133 83.213s12.195 20.822 16.952 33.91" stroke="#263238" stroke-miterlimit="10"/><path d="M153.237 104.8s-5.353-10.712-10.707-22.609c-5.353-11.897-10.711-19.93-13.385-16.06-2.674 3.871-2.679 15.167-.893 21.116 1.786 5.948.595 2.679 1.78 5.948 1.186 3.27-.292.596 2.977 7.139 3.27 6.544 4.163 8.926 6.247 9.55 2.084.623 14.576 6.218 13.981-5.084z" fill="#C2C2C2" stroke="#263238" stroke-miterlimit="10"/><path d="M135.391 78.03s.893 2.375.893 12.492c0 10.116-.298 11.301-.298 11.301" fill="#C2C2C2"/><path d="M135.391 78.03s.893 2.375.893 12.492c0 10.116-.298 11.301-.298 11.301" stroke="#263238" stroke-miterlimit="10"/><path d="M138.957 82.785s1.488 13.683-.298 20.823z" fill="#C2C2C2"/><path d="M138.957 82.785s1.488 13.683-.298 20.823" stroke="#263238" stroke-miterlimit="10"/><path d="M142.232 89.33s.595 9.819-1.191 17.548z" fill="#C2C2C2"/><path d="M142.232 89.33s.595 9.819-1.191 17.548" stroke="#263238" stroke-miterlimit="10"/><path d="M144.906 97.064s-.298 6.544-1.191 10.707z" fill="#C2C2C2"/><path d="M144.906 97.064s-.298 6.544-1.191 10.707" stroke="#263238" stroke-miterlimit="10"/><path d="M132.711 69.7s12.195 20.822 16.952 33.91z" fill="#C2C2C2"/><path d="M132.711 69.7s12.195 20.822 16.952 33.91" stroke="#263238" stroke-miterlimit="10"/><path d="M124.23 132.992s-1.202-14.459 7.633-25.305c8.836-10.847 8.033-22.098 6.426-28.928-1.606-6.83-2.005-10.044 1.208-7.629 3.213 2.416 10.043 6.825 13.256 24.907 3.213 18.081 10.847 45.796 12.454 63.069 1.606 17.272 2.808 31.736 6.027 40.976 3.218 9.24-1.208 16.47-5.617 20.087-4.41 3.618-10.044 0-12.055-7.634-2.011-7.633-29.332-79.543-29.332-79.543z" fill="#fff" stroke="#263238" stroke-miterlimit="10"/><path d="M98.88 129.919s-5.337-10.712-10.673-22.609C82.87 95.413 77.5 87.38 74.82 91.251c-2.68 3.87-2.674 15.166-.893 21.115 1.78 5.948.596 2.679 1.786 5.948 1.191 3.269-.297.596 2.978 7.14 3.274 6.544 4.162 8.925 6.246 9.521 2.084.595 14.56 6.246 13.941-5.056z" fill="#C2C2C2" stroke="#263238" stroke-miterlimit="10"/><path d="M81.05 103.148s.894 2.376.894 12.493c0 10.116-.298 11.301-.298 11.301" fill="#C2C2C2"/><path d="M81.05 103.148s.894 2.376.894 12.493c0 10.116-.298 11.301-.298 11.301" stroke="#263238" stroke-miterlimit="10"/><path d="M84.624 107.928s1.488 13.683-.298 20.822z" fill="#C2C2C2"/><path d="M84.624 107.928s1.488 13.683-.298 20.822" stroke="#263238" stroke-miterlimit="10"/><path d="M87.892 114.451s.596 9.819-1.185 17.548z" fill="#C2C2C2"/><path d="M87.892 114.451s.596 9.819-1.185 17.548" stroke="#263238" stroke-miterlimit="10"/><path d="M90.572 122.186s-.298 6.543-1.191 10.706z" fill="#C2C2C2"/><path d="M90.572 122.186s-.298 6.543-1.191 10.706" stroke="#263238" stroke-miterlimit="10"/><path d="M78.377 94.818s12.195 20.823 16.952 33.911z" fill="#C2C2C2"/><path d="M78.377 94.818s12.195 20.823 16.952 33.911" stroke="#263238" stroke-miterlimit="10"/><path d="M145.12 149.494s-.854-10.734-16.47-20.918c-18.48-12.054-53.834-9.644-64.68-20.087-10.847-10.442-10.443-22.468-11.65-16.85-1.208 5.616.803 23.299 8.84 42.582 8.039 19.284 38.967 37.36 47.403 43.814 8.437 6.454 23.3 30.928 23.705 36.955.404 6.027 3.213 15.267 8.835 17.677 5.623 2.409 14.863-10.044 17.273-31.332 2.41-21.289-13.256-51.841-13.256-51.841z" fill="#fff" stroke="#263238" stroke-miterlimit="10"/><path d="M111.378 181.204s32.54-1.607 53.025-26.114l6.831 44.993s-4.016 6.83-17.677 12.453c-13.661 5.623-21.289 2.41-21.289 2.41l-20.89-33.742z" fill="#92E3A9" stroke="#263238" stroke-linecap="round" stroke-linejoin="round"/><path d="M110.799 68.047s-3.753-2.65-2.77 2.691c.983 5.342 2.427 6.398 3.663 2.96 1.236-3.437 6.544-5.65 7.735-2.376 1.19 3.275 3.269 10.706 4.757 10.706 1.489 0-.247-3.713 2.376-2.381 2.623 1.331-.59 6.544 1.489 10.712 2.078 4.167 8.628 0 8.032-3.275-.595-3.275-4.493-16.206-4.493-16.206s-5.921 5.5-5.618 1.332c.304-4.168-.932-11.077-2.696-12.083-1.764-1.005-1.337 9.077-3.78 7.46-2.444-1.618-2.668-4.612-4.938-3.118a15.931 15.931 0 0 0-3.757 3.578z" fill="#fff" stroke="#263238" stroke-miterlimit="10"/><path d="m132.801 191.336 20.154 2.016M146.237 195.701l8.061 1.011" stroke="#263238" stroke-miterlimit="10"/><path d="M107.99 155.27c.944.747 1.242 1.944.663 2.668-.579.725-1.809.708-2.752-.039-.944-.747-1.242-1.949-.663-2.674.578-.724 1.808-.708 2.752.045zM118.815 162.757a.874.874 0 0 1-.688 1.404.872.872 0 0 1-.689-1.404.99.99 0 0 1 1.377 0zM124.746 151.742c.1.128.162.282.178.445a.875.875 0 0 1-.866.959.875.875 0 0 1-.782-.488.87.87 0 0 1 .094-.916.988.988 0 0 1 1.376 0zM160.342 147.355a.87.87 0 1 1-1.376 0 .99.99 0 0 1 1.376 0zM155.668 156.681c.398-.236.473-.846.166-1.364-.306-.518-.877-.748-1.275-.512-.398.235-.472.845-.166 1.364.307.518.878.747 1.275.512zM152.955 134.586a.876.876 0 0 1-.254.885.876.876 0 0 1-.906.162.872.872 0 0 1-.45-1.21.874.874 0 0 1 .329-.348.992.992 0 0 1 1.281.511zM149.191 220.395a.862.862 0 0 1-.682 1.084.869.869 0 0 1-.848-.34.861.861 0 0 1 .255-1.255.985.985 0 0 1 1.275.511zM162.352 211.153a.874.874 0 0 1 .128 1.103.868.868 0 0 1-1.059.332.868.868 0 0 1-.512-.581 1 1 0 0 1 .168-1.371.98.98 0 0 1 1.275.517zM160.668 216.524a.867.867 0 0 1-.254.885.866.866 0 0 1-.906.162.867.867 0 0 1-.545-.742.868.868 0 0 1 .424-.816.997.997 0 0 1 1.281.511zM164.369 214.844a.866.866 0 0 1-1.53.745.872.872 0 0 1-.166-.446.873.873 0 0 1 .421-.81.985.985 0 0 1 1.275.511zM87.47 126.19a.868.868 0 0 1-.253.884.874.874 0 0 1-.906.162.866.866 0 0 1-.45-1.21.866.866 0 0 1 .33-.347.983.983 0 0 1 1.28.511zM78.096 146.339a.873.873 0 0 1-.228 1.272.872.872 0 0 1-1.242-.355.874.874 0 0 1 .094-.917.997.997 0 0 1 1.376 0zM106.311 143.013a.864.864 0 1 1-1.376 0 .982.982 0 0 1 1.376 0z" fill="#263238"/><path d="m142.879 102.346-3.702 9.448s-4.179 5.841-5.106 10.622a19.162 19.162 0 0 0 .41 8.813" fill="#C2C2C2"/><path d="m142.879 102.346-3.702 9.448s-4.179 5.841-5.106 10.622a19.162 19.162 0 0 0 .41 8.813" stroke="#263238" stroke-miterlimit="10"/><path d="M134.829 153.395s-8.74 8.729-8.425 17.126z" fill="#C2C2C2"/><path d="M134.829 153.395s-8.74 8.729-8.425 17.126" stroke="#263238" stroke-miterlimit="10"/><path d="M122.73 167.83s-2.353 5.713-7.723 7.055z" fill="#C2C2C2"/><path d="M122.73 167.83s-2.353 5.713-7.723 7.055" stroke="#263238" stroke-miterlimit="10"/><path d="M52 128.375 108.455 185 259 34" stroke="#29B067" stroke-width="21" stroke-linecap="round" stroke-linejoin="round"/></svg>