<svg width="313" height="317" fill="none" xmlns="http://www.w3.org/2000/svg"><path d="M234.768 238.471c43.205-43.205 43.205-113.253 0-156.458-43.204-43.204-113.253-43.204-156.457 0-43.205 43.205-43.205 113.253 0 156.458 43.204 43.204 113.253 43.204 156.457 0z" fill="#263238"/><path d="M156.579 271.28c-61.227 0-111.034-49.815-111.034-111.035 0-61.219 49.767-111.042 111.034-111.042 61.268 0 110.986 49.815 110.986 111.042 0 61.228-49.799 111.035-110.986 111.035zm0-221.273c-60.785 0-110.23 49.453-110.23 110.238s49.405 110.23 110.23 110.23 110.182-49.453 110.182-110.23c0-60.776-49.445-110.238-110.182-110.238z" fill="#263238"/><path d="M234.771 235.168c43.205-43.204 43.205-113.253 0-156.457-43.205-43.205-113.253-43.205-156.457 0-43.205 43.204-43.205 113.253 0 156.457 43.204 43.205 113.252 43.205 156.457 0z" fill="#fff"/><path d="M156.579 267.973c-61.227 0-111.034-49.807-111.034-111.035 0-61.227 49.767-111.034 111.034-111.034 61.268 0 110.986 49.807 110.986 111.034 0 61.228-49.799 111.035-110.986 111.035zm0-221.264c-60.785 0-110.23 49.445-110.23 110.229 0 60.785 49.405 110.23 110.23 110.23s110.182-49.453 110.182-110.23c0-60.776-49.445-110.23-110.182-110.23z" fill="#263238"/><path d="M213.567 217.27c31.496-31.495 31.496-82.56 0-114.056-31.495-31.495-82.56-31.495-114.056 0-31.495 31.496-31.495 82.56 0 114.056 31.496 31.496 82.561 31.496 114.056 0z" fill="#fff"/><path d="M156.58 241.287a81.051 81.051 0 1 1 81.003-81.043 81.136 81.136 0 0 1-81.003 81.043zm0-161.291a80.25 80.25 0 0 0-78.715 95.898 80.245 80.245 0 0 0 109.414 58.489 80.253 80.253 0 0 0 36.016-29.555 80.25 80.25 0 0 0 13.524-44.584 80.334 80.334 0 0 0-80.239-80.248z" fill="#263238"/><path d="M188.668 93.853c-23.919-8.275-57.021.958-69.889 8.284 0 0-35.886 18.401-39.561 54.279-3.676 35.877 22.969 69.921 71.731 79.138 48.761 9.216 81.88-38.604 81.88-72.68 0-34.076-20.243-60.737-44.161-69.02zm-27.216 84.068c-12.208 1.158-20.91-6.434-18.61-16.889a16.464 16.464 0 0 1 11.854-12.063c6.088-1.609 12.868.265 16.085 7.374 2.887 6.459 2.887 20.412-9.329 21.578z" fill="#263238"/><path d="M187.703 90.975c-23.919-8.283-57.037.917-69.921 8.276 0 0-35.878 18.401-39.561 54.287-3.684 35.885 23.001 69.953 71.763 79.121 48.761 9.169 81.88-38.603 81.88-72.679s-20.235-60.729-44.161-69.005zm-27.208 84.06c-12.216 1.166-20.91-6.394-18.61-16.889 1.359-6.12 6.337-10.528 11.846-12.024 6.097-1.648 12.868.274 16.085 7.375 2.888 6.459 2.888 20.38-9.321 21.538z" fill="#DBBE8F"/><path d="M162.16 234.227a66.242 66.242 0 0 1-12.249-1.175c-23.444-4.423-42.73-14.685-55.775-29.684-12.36-14.211-18.16-31.921-16.318-49.864 3.66-35.684 39.408-54.415 39.778-54.6 12.386-7.077 45.73-16.793 70.243-8.3 26.162 9.032 44.427 37.575 44.427 69.35 0 20.726-11.799 44.435-29.363 58.992-8.887 7.391-22.632 15.281-40.743 15.281zm3.868-146.148c-19.431 0-39.159 6.434-48.046 11.525-.37.193-35.748 18.731-39.36 53.973-3.86 37.663 25.511 70.017 71.434 78.687 23.942 4.512 41.676-5.075 52.332-13.913 17.396-14.412 29.073-37.872 29.073-58.372 0-31.463-18.047-59.684-43.887-68.627a66.258 66.258 0 0 0-21.546-3.273zm-8.002 87.478c-5.694 0-10.592-1.922-13.672-5.437a13.32 13.32 0 0 1-2.839-12.064 16.887 16.887 0 0 1 12.136-12.329c7.077-1.914 13.567 1.07 16.535 7.592 1.954 4.303 2.493 11.533-.362 16.463-1.93 3.33-5.043 5.22-9.273 5.63-.869.105-1.705.145-2.525.145zm-.185-29.556c-1.359 0-2.711.182-4.021.539a16.079 16.079 0 0 0-11.558 11.717 12.516 12.516 0 0 0 2.655 11.332c3.377 3.828 9.039 5.63 15.521 5.051 3.949-.378 6.861-2.139 8.646-5.228 2.726-4.696 2.204-11.605.33-15.723-2.566-5.686-7.206-7.688-11.573-7.688z" fill="#263238"/><path d="M228.535 158.756c-5.815-10.455-6.981-13.962-6.981-22.101s-4.648-16.889-8.726-19.768c-4.077-2.879-6.973-5.236-13.374-11.637-6.402-6.402-15.12-8.718-22.093-7.56-6.973 1.158-10.455 1.166-19.197 0-8.743-1.166-8.719-3.483-16.89-.58-8.171 2.904-23.813 8.156-23.813 8.156s-16.89 6.981-19.777 14.54c-2.887 7.56-1.158 21.522-3.482 27.345-2.324 5.823-8.726 3.482-5.823 16.889 2.903 13.407 7.56 20.91 7.56 27.344 0 6.434 10.455 18.032 19.776 18.032 9.322 0 15.699 1.745 24.425 8.718 8.726 6.972 15.699 9.305 26.75 3.49 11.05-5.815 24.425-5.236 30.239-5.815 5.815-.579 13.375-9.884 15.699-18.031 2.324-8.147 11.638-8.718 14.541-16.889.933-2.614 1.978-4.737 2.791-6.772.546-2.36.97-4.746 1.27-7.15a21.081 21.081 0 0 0-2.895-8.211zm-55.252-.587c-4.069 2.911.587 11.05-5.227 17.452-5.815 6.402-5.815-.587-7.56-.587a23.01 23.01 0 0 1-7.874-.539c-2.589-.402-5.163-1.118-6.667-2.364-3.49-2.912-5.815-4.657-10.455-5.236-4.641-.579-.579-5.236 2.332-9.884 2.912-4.649 3.491-4.657 4.07-9.884.579-5.228 8.718-5.815 8.718-5.815s3.49-1.745 10.455 0 5.236 5.228 11.05 6.434c5.815 1.206 5.236 7.52 1.158 10.423z" fill="#263238"/><path d="M155.46 225.261c-5.565 0-10.31-2.67-15.57-6.877-9.08-7.238-15.498-8.629-24.175-8.629-9.804 0-20.179-12-20.179-18.434 0-3.313-1.287-7.005-2.927-11.677a124.954 124.954 0 0 1-4.617-15.57c-2.002-9.201.33-11.195 2.799-13.303a9.413 9.413 0 0 0 3.032-3.796c1.078-2.686 1.263-7.238 1.464-12.063.233-5.526.466-11.26 2.026-15.281 2.936-7.632 19.302-14.476 19.994-14.766.185-.064 15.812-5.276 23.862-8.147 5.63-2.027 7.528-1.552 10.89-.684 2.024.549 4.082.965 6.16 1.247 8.718 1.158 12.064 1.158 19.069 0 7.817-1.303 16.422 1.608 22.454 7.673 6.201 6.2 9.12 8.589 13.327 11.589 4.206 3 8.887 11.87 8.887 20.106 0 7.938 1.101 11.412 6.932 21.907a21.727 21.727 0 0 1 2.944 8.332c.004.03.004.06 0 .089a67.884 67.884 0 0 1-1.279 7.19c-.33.804-.668 1.608-1.03 2.461-.587 1.359-1.198 2.758-1.769 4.351-1.472 4.118-4.52 6.353-7.471 8.509-2.952 2.155-5.912 4.327-7.054 8.332-2.276 7.962-9.779 17.693-16.084 18.32-1.118.113-2.51.177-4.11.258-6.82.338-17.123.852-25.985 5.509-4.367 2.324-8.139 3.346-11.59 3.354zm-7.825-129.154a18.549 18.549 0 0 0-6.201 1.383c-8.042 2.879-23.693 8.091-23.845 8.147-.153.056-16.713 6.989-19.528 14.3-1.512 3.924-1.745 9.57-1.97 15.039-.201 4.874-.394 9.482-1.52 12.297a10.09 10.09 0 0 1-3.257 4.11c-2.413 2.034-4.44 3.788-2.542 12.522a124.472 124.472 0 0 0 4.593 15.473c1.664 4.745 2.975 8.493 2.975 11.943 0 6.129 10.263 17.63 19.375 17.63 8.846 0 15.417 1.399 24.674 8.806 8.259 6.611 15.216 9.289 26.315 3.45 9.015-4.745 19.422-5.26 26.315-5.629 1.608-.081 2.967-.145 4.069-.258 5.348-.531 12.949-9.321 15.353-17.733 1.223-4.279 4.343-6.555 7.359-8.759 2.855-2.091 5.807-4.246 7.19-8.131.579-1.608 1.19-3.04 1.786-4.399.353-.804.699-1.608 1.005-2.413a68.057 68.057 0 0 0 1.246-7.005 21.139 21.139 0 0 0-2.847-7.978c-5.911-10.64-7.029-14.187-7.029-22.293 0-7.858-4.504-16.552-8.557-19.447-4.238-3.024-7.182-5.429-13.423-11.67-5.855-5.855-14.187-8.71-21.714-7.447-6.981 1.158-10.592 1.158-19.302 0a49.271 49.271 0 0 1-6.257-1.263 16.272 16.272 0 0 0-4.263-.675zm16.431 82.612h-.249c-1.207-.129-1.866-1.239-2.413-2.139-.322-.555-.66-1.134-.949-1.134a23.143 23.143 0 0 1-7.97-.547c-3.169-.499-5.477-1.319-6.828-2.413-3.378-2.815-5.686-4.568-10.262-5.139-1.215-.153-1.963-.579-2.293-1.295-.715-1.608.941-4.077 2.872-6.973.49-.732.989-1.48 1.455-2.236.467-.756.933-1.455 1.303-2.026 1.81-2.783 2.244-3.442 2.71-7.689.588-5.284 8.123-6.088 9.024-6.168.563-.25 4.094-1.609 10.664 0a11.016 11.016 0 0 1 6.265 3.643 7.569 7.569 0 0 0 4.77 2.75c2.412.491 4.021 1.906 4.495 4.022.539 2.517-.804 5.468-3.176 7.19-1.697 1.214-1.738 3.442-1.786 6.265-.056 3.361-.128 7.535-3.386 11.122-1.713 1.866-3.08 2.767-4.246 2.767zm-3.611-4.078c.804 0 1.222.74 1.689 1.528.466.789.965 1.657 1.777 1.746.812.088 2.204-.805 3.836-2.566 3.057-3.362 3.121-7.238 3.217-10.592.057-2.935.097-5.469 2.116-6.908 2.163-1.544 3.337-4.158 2.863-6.37-.378-1.753-1.754-2.951-3.869-3.378a8.355 8.355 0 0 1-5.195-2.983 10.188 10.188 0 0 0-5.871-3.418c-6.724-1.681-10.158-.049-10.19 0a.37.37 0 0 1-.153.04c-.08 0-7.817.627-8.348 5.461-.499 4.439-.989 5.195-2.839 8.042-.37.571-.804 1.23-1.295 2.019-.49.788-.973 1.52-1.471 2.26-1.609 2.469-3.338 5.018-2.807 6.192.201.435.764.716 1.665.805 4.825.595 7.181 2.412 10.672 5.316 1.238 1.037 3.418 1.801 6.434 2.284a22.75 22.75 0 0 0 7.769.538v-.016z" fill="#263238"/><path d="M142.504 169.469a15.198 15.198 0 0 0-7.021-2.574c-1.319-.16-1.922-.667-2.059-1.399a3066.891 3066.891 0 0 1-10.455 6.185 282.192 282.192 0 0 0-27.135 17.918c.073.571.11 1.146.113 1.721 0 2.55 1.672 5.936 4.262 9.08a180.431 180.431 0 0 1 5.63-4.117c6.932-4.906 21.787-16.109 36.665-26.814z" fill="#fff"/><path d="M100.201 200.802a.397.397 0 0 1-.305-.145c-2.767-3.353-4.36-6.763-4.36-9.337a13.692 13.692 0 0 0-.112-1.673.41.41 0 0 1 .16-.37 284.03 284.03 0 0 1 27.168-17.942c3.636-2.132 7.11-4.191 10.456-6.185a.378.378 0 0 1 .37 0 .412.412 0 0 1 .152.116c.04.051.068.11.081.173.072.386.329.909 1.721 1.086a15.552 15.552 0 0 1 7.182 2.63.397.397 0 0 1 0 .66c-7.986 5.734-15.804 11.5-22.696 16.591-5.775 4.263-10.761 7.946-13.994 10.23a250.513 250.513 0 0 0-5.63 4.11.42.42 0 0 1-.193.056zm-3.94-11.018c.057.51.087 1.023.088 1.536 0 2.284 1.464 5.453 3.933 8.525a189.396 189.396 0 0 1 5.308-3.892c3.217-2.276 8.211-5.96 13.986-10.214 6.755-4.995 14.396-10.633 22.221-16.254a14.672 14.672 0 0 0-6.354-2.188 2.694 2.694 0 0 1-2.227-1.206 1481.062 1481.062 0 0 1-10.045 5.935 283.525 283.525 0 0 0-26.91 17.758z" fill="#263238"/><path d="M114.757 144.093c19.382-14.91 31.309-24.601 50.668-32.797 9.023-3.82 19.02-7.479 27.65-10.752a26.476 26.476 0 0 0-9.925-3.025 231.87 231.87 0 0 0-7.294 2.59c-20.107 7.456-37.277 14.163-63.367 37.277a711.38 711.38 0 0 0-24.755 22.961c.143 1.224.347 2.44.612 3.643.217.982.442 1.923.675 2.847 5.63-6.192 13.415-13.262 25.736-22.744z" fill="#fff"/><path d="M89.022 167.242h-.097a.405.405 0 0 1-.297-.29 74.9 74.9 0 0 1-.668-2.863 33.08 33.08 0 0 1-.62-3.675.401.401 0 0 1 .121-.338c7.793-7.592 16.126-15.28 24.763-22.969 26.846-23.782 44.644-30.376 63.495-37.357a344.394 344.394 0 0 1 7.295-2.59.315.315 0 0 1 .169 0 27.036 27.036 0 0 1 10.085 3.072.397.397 0 0 1 .212.382.401.401 0 0 1-.26.35l-5.107 1.93c-7.496 2.815-15.281 5.727-22.519 8.847-18.015 7.616-29.444 16.431-46.743 29.757l-3.86 2.976c-11.573 8.895-19.72 16.085-25.656 22.688a.411.411 0 0 1-.313.08zm-.805-6.74c.121 1.046.314 2.164.58 3.402.16.724.321 1.424.49 2.108 5.92-6.434 13.97-13.552 25.253-22.23l3.861-2.984c17.347-13.374 28.808-22.213 46.919-29.869 7.303-3.089 15.064-6.008 22.568-8.847l4.262-1.608a26.115 26.115 0 0 0-8.895-2.558c-2.469.844-4.89 1.705-7.198 2.558-18.779 6.956-36.513 13.519-63.246 37.196-8.597 7.616-16.873 15.289-24.594 22.832z" fill="#263238"/><path d="M167.243 144.94a7.863 7.863 0 0 0 4.882 2.766 6.647 6.647 0 0 1 1.954.708l1.07-.587c10.6-5.742 29.323-15.683 43.132-23.91a23.005 23.005 0 0 0-4.134-5.896c-6.748 3.322-13.922 7.166-19.616 10.456-7.487 4.246-16.342 9.715-27.288 16.463z" fill="#fff"/><path d="M174.079 148.816a.407.407 0 0 1-.193-.049 6.176 6.176 0 0 0-1.842-.667 8.331 8.331 0 0 1-5.099-2.887.41.41 0 0 1-.047-.489.396.396 0 0 1 .128-.123l1.536-.949c10.407-6.434 18.626-11.476 25.736-15.562a402.252 402.252 0 0 1 19.639-10.455.395.395 0 0 1 .459.072 23.26 23.26 0 0 1 4.206 6.008.39.39 0 0 1 .028.292.39.39 0 0 1-.181.231c-11.557 6.892-26.467 14.927-37.357 20.798l-5.791 3.12-.804.451-.233.136a.444.444 0 0 1-.185.073zm-6.241-3.796a7.338 7.338 0 0 0 4.335 2.292 7.156 7.156 0 0 1 1.874.643h.04l.804-.458 5.783-3.129c10.785-5.806 25.51-13.744 36.995-20.572a23.138 23.138 0 0 0-3.683-5.268c-6.273 3.096-13.303 6.836-19.302 10.286-7.134 4.078-15.345 9.136-25.736 15.546l-1.11.66z" fill="#263238"/><path d="M142.343 206.723c12.675-11.927 35.041-15.659 62.627-29.822 10.994-5.629 19.616-9.988 25.736-13.31a27.423 27.423 0 0 0-2.163-4.825c-.226-.403-.427-.805-.636-1.159-17.557 6.29-48.761 20.501-69.165 31.229-11.983 6.306-23.154 14.477-32.065 21.811a31.569 31.569 0 0 1 7.801 3.451 31399 31399 0 0 0 7.865-7.375z" fill="#fff"/><path d="M134.478 214.49a.476.476 0 0 1-.209-.056 31.182 31.182 0 0 0-7.705-3.41.403.403 0 0 1-.267-.522.413.413 0 0 1 .122-.178 192.869 192.869 0 0 1 32.17-21.851c21.208-11.163 52.276-25.181 69.165-31.253a.406.406 0 0 1 .279.004.4.4 0 0 1 .212.181l.635 1.158a28.15 28.15 0 0 1 2.196 4.898.419.419 0 0 1-.193.482c-4.56 2.477-10.407 5.461-17.806 9.249l-7.938 4.021c-11.412 5.863-21.94 9.949-31.237 13.544-13.359 5.179-23.91 9.273-31.293 16.213a1260.832 1260.832 0 0 1-7.866 7.367.392.392 0 0 1-.265.153zm-6.965-4.021a32.402 32.402 0 0 1 6.917 3.12c2.396-2.235 4.943-4.621 7.64-7.157 7.495-7.062 18.112-11.171 31.55-16.383 9.273-3.595 19.785-7.664 31.165-13.511l7.938-4.062c7.238-3.699 12.98-6.643 17.492-9.08a28.598 28.598 0 0 0-2.034-4.447l-.467-.853c-16.994 6.121-47.74 20.01-68.779 31.084a191.774 191.774 0 0 0-31.422 21.289z" fill="#263238"/><path d="M154.109 212.366a1.6 1.6 0 0 1-1.23-.579 1.606 1.606 0 0 1 .201-2.259 25.853 25.853 0 0 1 7.697-4.295 1.608 1.608 0 0 1 .941 3.072 22.756 22.756 0 0 0-6.579 3.692 1.61 1.61 0 0 1-1.03.369zM181.767 197.336a1.61 1.61 0 0 1 2.14-2.139 25.894 25.894 0 0 1 7.149 5.139 1.622 1.622 0 0 1-.124 2.288 1.622 1.622 0 0 1-2.288-.124 22.412 22.412 0 0 0-6.137-4.391 1.615 1.615 0 0 1-.74-.773z" fill="#DBBE8F"/><path d="M197.386 191.826a1.606 1.606 0 0 1-.933-2.871 25.566 25.566 0 0 1 7.833-4.021 1.598 1.598 0 0 1 1.286.103c.196.105.367.249.505.423a1.62 1.62 0 0 1 .323 1.249 1.602 1.602 0 0 1-.698 1.085 1.6 1.6 0 0 1-.611.244 22.565 22.565 0 0 0-6.7 3.467c-.289.217-.643.33-1.005.321zM109.329 204.021a1.613 1.613 0 0 1 .931-1.588 1.608 1.608 0 0 1 1.812.325 25.565 25.565 0 0 1 4.922 7.302 1.611 1.611 0 0 1-2.119 2.042 1.611 1.611 0 0 1-.865-.843 22.85 22.85 0 0 0-4.222-6.249 1.607 1.607 0 0 1-.459-.989zM216.825 137.942a1.599 1.599 0 0 1 .474-1.279 1.627 1.627 0 0 1 1.138-.472 1.605 1.605 0 0 1 1.138.472 25.735 25.735 0 0 1 4.922 7.303 1.604 1.604 0 0 1-.873 2.138 1.598 1.598 0 0 1-1.254-.023 1.619 1.619 0 0 1-.856-.917 22.447 22.447 0 0 0-4.231-6.249 1.605 1.605 0 0 1-.458-.973zM117.17 156.263a1.607 1.607 0 0 1 1.888-1.71c.324.058.622.214.855.447a25.843 25.843 0 0 1 4.922 7.311 1.611 1.611 0 0 1-.912 2.045 1.61 1.61 0 0 1-2.072-.847 22.447 22.447 0 0 0-4.231-6.249 1.609 1.609 0 0 1-.45-.997zM98.914 130.905a1.607 1.607 0 0 1 2.743-1.262 25.965 25.965 0 0 1 4.922 7.31 1.611 1.611 0 0 1-2.119 2.042 1.611 1.611 0 0 1-.865-.843 22.458 22.458 0 0 0-4.23-6.249 1.611 1.611 0 0 1-.45-.998zM131.317 195.399a1.605 1.605 0 0 1-1.468-1.111 1.61 1.61 0 0 1 .535-1.761 25.566 25.566 0 0 1 7.833-4.021 1.615 1.615 0 0 1 1.791.527 1.608 1.608 0 0 1-.986 2.578 22.562 22.562 0 0 0-6.7 3.466 1.608 1.608 0 0 1-1.005.322zM170.323 125.322a1.616 1.616 0 0 1 .072-1.359 1.61 1.61 0 0 1 2.172-.667 25.835 25.835 0 0 1 6.876 5.517 1.604 1.604 0 0 1 .228 1.822 1.6 1.6 0 0 1-.983.8 1.602 1.602 0 0 1-1.258-.161 1.61 1.61 0 0 1-.48-.435 22.52 22.52 0 0 0-5.895-4.664 1.61 1.61 0 0 1-.732-.853zM194.829 109.215a1.617 1.617 0 0 1-.909-.324 1.615 1.615 0 0 1-.568-1.751c.095-.315.285-.592.544-.796a25.711 25.711 0 0 1 7.833-4.021 1.605 1.605 0 0 1 1.971 1.134 1.611 1.611 0 0 1-1.134 1.97 22.536 22.536 0 0 0-6.7 3.474 1.603 1.603 0 0 1-1.037.314zM120.187 139.574a1.604 1.604 0 0 1-1.468-1.11 1.61 1.61 0 0 1 .535-1.761 25.56 25.56 0 0 1 7.834-4.021 1.61 1.61 0 0 1 1.416 2.86 1.604 1.604 0 0 1-.612.244 22.565 22.565 0 0 0-6.7 3.467c-.287.22-.643.334-1.005.321z" fill="#fff"/><path d="M146.179 184.886a1.606 1.606 0 0 1 .319-1.813 1.612 1.612 0 0 1 1.813-.326 25.64 25.64 0 0 1 7.157 5.139 1.619 1.619 0 0 1-1.297 2.693 1.615 1.615 0 0 1-1.115-.537 22.645 22.645 0 0 0-6.145-4.384 1.646 1.646 0 0 1-.732-.772zM202.96 154.131a1.618 1.618 0 0 1 0-1.367 1.614 1.614 0 0 1 .902-.849 1.615 1.615 0 0 1 1.237.044 25.51 25.51 0 0 1 7.15 5.139 1.62 1.62 0 0 1 .251 1.78 1.593 1.593 0 0 1-.38.504 1.607 1.607 0 0 1-1.168.409 1.62 1.62 0 0 1-1.116-.537 22.488 22.488 0 0 0-6.136-4.383 1.613 1.613 0 0 1-.74-.74zM202.991 128.742a1.606 1.606 0 0 1-2.477-.642 1.61 1.61 0 0 1-.088-.967 25.663 25.663 0 0 1 3.402-8.131 1.612 1.612 0 0 1 2.285-.472 1.608 1.608 0 0 1 .353 2.306 22.67 22.67 0 0 0-2.895 6.965 1.608 1.608 0 0 1-.58.941zM145.496 136.238a1.606 1.606 0 0 1-2.343-.394 1.604 1.604 0 0 1-.222-1.207 25.723 25.723 0 0 1 3.394-8.123 1.608 1.608 0 1 1 2.638 1.834 22.547 22.547 0 0 0-2.888 6.965c-.083.364-.287.69-.579.925zM100.136 170.522a1.603 1.603 0 0 1-1.849.099 1.61 1.61 0 0 1-.717-1.707 25.658 25.658 0 0 1 3.402-8.123 1.608 1.608 0 0 1 2.638 1.834 22.69 22.69 0 0 0-2.895 6.964c-.078.37-.283.7-.579.933zM175.238 107.14a1.607 1.607 0 0 1 2.131-2.139 25.875 25.875 0 0 1 7.158 5.139 1.63 1.63 0 0 1 .411 1.17 1.605 1.605 0 0 1-.536 1.118 1.622 1.622 0 0 1-2.288-.124 22.657 22.657 0 0 0-6.136-4.392 1.604 1.604 0 0 1-.74-.772zM138.796 103.787a1.616 1.616 0 0 1 .319-1.814c.233-.233.531-.389.855-.448.324-.058.659-.015.958.122a25.899 25.899 0 0 1 7.158 5.14 1.623 1.623 0 0 1-.125 2.288 1.617 1.617 0 0 1-2.288-.125 22.829 22.829 0 0 0-6.137-4.391 1.617 1.617 0 0 1-.74-.772zM210.817 181.67a1.6 1.6 0 0 1 0-1.367 1.599 1.599 0 0 1 .902-.849 1.609 1.609 0 0 1 1.237.044 25.538 25.538 0 0 1 7.15 5.139 1.626 1.626 0 0 1-.125 2.289 1.62 1.62 0 0 1-2.288-.125 22.433 22.433 0 0 0-6.137-4.391 1.61 1.61 0 0 1-.739-.74zM186.834 163.518a1.614 1.614 0 0 1 1.359 0 1.605 1.605 0 0 1 .804 2.115 25.398 25.398 0 0 1-4.978 7.238 1.599 1.599 0 0 1-1.151.44 1.618 1.618 0 0 1-1.125-.504 1.61 1.61 0 0 1 .064-2.268 22.785 22.785 0 0 0 4.255-6.233c.156-.346.43-.625.772-.788zM120.17 114.225a1.603 1.603 0 0 1 1.821.277 1.6 1.6 0 0 1 .467.845 1.6 1.6 0 0 1-.101.961 25.804 25.804 0 0 1-4.986 7.238 1.611 1.611 0 0 1-2.225-.105 1.612 1.612 0 0 1 .013-2.227 22.8 22.8 0 0 0 4.255-6.233c.158-.331.425-.598.756-.756zM180.047 211.732a1.61 1.61 0 0 1 1.842.277 1.608 1.608 0 0 1 .345 1.83 25.825 25.825 0 0 1-4.986 7.238 1.611 1.611 0 0 1-2.225-.105 1.612 1.612 0 0 1 .013-2.227 22.8 22.8 0 0 0 4.255-6.233c.154-.34.421-.616.756-.78z" fill="#DBBE8F"/><path d="M156.41 81.283h-1.046a78.31 78.31 0 0 0-71.369 110.439l72.383-34.462.032-75.977z" fill="#fff"/><path opacity=".3" d="M166.117 74.633c4.101-6.08 6.056-10.455 6.989-14.766v-.144c.056-.274.112-.547.16-.805.049-.257.073-.402.105-.603l.121-.804c0-.21.056-.41.08-.62.024-.208.056-.546.089-.804.032-.257.04-.434.056-.651.016-.217 0-.547.056-.804.056-.258 0-.467.04-.7.041-.233 0-.539 0-.804V45.962c-.201-3.394-.667-9.193-.957-11.879-.547-5.09-1.488-19.35-4.278-23.323h-.065v42.754a1.569 1.569 0 0 1-3.104 0V25.01a47.626 47.626 0 0 0-2.204-14.331l-.41 1.817a47.945 47.945 0 0 0-1.166 10.456v30.56a1.56 1.56 0 0 1-3.096 0V24.337a47.837 47.837 0 0 0-1.826-13.061l-.169-.595-.305 1.19a47.491 47.491 0 0 0-1.488 11.806v29.838a1.565 1.565 0 0 1-1.548 1.366 1.56 1.56 0 0 1-1.549-1.366V10.68c-2.718 3.884-3.707 18.24-4.254 22.969-.33 2.863-.804 8.782-.989 12.24v1.601c.004.067.004.134 0 .201v.475c0 9.248-.925 17.21 6.538 26.323a19.846 19.846 0 0 1 3.909 11.766c0 11.517-.41 35.113-1.609 50.096-.571 6.893-1.568 13.865-2.485 19.399-.185 1.117-.37 2.179-.547 3.176v.145c-.152.853-.289 1.649-.426 2.413-.04.185-.072.37-.104.547l-.073.402c-.064.305-.121.611-.177.893a7.656 7.656 0 0 0-.137 1.648c0 .282 0 .555.065.805.07.548.2 1.087.386 1.608a7.94 7.94 0 0 0 1.198 2.163 7.742 7.742 0 0 0 6.072 2.952h1.528a7.711 7.711 0 0 0 6.072-2.952c.343-.437.639-.909.885-1.407a7.815 7.815 0 0 0 .635-4.817c-.056-.282-.12-.596-.177-.909l-.064-.33-.121-.676c-.056-.297-.112-.611-.168-.924 0-.113-.041-.218-.065-.322l-.145-.804v-.057c-.104-.595-.217-1.23-.329-1.882-.057-.329-.113-.675-.169-1.021-.949-5.63-2.003-12.868-2.59-20.018-1.23-14.983-2.26-38.604-1.608-50.096.313-8.541 2.445-10.061 3.418-11.654z" fill="#000"/><path d="M160.423 84.678c.451-8.461 2.574-9.99 3.547-11.573 7.52-11.14 7.841-16.48 7.841-26.54 0-1.93-.683-10.64-1.053-14.107-.547-5.091-1.488-19.35-4.279-23.323h-.064v42.842a1.57 1.57 0 0 1-3.105 0V23.475a47.54 47.54 0 0 0-2.203-14.324l-.41 1.817a47.884 47.884 0 0 0-1.167 10.456v30.553a1.564 1.564 0 0 1-1.552 1.344 1.567 1.567 0 0 1-1.552-1.344v-29.17A47.505 47.505 0 0 0 154.6 9.738l-.16-.587-.274 1.214a47.586 47.586 0 0 0-1.488 11.807v29.837a1.56 1.56 0 0 1-3.096 0V9.151c-2.751 3.876-3.74 18.24-4.263 22.929-.426 3.691-1.077 12.442-1.077 14.476 0 9.25-.917 17.22 6.546 26.323a19.84 19.84 0 0 1 3.909 11.766c0 11.517-.41 35.114-1.609 50.105a271.119 271.119 0 0 1-3.836 26.958 7.734 7.734 0 0 0 1.456 6.289 7.71 7.71 0 0 0 6.072 2.952h1.528a7.711 7.711 0 0 0 6.072-2.952 7.729 7.729 0 0 0 1.52-6.224 266.72 266.72 0 0 1-3.836-26.959c-1.231-15.023-2.268-38.636-1.641-50.136z" fill="#D9D9D9"/><path d="M158.308 171.319h-1.528a8.115 8.115 0 0 1-6.261-2.947 8.127 8.127 0 0 1-1.717-6.703 270.622 270.622 0 0 0 3.828-26.919c1.206-14.653 1.608-37.968 1.608-50.072a19.601 19.601 0 0 0-3.82-11.509c-6.804-8.316-6.731-15.86-6.651-23.846V46.59c0-2.027.66-10.85 1.086-14.517.08-.74.177-1.705.289-2.823.628-6.345 1.673-16.97 4.022-20.33a.4.4 0 0 1 .731.232v42.826a1.172 1.172 0 0 0 1.147.95 1.166 1.166 0 0 0 1.146-.95V22.14c0-4.015.505-8.014 1.504-11.903l.297-1.19a.397.397 0 0 1 .386-.298.419.419 0 0 1 .394.29l.169.587a48.088 48.088 0 0 1 1.842 13.181v29.17a1.165 1.165 0 0 0 2.292 0v-30.52c0-3.559.393-7.106 1.174-10.577l.41-1.817a.402.402 0 0 1 .378-.314.387.387 0 0 1 .402.282 48.065 48.065 0 0 1 2.22 14.476v28.47a1.166 1.166 0 0 0 2.3 0V9.151a.404.404 0 0 1 .402-.402.54.54 0 0 1 .394.17c2.413 3.506 3.475 14.363 4.086 20.853a167.3 167.3 0 0 0 .265 2.662c.354 3.338 1.054 12.169 1.054 14.155 0 10.142-.338 15.514-7.914 26.741-.145.233-.321.475-.514.748-1.03 1.416-2.582 3.555-2.96 10.624-.603 11.26.378 34.736 1.608 50.048a265.642 265.642 0 0 0 3.829 26.919 8.127 8.127 0 0 1-4.524 8.879 8.112 8.112 0 0 1-3.463.771h.089zm-9.16-160.535c-1.746 4.246-2.646 13.367-3.161 18.546-.113 1.126-.201 2.099-.29 2.83-.418 3.66-1.077 12.418-1.077 14.429v2.742c-.081 8.18-.153 15.281 6.434 23.324a20.107 20.107 0 0 1 4.021 12.063c0 12.12-.443 35.459-1.609 50.137a268.613 268.613 0 0 1-3.844 27.007 7.329 7.329 0 0 0 4.074 7.994 7.333 7.333 0 0 0 3.116.699h1.528a7.309 7.309 0 0 0 5.642-2.654 7.339 7.339 0 0 0 1.449-2.847 7.303 7.303 0 0 0 .099-3.192 271.245 271.245 0 0 1-3.836-27.007c-1.263-15.337-2.244-38.877-1.609-50.153.386-7.31 2.027-9.562 3.113-11.058.176-.23.34-.469.49-.716 7.456-11.034 7.785-16.326 7.785-26.299 0-1.962-.699-10.745-1.053-14.066-.073-.724-.161-1.609-.258-2.678-.506-5.389-1.407-14.96-3.281-19.246v41.338a1.96 1.96 0 0 1-1.954 1.785 1.964 1.964 0 0 1-1.954-1.785V23.475c0-4.303-.587-8.587-1.746-12.731l-.072.305a47.138 47.138 0 0 0-1.158 10.407v30.521a1.964 1.964 0 0 1-3.259 1.245 1.964 1.964 0 0 1-.642-1.245v-29.17a47.3 47.3 0 0 0-1.608-12.063 47.257 47.257 0 0 0-1.408 11.436v29.838a1.963 1.963 0 0 1-3.9 0l-.032-41.234z" fill="#263238"/><path d="M170.967 58.331c.804-3.603.844-7.19.844-11.742v-1.512c0-.217 0-.442-.04-.683h-5.3v7.624a1.57 1.57 0 0 1-3.105 0v-7.665h-3.78v7.625a1.563 1.563 0 0 1-1.552 1.344 1.567 1.567 0 0 1-1.552-1.344v-7.625h-3.78v7.625a1.56 1.56 0 0 1-3.096 0v-7.625h-5.244V46.55c-.055 4 .241 7.996.885 11.943a30.32 30.32 0 0 0 25.72-.16z" fill="#263238"/><path d="M157.825 61.718a30.56 30.56 0 0 1-12.868-2.823.414.414 0 0 1-.225-.29 68.283 68.283 0 0 1-.917-12.047v-.386l.08-1.874a.412.412 0 0 1 .403-.378h5.243a.382.382 0 0 1 .282.12.408.408 0 0 1 .12.282v7.624a1.172 1.172 0 0 0 1.146.95 1.167 1.167 0 0 0 1.146-.95v-7.592a.404.404 0 0 1 .403-.402h3.788a.402.402 0 0 1 .402.402v7.624a1.165 1.165 0 0 0 2.292 0v-7.624a.4.4 0 0 1 .402-.402h3.78a.4.4 0 0 1 .402.402v7.624a1.166 1.166 0 0 0 2.3 0v-7.624a.404.404 0 0 1 .402-.402h5.3a.41.41 0 0 1 .402.378l.089 1.842v.418c0 4.456-.065 8.155-.853 11.822a.402.402 0 0 1-.225.282 31.058 31.058 0 0 1-13.294 3.024zm-12.369-3.458a30.052 30.052 0 0 0 25.156-.21c.66-3.782.93-7.622.805-11.46v-.362l-.065-1.472h-4.519v7.239a1.964 1.964 0 0 1-3.909 0v-7.239h-2.976v7.239a1.96 1.96 0 0 1-1.95 1.745 1.963 1.963 0 0 1-1.95-1.745v-7.239h-2.984v7.239a1.964 1.964 0 0 1-3.259 1.245 1.964 1.964 0 0 1-.642-1.245v-7.239h-4.455l-.065 1.424v.41c-.064 3.906.208 7.81.813 11.67z" fill="#263238"/><path opacity=".3" d="M190.421 149.686a7.622 7.622 0 0 0-.643-2.557l-.611-1.392a7.734 7.734 0 0 0-5.155-4.367 11.57 11.57 0 0 0-.805-.161 7.67 7.67 0 0 0-2.461.041c-.271.048-.54.113-.804.193a7.664 7.664 0 0 0-2.228 1.061h-.048l-.708.491-.297.201-.515.354-.804.563-.266.177-.683.466h-.048l-2.461 1.609c-4.754 3.136-10.954 7.029-17.26 10.455-7.761 4.222-18.272 9.586-27.81 14.114l-11.26 5.156-8.034 3.731-60.4 27.586s-10.575 4.986-1.318 8.999c0 0 9.289 3.378 31.888-4.745 12.868-4.632 31.245-12.562 33.216-13.752a4.612 4.612 0 0 0 2.613-3.957c.21-1.649-.619-8.461 3.644-12.217l.354-.305c11.46-4.93 28.767-12.064 40.735-16.246 6.53-2.268 13.31-4.174 18.739-5.573l3.128-.805h.137l2.34-.563.595-.144.346-.081.925-.217a7.727 7.727 0 0 0 5.959-8.091v-.024z" fill="#000"/><path d="M176.476 140.968a269.286 269.286 0 0 1-23.114 14.412c-7.769 4.223-18.281 9.587-27.819 14.123l-79.62 36.36s-10.576 4.986-1.32 8.999c0 0 9.29 3.378 31.897-4.745 12.868-4.632 31.237-12.562 33.215-13.744a4.65 4.65 0 0 0 2.614-3.965c.201-1.649-.627-8.461 3.643-12.217l.354-.297c11.453-4.938 28.76-12.064 40.727-16.254a270.893 270.893 0 0 1 26.211-7.399 7.716 7.716 0 0 0 5.083-3.901 7.744 7.744 0 0 0 .241-6.747l-.619-1.392a7.74 7.74 0 0 0-11.461-3.217l-.032-.016z" fill="#D9D9D9"/><path d="M50.708 215.981a19.899 19.899 0 0 1-6.273-.74c-2.678-1.158-4.022-2.534-4.022-4.102-.048-3.056 5.132-5.533 5.349-5.63l79.668-36.368c9.088-4.318 19.736-9.723 27.787-14.106 7.916-4.4 15.604-9.2 23.034-14.38a8.126 8.126 0 0 1 12.063 3.402l.62 1.391a8.132 8.132 0 0 1-2.423 9.678 8.11 8.11 0 0 1-3.207 1.525 269.424 269.424 0 0 0-26.17 7.392c-11.461 3.981-28.503 10.977-40.647 16.213l-.298.257c-3.385 2.984-3.434 7.954-3.466 10.625.01.445-.007.891-.048 1.335a5.023 5.023 0 0 1-2.807 4.262c-2.002 1.198-20.355 9.136-33.28 13.777-12.393 4.447-20.79 5.469-25.88 5.469zm125.977-74.683a268.384 268.384 0 0 1-23.146 14.437c-8.043 4.383-18.731 9.803-27.835 14.13l-79.669 36.36c-1.367.652-4.914 2.791-4.882 4.906 0 1.215 1.215 2.349 3.555 3.37.073 0 9.45 3.217 31.599-4.761 12.868-4.633 31.156-12.522 33.143-13.672a4.239 4.239 0 0 0 2.413-3.668c.034-.414.048-.83.04-1.246 0-2.598.08-8.003 3.74-11.26l.362-.313a.358.358 0 0 1 .096-.057c12.16-5.243 29.25-12.265 40.759-16.262a269.347 269.347 0 0 1 26.259-7.407 7.333 7.333 0 0 0 4.893-3.861 7.324 7.324 0 0 0 .149-6.232l-.619-1.399a7.328 7.328 0 0 0-1.896-2.571 7.334 7.334 0 0 0-6.001-1.693 7.327 7.327 0 0 0-2.96 1.199z" fill="#263238"/><path d="m114.26 174.658-7.954 3.627a39.823 39.823 0 0 1 5.356 16.254 5.411 5.411 0 0 0 .635-2.131c.201-1.649-.627-8.461 3.644-12.217l.353-.297.234-.105-2.268-5.131z" fill="#263238"/><path d="M111.661 194.942h-.121a.408.408 0 0 1-.313-.362 39.316 39.316 0 0 0-5.3-16.085.415.415 0 0 1-.04-.33.394.394 0 0 1 .217-.241l7.954-3.635a.401.401 0 0 1 .539.209l2.268 5.131a.41.41 0 0 1-.08.441.404.404 0 0 1-.13.09l-.185.08-.297.258c-3.386 2.983-3.434 7.954-3.466 10.624.009.445-.007.891-.049 1.335a5.733 5.733 0 0 1-.683 2.284.385.385 0 0 1-.314.201zm-4.825-16.471a40.496 40.496 0 0 1 4.97 14.227c0-.102.016-.214.048-.338.035-.414.048-.83.04-1.246 0-2.598.081-8.003 3.74-11.26l.33-.289-1.946-4.416-7.182 3.322z" fill="#263238"/><path d="M79 166.375 135.455 223 286 72" stroke="#29B067" stroke-width="21" stroke-linecap="round" stroke-linejoin="round"/></svg>