<svg width="20" height="24" fill="none" xmlns="http://www.w3.org/2000/svg"><path d="m11.538 11.573-.123.656a12.652 12.652 0 0 1-1.156 3.43c-1.702 3.324-3.371 2.778-3.448 2.754a.25.25 0 0 1-.09-.152l-1.248-6.615c.696-.023 4.774-.15 6.065-.073zM12.175 10.528l-.111.69a.318.318 0 0 1-.135.21.344.344 0 0 1-.08.04c-.784-.134-5.692.021-6.407.045v-.008l-.058.011h-.02l-.054.01a.363.363 0 0 1-.055 0 .325.325 0 0 1-.277-.16.32.32 0 0 1-.042-.123l-.086-.696a.323.323 0 0 1 .27-.357l.277-.047c.633-.021 4.98-.134 6.171-.044.114.016.227.034.34.052a.328.328 0 0 1 .267.377zM11.35 8.62l-.269-2.214h.05a.404.404 0 0 1 .404.354l.117.942a1.12 1.12 0 0 1-.302.918z" fill="#292D32"/><path d="M11.217 8.756c-.412.353-.883.63-1.393.817-.538.196-3.853.503-4.145.646l-.083-.673a.455.455 0 0 1 .393-.497c1.728-.28 3.48-.378 5.228-.293z" fill="#292D32"/><path d="M6.968 24H1.211l-.007-.007a3.499 3.499 0 0 1 3.5-3.492h2.294c4.668 0 8.567-3.708 8.634-8.375a8.51 8.51 0 0 0-8.5-8.627H4.691A3.5 3.5 0 0 1 1.199.007L1.21 0h5.921a12.014 12.014 0 0 1 12 12.112C19.067 18.722 13.579 24 6.968 24z" fill="#292D32"/><path d="M6.288 18.46H1.934A1.933 1.933 0 0 1 0 16.529v-.11h5.893l.362 1.92a.592.592 0 0 0 .033.123zM5.829 16.076H.966A.968.968 0 0 1 0 15.11v-.107a.968.968 0 0 1 .966-.966h4.478l.385 2.039zM5.383 13.69H0v-.107a1.933 1.933 0 0 1 1.934-1.933h2.665a.762.762 0 0 0 .446.327v.025h.013l.325 1.687z" fill="#292D32"/></svg>