<svg width="20" height="20" fill="none" xmlns="http://www.w3.org/2000/svg"><path d="M7.5 15.733a6.24 6.24 0 0 0 2.5.517c3.45 0 6.25-2.8 6.25-6.25a6.24 6.24 0 0 0-.517-2.5M14.342 5.5a6.252 6.252 0 0 0-8.858 8.825M10 3.333V1.666M3.333 10H1.667M10 16.666v1.667M16.667 10h1.666" stroke="#292D32" stroke-width="1.5" stroke-linecap="round" stroke-linejoin="round"/><path d="m11.767 8.233-3.534 3.534a2.497 2.497 0 1 1 3.533-3.533zM18.333 1.666 1.667 18.333" stroke="#292D32" stroke-width="1.5" stroke-linecap="round" stroke-linejoin="round"/></svg>