<svg width="20" height="20" viewBox="0 0 20 20" fill="none" xmlns="http://www.w3.org/2000/svg">
<path d="M7.5 15.7333C8.26667 16.0667 9.10833 16.25 10 16.25C13.45 16.25 16.25 13.45 16.25 10C16.25 9.10833 16.0667 8.26667 15.7333 7.5" stroke="#292D32" stroke-width="1.5" stroke-linecap="round" stroke-linejoin="round"/>
<path d="M14.3417 5.5C13.2167 4.41667 11.6833 3.75 10 3.75C6.55 3.75 3.75 6.55 3.75 10C3.75 11.675 4.40833 13.2 5.48333 14.325" stroke="#292D32" stroke-width="1.5" stroke-linecap="round" stroke-linejoin="round"/>
<path d="M10 3.33268V1.66602" stroke="#292D32" stroke-width="1.5" stroke-linecap="round" stroke-linejoin="round"/>
<path d="M3.33341 10H1.66675" stroke="#292D32" stroke-width="1.5" stroke-linecap="round" stroke-linejoin="round"/>
<path d="M10 16.666V18.3327" stroke="#292D32" stroke-width="1.5" stroke-linecap="round" stroke-linejoin="round"/>
<path d="M16.6667 10H18.3334" stroke="#292D32" stroke-width="1.5" stroke-linecap="round" stroke-linejoin="round"/>
<path d="M11.7667 8.23333L8.23333 11.7667C7.78333 11.3167 7.5 10.6917 7.5 10C7.5 8.61667 8.61667 7.5 10 7.5C10.6917 7.5 11.3167 7.78333 11.7667 8.23333Z" stroke="#292D32" stroke-width="1.5" stroke-linecap="round" stroke-linejoin="round"/>
<path d="M18.3334 1.66602L1.66675 18.3327" stroke="#292D32" stroke-width="1.5" stroke-linecap="round" stroke-linejoin="round"/>
</svg>
