<svg width="45" height="45" fill="none" xmlns="http://www.w3.org/2000/svg"><path d="M17.175 20.381a3.399 3.399 0 0 0-.619 0c-4.462-.15-8.006-3.806-8.006-8.306a8.318 8.318 0 0 1 8.325-8.325c4.594 0 8.325 3.731 8.325 8.325-.019 4.5-3.563 8.156-8.025 8.306zM30.769 7.5a6.558 6.558 0 0 1 6.562 6.563 6.572 6.572 0 0 1-6.319 6.562 2.123 2.123 0 0 0-.487 0M7.8 27.3c-4.537 3.037-4.537 7.988 0 11.006 5.156 3.45 13.613 3.45 18.769 0 4.537-3.037 4.537-7.987 0-11.006-5.138-3.431-13.594-3.431-18.769 0zM34.388 37.5c1.35-.281 2.624-.825 3.674-1.631 2.925-2.194 2.925-5.813 0-8.006-1.03-.788-2.287-1.313-3.618-1.613" stroke="#292D32" stroke-width="3" stroke-linecap="round" stroke-linejoin="round"/></svg>